<svg width="8" height="37" viewBox="0 0 8 37" fill="none" xmlns="http://www.w3.org/2000/svg">
<path d="M7.70667 0.189453L6.93333 25.1276H0.986667L0.213333 0.189453H7.70667ZM0 32.8122C0 31.8495 0.355556 31.0419 1.06667 30.3893C1.79556 29.7204 2.77333 29.3859 4 29.3859C5.22667 29.3859 6.19556 29.7204 6.90667 30.3893C7.63556 31.0419 8 31.8495 8 32.8122C8 33.7585 7.63556 34.5579 6.90667 35.2105C6.19556 35.8631 5.22667 36.1895 4 36.1895C2.77333 36.1895 1.79556 35.8631 1.06667 35.2105C0.355556 34.5579 0 33.7585 0 32.8122Z" fill="#FF9326"/>
</svg>
