<svg width="36" height="35" viewBox="0 0 36 35" fill="none" xmlns="http://www.w3.org/2000/svg">
<g clip-path="url(#clip0_1_148)">
<path d="M5.40138 25.0174H1.90186C0.935938 25.0184 0.153125 25.7788 0.1521 26.7172V34.0828C0.1521 34.3957 0.413197 34.6494 0.73533 34.6494H6.56784C6.88998 34.6494 7.15107 34.3957 7.15107 34.0828V26.7172C7.15005 25.7788 6.3673 25.0185 5.40138 25.0174ZM5.98461 33.5162H1.31856V26.7172C1.31897 26.4044 1.57986 26.151 1.90179 26.1506H5.40131C5.72324 26.151 5.98413 26.4044 5.98454 26.7172L5.98461 33.5162Z" fill="#E6001E"/>
<path d="M14.7334 17.0858H11.2339C10.268 17.0868 9.48516 17.8472 9.48413 18.7855V34.0834C9.48413 34.3964 9.74523 34.65 10.0674 34.65H15.8999C16.222 34.65 16.4831 34.3964 16.4831 34.0834V18.7855C16.4821 17.8471 15.6993 17.0868 14.7334 17.0858ZM15.3166 33.5168H10.6506V18.7855C10.651 18.4728 10.9119 18.2194 11.2338 18.219H14.7333C15.0553 18.2194 15.3162 18.4728 15.3166 18.7855L15.3166 33.5168Z" fill="#E6001E"/>
<path d="M24.0654 20.4861H20.5659C19.6 20.4871 18.8172 21.2476 18.8162 22.1859V34.0843C18.8162 34.3972 19.0773 34.6509 19.3994 34.6509H25.2319C25.554 34.6509 25.8151 34.3972 25.8151 34.0843V22.1859C25.8142 21.2475 25.0314 20.4871 24.0654 20.4861ZM24.6487 33.5177H19.9827V22.1859C19.9831 21.8732 20.244 21.6197 20.5659 21.6193H24.0654C24.3874 21.6197 24.6483 21.8732 24.6487 22.1859L24.6487 33.5177Z" fill="#E6001E"/>
<path d="M33.3977 15.9529H29.8982C28.9323 15.9539 28.1495 16.7144 28.1484 17.6527V34.0838C28.1484 34.3967 28.4095 34.6504 28.7317 34.6504H34.5642C34.8863 34.6504 35.1474 34.3967 35.1474 34.0838V17.6527C35.1464 16.7144 34.3636 15.9539 33.3977 15.9529ZM33.981 33.5172H29.3149V17.6527C29.3153 17.34 29.5762 17.0865 29.8981 17.0861H33.3977C33.7196 17.0865 33.9805 17.34 33.9809 17.6527V33.5172H33.981Z" fill="#E6001E"/>
<path d="M29.0357 7.44198C30.1042 8.6103 31.8554 8.91985 33.2791 8.192C34.7027 7.46416 35.4316 5.88669 35.0452 4.36958C34.6589 2.85247 33.2569 1.7872 31.6481 1.78813C30.4802 1.78726 29.3889 2.35284 28.7393 3.29574C28.0897 4.23865 27.9677 5.43433 28.4139 6.48281L24.9285 8.59922C24.3014 7.90862 23.4115 7.49616 22.4644 7.45699C21.5173 7.41781 20.5946 7.75544 19.9094 8.39179L16.0919 5.61048C16.899 4.09404 16.423 2.23133 14.9796 1.25755C13.5362 0.283767 11.5732 0.501019 10.3923 1.76529C9.2114 3.02956 9.179 4.94857 10.3165 6.24975L5.42665 11.8947C3.8587 10.9985 1.84531 11.4188 0.794843 12.8617C-0.255629 14.3046 0.00710854 16.2887 1.3994 17.4263C2.79169 18.5639 4.84896 18.4755 6.13237 17.2229C7.41577 15.9703 7.49711 13.9713 6.31951 12.6242L11.2094 6.97926C12.552 7.75511 14.2625 7.56561 15.3909 6.516L19.2083 9.29732C18.4654 10.6953 18.8073 12.406 20.0348 13.4323C21.2623 14.4587 23.0545 14.5324 24.367 13.6105C25.6794 12.6887 26.169 11.0123 25.5504 9.55826L29.0357 7.44198ZM31.6481 2.92133C32.9366 2.92133 33.9811 3.93601 33.9811 5.18766C33.9796 6.43872 32.936 7.4526 31.6481 7.454C30.3597 7.454 29.3151 6.43932 29.3151 5.18766C29.3151 3.93601 30.3596 2.92133 31.6481 2.92133ZM3.65194 17.0861C2.36348 17.0861 1.31895 16.0714 1.31895 14.8198C1.31895 13.5681 2.36348 12.5534 3.65194 12.5534C4.94041 12.5534 5.98493 13.5681 5.98493 14.8198C5.98343 16.0708 4.93979 17.0846 3.65194 17.0861ZM12.984 6.32086C11.6955 6.32086 10.651 5.30618 10.651 4.05453C10.651 2.80288 11.6955 1.78819 12.984 1.78819C14.2724 1.78819 15.317 2.80288 15.317 4.05453C15.3155 5.30558 14.2718 6.31947 12.984 6.32086ZM22.316 13.1199C21.0275 13.1199 19.983 12.1053 19.983 10.8536C19.983 9.60195 21.0275 8.58726 22.316 8.58726C23.6045 8.58726 24.649 9.60195 24.649 10.8536C24.6476 12.1047 23.6039 13.1185 22.316 13.1199Z" fill="#E6001E"/>
</g>
<defs>
<clipPath id="clip0_1_148">
<rect width="35" height="34" fill="white" transform="translate(0.149902 0.650391)"/>
</clipPath>
</defs>
</svg>
