<svg width="529" height="391" viewBox="0 0 529 391" fill="none" xmlns="http://www.w3.org/2000/svg">
<rect y="0.189453" width="529" height="390" rx="20" fill="#FAF9F6"/>
<path d="M310.746 255.922C341.811 224.859 341.811 174.496 310.746 143.434C279.68 112.371 229.314 112.371 198.249 143.434C167.183 174.496 167.183 224.859 198.249 255.922C229.314 286.985 279.68 286.985 310.746 255.922Z" fill="white"/>
<path d="M254.505 279.897C210.267 279.897 174.276 243.91 174.276 199.675C174.276 155.44 210.267 119.453 254.505 119.453C298.743 119.453 334.733 155.44 334.733 199.675C334.733 243.91 298.743 279.897 254.505 279.897ZM254.505 120.813C211.017 120.813 175.637 156.19 175.637 199.675C175.637 243.16 211.017 278.537 254.505 278.537C297.993 278.537 333.373 243.16 333.373 199.675C333.373 156.19 297.993 120.813 254.505 120.813Z" fill="#A78FE6"/>
<path d="M254.505 224.365C229.872 224.365 209.831 207.947 209.831 187.766C209.831 167.585 229.872 151.167 254.505 151.167C279.139 151.167 299.179 167.585 299.179 187.766C299.179 207.947 279.139 224.365 254.505 224.365ZM254.505 152.527C230.622 152.527 211.191 168.335 211.191 187.766C211.191 207.197 230.622 223.004 254.505 223.004C278.388 223.004 297.819 207.197 297.819 187.766C297.819 168.335 278.388 152.527 254.505 152.527Z" fill="#A78FE6"/>
<path d="M210.259 205.341H204.828C204.062 205.341 203.441 204.721 203.441 203.955V173.558C203.441 172.792 204.062 172.171 204.828 172.171H210.259C211.025 172.171 211.645 172.792 211.645 173.558V203.955C211.645 204.721 211.025 205.341 210.259 205.341Z" fill="#494949"/>
<path d="M303.819 205.341H298.389C297.623 205.341 297.002 204.721 297.002 203.955V173.558C297.002 172.792 297.623 172.171 298.389 172.171H303.819C304.585 172.171 305.206 172.792 305.206 173.558V203.955C305.206 204.721 304.585 205.341 303.819 205.341Z" fill="#494949"/>
<path d="M279.802 196.241H229.208C228.244 196.241 227.463 195.46 227.463 194.496V181.036C227.463 180.072 228.245 179.291 229.208 179.291H279.802C280.766 179.291 281.547 180.072 281.547 181.036V194.496C281.547 195.46 280.766 196.241 279.802 196.241Z" fill="#A78FE6"/>
<path d="M207.201 177.436C207.172 177.436 207.142 177.434 207.112 177.43C206.74 177.382 206.478 177.04 206.526 176.667C209.274 155.77 229.79 140.012 254.249 140.012C265.744 140.012 276.866 143.563 285.566 150.01C294.199 156.409 299.926 165.241 301.69 174.879C301.758 175.249 301.513 175.603 301.143 175.671C300.777 175.739 300.42 175.494 300.352 175.124C296.772 155.567 277.383 141.372 254.249 141.372C230.47 141.372 210.533 156.622 207.875 176.845C207.831 177.187 207.538 177.436 207.201 177.436Z" fill="#494949"/>
<path d="M240.944 191.666C243.098 191.666 244.845 189.92 244.845 187.766C244.845 185.612 243.098 183.865 240.944 183.865C238.789 183.865 237.043 185.612 237.043 187.766C237.043 189.92 238.789 191.666 240.944 191.666Z" fill="white"/>
<path d="M268.067 191.666C270.221 191.666 271.968 189.92 271.968 187.766C271.968 185.612 270.221 183.865 268.067 183.865C265.912 183.865 264.166 185.612 264.166 187.766C264.166 189.92 265.912 191.666 268.067 191.666Z" fill="white"/>
<path d="M254.504 259.781C237.56 259.781 221.302 252.543 209.902 239.922C209.737 239.74 209.684 239.484 209.762 239.251C211.611 233.703 216.779 229.975 222.624 229.975H287.884C293.213 229.975 298.07 233.124 300.256 237.997C300.364 238.237 300.323 238.518 300.152 238.718C288.684 252.104 272.046 259.781 254.504 259.781ZM211.182 239.309C222.311 251.46 238.078 258.421 254.504 258.421C271.503 258.421 287.633 251.044 298.832 238.165C296.786 234.002 292.535 231.335 287.884 231.335H222.624C217.498 231.335 212.949 234.523 211.182 239.309Z" fill="#A78FE6"/>
<path d="M266.053 291.444C265.677 291.444 265.373 291.14 265.373 290.764C265.373 290.389 265.677 290.084 266.053 290.084C309.541 290.084 344.921 254.707 344.921 211.222C344.921 210.847 345.225 210.542 345.601 210.542C345.977 210.542 346.281 210.847 346.281 211.222C346.281 255.457 310.291 291.444 266.053 291.444Z" fill="#A78FE6"/>
<path d="M163.409 188.808C163.033 188.808 162.729 188.503 162.729 188.128C162.729 143.893 198.719 107.905 242.957 107.905C243.333 107.905 243.637 108.21 243.637 108.585C243.637 108.961 243.333 109.265 242.957 109.265C199.469 109.265 164.089 144.643 164.089 188.128C164.089 188.503 163.785 188.808 163.409 188.808Z" fill="#A78FE6"/>
<path d="M363.47 109.681C356.649 102.049 354.942 92.7494 356.575 83.2666C358.554 71.7681 365.983 64.3668 377.442 61.2971C379.336 60.7898 381.303 60.552 383.236 60.1895C407.718 60.2058 432.201 60.2206 456.684 60.24C470.719 60.2512 482.496 70.2846 484.647 84.0471C486.126 93.5041 484.185 102.089 477.558 109.189C473.092 113.974 467.567 117.069 460.805 117.465C459.885 117.801 458.929 117.635 457.992 117.635C439.495 117.647 420.998 117.64 402.5 117.654C401.568 117.655 400.606 117.449 399.701 117.864C396.085 119.438 393.188 122.096 389.995 124.298C386.027 127.035 382.203 129.98 378.296 132.807C376.841 133.86 377.115 132.479 376.926 131.78C376.58 127.941 376.878 124.093 376.758 120.252C376.729 119.333 377.027 118.37 376.494 117.495C371.501 115.967 366.886 113.814 363.47 109.681Z" fill="#96C0BE"/>
<path d="M419.966 89.0535C420.053 86.5971 422.202 84.5263 424.656 84.5342C427.062 84.5421 429.29 86.9367 429.234 89.4571C429.177 92.0656 426.998 94.1805 424.418 94.1326C422.077 94.0889 419.876 91.578 419.966 89.0535Z" fill="#F7F6F3"/>
<path d="M409.645 89.475C409.618 92.2424 407.806 93.9502 404.897 93.9502C402.701 93.9502 400.297 91.4601 400.355 89.2449C400.411 87.0648 402.903 84.4582 404.978 84.5136C407.106 84.5702 410.129 86.4188 409.645 89.475Z" fill="#F6F6F2"/>
<path d="M385.655 93.7601C382.448 94.1821 380.833 91.2001 380.768 89.3156C380.684 86.9108 383.294 84.6011 385.913 84.5797C387.995 84.5626 390.365 87.1746 390.338 89.4557C390.307 91.9809 388.4 93.7341 385.655 93.7601Z" fill="#F7F6F3"/>
<path d="M443.242 92.156C441.1 92.1448 440.173 91.3217 440.114 89.5137C440.056 87.7891 441.141 86.8075 442.553 86.7483C444.19 86.6797 445.629 87.7278 445.717 89.4835C445.802 91.189 444.463 91.9328 443.242 92.156Z" fill="#EFF7F5"/>
<path d="M461.901 89.5838C461.565 90.9341 460.793 92.1111 459.205 92.0384C457.681 91.9687 456.71 90.9374 456.731 89.3381C456.751 87.808 457.68 86.9318 459.188 87.0282C460.631 87.1206 461.859 87.7059 461.901 89.5838Z" fill="#ECF6F4"/>
<g clip-path="url(#clip0_1035_7480)">
<path d="M406.678 289V237L453 263L406.678 289ZM408.92 240.773V285.227L448.517 263L408.92 240.773Z" fill="#343442"/>
<path d="M388 289V237L434.322 263L388 289ZM390.241 240.773V285.227L429.839 263L390.241 240.773Z" fill="#343442"/>
</g>
<defs>
<clipPath id="clip0_1035_7480">
<rect width="65" height="52" fill="white" transform="translate(388 237)"/>
</clipPath>
</defs>
</svg>
