<svg width="25" height="26" viewBox="0 0 25 26" fill="none" xmlns="http://www.w3.org/2000/svg">
<path d="M19.4286 16V9.33335C19.4286 4.73081 15.8043 1 11.3333 1C6.86233 1 3.23811 4.73081 3.23811 9.33335V16L0 22.6667H7.36747C7.74229 24.5683 9.3751 26 11.3333 26C13.2915 26 14.9244 24.5683 15.2992 22.6667H22.6666L19.4286 16ZM11.3333 24.3333C10.2777 24.3333 9.38806 23.6358 9.05369 22.6667H13.6137C13.2786 23.6358 12.3889 24.3333 11.3333 24.3333ZM2.42859 21L4.85714 16V9.33335C4.85714 5.65168 7.75684 2.66669 11.3333 2.66669C14.9098 2.66669 17.8095 5.65168 17.8095 9.33335V16L20.2381 21H2.42859V21Z" fill="#090B12"/>
<circle cx="18.2147" cy="6.3571" r="4.92857" fill="#E6001E" stroke="white" stroke-width="2"/>
</svg>
