<svg width="602" height="810" viewBox="0 0 602 810" fill="none" xmlns="http://www.w3.org/2000/svg">
<rect width="602" height="810" rx="20" fill="#FAF9F6"/>
<line x1="35" y1="120" x2="35" y2="746" stroke="#E6001E" stroke-width="2"/>
<circle cx="33.5" cy="122.5" r="8.5" fill="#E6001E"/>
<circle cx="35.5" cy="285.5" r="8.5" fill="#E6001E"/>
<circle cx="33.5" cy="417.5" r="8.5" fill="#E6001E"/>
<circle cx="35.5" cy="739.5" r="8.5" fill="#E6001E"/>
<path d="M277.137 264.91C280.858 248.653 270.695 232.459 254.439 228.738C238.183 225.018 221.988 235.18 218.268 251.436C214.547 267.693 224.71 283.887 240.966 287.608C257.222 291.328 273.417 281.166 277.137 264.91Z" fill="#FFC7AA"/>
<mask id="mask0_946_8728" style="mask-type:luminance" maskUnits="userSpaceOnUse" x="217" y="227" width="61" height="62">
<path d="M277.137 264.91C280.858 248.653 270.695 232.459 254.439 228.738C238.183 225.018 221.988 235.18 218.268 251.436C214.547 267.693 224.71 283.887 240.966 287.608C257.222 291.328 273.417 281.166 277.137 264.91Z" fill="white"/>
</mask>
<g mask="url(#mask0_946_8728)">
<path d="M242.192 265.294C242.192 265.294 232.096 267.134 228.338 272.496C225.464 276.595 223.678 288.367 223.678 288.367H267.815C267.815 288.367 265.936 273.969 262.373 270.569C258.811 267.17 253.398 266.355 253.398 266.355L242.192 265.294Z" fill="#312A45"/>
<path d="M240.249 265.745C240.249 265.745 239.959 271.114 242.171 273.237C244.383 275.361 248.888 272.231 248.888 272.231C248.888 272.231 250.866 274.075 253.046 273.516C255.226 272.958 254.41 268.182 253.057 266.322L240.249 265.745Z" fill="#4D7D80"/>
<path d="M251.594 266.354L242.796 265.812C239.422 265.812 234.65 265.92 233.672 259.62C233.433 258.083 234.383 252.88 235.301 251.257C237.307 247.711 235.177 247.763 236.945 242.239C238.994 235.834 246.453 237.916 246.453 237.916C246.453 237.916 258.823 241.396 259.658 244.97C260.944 250.474 257.842 249.194 259.658 253.273C260.568 255.317 261.081 261.09 258.545 264.074C256.699 266.246 253.849 266.354 251.594 266.354Z" fill="#9E3838"/>
<path d="M252.255 267.585C250.058 276.53 241.422 268.334 241.096 265.293C242.458 261.016 242.002 256.442 242.002 256.442L252.339 260.101C252.315 260.403 252.291 260.705 252.267 261.01C252.154 262.412 252.045 263.847 252.084 265.362C252.103 266.083 252.154 266.822 252.255 267.585Z" fill="#E69680"/>
<path d="M252.082 265.362C246.658 264.175 243.115 258.601 243.115 258.601L252.265 261.009C252.151 262.412 252.043 263.846 252.082 265.362Z" fill="#161F29"/>
<path d="M254.57 252.43C254.57 252.43 255.35 249.885 257.422 250.443C259.494 251.003 259.635 257.877 255.701 257.698L254.57 252.43Z" fill="#E06C5C"/>
<path d="M257.622 251.971C257.62 252.198 257.609 252.44 257.589 252.695C257.568 252.98 257.536 253.278 257.494 253.59C257.447 253.946 257.386 254.32 257.313 254.703C257.271 254.934 257.224 255.168 257.172 255.405C256.374 259.087 254.833 260.776 253.07 261.638C250.165 263.056 242.967 259.994 241.845 257.268C241.034 255.298 241.047 256.114 240.832 250.805C240.615 245.497 242.778 242.578 242.778 242.578C245.71 239.219 250.95 239.723 254.355 241.943C257.761 244.162 257.652 248.295 257.622 251.971Z" fill="#E69680"/>
<path d="M253.048 256.854C252.791 256.898 252.499 256.911 252.168 256.881C250.456 256.721 249.164 255.366 249.11 255.308C249.027 255.22 249.032 255.082 249.12 254.999C249.208 254.916 249.346 254.92 249.429 255.008C249.441 255.021 250.665 256.301 252.209 256.445C253.738 256.588 254.273 255.628 254.279 255.618C254.336 255.511 254.469 255.471 254.575 255.529C254.682 255.586 254.721 255.719 254.664 255.825C254.642 255.866 254.201 256.659 253.048 256.854Z" fill="#302922"/>
<path d="M253.441 258.109C253.545 258.036 253.605 257.981 253.615 257.972C253.733 257.863 253.74 257.68 253.631 257.563C253.523 257.445 253.341 257.436 253.223 257.546C253.188 257.577 252.408 258.27 251.414 257.902C251.264 257.847 251.097 257.923 251.041 258.073C250.986 258.224 251.063 258.39 251.213 258.445C252.244 258.826 253.09 258.36 253.441 258.109Z" fill="#E06C5C"/>
<path d="M252.15 254.581C252.025 254.594 251.892 254.595 251.752 254.58C251.617 254.566 251.518 254.444 251.533 254.308C251.547 254.172 251.669 254.075 251.804 254.089C252.34 254.146 252.728 253.893 252.922 253.726C252.152 252.673 251.736 250.048 251.717 249.93C251.696 249.795 251.789 249.669 251.924 249.648C252.062 249.629 252.185 249.719 252.206 249.854C252.333 250.671 252.801 252.929 253.432 253.566C253.52 253.655 253.528 253.796 253.45 253.894C253.427 253.921 252.958 254.499 252.15 254.581Z" fill="#161F29"/>
<path d="M250.067 247.12C250.067 247.12 248.685 246.498 247.438 247.381C246.741 247.875 247.149 248.603 248.049 248.246C248.679 247.997 249.027 247.903 249.749 247.97C250.471 248.037 250.414 247.231 250.067 247.12Z" fill="#9E3838"/>
<path d="M254.102 247.33C254.102 247.33 255.517 246.786 256.713 247.737C257.381 248.269 256.933 248.973 256.054 248.566C255.44 248.282 255.096 248.17 254.372 248.196C253.647 248.222 253.749 247.42 254.102 247.33Z" fill="#9E3838"/>
<path d="M242.173 250.128C242.173 250.128 240.936 247.997 238.772 248.953C236.608 249.908 237.602 257.422 241.859 256.571L242.173 250.128Z" fill="#E69680"/>
<path d="M242.541 246.075C242.541 246.075 243.742 248.449 243.093 249.824C242.445 251.2 242.579 252.829 242.579 252.829C242.579 252.829 240.125 250.819 240.728 247.625C241.333 244.431 242.541 246.075 242.541 246.075Z" fill="#9E3838"/>
<path d="M241.271 253.642C241.3 253.751 241.235 253.862 241.126 253.89C241.111 253.894 241.097 253.896 241.082 253.897C240.989 253.901 240.902 253.838 240.878 253.744C240.874 253.732 240.683 253.021 240.17 252.377C239.753 252.752 239.421 253.099 239.416 253.103C239.378 253.144 239.328 253.164 239.277 253.166C239.224 253.167 239.171 253.149 239.129 253.11C239.048 253.033 239.046 252.904 239.123 252.822C239.138 252.806 239.47 252.459 239.897 252.075C239.573 251.759 239.153 251.495 238.621 251.394C238.511 251.372 238.44 251.266 238.461 251.156C238.482 251.045 238.588 250.973 238.698 250.994C240.661 251.37 241.248 253.55 241.271 253.642Z" fill="#161F29"/>
<path d="M248.083 235.646C248.083 235.646 255.382 235.215 258.476 239.651C261.57 244.088 258.98 248.098 258.98 248.098C258.98 248.098 254.448 248.998 248.728 242.745C248.728 242.745 248.184 247.843 243.952 248.098C239.72 248.353 240.717 244.357 240.717 244.357C240.717 244.357 239.098 236.827 248.083 235.646Z" fill="#9E3838"/>
<path d="M248.885 251.241C248.885 251.825 248.605 252.298 248.26 252.298C247.914 252.298 247.635 251.825 247.635 251.241C247.635 250.658 247.915 250.186 248.26 250.186C248.605 250.186 248.885 250.658 248.885 251.241Z" fill="#161F29"/>
<path d="M255.188 251.555C255.188 252.139 254.908 252.611 254.563 252.611C254.218 252.611 253.938 252.139 253.938 251.555C253.938 250.972 254.218 250.499 254.563 250.499C254.908 250.499 255.188 250.972 255.188 251.555Z" fill="#161F29"/>
</g>
<path d="M466.901 279.308C478.556 267.653 478.556 248.757 466.901 237.103C455.247 225.448 436.351 225.448 424.696 237.103C413.042 248.757 413.042 267.653 424.696 279.308C436.351 290.962 455.247 290.962 466.901 279.308Z" fill="#FFC7AA"/>
<mask id="mask1_946_8728" style="mask-type:luminance" maskUnits="userSpaceOnUse" x="415" y="228" width="61" height="61">
<path d="M466.901 279.308C478.556 267.653 478.556 248.757 466.901 237.103C455.247 225.448 436.351 225.448 424.696 237.103C413.042 248.757 413.042 267.653 424.696 279.308C436.351 290.962 455.247 290.962 466.901 279.308Z" fill="white"/>
</mask>
<g mask="url(#mask1_946_8728)">
<path d="M441 235.945C441 235.945 435.641 236.31 432.707 240.659C429.774 245.007 430.771 250.816 432.062 255.686C433.353 260.557 428.365 266.343 429.48 270.432C430.595 274.521 441 271.896 441 271.896V235.945Z" fill="#7A615A"/>
<path d="M456.033 256.143C456.033 256.143 455.566 258.268 457.339 262.786C459.111 267.304 455.439 271.235 455.439 271.235L449.122 269.181L450.011 257.603L456.033 256.143Z" fill="#7A615A"/>
<path d="M458.1 244.302C458.1 244.302 458.614 250.082 456.077 251.739C453.539 253.397 455.441 245.927 455.441 245.927L458.1 244.302Z" fill="#7A615A"/>
<path d="M468.266 289.367L421.377 287.78C421.377 287.78 422.12 279.097 424.478 274.234C424.737 273.704 425.012 273.215 425.312 272.792C429.259 267.161 439.856 265.23 439.856 265.23L451.619 266.343C451.619 266.343 457.304 267.202 461.046 270.771C461.769 271.462 462.463 272.525 463.112 273.786C465.81 279.039 468.266 289.367 468.266 289.367Z" fill="#333E67"/>
<path d="M450.407 267.634C448.1 277.024 439.033 268.419 438.69 265.228C440.121 260.737 439.642 255.936 439.642 255.936L450.495 259.776C450.47 260.093 450.444 260.411 450.419 260.73C450.299 262.203 450.186 263.709 450.227 265.3C450.247 266.057 450.301 266.832 450.407 267.634Z" fill="#E69680"/>
<path d="M450.223 265.303C444.528 264.057 440.809 258.205 440.809 258.205L450.414 260.734C450.296 262.206 450.182 263.713 450.223 265.303Z" fill="#161F29"/>
<path d="M452.842 251.732C452.842 251.732 453.661 249.06 455.836 249.647C458.011 250.234 458.159 257.45 454.029 257.263L452.842 251.732Z" fill="#E06C5C"/>
<path d="M456.066 251.244C456.064 251.483 456.052 251.736 456.031 252.004C456.01 252.303 455.976 252.616 455.933 252.943C455.883 253.318 455.819 253.71 455.743 254.112C455.698 254.355 455.649 254.601 455.594 254.849C454.756 258.716 453.138 260.489 451.287 261.393C448.238 262.883 440.681 259.668 439.503 256.806C438.652 254.737 438.665 255.593 438.439 250.02C438.211 244.448 440.482 241.383 440.482 241.383C443.56 237.856 449.061 238.385 452.637 240.716C456.212 243.046 456.097 247.385 456.066 251.244Z" fill="#E69680"/>
<path d="M451.238 256.372C450.968 256.418 450.661 256.432 450.314 256.4C448.517 256.232 447.16 254.809 447.103 254.749C447.017 254.656 447.021 254.511 447.113 254.424C447.206 254.337 447.351 254.341 447.438 254.434C447.451 254.447 448.735 255.79 450.356 255.942C451.962 256.092 452.524 255.084 452.529 255.074C452.59 254.962 452.729 254.92 452.841 254.98C452.953 255.04 452.994 255.18 452.934 255.292C452.911 255.335 452.448 256.167 451.238 256.372Z" fill="#302922"/>
<path d="M451.663 257.693C451.772 257.615 451.836 257.557 451.846 257.548C451.969 257.434 451.977 257.242 451.863 257.118C451.749 256.995 451.558 256.985 451.434 257.1C451.397 257.133 450.579 257.86 449.535 257.474C449.377 257.416 449.202 257.497 449.144 257.654C449.086 257.812 449.166 257.987 449.324 258.045C450.406 258.445 451.295 257.955 451.663 257.693Z" fill="#E06C5C"/>
<path d="M450.301 253.983C450.17 253.996 450.031 253.997 449.883 253.982C449.741 253.966 449.638 253.839 449.653 253.697C449.668 253.554 449.796 253.451 449.938 253.466C450.5 253.525 450.907 253.261 451.112 253.085C450.303 251.979 449.866 249.224 449.847 249.1C449.825 248.958 449.922 248.826 450.063 248.804C450.208 248.783 450.337 248.878 450.359 249.02C450.493 249.877 450.984 252.248 451.646 252.917C451.739 253.01 451.747 253.157 451.665 253.26C451.642 253.29 451.15 253.897 450.301 253.983Z" fill="#161F29"/>
<path d="M448.098 246.155C448.098 246.155 446.647 245.502 445.338 246.429C444.607 246.947 445.035 247.712 445.98 247.337C446.641 247.075 447.007 246.977 447.765 247.047C448.523 247.118 448.463 246.271 448.098 246.155Z" fill="#7A615A"/>
<path d="M452.355 246.365C452.355 246.365 453.841 245.793 455.096 246.793C455.797 247.351 455.327 248.091 454.404 247.664C453.76 247.365 453.399 247.247 452.639 247.275C451.878 247.302 451.985 246.459 452.355 246.365Z" fill="#7A615A"/>
<path d="M439.813 249.306C439.813 249.306 438.515 247.069 436.243 248.072C433.971 249.076 435.015 256.964 439.484 256.07L439.813 249.306Z" fill="#E69680"/>
<path d="M440.213 245.054C440.213 245.054 441.474 247.546 440.792 248.99C440.111 250.434 440.253 252.144 440.253 252.144C440.253 252.144 437.677 250.034 438.31 246.681C438.944 243.329 440.213 245.054 440.213 245.054Z" fill="#7A615A"/>
<path d="M438.892 253.007C438.922 253.121 438.854 253.237 438.739 253.267C438.723 253.272 438.708 253.274 438.693 253.275C438.595 253.278 438.504 253.213 438.478 253.114C438.475 253.101 438.274 252.355 437.735 251.679C437.297 252.072 436.949 252.436 436.944 252.441C436.904 252.483 436.851 252.505 436.798 252.507C436.743 252.509 436.687 252.489 436.642 252.448C436.557 252.367 436.555 252.232 436.636 252.146C436.652 252.129 437 251.765 437.449 251.361C437.108 251.03 436.668 250.752 436.109 250.646C435.993 250.624 435.918 250.512 435.94 250.397C435.963 250.28 436.074 250.204 436.19 250.227C438.251 250.621 438.867 252.91 438.892 253.007Z" fill="#161F29"/>
<path d="M446.845 254.215C444.918 254.41 443.191 253 442.996 251.072C442.8 249.145 444.21 247.418 446.138 247.223C448.066 247.028 449.792 248.438 449.987 250.365C450.183 252.293 448.773 254.019 446.845 254.215ZM446.19 247.739C444.547 247.906 443.345 249.378 443.511 251.02C443.678 252.663 445.15 253.865 446.793 253.699C448.436 253.532 449.637 252.061 449.471 250.417C449.305 248.774 447.833 247.573 446.19 247.739Z" fill="#FDFEFF"/>
<path d="M454.292 247.969C452.649 248.135 451.448 249.607 451.614 251.25C451.781 252.893 453.253 254.094 454.896 253.928C456.539 253.762 457.74 252.29 457.574 250.646C457.408 249.004 455.936 247.802 454.292 247.969ZM454.948 254.444C453.02 254.639 451.293 253.23 451.098 251.302C450.903 249.375 452.312 247.648 454.24 247.453C456.168 247.257 457.895 248.667 458.09 250.594C458.285 252.522 456.876 254.249 454.948 254.444Z" fill="#FDFEFF"/>
<path d="M451.157 251.215C450.635 250.636 450.019 251.084 449.95 251.138L449.63 250.73C449.99 250.444 450.855 250.105 451.542 250.868L451.157 251.215Z" fill="#FDFEFF"/>
<path d="M443.317 250.05C443.241 250.057 443.161 250.031 443.105 249.972C443.076 249.95 442.631 249.613 440.77 249.502C440.627 249.493 440.518 249.37 440.527 249.227C440.535 249.084 440.661 248.973 440.801 248.984C442.944 249.112 443.414 249.538 443.487 249.622C443.581 249.731 443.568 249.894 443.461 249.988C443.418 250.024 443.368 250.045 443.317 250.05Z" fill="#FDFEFF"/>
<path d="M457.854 250.878C457.802 250.883 457.747 250.873 457.699 250.844C457.298 250.614 456.548 250.587 456.292 250.597C456.149 250.602 456.029 250.49 456.024 250.347C456.018 250.204 456.129 250.082 456.273 250.079C456.317 250.077 457.348 250.043 457.958 250.396C458.083 250.467 458.125 250.626 458.053 250.75C458.009 250.825 457.935 250.87 457.854 250.878Z" fill="#FDFEFF"/>
<path d="M446.039 234.102C446.039 234.102 453.702 233.649 456.95 238.307C460.199 242.965 457.481 247.175 457.481 247.175C457.481 247.175 452.723 248.119 446.717 241.555C446.717 241.555 446.146 246.907 441.703 247.175C437.26 247.442 438.307 243.246 438.307 243.246C438.307 243.246 436.606 235.341 446.039 234.102Z" fill="#7A615A"/>
<path d="M447.154 250.413C447.178 251.025 446.903 251.533 446.541 251.546C446.178 251.56 445.866 251.075 445.842 250.463C445.819 249.852 446.093 249.344 446.456 249.33C446.818 249.317 447.131 249.801 447.154 250.413Z" fill="#161F29"/>
<path d="M453.63 250.703C453.653 251.315 453.378 251.823 453.016 251.836C452.654 251.85 452.341 251.365 452.318 250.753C452.294 250.142 452.569 249.634 452.931 249.62C453.294 249.607 453.606 250.092 453.63 250.703Z" fill="#161F29"/>
<path d="M463.109 273.784C459.593 274.507 453.498 275.341 443.501 275.575C429.988 275.891 425.773 274.84 424.476 274.232C424.734 273.702 425.01 273.214 425.31 272.79C429.257 267.159 439.854 265.229 439.854 265.229L451.617 266.341C451.617 266.341 457.302 267.2 461.044 270.769C461.766 271.46 462.46 272.523 463.109 273.784Z" fill="#E69680"/>
</g>
<path d="M373.551 263.097C376.258 246.642 365.113 231.109 348.658 228.402C332.203 225.696 316.67 236.841 313.963 253.296C311.257 269.751 322.402 285.284 338.857 287.991C355.311 290.697 370.845 279.552 373.551 263.097Z" fill="#FFC7AA"/>
<mask id="mask2_946_8728" style="mask-type:luminance" maskUnits="userSpaceOnUse" x="313" y="227" width="61" height="62">
<path d="M373.553 263.097C376.26 246.642 365.115 231.109 348.66 228.402C332.205 225.696 316.672 236.841 313.965 253.296C311.259 269.751 322.404 285.284 338.859 287.991C355.313 290.697 370.847 279.552 373.553 263.097Z" fill="white"/>
</mask>
<g mask="url(#mask2_946_8728)">
<path d="M366.89 288.113H314.141C314.141 288.113 315.391 275.421 321.114 271.307C324.534 268.85 329.118 267.296 332.248 266.448C334.355 265.871 335.801 265.617 335.801 265.617L347.466 266.112C347.466 266.112 348.829 266.361 350.766 266.935C353.193 267.654 356.518 268.884 359.198 270.771C364.027 274.17 366.89 288.113 366.89 288.113Z" fill="#4D7D80"/>
<path d="M347.595 263.169L347.47 266.112C347.114 266.376 346.756 266.603 346.397 266.798C341.157 269.651 335.805 265.618 335.805 265.618L336.237 255.414L346.24 262.245L347.595 263.169Z" fill="#E69680"/>
<path d="M347.583 263.169L347.458 266.112C347.102 266.376 346.744 266.603 346.385 266.798C342.107 264.891 339.133 260.191 339.133 260.191L346.228 262.244L347.583 263.169Z" fill="#302922"/>
<path d="M351.814 250.282C351.814 250.282 353.57 248.378 354.431 250.393C355.292 252.408 354.396 256.374 351.88 255.613L351.814 250.282Z" fill="#E06C5C"/>
<path d="M353.977 241.974C353.977 241.974 355.888 242.744 354.96 244.919C354.032 247.093 354.098 247.544 354.342 248.905C354.586 250.266 353.459 251.322 353.072 251.172C352.684 251.021 349.375 240.845 353.977 241.974Z" fill="#302922"/>
<path d="M353.308 257.283C353.308 257.283 353.059 263.368 346.731 263.086C340.441 262.808 336.364 257.687 336.151 257.449C336.147 257.445 336.144 257.443 336.144 257.443L336.129 256.161L336.053 249.508L336.012 245.952C336.012 245.952 335.479 239.53 341.599 238.622C346.071 237.959 350.199 238.872 352.2 241.275C352.264 241.352 352.327 241.431 352.386 241.513C353.012 242.354 353.391 243.364 353.454 244.538L353.381 250.919L353.363 252.483L353.308 257.283Z" fill="#E69680"/>
<path d="M348.538 255.819C348.26 255.832 347.947 255.809 347.6 255.733C345.802 255.342 344.605 253.735 344.555 253.667C344.479 253.562 344.501 253.416 344.605 253.339C344.71 253.263 344.856 253.285 344.933 253.389C344.944 253.404 346.078 254.922 347.699 255.275C349.306 255.625 349.998 254.675 350.005 254.665C350.08 254.559 350.226 254.534 350.332 254.608C350.437 254.683 350.462 254.829 350.388 254.935C350.359 254.976 349.787 255.761 348.538 255.819Z" fill="#302922"/>
<path d="M348.803 257.204C348.923 257.139 348.994 257.088 349.006 257.08C349.145 256.98 349.176 256.786 349.076 256.647C348.976 256.508 348.784 256.475 348.644 256.576C348.603 256.605 347.685 257.24 346.676 256.72C346.524 256.642 346.337 256.702 346.259 256.854C346.181 257.007 346.24 257.193 346.393 257.272C347.438 257.81 348.397 257.424 348.803 257.204Z" fill="#E06C5C"/>
<path d="M349.064 252.956C348.495 252.857 347.874 252.631 347.525 252.493C347.397 252.442 347.334 252.297 347.385 252.168C347.436 252.04 347.583 251.976 347.709 252.028C348.652 252.401 349.68 252.613 349.827 252.464C349.825 252.464 349.828 252.443 349.818 252.402C349.34 250.299 348.264 250.045 348.253 250.042C348.135 250.017 348.048 249.91 348.052 249.79L348.112 247.839C348.116 247.701 348.232 247.593 348.37 247.597C348.504 247.601 348.616 247.716 348.612 247.854L348.557 249.62C348.969 249.796 349.874 250.389 350.306 252.291C350.375 252.597 350.239 252.768 350.151 252.843C349.932 253.033 349.515 253.034 349.064 252.956Z" fill="#302922"/>
<path d="M341.918 245.637C342.209 246.362 343.027 246.721 343.757 246.443C344.183 246.281 344.684 246.124 345.21 246.033C345.955 245.904 346.442 245.181 346.273 244.444C346.273 244.444 343.338 244.049 341.918 245.637Z" fill="#302922"/>
<path d="M353.38 246.121C353.029 246.819 352.183 247.107 351.479 246.768C351.069 246.571 350.582 246.373 350.066 246.237C349.335 246.045 348.91 245.284 349.141 244.563C349.141 244.563 352.099 244.418 353.38 246.121Z" fill="#302922"/>
<path d="M344.131 248.869C344.105 249.478 343.809 249.96 343.468 249.945C343.128 249.93 342.872 249.426 342.898 248.817C342.924 248.209 343.221 247.727 343.562 247.742C343.902 247.756 344.157 248.261 344.131 248.869Z" fill="#302922"/>
<path d="M350.538 249.124C350.512 249.733 350.215 250.214 349.874 250.2C349.534 250.185 349.279 249.681 349.304 249.072C349.33 248.464 349.627 247.982 349.968 247.996C350.308 248.011 350.563 248.516 350.538 249.124Z" fill="#302922"/>
<path d="M338.247 255.063C338.215 255.13 337.336 256.954 336.161 257.449C336.158 257.445 336.155 257.442 336.155 257.442L336.141 256.161C336.141 256.161 337.147 256.032 338.247 255.063Z" fill="#302922"/>
<path d="M337.313 250.791C337.313 250.791 335.018 247.42 333.127 249.912C331.569 251.966 334.112 257.599 337.099 255.832L337.313 250.791Z" fill="#E69680"/>
<path d="M336.804 254.834C336.813 254.834 336.822 254.834 336.831 254.834C336.969 254.824 337.073 254.705 337.064 254.567C336.878 251.775 334.58 250.713 334.482 250.669C334.356 250.613 334.208 250.669 334.151 250.796C334.094 250.922 334.151 251.07 334.277 251.127C334.363 251.166 336.398 252.116 336.564 254.601C336.573 254.729 336.678 254.829 336.804 254.834Z" fill="#302922"/>
<path d="M334.518 253.217C334.573 253.219 334.63 253.204 334.678 253.168C334.903 253.001 335.581 252.595 336.008 252.724C336.141 252.764 336.28 252.689 336.32 252.556C336.36 252.424 336.285 252.284 336.153 252.244C335.409 252.02 334.482 252.689 334.378 252.766C334.267 252.849 334.244 253.006 334.327 253.117C334.374 253.18 334.445 253.214 334.518 253.217Z" fill="#302922"/>
<path d="M340.55 243.663C340.55 243.663 340.461 244.912 339.794 246.536C339.126 248.16 338.102 248.121 338.057 249.098C338.012 250.075 338.513 251.322 338.24 251.455C337.968 251.589 337.612 251.722 337.612 251.722C337.612 251.722 336.368 249.705 336.057 249.507C335.746 249.31 335.107 248.871 334.584 248.997C334.584 248.997 333.648 248.924 332.892 250.301C332.892 250.301 332.223 249.345 332.647 247.996C333.07 246.647 333.722 247.096 333.686 245.736C333.649 244.376 333.738 244.153 333.738 244.153L340.55 243.663Z" fill="#302922"/>
<path d="M340.096 243.636C340.096 243.636 334.007 244.376 333.74 244.153C333.473 243.931 334.185 237.697 336.724 235.693C339.262 233.689 345.391 233.333 349.295 234.624C353.198 235.916 353.957 241.533 353.957 241.533L340.096 243.636Z" fill="#9E3838"/>
<path d="M339.505 243.663C339.505 243.663 343.433 245.622 345.888 245.704C348.343 245.785 351.193 243.93 353.983 244.56C356.773 245.192 357.248 246.097 358.08 245.704C358.911 245.31 354.691 241.139 351.488 240.553C348.283 239.967 338.407 243.065 339.505 243.663Z" fill="#FFF4E6"/>
<path d="M335.047 263.494C335.047 263.494 336.535 264.196 339.145 267.28C341.755 270.365 341.699 274.817 341.699 274.817L332.246 266.446C332.246 266.446 333.563 264.104 335.047 263.494Z" fill="#FFF4E6"/>
<path d="M341.696 274.819V288.113H314.143C314.143 288.113 315.393 275.422 321.116 271.307C324.536 268.851 329.12 267.297 332.25 266.449L341.696 274.819Z" fill="#312A45"/>
<path d="M347.488 265.617L347.215 274.342C347.215 274.342 350.697 270.63 350.766 266.935C350.766 266.935 349.625 263.951 347.559 263.952L347.488 265.617Z" fill="#FFF4E6"/>
<path d="M366.893 288.112H348.046C347.809 283.774 347.215 274.34 347.215 274.34L350.768 266.935C353.195 267.654 356.52 268.884 359.2 270.77C364.029 274.17 366.893 288.112 366.893 288.112Z" fill="#312A45"/>
</g>
<path d="M179.648 265.049C183.412 248.802 173.293 232.581 157.047 228.817C140.801 225.053 124.579 235.172 120.815 251.418C117.051 267.665 127.17 283.886 143.417 287.65C159.663 291.414 175.884 281.295 179.648 265.049Z" fill="#FFC7AA"/>
<mask id="mask3_946_8728" style="mask-type:luminance" maskUnits="userSpaceOnUse" x="120" y="228" width="61" height="61">
<path d="M179.648 265.049C183.412 248.802 173.293 232.581 157.047 228.817C140.801 225.053 124.579 235.172 120.815 251.418C117.051 267.665 127.17 283.886 143.417 287.65C159.663 291.414 175.884 281.295 179.648 265.049Z" fill="white"/>
</mask>
<g mask="url(#mask3_946_8728)">
<path d="M172.987 286.761L149.598 290.972L123.387 286.761C123.387 286.761 124.563 274.823 129.944 270.954C130.21 270.763 130.487 270.575 130.769 270.395C136.142 266.945 143.754 265.604 143.754 265.604L154.723 266.069C154.723 266.069 160.085 267.051 164.465 269.621C164.906 269.883 165.34 270.156 165.755 270.45C170.294 273.647 172.987 286.761 172.987 286.761Z" fill="#4D7D80"/>
<path d="M145.883 259.485C145.883 259.485 145.579 264.175 143.19 262.147C141.432 260.654 142.751 259.41 140.936 257.79C140.195 257.13 137.978 255.945 138.604 253.542C139.23 251.139 140.763 250.936 139.73 249.846C138.697 248.757 136.929 246.088 140.179 243.638C143.428 241.189 140.128 238.393 144.252 237.088C148.375 235.782 150.135 237.46 153.538 235.754C156.941 234.047 160.129 233.504 162.344 234.912C165.373 236.839 162.211 243.33 159.707 243.49C157.201 243.65 145.883 259.485 145.883 259.485Z" fill="#302922"/>
<path d="M154.842 263.302L154.725 266.07C154.39 266.317 154.053 266.531 153.716 266.714C148.789 269.397 143.756 265.605 143.756 265.605L144.162 256.01L153.569 262.432L154.842 263.302Z" fill="#9B6446"/>
<path d="M154.84 263.302L154.723 266.07C154.388 266.317 154.051 266.531 153.714 266.714C149.691 264.921 146.895 260.502 146.895 260.502L153.566 262.432L154.84 263.302Z" fill="#302922"/>
<path d="M158.832 251.186C158.832 251.186 160.482 249.395 161.292 251.29C162.102 253.184 161.259 256.914 158.894 256.197L158.832 251.186Z" fill="#7C4E37"/>
<path d="M160.606 242.591C160.606 242.591 162.403 243.315 161.53 245.36C160.657 247.405 160.72 247.828 160.949 249.108C161.178 250.387 160.119 251.381 159.755 251.239C159.391 251.098 156.278 241.529 160.606 242.591Z" fill="#302922"/>
<path d="M160.216 257.768C160.216 257.768 159.983 263.49 154.031 263.225C148.117 262.963 144.284 258.148 144.083 257.924C144.08 257.92 144.077 257.918 144.077 257.918L144.063 256.713L143.991 250.457L143.952 247.114C143.952 247.114 143.452 241.075 149.206 240.221C153.411 239.597 157.293 240.455 159.174 242.715C159.235 242.788 159.294 242.863 159.349 242.939C159.938 243.73 160.294 244.679 160.353 245.784L160.284 251.783L160.267 253.254L160.216 257.768Z" fill="#9B6446"/>
<path d="M155.733 256.392C155.471 256.404 155.177 256.382 154.851 256.311C153.16 255.943 152.035 254.433 151.988 254.368C151.916 254.271 151.937 254.132 152.035 254.061C152.133 253.988 152.271 254.009 152.343 254.107C152.353 254.122 153.42 255.549 154.945 255.881C156.455 256.209 157.106 255.316 157.113 255.307C157.183 255.207 157.321 255.184 157.42 255.254C157.519 255.324 157.543 255.462 157.473 255.561C157.445 255.599 156.908 256.337 155.733 256.392Z" fill="#302922"/>
<path d="M155.964 257.693C156.076 257.632 156.144 257.584 156.154 257.576C156.285 257.482 156.315 257.3 156.22 257.169C156.126 257.039 155.945 257.008 155.814 257.103C155.776 257.131 154.913 257.727 153.964 257.239C153.821 257.165 153.645 257.221 153.571 257.364C153.498 257.508 153.554 257.683 153.697 257.757C154.681 258.263 155.582 257.9 155.964 257.693Z" fill="#7C4E37"/>
<path d="M156.219 253.699C155.684 253.606 155.099 253.394 154.772 253.264C154.651 253.216 154.592 253.08 154.64 252.959C154.688 252.838 154.826 252.779 154.945 252.827C155.831 253.178 156.798 253.377 156.935 253.237C156.934 253.237 156.937 253.217 156.928 253.179C156.478 251.201 155.466 250.963 155.456 250.961C155.344 250.937 155.263 250.836 155.266 250.723L155.323 248.889C155.327 248.759 155.436 248.657 155.566 248.661C155.692 248.665 155.798 248.774 155.793 248.904L155.742 250.564C156.13 250.729 156.98 251.287 157.387 253.076C157.452 253.363 157.323 253.525 157.241 253.595C157.034 253.772 156.642 253.773 156.219 253.699Z" fill="#302922"/>
<path d="M149.127 245.459C149.224 246.187 149.885 246.704 150.615 246.62C151.041 246.571 151.535 246.545 152.035 246.584C152.744 246.639 153.356 246.093 153.372 245.383C153.372 245.383 150.789 244.341 149.127 245.459Z" fill="#302922"/>
<path d="M159.84 246.136C159.738 246.844 159.091 247.338 158.385 247.245C157.972 247.19 157.495 247.157 157.01 247.187C156.323 247.23 155.737 246.688 155.729 245.994C155.729 245.994 158.243 245.02 159.84 246.136Z" fill="#302922"/>
<path d="M159.336 242.939C158.416 242.569 157.729 242.848 156.247 243.425C154.105 244.26 151.789 243.329 149.756 242.179C147.723 241.029 146.414 242.454 147.081 243.453C147.747 244.453 147.637 245.235 146.8 246.438C145.962 247.64 148.208 248.312 146.913 249.228C146.367 249.615 146.373 250.226 146.562 250.804C146.769 251.434 146.197 252.046 145.551 251.897C144.881 251.697 143.978 250.457 143.978 250.457L142.162 246.167C142.162 246.167 143.744 240.302 149.499 239.449C153.704 238.825 157.585 239.683 159.467 241.942C159.527 242.016 159.28 242.863 159.336 242.939Z" fill="#302922"/>
<path d="M151.944 249.857C151.92 250.429 151.641 250.882 151.321 250.868C151.001 250.855 150.761 250.38 150.785 249.808C150.809 249.235 151.088 248.783 151.408 248.796C151.729 248.81 151.969 249.285 151.944 249.857Z" fill="#302922"/>
<path d="M157.585 249.998C157.561 250.57 157.281 251.023 156.961 251.009C156.641 250.996 156.402 250.521 156.425 249.949C156.45 249.377 156.729 248.924 157.049 248.938C157.369 248.951 157.609 249.426 157.585 249.998Z" fill="#302922"/>
<path d="M146.053 255.682C146.023 255.744 145.196 257.459 144.091 257.924C144.088 257.921 144.086 257.918 144.086 257.918L144.072 256.713C144.072 256.713 145.018 256.593 146.053 255.682Z" fill="#302922"/>
<path d="M145.165 251.663C145.165 251.663 143.008 248.494 141.23 250.837C139.764 252.768 142.156 258.064 144.965 256.403L145.165 251.663Z" fill="#9B6446"/>
<path d="M144.677 255.465C144.685 255.465 144.694 255.465 144.703 255.465C144.832 255.456 144.931 255.344 144.922 255.214C144.747 252.588 142.586 251.59 142.494 251.549C142.375 251.496 142.236 251.549 142.183 251.668C142.13 251.786 142.182 251.925 142.301 251.979C142.382 252.016 144.296 252.909 144.452 255.245C144.46 255.366 144.558 255.46 144.677 255.465Z" fill="#302922"/>
<path d="M142.546 253.945C142.598 253.947 142.651 253.933 142.696 253.899C142.908 253.742 143.546 253.36 143.948 253.481C144.072 253.519 144.204 253.449 144.241 253.324C144.279 253.199 144.208 253.068 144.084 253.03C143.384 252.819 142.512 253.449 142.415 253.521C142.311 253.599 142.289 253.746 142.367 253.851C142.411 253.91 142.478 253.943 142.546 253.945Z" fill="#302922"/>
<path d="M143.827 263.803C143.827 263.803 145.537 266.813 150.477 267.674L147.152 271.927L141.002 266.225L143.827 263.803Z" fill="#D1932A"/>
<path d="M154.807 264.057C154.807 264.057 154.917 266.311 151.609 267.675L154.808 271.215L157.378 266.715L154.807 264.057Z" fill="#D1932A"/>
<path d="M137.712 286.761H123.387C123.387 286.761 124.563 274.823 129.944 270.954C130.21 270.763 130.487 270.575 130.769 270.396C132.703 272.111 138.088 277.723 137.712 286.761Z" fill="#333E67"/>
<path d="M167.919 286.761C168.103 278.817 165.782 272.529 164.465 269.622C164.906 269.884 165.34 270.157 165.755 270.45C170.295 273.647 172.988 286.761 172.988 286.761H167.919Z" fill="#333E67"/>
</g>
<path d="M178.457 286.137C185.889 286.137 191.914 279.839 191.914 272.069C191.914 264.299 185.889 258 178.457 258C171.025 258 165 264.299 165 272.069C165 279.839 171.025 286.137 178.457 286.137Z" fill="#B8D9BA"/>
<path d="M177.199 280.021C177.055 280.021 176.914 279.983 176.788 279.911C176.662 279.839 176.554 279.734 176.475 279.607L171.263 271.25C171.199 271.148 171.155 271.034 171.133 270.914C171.111 270.794 171.112 270.671 171.135 270.551C171.157 270.431 171.202 270.317 171.266 270.216C171.331 270.114 171.413 270.027 171.509 269.96C171.604 269.892 171.711 269.844 171.823 269.821C171.935 269.797 172.051 269.797 172.163 269.821C172.276 269.845 172.382 269.893 172.477 269.961C172.572 270.029 172.654 270.117 172.717 270.219L177.209 277.423L185.426 264.525C185.556 264.321 185.757 264.18 185.985 264.134C186.212 264.087 186.447 264.139 186.639 264.277C186.734 264.346 186.815 264.434 186.878 264.536C186.941 264.638 186.984 264.753 187.006 264.873C187.027 264.993 187.026 265.116 187.002 265.236C186.979 265.356 186.934 265.469 186.869 265.57L177.926 279.615C177.845 279.741 177.736 279.843 177.609 279.914C177.483 279.985 177.342 280.022 177.199 280.021Z" fill="white"/>
<path d="M299 484.997C333.241 484.997 361 456.568 361 421.499C361 386.429 333.241 358 299 358C264.758 358 237 386.429 237 421.499C237 456.568 264.758 484.997 299 484.997Z" fill="#91BCE5"/>
<path d="M318.705 470.076C284.465 470.076 256.706 441.647 256.706 406.575C256.706 390.178 262.775 375.233 272.739 363.965C251.627 374.091 237 396.042 237 421.499C237 456.568 264.758 484.999 299 484.999C317.231 484.999 333.622 476.938 344.965 464.109C336.991 467.936 328.093 470.076 318.705 470.076Z" fill="#53ACE1"/>
<path d="M268.428 380.833C265.316 381.699 265.459 380.967 263.157 381.105C260.397 381.269 259.408 381.945 256.342 384.044C255.524 384.605 253.58 385.376 252.853 386.559C252.122 387.747 254.107 387.185 253.814 388C253.138 389.883 251.266 389.381 250.207 390.491C248.504 392.279 251.221 391.483 252.066 391.132C251.99 391.378 251.912 391.596 251.794 391.855C249.962 392.863 248.412 393.591 248.35 395.29C248.315 396.267 249.188 397.922 250.848 396.549C250.903 398.928 247.226 398.806 246.252 400.722C247.629 400.26 250.638 397.933 252.051 397.029C254.169 395.677 255.267 394.246 256.841 392.368C257.128 392.646 257.008 394.007 257.482 394.068C258.712 394.228 259.429 392.391 260.385 391.855C262.963 390.413 262.218 392.478 263.848 393.084C264.529 393.337 265.623 392.697 266.262 392.916C267.255 393.257 267.018 393.778 267.649 394.555C268.423 395.502 270.361 396.49 269.275 398.166C273.115 398.16 269.919 401.021 269.56 402.833C269.328 404.002 269.757 405.451 269.583 406.687C269.343 408.374 269.102 408.781 269.782 410.276C270.774 412.461 271.954 414.031 272.65 416.448C273.312 418.75 274.51 421.657 276.452 423.222C276.905 420.787 274.419 419.427 274.898 416.726C275.834 416.972 276.9 420.242 277.403 421.257C278.109 422.677 278.464 425.005 279.983 426.299C281.663 427.732 284.076 427.176 285.895 428.091C286.838 428.566 287.2 429.543 288.082 429.938C289.059 430.378 290.655 429.949 291.459 430.675C293.114 432.168 291.752 434.335 295.061 434.817C297.473 435.17 299.652 433.168 298.335 436.765C297.639 438.664 295.492 439.314 295.145 441.106C294.817 442.795 295.685 445.753 296.38 447.022C297.616 449.282 299.541 452.491 302.03 452.625C302.872 454.582 301.944 456.453 301.745 458.227C301.526 460.177 302.285 462.629 301.645 464.433C300.847 466.681 299.993 466.824 300.696 469.296C300.954 470.206 301.519 469.97 301.453 471.064C301.41 471.77 300.33 472.549 300.36 473.595C300.408 475.37 303.006 479.291 303.352 477.499C303.839 474.969 304.606 472.875 304.875 471.993C305.075 471.334 305.09 469.505 305.557 468.561C305.743 468.181 306.835 467.044 307.155 466.795C308.971 465.366 309.309 465.366 310.637 463.362C310.785 463.138 311.789 462.193 311.805 461.928C314.435 460.202 315.873 455.963 318.16 454.142C320.519 452.264 320.925 453.312 321.924 450.231C322.58 448.21 322.658 446.156 324.454 444.7C325.821 443.589 329.369 442.735 327.289 440.341C326.209 439.094 323.616 440.314 321.833 439.458C321.111 439.109 320.756 438.242 319.964 437.967C319.073 437.651 317.356 438.257 316.587 437.85C315.489 437.266 316.027 436.519 315.534 435.71C314.476 433.972 315.862 434.802 313.863 433.843C312.719 433.294 312.198 434.033 311.057 433.012C310.357 432.387 310.526 430.787 309.582 430.239C308.223 429.45 304.901 430.434 303.375 430.645C302.018 430.833 301.584 430.628 300.458 431.273C299.447 431.851 300.685 432.859 298.895 433.173C298.481 433.246 297.319 432.048 296.532 432.041C295.424 432.029 294.473 432.494 293.653 433.087C292.774 431.503 294.45 429.511 293.578 428.303C292.107 426.258 290.939 428.775 291.121 425.496C291.219 423.762 292.985 422.392 289.92 423.797C288.854 424.286 287.762 427.346 285.696 425.46C282.961 422.971 286.698 418.525 288.909 417.432C290.304 416.741 292.872 415.859 294.441 416.704C295.916 417.495 295.394 420.027 297.657 419.557C297.748 417.878 297.132 415.199 297.77 413.656C298.648 411.544 300.892 412.056 301.967 410.6C302.59 409.755 302.027 408.532 302.471 407.814C303.12 406.763 303.471 407.152 304.23 406.443C305.026 405.698 305.35 406.224 305.97 405.088C306.34 404.415 306.235 402.921 306.267 402.144C307.94 401.62 309.831 401.54 310.053 403.488C312.548 402.692 311 399.724 310.184 398.233C311.913 395.77 314.415 397.562 314.197 400.132C315.898 400.773 319.25 401.165 318.475 398.603C313.458 396.578 318.034 396.067 316.19 392.724C315.643 391.735 313.966 391.312 313.324 390.299C312.641 389.229 312.71 387.153 312.281 385.904C310.996 386.016 310.512 387.218 308.934 386.892C308.671 384.672 305.713 382.385 303.725 384.523C301.742 386.658 304.144 389.909 304.583 391.901C301.975 392.017 302.494 394.866 300.148 394.231C300.083 393.042 300.126 391.811 300.065 390.637C296.632 390.471 292.985 390.033 294.08 385.809C294.67 383.542 295.58 384.46 297.394 383.701C299.124 382.982 298.89 382.142 300.166 381.212C301.604 380.163 302.691 381.219 303.021 378.95C303.266 377.277 302.725 376.841 301.092 376.663C299.482 376.486 300.201 378.188 298.291 376.503C297.185 375.529 297.848 374.175 295.848 373.961C295.238 375.076 295.444 376.556 295.621 377.754C293.959 378.309 288.704 376.444 287.999 377.601C287.123 380.963 285.035 378.575 283.571 378.034C281.838 377.392 279.942 377.764 278.081 377.859C276.098 377.961 275.053 378.358 273.043 379.121C271.159 379.836 271.122 379.427 269.469 380.252C269.053 380.484 268.844 380.601 268.428 380.833Z" fill="#243886"/>
<path d="M318.669 366.225C317.728 366.607 316.449 365.044 315.163 365.041C314.915 365.041 314.726 365.808 314.234 365.91C313.72 366.017 312.882 365.918 312.227 365.764C312.479 366.261 312.525 367.047 312.827 367.529C312.293 367.337 311.596 367.519 311.061 367.342C311.2 369.26 311.743 369.623 313.223 370.497C314.873 371.474 315.46 370.924 316.328 372.983C316.641 373.722 316.31 374.546 316.678 375.294C316.979 375.91 317.967 376.388 318.225 376.96C318.933 378.525 318.386 379.355 318.295 380.86C318.184 382.696 319.862 389.991 323.441 388.182C324.687 387.553 323.252 384.975 323.928 384.086C324.745 383.014 326.703 383.86 328.122 384.066C328.478 381.719 330.978 383.034 333.182 383.506C333.323 382.949 333.2 382.163 332.879 381.449C332.605 381.318 332.284 381.223 332.022 381.15C331.858 379.961 335.077 380.412 332.35 377.753C334.534 377.996 334.696 377.283 334.043 375.379C333.568 373.989 333.228 374.323 333.661 373.589C333.965 373.066 335.543 374.239 334.378 372.479C333.412 371.929 332.275 371.841 331.182 371.042C329.82 370.044 329.404 368.805 328.334 367.86C326.305 366.071 324.138 366.733 322.211 366.131C322.851 368.135 321.485 367.427 320.41 366.765C319.718 366.541 319.37 366.434 318.669 366.225Z" fill="#243886"/>
<path d="M360.738 413.673C359.162 413.595 355.833 414.133 355.515 411.485C354.725 411.02 353.969 410.983 353.476 411.446C353.653 411.378 353.742 411.343 353.92 411.275C351.184 413.58 345.478 408.935 344.22 413.308C344.117 413.661 343.925 415.47 343.781 415.657C343.037 416.617 342.499 415.984 341.563 416.615C340.35 417.43 339.412 419.237 339.18 420.764C338.97 422.151 338.93 425.49 339.467 426.887C340.037 428.375 342.171 429.478 343.027 430.741C344.2 432.47 343.995 433.259 346.952 432.29C348.939 431.638 350.341 430.31 352.188 431.138C353.651 431.793 353.259 433.232 355.724 432.148C356.364 433.644 354.443 435.233 355.021 436.731C355.308 437.478 356.152 437.432 356.135 438.364C356.12 439.261 355.348 440.022 355.091 440.894C354.476 442.974 355.424 443.263 355.703 444.542C355.941 445.637 354.861 447.308 355.235 448.148C355.277 448.242 355.34 448.308 355.413 448.359C360.083 436.857 361.687 426.091 360.738 413.673Z" fill="#243886"/>
<path d="M344.612 409.641C347.124 410.815 346.695 407.477 347.701 406.849C348.959 406.063 352.137 408.086 351.278 405.586C354.576 405.34 354.32 409.454 356.653 409.876C356.426 407.791 355.888 407.256 354.37 405.454C356.711 406.259 358.393 409.428 359.858 410.431C360.013 410.467 360.148 410.475 360.265 410.463C358.547 402.513 356.151 395.138 351.916 388.182C351.732 388.069 351.565 387.977 351.429 387.914C350.554 387.515 348.98 387.251 348.534 387.555C347.84 388.028 348.69 389.779 348.307 390.769C347.959 391.668 346.597 391.795 347.529 393.672C348.383 395.391 348.029 394.205 349.23 395.286C349.52 395.549 349.482 394.264 349.903 394.668C350.436 395.175 351 396.367 351.745 396.73C352.87 397.275 352.088 395.992 351.931 395.369C351.5 393.655 352.092 394.268 352.435 393.26C352.63 392.681 352.276 392.06 353.268 392.277C354.34 393.49 353.997 394.242 354.67 395.333C354.947 395.783 355.644 395.885 356.093 396.676C356.524 397.432 356.418 397.879 356.13 398.261C354.937 399.846 351.729 396.749 349.704 396.769C349.17 398.194 348.998 399.924 347.391 400.801C346.253 401.42 345.05 400.511 346.051 402.566C346.67 403.842 348.415 403.489 348.145 405.259C346.849 406.041 344.372 404.794 343.459 405.391C342.564 405.973 343.582 409.157 344.612 409.641Z" fill="#243886"/>
<path d="M359.684 397.509C359.684 390.48 354.12 384.782 347.257 384.782C340.394 384.782 334.83 390.48 334.83 397.509C334.83 399.637 335.344 401.641 336.245 403.402L336.252 403.416C336.404 403.715 336.568 404.005 336.744 404.29L347.257 421.865L357.745 404.329C358.97 402.357 359.684 400.02 359.684 397.509Z" fill="#E63326"/>
<path d="M355.073 387.617C357.029 389.867 358.992 393.383 359.058 396.961C359.105 399.47 358.16 401.887 356.629 405.206L347.258 421.865L357.746 404.329C358.97 402.357 359.685 400.02 359.685 397.509C359.685 393.516 357.885 389.952 355.073 387.617Z" fill="#8B2110"/>
<path d="M347.947 405.385C352.369 405.002 355.65 401.021 355.277 396.492C354.903 391.964 351.016 388.603 346.594 388.985C342.172 389.368 338.891 393.349 339.264 397.878C339.638 402.407 343.525 405.767 347.947 405.385Z" fill="white"/>
<path d="M350.882 389.835C353.113 391.298 354.595 393.855 354.595 396.769C354.595 401.315 350.998 404.999 346.561 404.999C345.255 404.999 344.024 404.679 342.934 404.114C344.183 404.932 345.666 405.408 347.258 405.408C351.695 405.408 355.293 401.723 355.293 397.18C355.292 393.971 353.498 391.193 350.882 389.835Z" fill="#D0D0D0"/>
<path d="M340.526 390.015C340.56 389.981 340.594 389.944 340.627 389.908C341.078 389.438 341.592 388.971 341.801 388.327C342.028 387.631 341.201 387.711 340.732 387.855C339.663 388.181 338.79 389.157 338.094 390.003C337.445 390.796 336.921 391.7 336.56 392.666C336.222 393.571 335.846 394.714 336.398 395.61C336.459 395.709 336.532 395.805 336.631 395.86C336.732 395.916 336.865 395.922 336.956 395.851C337.014 395.805 337.045 395.734 337.075 395.665C337.663 394.312 338.265 392.958 339.065 391.721C339.476 391.089 340.008 390.555 340.526 390.015Z" fill="#EB5C5B"/>
<path d="M283.852 372.821C283.852 365.794 278.288 360.096 271.425 360.096C264.562 360.096 258.998 365.794 258.998 372.821C258.998 374.949 259.512 376.953 260.413 378.716H260.411L260.42 378.73C260.572 379.029 260.736 379.319 260.912 379.602L271.425 397.179L281.913 379.64C283.137 377.669 283.852 375.331 283.852 372.821Z" fill="#E63326"/>
<path d="M279.241 362.932C281.198 365.18 283.16 368.696 283.226 372.273C283.273 374.783 282.328 377.198 280.797 380.521L271.426 397.18L281.914 379.64C283.138 377.67 283.853 375.332 283.853 372.822C283.853 368.827 282.053 365.263 279.241 362.932Z" fill="#8B2110"/>
<path d="M279.25 374.346C280.249 369.919 277.555 365.5 273.232 364.476C268.908 363.453 264.594 366.213 263.594 370.64C262.595 375.068 265.29 379.487 269.613 380.51C273.936 381.534 278.251 378.774 279.25 374.346Z" fill="white"/>
<path d="M275.048 365.147C277.281 366.61 278.761 369.169 278.761 372.081C278.761 376.627 275.164 380.312 270.727 380.312C269.421 380.312 268.19 379.991 267.1 379.426C268.349 380.244 269.832 380.719 271.424 380.719C275.861 380.719 279.458 377.036 279.458 372.49C279.458 369.281 277.665 366.503 275.048 365.147Z" fill="#D0D0D0"/>
<path d="M264.694 365.329C264.729 365.293 264.762 365.258 264.795 365.22C265.247 364.75 265.759 364.282 265.968 363.639C266.194 362.943 265.368 363.025 264.899 363.167C263.831 363.493 262.958 364.469 262.262 365.316C261.611 366.108 261.089 367.012 260.727 367.98C260.391 368.884 260.013 370.028 260.565 370.922C260.626 371.021 260.699 371.117 260.799 371.173C260.9 371.229 261.034 371.236 261.123 371.165C261.181 371.117 261.215 371.046 261.244 370.977C261.831 369.626 262.432 368.27 263.233 367.034C263.643 366.4 264.175 365.869 264.694 365.329Z" fill="#EB5C5B"/>
<path d="M347.257 421.866C346.934 421.581 346.61 421.299 346.283 421.021" stroke="white" stroke-width="2" stroke-miterlimit="10"/>
<path d="M344.305 419.386C317.818 398.152 283.469 396.987 273.959 397.102" stroke="white" stroke-width="2" stroke-miterlimit="10" stroke-dasharray="6 6"/>
<path d="M272.694 397.127C271.866 397.151 271.424 397.18 271.424 397.18C271.424 397.18 271.46 397.636 271.561 398.474" stroke="white" stroke-width="2" stroke-miterlimit="10"/>
<path d="M271.908 400.994C273.603 412.014 280.695 444.016 307.074 458.246" stroke="white" stroke-width="2" stroke-miterlimit="10" stroke-dasharray="6 6"/>
<path d="M308.188 458.83C308.567 459.024 308.95 459.214 309.337 459.4" stroke="white" stroke-width="2" stroke-miterlimit="10"/>
<path d="M321.762 435.044C321.762 428.015 316.198 422.318 309.335 422.318C302.474 422.318 296.91 428.015 296.91 435.044C296.91 437.17 297.422 439.174 298.324 440.937L298.33 440.951C298.483 441.25 298.648 441.541 298.822 441.825L309.334 459.4L319.824 441.862C321.05 439.892 321.762 437.554 321.762 435.044Z" fill="#E63326"/>
<path d="M317.151 425.152C319.108 427.401 321.07 430.917 321.138 434.496C321.184 437.004 320.238 439.42 318.709 442.74L309.334 459.4L319.824 441.862C321.05 439.892 321.762 437.554 321.762 435.044C321.762 431.049 319.963 427.486 317.151 425.152Z" fill="#8B2110"/>
<path d="M317.371 434.713C317.371 439.257 313.774 442.941 309.335 442.941C304.898 442.941 301.301 439.257 301.301 434.713C301.301 430.167 304.898 426.484 309.335 426.484C313.774 426.484 317.371 430.167 317.371 434.713Z" fill="white"/>
<path d="M312.96 427.369C315.192 428.832 316.671 431.389 316.671 434.304C316.671 438.849 313.074 442.533 308.637 442.533C307.331 442.533 306.1 442.212 305.012 441.647C306.259 442.466 307.742 442.942 309.335 442.942C313.773 442.942 317.37 439.258 317.37 434.713C317.37 431.504 315.576 428.726 312.96 427.369Z" fill="#D0D0D0"/>
<path d="M302.604 427.55C302.639 427.515 302.674 427.479 302.707 427.443C303.158 426.973 303.67 426.505 303.878 425.862C304.105 425.166 303.28 425.246 302.81 425.39C301.741 425.716 300.87 426.692 300.174 427.538C299.522 428.331 298.999 429.234 298.638 430.201C298.301 431.104 297.923 432.247 298.475 433.143C298.537 433.244 298.609 433.339 298.71 433.395C298.81 433.451 298.942 433.457 299.033 433.385C299.091 433.339 299.125 433.267 299.154 433.198C299.743 431.847 300.342 430.491 301.143 429.257C301.554 428.623 302.086 428.09 302.604 427.55Z" fill="#EB5C5B"/>
<path d="M250.932 552H142C135.373 552 130 557.373 130 564V740C130 746.627 135.373 752 142 752H485C491.627 752 497 746.627 497 740V592.571C497 585.944 491.627 580.571 485 580.571H285.444C281.814 580.571 278.38 578.928 276.102 576.102L260.275 556.469C257.997 553.643 254.562 552 250.932 552Z" stroke="url(#paint0_linear_946_8728)" stroke-width="2"/>
<rect x="303" y="617" width="139" height="6" rx="3" fill="#B8D9BA" fill-opacity="0.32"/>
<rect x="303" y="632" width="84" height="6" rx="3" fill="#B8D9BA" fill-opacity="0.32"/>
<rect x="395.5" y="679.5" width="79" height="20" rx="3.5" stroke="black"/>
<rect x="301.5" y="679.5" width="79" height="20" rx="3.5" stroke="black"/>
<path d="M318.703 689.345H316.181L316.167 688.285H318.457C318.835 688.285 319.166 688.221 319.448 688.094C319.731 687.966 319.95 687.784 320.104 687.547C320.264 687.305 320.344 687.018 320.344 686.686C320.344 686.321 320.273 686.025 320.132 685.797C319.995 685.564 319.783 685.396 319.496 685.291C319.214 685.182 318.854 685.127 318.416 685.127H316.475V694H315.155V684.047H318.416C318.926 684.047 319.382 684.099 319.783 684.204C320.184 684.304 320.524 684.464 320.802 684.683C321.084 684.897 321.299 685.17 321.444 685.503C321.59 685.836 321.663 686.234 321.663 686.699C321.663 687.109 321.558 687.481 321.349 687.813C321.139 688.142 320.847 688.41 320.474 688.62C320.104 688.83 319.672 688.964 319.175 689.023L318.703 689.345ZM318.642 694H315.661L316.406 692.927H318.642C319.061 692.927 319.416 692.854 319.708 692.708C320.004 692.562 320.23 692.357 320.385 692.093C320.54 691.824 320.617 691.507 320.617 691.143C320.617 690.773 320.551 690.454 320.419 690.186C320.287 689.917 320.079 689.709 319.797 689.563C319.514 689.418 319.15 689.345 318.703 689.345H316.823L316.837 688.285H319.407L319.688 688.668C320.166 688.709 320.572 688.846 320.904 689.078C321.237 689.306 321.49 689.598 321.663 689.953C321.841 690.309 321.93 690.701 321.93 691.129C321.93 691.749 321.793 692.273 321.52 692.701C321.251 693.125 320.87 693.449 320.378 693.672C319.886 693.891 319.307 694 318.642 694ZM328.212 692.291V686.604H329.483V694H328.273L328.212 692.291ZM328.451 690.732L328.978 690.719C328.978 691.211 328.925 691.667 328.82 692.086C328.72 692.501 328.556 692.861 328.328 693.166C328.1 693.471 327.802 693.711 327.433 693.884C327.063 694.052 326.615 694.137 326.086 694.137C325.726 694.137 325.396 694.084 325.095 693.979C324.799 693.875 324.543 693.713 324.329 693.494C324.115 693.275 323.949 692.991 323.83 692.64C323.716 692.289 323.659 691.867 323.659 691.375V686.604H324.924V691.389C324.924 691.721 324.96 691.997 325.033 692.216C325.111 692.43 325.213 692.601 325.341 692.729C325.473 692.852 325.619 692.938 325.778 692.988C325.942 693.038 326.111 693.063 326.284 693.063C326.822 693.063 327.248 692.961 327.562 692.756C327.877 692.546 328.103 692.266 328.239 691.915C328.381 691.56 328.451 691.165 328.451 690.732ZM333.489 693.234L335.547 686.604H336.9L333.934 695.142C333.865 695.324 333.774 695.52 333.66 695.729C333.551 695.944 333.41 696.146 333.236 696.338C333.063 696.529 332.854 696.684 332.607 696.803C332.366 696.926 332.076 696.987 331.739 696.987C331.639 696.987 331.511 696.974 331.356 696.946C331.201 696.919 331.092 696.896 331.028 696.878L331.021 695.853C331.058 695.857 331.115 695.862 331.192 695.866C331.274 695.875 331.331 695.88 331.363 695.88C331.65 695.88 331.894 695.841 332.095 695.764C332.295 695.691 332.464 695.565 332.601 695.388C332.742 695.215 332.863 694.975 332.963 694.67L333.489 693.234ZM331.979 686.604L333.899 692.346L334.228 693.679L333.318 694.144L330.598 686.604H331.979ZM342.779 688.183V694H341.515V686.604H342.711L342.779 688.183ZM342.479 690.021L341.952 690.001C341.957 689.495 342.032 689.028 342.178 688.6C342.324 688.167 342.529 687.791 342.793 687.472C343.057 687.153 343.372 686.907 343.736 686.733C344.105 686.556 344.513 686.467 344.96 686.467C345.325 686.467 345.653 686.517 345.944 686.617C346.236 686.713 346.484 686.868 346.689 687.082C346.899 687.296 347.059 687.574 347.168 687.916C347.277 688.253 347.332 688.666 347.332 689.153V694H346.061V689.14C346.061 688.752 346.004 688.442 345.89 688.21C345.776 687.973 345.609 687.802 345.391 687.697C345.172 687.588 344.903 687.533 344.584 687.533C344.27 687.533 343.982 687.599 343.723 687.731C343.467 687.864 343.246 688.046 343.06 688.278C342.877 688.511 342.734 688.777 342.629 689.078C342.529 689.374 342.479 689.689 342.479 690.021ZM348.918 690.384V690.227C348.918 689.693 348.995 689.199 349.15 688.743C349.305 688.283 349.529 687.884 349.82 687.547C350.112 687.205 350.465 686.941 350.88 686.754C351.295 686.562 351.759 686.467 352.274 686.467C352.794 686.467 353.261 686.562 353.676 686.754C354.095 686.941 354.451 687.205 354.742 687.547C355.038 687.884 355.264 688.283 355.419 688.743C355.574 689.199 355.651 689.693 355.651 690.227V690.384C355.651 690.917 355.574 691.411 355.419 691.867C355.264 692.323 355.038 692.722 354.742 693.063C354.451 693.401 354.097 693.665 353.683 693.856C353.272 694.043 352.808 694.137 352.288 694.137C351.769 694.137 351.301 694.043 350.887 693.856C350.472 693.665 350.117 693.401 349.82 693.063C349.529 692.722 349.305 692.323 349.15 691.867C348.995 691.411 348.918 690.917 348.918 690.384ZM350.183 690.227V690.384C350.183 690.753 350.226 691.102 350.312 691.43C350.399 691.753 350.529 692.04 350.702 692.291C350.88 692.542 351.101 692.74 351.365 692.886C351.63 693.027 351.937 693.098 352.288 693.098C352.634 693.098 352.938 693.027 353.197 692.886C353.462 692.74 353.68 692.542 353.854 692.291C354.027 692.04 354.157 691.753 354.243 691.43C354.334 691.102 354.38 690.753 354.38 690.384V690.227C354.38 689.862 354.334 689.518 354.243 689.194C354.157 688.866 354.024 688.577 353.847 688.326C353.674 688.071 353.455 687.87 353.19 687.725C352.931 687.579 352.625 687.506 352.274 687.506C351.928 687.506 351.623 687.579 351.358 687.725C351.099 687.87 350.88 688.071 350.702 688.326C350.529 688.577 350.399 688.866 350.312 689.194C350.226 689.518 350.183 689.862 350.183 690.227ZM359.11 692.688L361.011 686.604H361.845L361.681 687.813L359.746 694H358.933L359.11 692.688ZM357.832 686.604L359.452 692.756L359.568 694H358.714L356.567 686.604H357.832ZM363.663 692.708L365.208 686.604H366.466L364.319 694H363.472L363.663 692.708ZM362.029 686.604L363.889 692.585L364.101 694H363.294L361.305 687.8L361.141 686.604H362.029Z" fill="black"/>
<path d="M409.355 688.661V689.851H402.533V688.661H409.355ZM406.58 685.756V693.002H405.315V685.756H406.58ZM418.256 684.929L414.961 694H413.614L417.408 684.047H418.276L418.256 684.929ZM421.018 694L417.716 684.929L417.695 684.047H418.563L422.371 694H421.018ZM420.847 690.315V691.396H415.255V690.315H420.847ZM428.175 692.564V683.5H429.446V694H428.284L428.175 692.564ZM423.198 690.384V690.24C423.198 689.675 423.267 689.162 423.403 688.702C423.545 688.237 423.743 687.839 423.998 687.506C424.258 687.173 424.565 686.918 424.921 686.74C425.281 686.558 425.682 686.467 426.124 686.467C426.589 686.467 426.994 686.549 427.341 686.713C427.692 686.872 427.988 687.107 428.229 687.417C428.476 687.722 428.669 688.091 428.811 688.524C428.952 688.957 429.05 689.447 429.104 689.994V690.623C429.054 691.165 428.956 691.653 428.811 692.086C428.669 692.519 428.476 692.888 428.229 693.193C427.988 693.499 427.692 693.733 427.341 693.897C426.99 694.057 426.58 694.137 426.11 694.137C425.677 694.137 425.281 694.043 424.921 693.856C424.565 693.67 424.258 693.408 423.998 693.07C423.743 692.733 423.545 692.337 423.403 691.881C423.267 691.421 423.198 690.922 423.198 690.384ZM424.47 690.24V690.384C424.47 690.753 424.506 691.099 424.579 691.423C424.657 691.746 424.775 692.031 424.935 692.277C425.094 692.523 425.297 692.717 425.543 692.858C425.789 692.995 426.083 693.063 426.425 693.063C426.844 693.063 427.188 692.975 427.457 692.797C427.73 692.619 427.949 692.384 428.113 692.093C428.277 691.801 428.405 691.484 428.496 691.143V689.495C428.441 689.244 428.362 689.003 428.257 688.771C428.157 688.534 428.024 688.324 427.86 688.142C427.701 687.955 427.503 687.807 427.266 687.697C427.033 687.588 426.757 687.533 426.438 687.533C426.092 687.533 425.794 687.606 425.543 687.752C425.297 687.893 425.094 688.089 424.935 688.34C424.775 688.586 424.657 688.873 424.579 689.201C424.506 689.525 424.47 689.871 424.47 690.24ZM436.077 692.564V683.5H437.349V694H436.187L436.077 692.564ZM431.101 690.384V690.24C431.101 689.675 431.169 689.162 431.306 688.702C431.447 688.237 431.645 687.839 431.9 687.506C432.16 687.173 432.468 686.918 432.823 686.74C433.183 686.558 433.584 686.467 434.026 686.467C434.491 686.467 434.897 686.549 435.243 686.713C435.594 686.872 435.89 687.107 436.132 687.417C436.378 687.722 436.572 688.091 436.713 688.524C436.854 688.957 436.952 689.447 437.007 689.994V690.623C436.957 691.165 436.859 691.653 436.713 692.086C436.572 692.519 436.378 692.888 436.132 693.193C435.89 693.499 435.594 693.733 435.243 693.897C434.892 694.057 434.482 694.137 434.013 694.137C433.58 694.137 433.183 694.043 432.823 693.856C432.468 693.67 432.16 693.408 431.9 693.07C431.645 692.733 431.447 692.337 431.306 691.881C431.169 691.421 431.101 690.922 431.101 690.384ZM432.372 690.24V690.384C432.372 690.753 432.409 691.099 432.481 691.423C432.559 691.746 432.677 692.031 432.837 692.277C432.996 692.523 433.199 692.717 433.445 692.858C433.691 692.995 433.985 693.063 434.327 693.063C434.746 693.063 435.09 692.975 435.359 692.797C435.633 692.619 435.852 692.384 436.016 692.093C436.18 691.801 436.307 691.484 436.398 691.143V689.495C436.344 689.244 436.264 689.003 436.159 688.771C436.059 688.534 435.927 688.324 435.763 688.142C435.603 687.955 435.405 687.807 435.168 687.697C434.936 687.588 434.66 687.533 434.341 687.533C433.994 687.533 433.696 687.606 433.445 687.752C433.199 687.893 432.996 688.089 432.837 688.34C432.677 688.586 432.559 688.873 432.481 689.201C432.409 689.525 432.372 689.871 432.372 690.24ZM445.75 693.098C446.051 693.098 446.329 693.036 446.584 692.913C446.839 692.79 447.049 692.621 447.213 692.407C447.377 692.188 447.47 691.94 447.493 691.662H448.696C448.674 692.1 448.525 692.507 448.252 692.886C447.983 693.259 447.63 693.562 447.192 693.795C446.755 694.023 446.274 694.137 445.75 694.137C445.194 694.137 444.709 694.039 444.294 693.843C443.884 693.647 443.542 693.378 443.269 693.036C443 692.694 442.797 692.302 442.66 691.86C442.528 691.414 442.462 690.942 442.462 690.445V690.158C442.462 689.661 442.528 689.192 442.66 688.75C442.797 688.303 443 687.909 443.269 687.567C443.542 687.226 443.884 686.957 444.294 686.761C444.709 686.565 445.194 686.467 445.75 686.467C446.329 686.467 446.835 686.585 447.268 686.822C447.701 687.055 448.04 687.374 448.286 687.779C448.537 688.18 448.674 688.636 448.696 689.146H447.493C447.47 688.841 447.384 688.565 447.233 688.319C447.088 688.073 446.887 687.877 446.632 687.731C446.381 687.581 446.087 687.506 445.75 687.506C445.363 687.506 445.037 687.583 444.772 687.738C444.513 687.889 444.305 688.094 444.15 688.354C444 688.609 443.891 688.894 443.822 689.208C443.758 689.518 443.727 689.835 443.727 690.158V690.445C443.727 690.769 443.758 691.088 443.822 691.402C443.886 691.717 443.993 692.002 444.144 692.257C444.299 692.512 444.506 692.717 444.766 692.872C445.03 693.022 445.358 693.098 445.75 693.098ZM454.479 692.735V688.928C454.479 688.636 454.42 688.383 454.302 688.169C454.188 687.95 454.015 687.782 453.782 687.663C453.55 687.545 453.263 687.485 452.921 687.485C452.602 687.485 452.322 687.54 452.08 687.649C451.843 687.759 451.656 687.902 451.52 688.08C451.387 688.258 451.321 688.449 451.321 688.654H450.057C450.057 688.39 450.125 688.128 450.262 687.868C450.398 687.608 450.594 687.374 450.85 687.164C451.109 686.95 451.419 686.781 451.779 686.658C452.144 686.531 452.549 686.467 452.996 686.467C453.534 686.467 454.008 686.558 454.418 686.74C454.833 686.923 455.156 687.198 455.389 687.567C455.626 687.932 455.744 688.39 455.744 688.941V692.387C455.744 692.633 455.765 692.895 455.806 693.173C455.851 693.451 455.917 693.69 456.004 693.891V694H454.685C454.621 693.854 454.571 693.66 454.534 693.419C454.498 693.173 454.479 692.945 454.479 692.735ZM454.698 689.516L454.712 690.404H453.434C453.074 690.404 452.752 690.434 452.47 690.493C452.187 690.548 451.95 690.632 451.759 690.746C451.567 690.86 451.422 691.004 451.321 691.177C451.221 691.345 451.171 691.544 451.171 691.771C451.171 692.004 451.223 692.216 451.328 692.407C451.433 692.599 451.59 692.751 451.8 692.865C452.014 692.975 452.276 693.029 452.586 693.029C452.973 693.029 453.315 692.947 453.611 692.783C453.908 692.619 454.142 692.419 454.315 692.182C454.493 691.945 454.589 691.715 454.603 691.491L455.143 692.1C455.111 692.291 455.024 692.503 454.883 692.735C454.742 692.968 454.552 693.191 454.315 693.405C454.083 693.615 453.805 693.79 453.481 693.932C453.162 694.068 452.802 694.137 452.401 694.137C451.9 694.137 451.46 694.039 451.082 693.843C450.708 693.647 450.417 693.385 450.207 693.057C450.002 692.724 449.899 692.353 449.899 691.942C449.899 691.546 449.977 691.197 450.132 690.896C450.287 690.591 450.51 690.338 450.802 690.138C451.093 689.933 451.444 689.778 451.854 689.673C452.265 689.568 452.723 689.516 453.229 689.516H454.698ZM458.998 687.766V694H457.733V686.604H458.964L458.998 687.766ZM461.309 686.562L461.302 687.738C461.197 687.715 461.097 687.702 461.001 687.697C460.91 687.688 460.805 687.684 460.687 687.684C460.395 687.684 460.137 687.729 459.914 687.82C459.691 687.911 459.502 688.039 459.347 688.203C459.192 688.367 459.069 688.563 458.978 688.791C458.891 689.014 458.834 689.26 458.807 689.529L458.451 689.734C458.451 689.288 458.494 688.868 458.581 688.477C458.672 688.085 458.811 687.738 458.998 687.438C459.185 687.132 459.422 686.895 459.709 686.727C460.001 686.553 460.347 686.467 460.748 686.467C460.839 686.467 460.944 686.478 461.062 686.501C461.181 686.519 461.263 686.54 461.309 686.562ZM465.916 686.604V687.574H461.917V686.604H465.916ZM463.271 684.806H464.535V692.168C464.535 692.419 464.574 692.608 464.651 692.735C464.729 692.863 464.829 692.947 464.952 692.988C465.075 693.029 465.207 693.05 465.349 693.05C465.453 693.05 465.563 693.041 465.677 693.022C465.795 693 465.884 692.981 465.943 692.968L465.95 694C465.85 694.032 465.718 694.062 465.554 694.089C465.394 694.121 465.201 694.137 464.973 694.137C464.663 694.137 464.378 694.075 464.118 693.952C463.858 693.829 463.651 693.624 463.496 693.337C463.346 693.045 463.271 692.653 463.271 692.161V684.806Z" fill="black"/>
<path d="M306.598 667.924V666.72C305.917 666.664 305.273 666.51 304.666 666.258C304.069 665.997 303.541 665.651 303.084 665.222L304.078 663.864C304.815 664.564 305.655 664.989 306.598 665.138V662.884L305.842 662.73C304.927 662.562 304.274 662.282 303.882 661.89C303.49 661.498 303.294 660.938 303.294 660.21C303.294 659.65 303.425 659.165 303.686 658.754C303.957 658.343 304.339 658.021 304.834 657.788C305.338 657.555 305.926 657.429 306.598 657.41V656.248H307.536V657.452C308.105 657.508 308.67 657.629 309.23 657.816C309.79 658.003 310.308 658.25 310.784 658.558L309.972 660.028C309.533 659.767 309.113 659.557 308.712 659.398C308.311 659.239 307.919 659.127 307.536 659.062V661.288L308.278 661.414C309.258 661.601 309.963 661.89 310.392 662.282C310.831 662.665 311.05 663.201 311.05 663.892C311.05 664.443 310.905 664.928 310.616 665.348C310.336 665.759 309.935 666.085 309.412 666.328C308.889 666.571 308.264 666.711 307.536 666.748V667.924H306.598ZM306.598 661.176V658.992C306.141 659.011 305.767 659.113 305.478 659.3C305.198 659.487 305.058 659.739 305.058 660.056C305.058 660.28 305.1 660.467 305.184 660.616C305.277 660.756 305.422 660.868 305.618 660.952C305.814 661.036 306.08 661.106 306.416 661.162L306.598 661.176ZM307.536 665.208C308.04 665.171 308.441 665.054 308.74 664.858C309.048 664.653 309.202 664.387 309.202 664.06C309.202 663.845 309.16 663.673 309.076 663.542C309.001 663.411 308.857 663.304 308.642 663.22C308.427 663.136 308.124 663.066 307.732 663.01L307.536 662.968V665.208ZM312.094 667V665.684L316.182 661.54C316.378 661.335 316.532 661.143 316.644 660.966C316.766 660.789 316.85 660.616 316.896 660.448C316.952 660.271 316.98 660.093 316.98 659.916C316.98 659.552 316.826 659.249 316.518 659.006C316.22 658.763 315.837 658.642 315.37 658.642C314.922 658.642 314.507 658.735 314.124 658.922C313.742 659.099 313.322 659.407 312.864 659.846L311.828 658.586C312.379 658.073 312.953 657.69 313.55 657.438C314.148 657.177 314.773 657.046 315.426 657.046C316.089 657.046 316.672 657.163 317.176 657.396C317.68 657.629 318.072 657.951 318.352 658.362C318.632 658.773 318.772 659.253 318.772 659.804C318.772 660.121 318.726 660.42 318.632 660.7C318.548 660.98 318.408 661.265 318.212 661.554C318.016 661.834 317.755 662.137 317.428 662.464L314.46 665.446L318.926 665.432V667H312.094ZM323.424 667.154C322.07 667.154 320.899 666.715 319.91 665.838L321.002 664.564C321.422 664.919 321.828 665.175 322.22 665.334C322.612 665.493 323.041 665.572 323.508 665.572C323.89 665.572 324.222 665.502 324.502 665.362C324.782 665.222 325.001 665.026 325.16 664.774C325.328 664.522 325.412 664.228 325.412 663.892C325.412 663.416 325.225 663.024 324.852 662.716C324.488 662.408 324.012 662.254 323.424 662.254C323.134 662.254 322.84 662.296 322.542 662.38C322.243 662.455 321.94 662.576 321.632 662.744L320.358 662.366L320.582 657.2H326.756V658.768H322.122L322.01 661.302C322.327 661.143 322.649 661.027 322.976 660.952C323.302 660.868 323.643 660.826 323.998 660.826C324.66 660.826 325.234 660.952 325.72 661.204C326.214 661.447 326.597 661.792 326.868 662.24C327.138 662.688 327.274 663.211 327.274 663.808C327.274 664.471 327.11 665.054 326.784 665.558C326.466 666.062 326.018 666.454 325.44 666.734C324.861 667.014 324.189 667.154 323.424 667.154ZM332.657 667.154C331.808 667.154 331.056 666.944 330.403 666.524C329.759 666.095 329.255 665.502 328.891 664.746C328.536 663.981 328.359 663.099 328.359 662.1C328.359 661.092 328.536 660.21 328.891 659.454C329.255 658.698 329.759 658.11 330.403 657.69C331.056 657.261 331.808 657.046 332.657 657.046C333.516 657.046 334.267 657.261 334.911 657.69C335.564 658.11 336.068 658.698 336.423 659.454C336.787 660.21 336.969 661.092 336.969 662.1C336.969 663.099 336.787 663.981 336.423 664.746C336.068 665.502 335.564 666.095 334.911 666.524C334.267 666.944 333.516 667.154 332.657 667.154ZM332.657 665.488C333.161 665.488 333.595 665.353 333.959 665.082C334.323 664.811 334.603 664.419 334.799 663.906C335.004 663.393 335.107 662.791 335.107 662.1C335.107 661.4 335.004 660.798 334.799 660.294C334.603 659.781 334.323 659.389 333.959 659.118C333.595 658.847 333.161 658.712 332.657 658.712C332.162 658.712 331.733 658.847 331.369 659.118C331.005 659.389 330.72 659.781 330.515 660.294C330.319 660.798 330.221 661.4 330.221 662.1C330.221 662.791 330.319 663.393 330.515 663.906C330.72 664.419 331.005 664.811 331.369 665.082C331.733 665.353 332.162 665.488 332.657 665.488Z" fill="black"/>
<path d="M377.75 728L367 696L399 706.75L387.5 711.5L398 722.25L393 727L382.5 716.5L377.75 728Z" fill="#B8D9BA" stroke="black"/>
<path d="M208.788 666.652C208.282 665.307 207.659 663.65 206.904 661.512C206.552 661.573 206.208 661.609 205.87 661.609C205.383 661.609 204.934 661.542 204.512 661.428L210.263 675.357C210.269 675.371 210.274 675.385 210.278 675.399C210.486 676.03 210.935 676.543 211.501 676.849C211.382 675.546 211.141 674.286 210.877 673.113C210.368 670.852 209.773 669.271 208.788 666.652Z" fill="#F24F46"/>
<path d="M227.491 672.708L223.753 675.213C222.693 675.906 221.702 676.698 220.768 677.567L222.544 677.656C222.59 677.656 222.895 677.628 223.599 677.271C224.176 676.979 224.86 676.637 225.562 676.315L230.896 673.869C229.569 673.704 228.433 673.32 227.491 672.708Z" fill="#F24F46"/>
<path d="M211.046 642.905C211.068 642.905 211.091 642.902 211.116 642.898L220.224 641.149C220.485 641.099 220.704 640.935 220.825 640.699C220.947 640.463 220.953 640.189 220.843 639.947L220.614 639.447C220.474 639.143 220.167 638.946 219.832 638.946C219.723 638.946 219.616 638.967 219.514 639.008L210.977 642.425C210.93 642.444 210.787 642.501 210.825 642.695C210.831 642.73 210.874 642.905 211.046 642.905Z" fill="#FFC300"/>
<path d="M200.486 639.457L208.104 637.995C208.365 637.945 208.585 637.781 208.706 637.545C208.828 637.308 208.834 637.035 208.723 636.793C208.57 636.459 208.264 636.262 207.928 636.262C207.819 636.262 207.712 636.283 207.61 636.324L200.412 639.205C200.369 639.222 200.311 639.246 200.33 639.346C200.338 639.388 200.385 639.477 200.486 639.457Z" fill="#FFC300"/>
<path d="M221.559 647.079L229.177 645.616C229.438 645.566 229.657 645.402 229.779 645.166C229.901 644.93 229.907 644.656 229.796 644.415C229.643 644.08 229.336 643.883 229.001 643.883C228.892 643.883 228.784 643.904 228.682 643.945L221.484 646.827C221.442 646.844 221.383 646.867 221.402 646.968C221.41 647.009 221.454 647.099 221.559 647.079Z" fill="#FFC300"/>
<path d="M179.202 647.002C180.404 647.712 182.325 648.554 184.551 649.528C189.186 651.559 195.534 654.34 199.573 657.833C199.941 658.152 200.302 658.495 200.651 658.827C201.366 659.506 202.092 660.197 202.923 660.72L209.148 675.794C209.532 676.938 210.455 677.808 211.576 678.167C211.581 678.415 211.579 678.664 211.572 678.914L211.421 678.857C211.258 678.796 211.077 678.808 210.924 678.891C210.771 678.974 210.662 679.119 210.624 679.289L210.066 681.843C210.002 682.135 210.163 682.429 210.444 682.533L210.922 682.709L209.701 686.69C209.608 686.995 209.77 687.32 210.07 687.429L212.7 688.378C212.767 688.402 212.836 688.414 212.903 688.414C213.111 688.414 213.31 688.305 213.42 688.117L215.581 684.424L215.916 684.548C215.984 684.573 216.054 684.585 216.123 684.585C216.332 684.585 216.533 684.474 216.642 684.283L217.918 682.053C218.005 681.901 218.021 681.718 217.962 681.554C217.903 681.389 217.774 681.258 217.61 681.196L217.59 681.189C218.223 680.304 218.902 679.478 219.623 678.707L222.513 678.853C222.926 678.853 223.458 678.685 224.14 678.339C224.707 678.052 225.378 677.716 226.061 677.403L233.668 673.914C233.671 673.913 233.673 673.91 233.676 673.909C241.483 673.202 243.046 665.688 244.308 659.589C244.734 657.528 245.137 655.581 245.732 654.082C247.96 648.466 247.235 642.174 243.692 636.366C238.716 628.208 228.795 622.084 219.006 621.125C218.986 621.123 218.967 621.122 218.947 621.122H218.637C217.506 621.041 216.372 621 215.265 621C192.209 621 181.134 638.41 178.289 643.746C177.672 644.904 178.073 646.334 179.202 647.002ZM210.278 675.399C210.273 675.385 210.268 675.371 210.263 675.357L204.511 661.428C204.933 661.542 205.382 661.609 205.87 661.609C206.207 661.609 206.551 661.573 206.904 661.512C207.658 663.65 208.281 665.307 208.787 666.652C209.773 669.271 210.368 670.852 210.876 673.113C211.14 674.286 211.381 675.546 211.501 676.849C210.934 676.543 210.486 676.03 210.278 675.399ZM216.531 682.068L215.854 683.25L211.346 681.59L211.646 680.221L216.531 682.068ZM211.012 686.496L212.047 683.123L214.44 684.004L212.638 687.083L211.012 686.496ZM212.745 679.358C212.866 677.005 212.467 674.732 212.044 672.85C211.517 670.508 210.876 668.806 209.907 666.23C209.408 664.904 208.796 663.279 208.056 661.182L209.672 660.6C212.942 667.566 215.359 675.538 215.383 675.619C215.438 675.803 215.579 675.949 215.76 676.012C215.942 676.075 216.142 676.047 216.299 675.937C216.327 675.918 219.129 673.97 225.489 670.513C225.766 670.907 226.17 671.459 226.555 671.895L223.092 674.216C220.508 675.905 218.274 678.098 216.425 680.748L212.745 679.358ZM216.289 674.505C215.599 672.331 213.488 665.932 210.794 660.176C211.326 659.966 211.824 659.767 212.312 659.572C213.325 659.166 214.283 658.783 215.509 658.319C216.171 658.069 216.841 657.941 217.499 657.941C220.831 657.941 223.633 661.236 224.017 665.606C224.148 667.101 224.444 668.384 224.898 669.474C220.199 672.027 217.459 673.741 216.289 674.505ZM225.561 676.315C224.86 676.637 224.176 676.979 223.599 677.272C222.895 677.628 222.59 677.656 222.544 677.657L220.767 677.567C221.702 676.698 222.693 675.907 223.753 675.214L227.491 672.708C228.433 673.32 229.568 673.704 230.895 673.869L225.561 676.315ZM179.345 644.309C182.111 639.122 192.875 622.197 215.265 622.197C216.35 622.197 217.463 622.237 218.572 622.317C218.587 622.318 218.601 622.319 218.616 622.319H218.918C228.342 623.252 237.885 629.144 242.671 636.989C246.013 642.468 246.705 648.382 244.619 653.641C243.986 655.237 243.574 657.233 243.136 659.347C241.834 665.639 240.358 672.772 232.452 672.772L232.378 672.771C230.876 672.763 229.091 672.537 227.668 671.335C227.28 670.952 226.645 670.094 226.23 669.476C225.722 668.477 225.356 667.183 225.209 665.502C224.77 660.51 221.455 656.745 217.498 656.745C216.696 656.745 215.884 656.898 215.086 657.2C213.848 657.668 212.886 658.053 211.867 658.461C211.204 658.727 210.525 658.998 209.76 659.296L207.151 660.236C206.702 660.35 206.277 660.413 205.87 660.413C205.059 660.413 204.372 660.184 203.736 659.815C203.733 659.814 203.73 659.812 203.727 659.81C202.944 659.354 202.238 658.685 201.475 657.96C201.116 657.618 200.745 657.265 200.356 656.929C196.18 653.317 189.736 650.494 185.031 648.433C182.841 647.473 180.951 646.645 179.811 645.972C179.235 645.631 179.03 644.9 179.345 644.309Z" fill="#333333"/>
<path d="M231.87 633.282C234.167 635.112 236.082 637.476 237.41 640.119C238.739 642.762 239.492 645.711 239.589 648.646C239.6 648.969 239.865 649.224 240.187 649.224C240.193 649.224 240.2 649.224 240.207 649.224C240.537 649.213 240.796 648.936 240.785 648.606C240.682 645.499 239.885 642.379 238.48 639.582C237.075 636.785 235.047 634.283 232.616 632.346C232.358 632.141 231.981 632.183 231.775 632.441C231.569 632.699 231.611 633.076 231.87 633.282Z" fill="#333333"/>
<path d="M200.437 640.659C200.524 640.659 200.614 640.651 200.708 640.633L208.326 639.17C208.95 639.05 209.475 638.657 209.766 638.093C210.057 637.528 210.072 636.873 209.794 636.265C209.46 635.536 208.726 635.065 207.924 635.065C207.662 635.065 207.405 635.115 207.161 635.213L199.963 638.094C199.354 638.338 199.028 638.932 199.151 639.573C199.274 640.212 199.803 640.659 200.437 640.659ZM200.408 639.205L207.606 636.324C207.708 636.282 207.815 636.262 207.924 636.262C208.26 636.262 208.566 636.459 208.719 636.793C208.83 637.035 208.824 637.308 208.702 637.544C208.581 637.781 208.361 637.944 208.1 637.995L200.482 639.457C200.381 639.477 200.334 639.388 200.326 639.346C200.306 639.246 200.365 639.222 200.408 639.205Z" fill="#333333"/>
<path d="M209.645 642.921C209.779 643.616 210.353 644.102 211.042 644.102C211.139 644.102 211.239 644.092 211.337 644.073L220.446 642.324C221.07 642.204 221.594 641.811 221.885 641.247C222.176 640.682 222.191 640.026 221.926 639.449L221.697 638.949C221.363 638.22 220.63 637.749 219.828 637.749C219.566 637.749 219.309 637.799 219.064 637.897L210.528 641.314C209.866 641.579 209.511 642.225 209.645 642.921ZM210.973 642.425L219.51 639.008C219.612 638.967 219.719 638.946 219.828 638.946C220.163 638.946 220.47 639.143 220.61 639.447L220.839 639.948C220.949 640.189 220.943 640.463 220.821 640.699C220.7 640.935 220.481 641.099 220.22 641.149L211.112 642.898C211.087 642.903 211.064 642.905 211.042 642.905C210.87 642.905 210.827 642.73 210.82 642.695C210.783 642.501 210.926 642.444 210.973 642.425Z" fill="#333333"/>
<path d="M220.227 647.194C220.35 647.834 220.879 648.28 221.513 648.28C221.6 648.28 221.69 648.272 221.784 648.254L229.402 646.791C230.026 646.672 230.551 646.279 230.842 645.714C231.133 645.149 231.148 644.494 230.87 643.886C230.536 643.157 229.802 642.687 229 642.687C228.738 642.687 228.481 642.736 228.237 642.834L221.039 645.716C220.43 645.96 220.104 646.554 220.227 647.194ZM221.484 646.827L228.682 643.945C228.784 643.904 228.892 643.883 229 643.883C229.336 643.883 229.642 644.08 229.796 644.415C229.906 644.656 229.9 644.93 229.778 645.166C229.657 645.402 229.437 645.566 229.176 645.616L221.558 647.079C221.454 647.098 221.41 647.009 221.402 646.968C221.382 646.867 221.441 646.844 221.484 646.827Z" fill="#333333"/>
<path d="M212.048 683.123L211.014 686.496L212.64 687.083L214.441 684.004L212.048 683.123Z" fill="#B8D9BA"/>
<path d="M223.091 674.216L226.554 671.895C226.169 671.458 225.765 670.908 225.488 670.513C219.128 673.97 216.326 675.918 216.298 675.937C216.141 676.047 215.941 676.075 215.759 676.012C215.578 675.949 215.437 675.803 215.382 675.619C215.358 675.538 212.941 667.566 209.671 660.6L208.055 661.182C208.795 663.279 209.407 664.904 209.906 666.23C210.875 668.806 211.516 670.508 212.043 672.85C212.466 674.732 212.865 677.005 212.744 679.358L216.424 680.748C218.273 678.098 220.507 675.905 223.091 674.216Z" fill="#B8D9BA"/>
<path d="M211.647 680.221L211.348 681.59L215.856 683.25L216.532 682.068L211.647 680.221Z" fill="#F24F46"/>
<g filter="url(#filter0_d_946_8728)">
<rect x="148" y="609" width="139" height="89" rx="8" fill="white"/>
</g>
<path d="M179.811 645.972C180.95 646.645 182.841 647.474 185.031 648.433C189.736 650.494 196.18 653.317 200.356 656.929C200.745 657.266 201.116 657.618 201.475 657.96C202.238 658.685 202.944 659.354 203.727 659.811C203.73 659.812 203.733 659.814 203.736 659.816C204.372 660.185 205.059 660.413 205.869 660.413C206.277 660.413 206.702 660.35 207.151 660.236L209.76 659.296C210.525 658.999 211.204 658.727 211.867 658.462C212.886 658.054 213.848 657.668 215.085 657.2C215.883 656.898 216.695 656.745 217.498 656.745C221.455 656.745 224.77 660.51 225.208 665.502C225.356 667.183 225.722 668.477 226.23 669.477C226.645 670.094 227.28 670.952 227.668 671.336C229.09 672.538 230.876 672.764 232.377 672.772L232.452 672.772C240.357 672.772 241.833 665.64 243.136 659.347C243.573 657.233 243.986 655.237 244.619 653.641C246.705 648.383 246.013 642.469 242.67 636.989C237.885 629.145 228.342 623.252 218.918 622.319H218.616C218.601 622.319 218.587 622.319 218.572 622.318C217.463 622.238 216.35 622.197 215.265 622.197C192.875 622.197 182.111 639.122 179.345 644.31C179.03 644.901 179.235 645.631 179.811 645.972ZM231.773 632.442C231.979 632.183 232.355 632.141 232.614 632.346C235.045 634.283 237.072 636.785 238.478 639.582C239.883 642.379 240.68 645.5 240.783 648.607C240.794 648.937 240.535 649.213 240.205 649.224C240.198 649.224 240.191 649.225 240.185 649.225C239.863 649.225 239.598 648.97 239.587 648.646C239.49 645.711 238.736 642.763 237.408 640.12C236.08 637.476 234.164 635.112 231.868 633.282C231.609 633.076 231.567 632.7 231.773 632.442ZM228.999 642.687C229.801 642.687 230.535 643.158 230.869 643.887C231.147 644.494 231.132 645.149 230.841 645.714C230.55 646.279 230.025 646.672 229.401 646.792L221.783 648.255C221.689 648.273 221.599 648.281 221.512 648.281C220.878 648.281 220.349 647.834 220.226 647.195C220.103 646.554 220.429 645.96 221.038 645.716L228.236 642.835C228.48 642.737 228.737 642.687 228.999 642.687ZM210.531 641.315L219.067 637.897C219.312 637.799 219.569 637.75 219.831 637.75C220.632 637.75 221.366 638.221 221.7 638.95L221.929 639.45C222.194 640.027 222.179 640.682 221.888 641.247C221.597 641.812 221.072 642.205 220.448 642.325L211.34 644.074C211.241 644.093 211.142 644.102 211.045 644.102C210.356 644.102 209.782 643.617 209.648 642.922C209.514 642.226 209.869 641.58 210.531 641.315ZM199.966 638.095L207.163 635.213C207.408 635.115 207.664 635.066 207.927 635.066C208.728 635.066 209.462 635.537 209.796 636.266C210.075 636.873 210.059 637.529 209.768 638.094C209.477 638.658 208.952 639.051 208.329 639.171L200.71 640.633C200.616 640.651 200.526 640.659 200.439 640.659C199.805 640.659 199.277 640.213 199.153 639.574C199.03 638.933 199.356 638.339 199.966 638.095Z" fill="#B8D9BA"/>
<path d="M266.113 618.079C264.629 619.518 264.629 621.851 266.113 623.29L272 629L277.887 623.29C279.371 621.851 279.371 619.518 277.887 618.079C276.404 616.64 273.998 616.64 272.514 618.079L272 618.578L271.486 618.079C270.002 616.64 267.596 616.64 266.113 618.079Z" fill="#FFB1BC"/>
<defs>
<filter id="filter0_d_946_8728" x="128" y="599" width="179" height="129" filterUnits="userSpaceOnUse" color-interpolation-filters="sRGB">
<feFlood flood-opacity="0" result="BackgroundImageFix"/>
<feColorMatrix in="SourceAlpha" type="matrix" values="0 0 0 0 0 0 0 0 0 0 0 0 0 0 0 0 0 0 127 0" result="hardAlpha"/>
<feOffset dy="10"/>
<feGaussianBlur stdDeviation="10"/>
<feComposite in2="hardAlpha" operator="out"/>
<feColorMatrix type="matrix" values="0 0 0 0 0 0 0 0 0 0 0 0 0 0 0 0 0 0 0.05 0"/>
<feBlend mode="normal" in2="BackgroundImageFix" result="effect1_dropShadow_946_8728"/>
<feBlend mode="normal" in="SourceGraphic" in2="effect1_dropShadow_946_8728" result="shape"/>
</filter>
<linearGradient id="paint0_linear_946_8728" x1="313.5" y1="552" x2="313.5" y2="752" gradientUnits="userSpaceOnUse">
<stop stop-color="#B8D9BA"/>
<stop offset="1" stop-opacity="0"/>
</linearGradient>
</defs>
</svg>
