<svg width="40" height="46" viewBox="0 0 40 46" fill="none" xmlns="http://www.w3.org/2000/svg">
<path d="M8.15853 39.4198L3.02537 40.3364C2.72994 40.3894 2.43211 40.4315 2.13789 40.4844C1.62662 40.577 1.21303 40.4194 0.920017 39.996C0.627004 39.5725 0.646292 39.125 0.90072 38.6835C1.7046 37.2953 2.50848 35.9066 3.31235 34.5176C4.44582 32.5579 5.56964 30.5923 6.71999 28.6434C6.90931 28.3223 6.87072 28.1105 6.59941 27.9217C6.35839 27.7463 6.09927 27.597 5.82648 27.4766C2.79144 26.2531 1.51327 22.4108 3.25206 19.6572C3.77418 18.8283 3.78384 18.0536 3.26051 17.2235C1.51569 14.4567 2.76733 10.6276 5.81563 9.40416C6.74893 9.03003 7.19749 8.37561 7.22764 7.37713C7.29155 5.29838 9.0834 3.23046 11.3045 2.63619C12.1463 2.3933 13.0392 2.38831 13.8837 2.62175C14.8243 2.89363 15.5719 2.62175 16.1989 1.86628C18.2355 -0.62149 22.3799 -0.622693 24.4117 1.86628C25.0146 2.60731 25.7514 2.90806 26.6799 2.63498C29.7403 1.73275 33.3432 4.30833 33.4035 7.60209C33.3961 7.97481 33.5067 8.34037 33.7195 8.64682C33.9323 8.95327 34.2365 9.18501 34.5888 9.30912C36.8172 10.1837 37.9109 11.8799 38.1315 14.186C38.2425 15.2268 37.9844 16.2735 37.402 17.1441C36.8136 18.0235 36.8389 18.8391 37.402 19.733C39.0817 22.3952 37.7951 26.2543 34.8698 27.4381C34.5816 27.5623 34.3062 27.7142 34.0474 27.8916C33.7412 28.0949 33.6965 28.3259 33.9063 28.6819C35.328 31.0975 36.7231 33.53 38.1267 35.9576C38.638 36.8394 39.142 37.726 39.6605 38.6041C39.9354 39.0697 40.0066 39.534 39.6882 39.996C39.3699 40.4579 38.9201 40.5758 38.3811 40.4772C36.611 40.156 34.8384 39.8456 33.0659 39.5316C32.8754 39.498 32.6824 39.4691 32.4413 39.4306C32.0948 40.3874 31.7491 41.3401 31.4043 42.2889C31.0775 43.1899 30.7399 44.0861 30.4288 44.992C30.2479 45.5165 29.9561 45.8966 29.3749 45.964C28.7467 46.0362 28.3741 45.6885 28.0822 45.1796C26.4447 42.3342 24.8024 39.4915 23.1553 36.6517C23.0805 36.523 23.0009 36.3979 22.9141 36.2439C21.1886 37.0571 19.4655 37.0751 17.717 36.2439C17.6326 36.3774 17.5422 36.511 17.4614 36.6505C15.7958 39.5168 14.1326 42.3855 12.4717 45.2566C12.0594 45.9688 11.3708 46.2106 10.7776 45.8004C10.5179 45.6042 10.3199 45.3378 10.2072 45.0329C9.55728 43.3114 8.94111 41.5767 8.31408 39.8468C8.26826 39.7229 8.22244 39.5918 8.15853 39.4198ZM3.93818 22.246C3.93818 24.0986 4.87871 25.494 6.48727 26.1617C7.81366 26.7139 8.56007 27.7087 8.65774 29.1535C8.69325 29.7418 8.85833 30.3149 9.14123 30.8323C9.42413 31.3496 9.81789 31.7983 10.2945 32.1465C10.771 32.4947 11.3187 32.7337 11.8984 32.8466C12.4782 32.9596 13.0758 32.9435 13.6486 32.7998C15.0329 32.4485 16.1941 32.8286 17.1455 33.8704C17.3083 34.0472 17.4518 34.2433 17.6278 34.4045C19.2243 35.8673 21.935 35.6761 23.3193 34.0148C24.2719 32.8719 25.4704 32.428 26.9367 32.7961C27.5091 32.9423 28.1068 32.9606 28.6871 32.8497C29.2674 32.7389 29.816 32.5016 30.2937 32.1548C30.7715 31.808 31.1666 31.3602 31.4509 30.8435C31.7352 30.3268 31.9017 29.7538 31.9385 29.1655C32.0373 27.7027 32.7946 26.7127 34.1355 26.1485C34.3306 26.072 34.5215 25.9849 34.707 25.8874C36.564 24.8492 37.2392 22.1979 36.0901 20.3994C35.539 19.5357 35.2894 18.6106 35.5812 17.6181C35.7259 17.1249 36.0093 16.6678 36.2577 16.2082C37.2983 14.2835 36.2963 11.5671 34.2283 10.7503C32.8199 10.1945 32.0096 9.18642 31.9373 7.66344C31.8239 5.13718 29.0867 3.41692 26.9428 4.0545C25.5163 4.47795 24.2755 4.02202 23.3253 2.85874C21.8144 1.01096 18.777 1.00373 17.2709 2.84791C16.3062 4.02803 15.0546 4.47915 13.6136 4.05089C11.5288 3.43015 8.78315 5.12034 8.65774 7.6057C8.57937 9.16958 7.77871 10.1945 6.33293 10.7647C4.16246 11.6213 3.23881 14.494 4.49527 16.4645C5.3321 17.7757 5.33933 19.0809 4.50249 20.3874C4.13476 20.9374 3.9411 21.5849 3.94661 22.246H3.93818ZM2.46708 38.8941C2.50573 38.9102 2.54623 38.9215 2.58766 38.9277C4.49124 38.5853 6.39443 38.2416 8.2972 37.8968C8.90011 37.7885 9.16539 37.9305 9.37521 38.4983C9.55728 38.9891 9.73695 39.4823 9.91059 39.9743C10.4014 41.3301 10.8933 42.6859 11.4191 44.1342L16.4871 35.3922C15.8372 34.3612 15.004 33.9342 13.8198 34.2469C12.1233 34.6968 10.6184 34.2133 9.26307 33.1763C8.3575 32.4846 7.74976 31.5703 7.36872 30.4311C5.71314 33.2906 4.09614 36.0875 2.4719 38.8941H2.46708ZM38.1593 38.9494L33.248 30.4467C33.1853 30.6079 33.1467 30.7042 33.1105 30.8004C32.1688 33.2737 29.4123 34.9002 26.9934 34.2963C25.7297 33.9799 24.8157 34.2638 24.1272 35.4018L29.1783 44.1294C29.8741 42.2119 30.5337 40.387 31.1969 38.5632C31.438 37.8992 31.6635 37.7873 32.3593 37.9124C34.256 38.2577 36.1588 38.5921 38.1641 38.9494H38.1593Z" fill="#FF3A54"/>
<path d="M32.3588 18.4184C32.3817 25.0132 26.9495 30.4543 20.3284 30.4663C13.6843 30.4783 8.23526 25.0529 8.24611 18.4244C8.25696 11.8814 13.6216 6.5017 20.074 6.40185C26.5516 6.3008 32.307 11.464 32.3588 18.4184ZM20.2826 29.0047C26.0548 29.0396 30.8359 24.3203 30.8745 18.546C30.9143 12.6766 26.2152 7.89956 20.367 7.86467C14.5537 7.83099 9.76785 12.5395 9.73047 18.3306C9.71583 19.7238 9.97772 21.1062 10.5011 22.398C11.0244 23.6897 11.7989 24.8654 12.7798 25.8572C13.7607 26.849 14.9286 27.6373 16.2163 28.1767C17.504 28.716 18.886 28.9958 20.2826 28.9999V29.0047Z" fill="#FF3A54"/>
<path d="M15.3245 23.9496C15.474 23.3012 15.6452 22.5433 15.8225 21.7842C15.9744 21.1286 16.1505 20.4766 16.2747 19.8162C16.2859 19.7218 16.2766 19.6261 16.2475 19.5356C16.2183 19.4451 16.17 19.3619 16.1058 19.2917C15.1086 18.4015 14.0945 17.5293 13.0744 16.6644C12.7693 16.4057 12.5921 16.1146 12.7368 15.7236C12.8815 15.3327 13.1974 15.2677 13.5712 15.2424C14.9193 15.1398 16.2658 15.0195 17.6107 14.8815C17.6955 14.8579 17.7741 14.8161 17.841 14.7589C17.9079 14.7018 17.9614 14.6307 17.9978 14.5507C18.5126 13.3706 19.0046 12.1808 19.5002 10.9923C19.6558 10.6218 19.8173 10.2705 20.3105 10.2705C20.8037 10.2705 20.952 10.6314 21.1064 11.0067C21.5971 12.1808 22.0975 13.3501 22.5787 14.5291C22.6102 14.6408 22.6785 14.7386 22.7726 14.8069C22.8666 14.8752 22.9809 14.91 23.0972 14.9056C24.4308 15.0006 25.7608 15.1354 27.0944 15.24C27.4562 15.2689 27.748 15.3832 27.8686 15.7405C27.9892 16.0978 27.8589 16.3853 27.5792 16.6259C26.5518 17.504 25.5293 18.3979 24.5044 19.2724C24.4129 19.3333 24.3444 19.423 24.3099 19.5272C24.2754 19.6314 24.2768 19.7441 24.3138 19.8475C24.6322 21.125 24.924 22.4098 25.2242 23.697C25.311 24.0651 25.334 24.4188 24.9831 24.6726C24.6322 24.9264 24.309 24.7929 23.981 24.5896C22.8801 23.9147 21.7647 23.2663 20.6747 22.5746C20.3841 22.3906 20.1924 22.4206 19.9162 22.5902C18.7828 23.2968 17.6404 23.9889 16.4893 24.6666C15.9141 24.9926 15.3329 24.6858 15.3245 23.9496ZM25.3786 16.5753C24.3162 16.4851 23.3793 16.3865 22.4388 16.3347C21.9565 16.3083 21.6538 16.129 21.4741 15.6791C21.1582 14.8876 20.817 14.1044 20.483 13.3201C20.4359 13.2082 20.3708 13.1035 20.2828 12.9363C19.8764 13.8987 19.4882 14.7709 19.1348 15.6587C18.9564 16.1074 18.6658 16.3191 18.1835 16.3323C17.7011 16.3456 17.2188 16.3949 16.7461 16.437C16.2734 16.4791 15.814 16.5308 15.2304 16.5898C16.0431 17.2887 16.7461 17.9131 17.4757 18.5145C17.8663 18.8333 17.9676 19.1954 17.8374 19.667C17.6541 20.3611 17.4925 21.0613 17.3297 21.7602C17.2779 21.9803 17.249 22.2053 17.1923 22.5217C18.0653 21.9936 18.8599 21.5412 19.622 21.0408C20.1043 20.7244 20.5059 20.734 20.9834 21.0492C21.743 21.5521 22.5389 21.9996 23.395 22.5169C23.36 22.2991 23.3468 22.1692 23.3178 22.0429C23.1562 21.344 23.0393 20.6294 22.8126 19.9509C22.5714 19.2195 22.7752 18.7395 23.3733 18.292C24.0474 17.7879 24.6515 17.2045 25.3786 16.5753Z" fill="#FF3A54"/>
</svg>
