<svg width="53" height="53" viewBox="0 0 53 53" fill="none" xmlns="http://www.w3.org/2000/svg">
<path fill-rule="evenodd" clip-rule="evenodd" d="M31.9685 5.78991H16.5438C16.0871 5.78991 15.7168 6.16016 15.7168 6.61692V19.4128C15.7168 19.8693 15.3461 20.24 14.8897 20.24C14.4332 20.24 14.0625 19.8693 14.0625 19.4128C14.0625 13.8761 14.0625 9.04107 14.0625 6.61692C14.0625 5.24666 15.1734 4.13574 16.5438 4.13574H32.2586C32.4464 4.13574 32.6286 4.19961 32.7752 4.31692L45.1817 14.2421C45.3778 14.399 45.4921 14.6366 45.4921 14.8879V46.3173C45.4919 47.6878 44.3812 48.7987 43.0108 48.7987C37.7988 48.7987 21.7558 48.7987 16.5438 48.7987C15.1734 48.7987 14.0625 47.6878 14.0625 46.3173C14.0625 45.5244 14.0625 44.4737 14.0625 43.2246C14.0625 42.7681 14.4332 42.3976 14.8897 42.3976C15.3461 42.3976 15.7168 42.7681 15.7168 43.2246V46.3173C15.7168 46.7741 16.0871 47.1445 16.5438 47.1445H43.0108C43.4675 47.1445 43.8378 46.7741 43.8378 46.3173V15.2854L31.9685 5.78991Z" fill="#E6001E"/>
<path fill-rule="evenodd" clip-rule="evenodd" d="M32.7734 4.31697C32.5253 4.11837 32.1851 4.07966 31.8985 4.21737C31.6119 4.35509 31.4297 4.64495 31.4297 4.9628V13.2338C31.4297 14.6042 32.5406 15.7151 33.911 15.7151H44.6632C45.0144 15.7151 45.3273 15.4931 45.4436 15.1617C45.5598 14.8303 45.4541 14.4616 45.1799 14.2421L32.7734 4.31697ZM42.3053 14.0608L33.0839 6.68366V13.2338C33.0839 13.6905 33.4543 14.0608 33.911 14.0608H42.3053Z" fill="#E6001E"/>
<path fill-rule="evenodd" clip-rule="evenodd" d="M33.0851 23.1589C33.0851 22.062 32.6495 21.0102 31.8738 20.2347C31.0983 19.4591 30.0465 19.0234 28.9498 19.0234C24.3729 19.0234 16.1576 19.0234 11.5808 19.0234C10.484 19.0234 9.43207 19.4591 8.65657 20.2347C7.88107 21.0102 7.44531 22.062 7.44531 23.1589V39.7007C7.44531 40.7975 7.88107 41.8493 8.65657 42.6248C9.43207 43.4005 10.484 43.8361 11.5808 43.8361H28.9496C30.0465 43.8361 31.0983 43.4005 31.8738 42.6248C32.6495 41.8493 33.0851 40.7975 33.0851 39.7007V23.1589ZM31.4309 23.1589V39.7007C31.4309 40.3588 31.1695 40.9899 30.7043 41.4552C30.2389 41.9205 29.6078 42.1819 28.9496 42.1819C24.3729 42.1819 16.1576 42.1819 11.5808 42.1819C10.9226 42.1819 10.2915 41.9205 9.82629 41.4552C9.3609 40.9899 9.09948 40.3588 9.09948 39.7007C9.09948 35.2988 9.09948 27.5608 9.09948 23.1589C9.09948 22.5007 9.3609 21.8697 9.82629 21.4043C10.2915 20.939 10.9226 20.6776 11.5808 20.6776H28.9496C29.6078 20.6776 30.2389 20.939 30.7043 21.4043C31.1695 21.8697 31.4309 22.5007 31.4309 23.1589Z" fill="#E6001E"/>
<path fill-rule="evenodd" clip-rule="evenodd" d="M13.2354 28.121H18.1979C18.6543 28.121 19.025 27.7504 19.025 27.2938C19.025 26.8373 18.6543 26.4668 18.1979 26.4668H13.2354C12.7789 26.4668 12.4082 26.8373 12.4082 27.2938C12.4082 27.7504 12.7789 28.121 13.2354 28.121Z" fill="#E6001E"/>
<path fill-rule="evenodd" clip-rule="evenodd" d="M22.162 34.9098L26.2975 39.0453C26.6202 39.3681 27.1444 39.3681 27.4672 39.0453C27.79 38.7226 27.79 38.1984 27.4672 37.8756L23.3317 33.7401C23.009 33.4174 22.4849 33.4174 22.162 33.7401C21.8392 34.0629 21.8392 34.5871 22.162 34.9098Z" fill="#E6001E"/>
<path fill-rule="evenodd" clip-rule="evenodd" d="M22.333 28.121H27.2955C27.7521 28.121 28.1227 27.7504 28.1227 27.2938C28.1227 26.8373 27.7521 26.4668 27.2955 26.4668H22.333C21.8766 26.4668 21.5059 26.8373 21.5059 27.2938C21.5059 27.7504 21.8766 28.121 22.333 28.121Z" fill="#E6001E"/>
<path fill-rule="evenodd" clip-rule="evenodd" d="M13.2354 37.2196H18.1979C18.6543 37.2196 19.025 36.849 19.025 36.3924C19.025 35.936 18.6543 35.5654 18.1979 35.5654H13.2354C12.7789 35.5654 12.4082 35.936 12.4082 36.3924C12.4082 36.849 12.7789 37.2196 13.2354 37.2196Z" fill="#E6001E"/>
<path fill-rule="evenodd" clip-rule="evenodd" d="M14.8906 24.8135V29.776C14.8906 30.2324 15.2612 30.6031 15.7178 30.6031C16.1742 30.6031 16.5448 30.2324 16.5448 29.776V24.8135C16.5448 24.3569 16.1742 23.9863 15.7178 23.9863C15.2612 23.9863 14.8906 24.3569 14.8906 24.8135Z" fill="#E6001E"/>
<path fill-rule="evenodd" clip-rule="evenodd" d="M24.4833 30.6026H25.145C25.6015 30.6026 25.972 30.2319 25.972 29.7754C25.972 29.3189 25.6015 28.9482 25.145 28.9482H24.4833C24.0268 28.9482 23.6562 29.3189 23.6562 29.7754C23.6562 30.2319 24.0268 30.6026 24.4833 30.6026Z" fill="#E6001E"/>
<path fill-rule="evenodd" clip-rule="evenodd" d="M24.4833 25.6405H25.145C25.6015 25.6405 25.972 25.2699 25.972 24.8135C25.972 24.3569 25.6015 23.9863 25.145 23.9863H24.4833C24.0268 23.9863 23.6562 24.3569 23.6562 24.8135C23.6562 25.2699 24.0268 25.6405 24.4833 25.6405Z" fill="#E6001E"/>
<path fill-rule="evenodd" clip-rule="evenodd" d="M26.2975 33.7401L22.162 37.8756C21.8392 38.1984 21.8392 38.7226 22.162 39.0453C22.4849 39.3681 23.009 39.3681 23.3317 39.0453L27.4672 34.9098C27.79 34.5871 27.79 34.0629 27.4672 33.7401C27.1444 33.4174 26.6202 33.4174 26.2975 33.7401Z" fill="#E6001E"/>
</svg>
