<svg width="90" height="72" viewBox="0 0 90 72" fill="none" xmlns="http://www.w3.org/2000/svg">
<path d="M21.6481 20.7278L19.6193 11.4975L18.605 6.8916H0.303711V11.4975H14.898L16.9268 20.7278L17.9411 25.3337L19.9914 34.6529L21.0058 39.2588L22.9176 47.9548H21.1995C17.2865 47.9548 14.102 51.136 14.102 55.045C14.102 58.957 17.2865 62.138 21.1995 62.138H23.6185C23.3541 62.8717 23.2096 63.658 23.2096 64.481C23.2096 68.313 26.3326 71.4299 30.1656 71.4299C34.0016 71.4299 37.1214 68.3133 37.1214 64.481C37.1214 63.658 36.9769 62.872 36.7125 62.138H46.9238C46.6594 62.8717 46.5149 63.658 46.5149 64.481C46.5149 68.313 49.6347 71.4299 53.4707 71.4299C57.3066 71.4299 60.4267 68.3133 60.4267 64.481C60.4267 63.658 60.2822 62.872 60.0178 62.138H64.3305V57.5321H21.1992C19.8283 57.5321 18.7124 56.4174 18.7124 55.045C18.7124 53.6754 19.8283 52.5607 21.1992 52.5607H64.65L65.7104 47.9548L67.7144 39.2588L68.7748 34.6529L70.9202 25.3337L71.9808 20.7278H21.6481ZM53.4709 62.1383C54.7649 62.1383 55.8163 63.1883 55.8163 64.4813C55.8163 65.7739 54.7652 66.824 53.4709 66.824C52.177 66.824 51.1255 65.7739 51.1255 64.4813C51.1255 63.1883 52.1767 62.1383 53.4709 62.1383ZM30.1654 62.1383C31.4593 62.1383 32.5105 63.1883 32.5105 64.4813C32.5105 65.7739 31.4593 66.824 30.1654 66.824C28.8743 66.824 27.82 65.7739 27.82 64.4813C27.8202 63.1883 28.8743 62.1383 30.1654 62.1383ZM22.6622 25.3337H34.0013L34.8344 34.6529H24.7125L22.6622 25.3337ZM27.6389 47.9548L25.7239 39.2588H35.2467L36.0243 47.9548H27.6389ZM38.6306 25.3337H49.7393L49.1183 34.6529H39.4637L38.6306 25.3337ZM40.6531 47.9548L39.8755 39.2588H48.814L48.2361 47.9548H40.6531ZM60.9802 47.9548H52.856L53.4339 39.2588H62.981L60.9802 47.9548ZM64.0446 34.6529H53.7413L54.3623 25.3337H66.1903L64.0446 34.6529Z" fill="#B8D9BA"/>
<path d="M67.798 42.9853C55.9866 42.9853 46.3779 33.3862 46.3779 21.5872C46.3779 9.78851 55.9866 0.189453 67.798 0.189453C79.6094 0.189453 89.218 9.78851 89.218 21.5872C89.218 33.3865 79.6094 42.9853 67.798 42.9853Z" fill="white"/>
<path d="M67.7979 36.7927C76.2042 36.7927 83.0188 29.9851 83.0188 21.5875C83.0188 13.1899 76.2042 6.38232 67.7979 6.38232C59.3917 6.38232 52.5771 13.1899 52.5771 21.5875C52.5771 29.9851 59.3917 36.7927 67.7979 36.7927Z" fill="#FF9326"/>
<path d="M64.571 28.8269L58.9844 23.2463L61.4383 20.7949L64.571 23.9244L74.1569 14.3481L76.6108 16.7996L64.571 28.8269Z" fill="white"/>
</svg>
