<svg width="28" height="25" viewBox="0 0 28 25" fill="none" xmlns="http://www.w3.org/2000/svg">
<path d="M13.8647 0C-3.71644 0 -3.74544 25 13.8647 25C31.4446 25.0004 31.4736 0 13.8647 0Z" fill="#FFB902"/>
<path d="M24.5549 14.8433C23.6169 19.1443 20.051 22.8749 13.8623 22.8749C-0.75059 22.8749 -0.727895 2.125 13.8623 2.125C13.9577 2.125 14.0531 2.125 14.1485 2.13005C0.417312 2.38178 0.484551 22.0323 14.4178 22.0323C20.1014 22.0323 23.4879 18.7438 24.5549 14.8433Z" fill="white"/>
<path d="M13.9716 4.86133C14.2187 4.86133 14.428 5.05297 14.428 5.27907V5.97501C15.7976 6.07924 16.7865 6.4974 17.8136 7.19293C17.9842 7.31523 18.0796 7.41945 18.0796 7.59343C18.0796 7.83676 17.8514 8.02799 17.585 8.02799C17.4711 8.02799 17.3757 8.01075 17.2425 7.90611C16.3107 7.22739 15.3979 6.87942 14.3897 6.77519V11.6477C17.2807 12.2045 18.4982 13.1968 18.4982 14.9022C18.4982 16.7471 16.8054 18.052 14.428 18.1218V19.4792C14.428 19.7057 14.2187 19.897 13.9716 19.897C13.724 19.897 13.5152 19.7057 13.5152 19.4792V18.1046C11.8606 17.9827 10.5103 17.4258 9.23566 16.4164C9.10244 16.3121 9.02637 16.2079 9.02637 16.0512C9.02637 15.8246 9.255 15.6162 9.50211 15.6162C9.67316 15.6162 9.78747 15.686 9.84462 15.7381C10.9096 16.6433 12.0699 17.1825 13.5538 17.322V12.3617C10.7007 11.7876 9.52144 10.8303 9.52144 9.08998C9.52144 7.33245 11.1953 5.99225 13.5156 5.94014V5.27864C13.5152 5.05297 13.724 4.86133 13.9716 4.86133ZM13.5534 11.475V6.7235C11.7085 6.75838 10.491 7.76743 10.491 9.02064C10.491 10.2045 11.0995 10.9353 13.5534 11.475ZM14.3897 12.5361V17.3397C16.2918 17.3048 17.5282 16.2953 17.5282 14.9728C17.5282 13.7721 16.8625 13.0408 14.3897 12.5361Z" fill="white"/>
</svg>
