<svg width="47" height="45" viewBox="0 0 47 45" fill="none" xmlns="http://www.w3.org/2000/svg">
<path d="M7.42578 8.71545H4.09411C2.97544 8.71545 1.85676 8.71545 0.736811 8.71545C0.169146 8.71545 0.00128141 8.53661 0 7.95731C0 6.77624 0 5.5956 0 4.4154C0 1.97766 1.81576 0.0920145 4.23506 0C4.34783 0 4.45931 0 4.57079 0C15.555 0 26.5389 0 37.5223 0C39.6392 0 41.2717 1.20137 41.7612 3.15182C41.8661 3.60711 41.9156 4.07367 41.9085 4.54111C41.9162 14.9089 41.9162 25.2768 41.9085 35.6446V36.3522H42.7748C43.6718 36.3522 44.5688 36.3522 45.4657 36.3522C46.0731 36.3522 46.2346 36.522 46.2346 37.1298C46.2346 38.278 46.2346 39.4263 46.2346 40.5745C46.2346 43.0731 44.3932 44.9601 41.9188 44.9886C40.4324 45.0067 38.9446 44.9886 37.4582 44.9886C28.9368 44.9886 20.415 44.9886 11.8928 44.9886C9.70669 44.9886 7.996 43.6537 7.53598 41.5737C7.44876 41.1135 7.41138 40.645 7.4245 40.1766C7.41766 29.9384 7.41766 19.7002 7.4245 9.46194L7.42578 8.71545ZM40.7425 36.3444V35.6964C40.7425 25.3286 40.7425 14.9642 40.7425 4.60332C40.7425 4.45817 40.7425 4.31172 40.7425 4.16657C40.6399 2.36905 39.4508 1.21563 37.6671 1.21563C27.7079 1.21563 17.7497 1.21563 7.79226 1.21563C7.66412 1.21563 7.53598 1.23896 7.32326 1.2584C8.39324 2.36516 8.65081 3.66114 8.63158 5.08671C8.59955 7.51149 8.62261 9.93756 8.62261 12.3623C8.62261 21.8048 8.62261 31.2473 8.62261 40.6898C8.62261 42.4342 10.0001 43.7704 11.7223 43.76C12.1223 43.7615 12.5186 43.6834 12.8887 43.53C13.2587 43.3765 13.5953 43.1509 13.8791 42.8659C14.1629 42.5809 14.3884 42.2422 14.5427 41.869C14.697 41.4959 14.7772 41.0956 14.7785 40.6911C14.7913 39.5921 14.7785 38.488 14.7785 37.3929C14.7785 36.4416 14.881 36.3366 15.819 36.3366H40.7361L40.7425 36.3444ZM45.016 37.5626H16.0074C15.8408 39.6932 16.4982 41.9508 14.6504 43.7639H41.6843C41.8445 43.7639 42.0046 43.7639 42.1635 43.7561C43.5654 43.6939 44.8327 42.6623 44.9826 41.2536C45.1095 40.0431 45.016 38.8094 45.016 37.5626ZM7.4104 7.51926C7.4104 6.35936 7.445 5.24353 7.40271 4.13158C7.34505 2.61399 6.08414 1.31801 4.63999 1.22081C2.92931 1.10677 1.44799 2.128 1.26475 3.74279C1.12508 4.97785 1.23656 6.24402 1.23656 7.51926H7.4104Z" fill="#E6001E"/>
<path d="M32.0738 9.81101C32.0738 11.8496 31.8175 13.8389 30.982 15.7168C29.8403 18.2763 27.79 19.8082 25.2797 20.7944C25.0668 20.8512 24.8411 20.8338 24.639 20.7452C20.445 19.1109 18.3294 15.9501 18.0551 11.475C17.9898 10.3981 18.0295 9.31335 18.0551 8.2351C18.068 7.47565 18.1282 7.42511 18.874 7.22683C20.6418 6.77838 22.3201 6.02566 23.8356 5.00163C23.9932 4.89277 24.1495 4.78002 24.302 4.66208C25.026 4.09574 25.026 4.09445 25.7334 4.64264C27.3813 5.92178 29.2508 6.71621 31.2434 7.2346C31.7419 7.3642 31.9905 7.591 31.9956 8.11846C31.9905 8.68091 32.0379 9.24596 32.0738 9.81101ZM24.8697 5.71183C23.3461 6.87821 21.497 7.72189 19.5121 8.27268C19.2558 8.34266 19.1764 8.44893 19.1853 8.70035C19.2238 9.82785 19.1853 10.9644 19.2956 12.0841C19.6556 15.639 21.4637 18.1403 24.7531 19.5049C24.9096 19.5706 25.0841 19.5775 25.2451 19.5244C27.3595 18.6172 29.0702 17.2629 29.9864 15.0545C30.8359 12.9965 30.9948 10.8374 30.8282 8.64203C30.8093 8.56666 30.7736 8.49666 30.7239 8.43737C30.6741 8.37807 30.6117 8.33105 30.5412 8.2999C30.0363 8.1042 29.493 8.00052 29.0035 7.76854C27.6324 7.12055 26.2882 6.42591 24.8633 5.71183H24.8697Z" fill="#E6001E"/>
<path d="M25.048 31.6168H36.8869C37.0307 31.6071 37.175 31.6071 37.3187 31.6168C37.6545 31.6622 37.8903 31.828 37.8941 32.2052C37.8979 32.5823 37.6788 32.7586 37.3328 32.8C37.1896 32.8119 37.0459 32.8154 36.9023 32.8104H13.1283C12.9684 32.8143 12.8084 32.8091 12.649 32.7948C12.3184 32.7547 12.066 32.5356 12.1288 32.2272C12.1749 31.9991 12.435 31.7905 12.6413 31.6336C12.7464 31.5559 12.9502 31.6103 13.1103 31.6103L25.048 31.6168Z" fill="#E6001E"/>
<path d="M25.0004 28.5937C21.7098 28.5937 18.4191 28.5937 15.1336 28.5872C14.9001 28.5964 14.6694 28.5345 14.4711 28.4097C14.4041 28.3367 14.355 28.2488 14.3276 28.1532C14.3002 28.0575 14.2954 27.9567 14.3135 27.8589C14.3545 27.6943 14.5479 27.5297 14.7133 27.448C14.858 27.3755 15.058 27.413 15.2335 27.413H34.8263C34.8903 27.413 34.9544 27.413 35.0185 27.413C35.4234 27.391 35.7181 27.5426 35.7656 27.9781C35.8066 28.3384 35.4862 28.5937 35.0146 28.5937C32.0119 28.5937 29.0091 28.5937 26.0063 28.5937H25.0004Z" fill="#E6001E"/>
<path d="M24.9961 24.3622H19.003C18.8274 24.3622 18.6109 24.4115 18.4904 24.3272C18.2892 24.1977 18.0163 23.967 18.0176 23.7803C18.0189 23.5937 18.2867 23.3682 18.4699 23.1933C18.5301 23.1349 18.6852 23.1738 18.7967 23.1738H31.2059C31.3174 23.164 31.4297 23.1679 31.5403 23.1855C31.853 23.2658 32.0964 23.4862 32.0144 23.8011C31.9581 24.0123 31.7082 24.1977 31.5019 24.3324C31.3878 24.4089 31.1918 24.3622 31.0316 24.3622H24.9961Z" fill="#E6001E"/>
<path d="M27.17 16.6587C27.0649 16.6068 26.8778 16.5291 26.6997 16.4267C26.1257 16.1144 25.558 15.5558 24.9839 15.5506C24.4316 15.5506 23.8742 16.1105 23.3181 16.428C23.0234 16.5978 22.7299 16.8012 22.3942 16.5356C22.0879 16.2932 22.1584 15.9796 22.2366 15.6517C22.3647 15.1333 22.4224 14.6033 22.5672 14.0965C22.6594 13.7712 22.5531 13.5976 22.3237 13.4045C21.8992 13.062 21.4968 12.6924 21.1192 12.2977C20.95 12.1111 20.777 11.7728 20.836 11.5707C20.8949 11.3685 21.2307 11.1948 21.4767 11.1469C22.0533 11.0341 22.6492 11.0251 23.2309 10.9266C23.3237 10.9044 23.4109 10.8633 23.4874 10.8058C23.5639 10.7483 23.6279 10.6756 23.6756 10.5922C23.9319 10.0738 24.1164 9.51914 24.3945 9.015C24.5226 8.78043 24.7994 8.50439 25.0275 8.48495C25.212 8.4694 25.4926 8.77266 25.6157 9.00334C25.8912 9.50877 26.0731 10.066 26.3397 10.5793C26.4489 10.7519 26.6211 10.8739 26.8189 10.9188C27.4148 11.0199 28.026 11.0328 28.6206 11.1417C28.8358 11.1819 29.1242 11.362 29.1857 11.5448C29.2472 11.7275 29.128 12.0515 28.9806 12.2109C28.5729 12.6436 28.1348 13.0459 27.6698 13.4149C27.4135 13.6248 27.3866 13.8425 27.4506 14.1289C27.5788 14.7108 27.7185 15.2953 27.8158 15.8772C27.894 16.3619 27.6569 16.6587 27.17 16.6587ZM23.5603 14.7977L23.6948 14.8301C23.9511 14.6797 24.2279 14.5462 24.4739 14.3739C24.6226 14.2504 24.8087 14.1823 25.0011 14.1809C25.1935 14.1795 25.3806 14.2448 25.5311 14.3661C25.7874 14.5411 26.0616 14.6797 26.355 14.8508C26.291 14.2857 26.0847 13.7479 26.2269 13.3215C26.3691 12.8952 26.8432 12.5854 27.1803 12.2161C26.6882 12.1163 26.109 12.1526 25.7566 11.8843C25.4042 11.616 25.244 11.0315 24.9878 10.5689C24.8686 10.786 24.7675 11.0127 24.6854 11.2467C24.5149 11.883 24.0997 12.1215 23.4757 12.1033C23.2663 12.1157 23.0583 12.1465 22.8542 12.1953L22.7684 12.2899C23.8717 12.8628 24.1126 13.7013 23.5603 14.7977Z" fill="#E6001E"/>
</svg>
