<svg width="56" height="62" viewBox="0 0 56 62" fill="none" xmlns="http://www.w3.org/2000/svg">
<path d="M29.5874 61.9911C27.0336 61.3063 24.4773 60.6278 21.9273 59.9341C19.9906 59.4061 18.0527 58.8846 16.13 58.3094C14.8996 57.9409 13.7569 58.0148 12.6588 58.692C12.4022 58.8501 12.1357 58.9915 11.861 59.1154C11.2948 59.3704 10.8545 59.6382 10.9245 60.4276C10.9805 61.0576 10.4766 61.4478 9.81364 61.4351C7.1958 61.3815 4.57923 61.3139 1.96393 61.2323C1.19029 61.2068 0.818734 60.7745 0.836549 59.9647C0.921378 56.4552 1.01681 52.9462 1.12285 49.4375C1.18393 47.2186 1.25009 44.9997 1.31117 42.782C1.33662 41.8001 1.71581 41.4354 2.68414 41.4634C5.1179 41.5323 7.55293 41.596 9.98924 41.6547C11.1141 41.6827 11.4602 42.0373 11.4335 43.1697C11.4245 43.5433 11.4335 43.917 11.4335 44.3072C12.2567 44.0113 13.0304 43.6862 13.832 43.4541C17.2345 42.4696 20.5162 42.8292 23.6515 44.4564C24.7865 45.0456 25.9419 45.5595 27.2283 45.6309C28.6153 45.7087 30.006 45.7215 31.3943 45.7584C32.8029 45.8031 34.2229 45.7584 35.6175 45.9178C37.7679 46.1729 39.3865 47.3283 40.5139 49.2335C40.7111 49.1519 40.9096 49.0766 41.1018 48.9861C43.6085 47.8014 46.105 46.5925 48.6219 45.432C49.7169 44.9213 50.9571 44.8164 52.122 45.1358C53.2869 45.4552 54.301 46.1783 54.9841 47.1765C55.5834 48.0462 55.4931 48.5716 54.6164 49.1366C48.8955 52.8603 43.1733 56.5789 37.4498 60.2924C36.0692 61.1851 34.5334 61.6085 32.9378 61.8725C32.7853 61.9063 32.6349 61.9489 32.4873 62L29.5874 61.9911ZM11.0797 57.1885C11.4169 57.015 11.6676 56.8939 11.9106 56.76C13.3561 55.9566 14.8652 55.8061 16.4532 56.2614C18.5922 56.876 20.7337 57.4882 22.8842 58.0658C25.2267 58.6945 27.5553 59.424 29.9373 59.8423C32.085 60.2427 34.3043 59.8149 36.1507 58.6448C41.5662 55.2016 46.9334 51.6769 52.3183 48.1878C52.4787 48.0845 52.6263 47.9633 52.8197 47.8218C51.6961 46.9431 50.5446 46.8207 49.3281 47.3908C46.7272 48.6112 44.1353 49.8482 41.5407 51.0813C41.425 51.1423 41.3125 51.2091 41.2035 51.2815C41.2366 51.5187 41.2774 51.7164 41.2913 51.9192C41.383 53.1944 41.0369 53.554 39.7644 53.5247C37.9134 53.4822 36.0616 53.4397 34.2089 53.3972C32.257 53.3487 30.3051 53.3092 28.3557 53.239C27.5922 53.211 27.1494 52.7608 27.1863 52.1372C27.2232 51.5136 27.7067 51.1451 28.4715 51.1668C30.0213 51.2114 31.5699 51.2803 33.1197 51.2943C35.1098 51.3172 37.1012 51.2943 39.0748 51.2943C38.833 49.5676 37.0058 47.9965 35.0347 47.9417C33.1833 47.8907 31.3307 47.8549 29.4793 47.7937C28.4944 47.7618 27.507 47.7249 26.5272 47.6279C24.9761 47.4749 23.64 46.7136 22.2492 46.0798C18.6724 44.4462 15.1528 44.6196 11.7503 46.6116C11.6375 46.6919 11.5429 46.7953 11.4727 46.9148C11.4026 47.0344 11.3584 47.1675 11.3431 47.3053C11.2375 50.1887 11.1662 53.072 11.0886 55.9566C11.0708 56.3392 11.0797 56.7205 11.0797 57.1936V57.1885ZM3.35217 43.6709C3.21093 48.8063 3.06842 53.9736 2.92336 59.2416H8.91274C9.05271 54.0909 9.19396 48.9262 9.33647 43.6709H3.35217Z" fill="#E6001E"/>
<path d="M28.709 43.0417C26.7639 43.0368 24.839 42.6461 23.0453 41.8923C21.2516 41.1384 19.6244 40.0363 18.2575 38.6494C16.8907 37.2625 15.8112 35.6182 15.0813 33.8113C14.3514 32.0044 13.9855 30.0706 14.0046 28.1213C14.0517 20.0745 20.7486 13.4713 28.8006 13.5376C30.7405 13.5436 32.6601 13.9338 34.449 14.6858C36.2379 15.4379 37.8609 16.5369 39.2245 17.9196C40.5882 19.3024 41.6657 20.9417 42.395 22.7433C43.1244 24.5448 43.4912 26.4731 43.4744 28.4172C43.4273 36.4857 36.7648 43.0838 28.709 43.0417ZM28.7497 40.9593C35.7481 40.9529 41.4232 35.2793 41.4258 28.2846C41.4217 24.9204 40.0858 21.6952 37.7114 19.3172C35.3369 16.9392 32.118 15.6026 28.7611 15.601C21.7423 15.5946 16.0367 21.2988 16.052 28.3075C16.0672 35.3163 21.75 40.9656 28.7484 40.9593H28.7497Z" fill="#E6001E"/>
<path d="M29.7785 5.8075C29.7785 7.40028 29.7938 8.99562 29.7708 10.5859C29.7607 11.263 29.3179 11.7081 28.7529 11.7132C28.1879 11.7183 27.7629 11.2745 27.7082 10.6024C27.6968 10.4622 27.7082 10.3206 27.7082 10.1791V1.52905C27.7082 1.4283 27.7082 1.32756 27.7082 1.22681C27.7349 0.439985 28.1027 0.00385107 28.7414 2.53241e-05C29.3802 -0.00380042 29.7772 0.425958 29.7848 1.21151C29.8001 2.74181 29.7848 4.2721 29.7848 5.8024L29.7785 5.8075Z" fill="#E6001E"/>
<path d="M37.3886 8.43874C37.3886 9.12355 37.4026 9.80836 37.3886 10.4932C37.3708 11.2494 36.942 11.7289 36.335 11.7149C35.7281 11.7008 35.3247 11.2366 35.3171 10.5161C35.2993 9.08529 35.2967 7.65446 35.3171 6.22364C35.3285 5.49802 35.751 5.07592 36.3707 5.08612C36.9903 5.09632 37.3593 5.4942 37.3886 6.20196C37.4077 6.9467 37.3873 7.69272 37.3886 8.43874Z" fill="#E6001E"/>
<path d="M22.1695 8.41307C22.1695 9.11828 22.1861 9.82477 22.1695 10.5287C22.153 11.2326 21.7267 11.7096 21.1388 11.7147C20.551 11.7198 20.1094 11.2569 20.0993 10.5415C20.0789 9.11063 20.0789 7.6798 20.0993 6.24897C20.1094 5.50806 20.5077 5.0885 21.1274 5.08595C21.7471 5.0834 22.1453 5.5004 22.1695 6.23367C22.1937 6.96694 22.1695 7.68745 22.1695 8.41307Z" fill="#E6001E"/>
<path d="M24.3948 31.8672C24.3948 30.9962 24.7575 30.5499 25.3479 30.5154C25.9841 30.4784 26.3786 30.8674 26.4435 31.6007C26.5491 32.7994 27.4054 33.7227 28.4794 33.7915C29.7836 33.8744 30.7583 33.1386 31.0065 31.8787C31.2075 30.8674 30.5636 29.7477 29.5304 29.3958C29.145 29.2862 28.7484 29.2207 28.3483 29.2006C26.3124 29.0004 24.7486 27.5186 24.4241 25.4591C24.1365 23.6355 25.1876 21.6843 26.9461 20.9396C27.4805 20.7126 27.5887 20.4295 27.5823 19.9194C27.5709 18.9464 28.3369 18.361 29.0456 18.8074C29.3319 18.9885 29.6144 19.445 29.6106 19.7664C29.6017 20.4269 29.8651 20.659 30.4466 20.8988C32.0091 21.5364 32.8464 22.7951 33.0704 24.4567C33.1078 24.7132 33.0865 24.9749 33.008 25.2219C32.9463 25.4392 32.8082 25.6269 32.6192 25.7502C32.4303 25.8735 32.2032 25.9241 31.9799 25.8927C31.462 25.8429 31.1439 25.5292 31.0497 25.0115C31.0026 24.7564 30.9975 24.4886 30.9225 24.2463C30.6005 23.0986 29.5406 22.4495 28.3076 22.6357C27.2375 22.7976 26.3989 23.8574 26.4422 24.9745C26.4671 25.5328 26.6962 26.0623 27.0858 26.4621C27.4754 26.862 27.9982 27.1041 28.5544 27.1424C30.9874 27.3362 32.5385 28.5528 32.9762 30.6136C33.2101 31.6462 33.0532 32.729 32.536 33.6523C32.0189 34.5756 31.1782 35.2737 30.1768 35.6113C29.7518 35.7592 29.5864 35.9493 29.6398 36.3765C29.6523 36.5173 29.6463 36.6593 29.622 36.7986C29.5457 37.3724 29.1614 37.7474 28.641 37.7652C28.1205 37.7831 27.5708 37.4094 27.623 36.8725C27.7172 35.9161 27.1789 35.61 26.4778 35.2147C25.1354 34.4636 24.5068 33.2062 24.3948 31.8672Z" fill="#E6001E"/>
</svg>
