<svg width="642" height="442" viewBox="0 0 642 442" fill="none" xmlns="http://www.w3.org/2000/svg">
<g filter="url(#filter0_d_650_1402)">
<path fill-rule="evenodd" clip-rule="evenodd" d="M10 151C10 143.82 15.8203 138 23 138H551C558.18 138 564 143.82 564 151V224.782C564 228.375 560.594 231 557 231C540.984 231 528 243.984 528 260C528 276.016 540.984 289 557 289C560.594 289 564 291.625 564 295.218V369C564 376.18 558.18 382 551 382H23C15.8203 382 10 376.18 10 369V302C10 294.82 16.1028 289.257 22.571 286.141C32.2918 281.458 39 271.512 39 260C39 248.488 32.2918 238.542 22.571 233.859C16.1028 230.743 10 225.18 10 218V151Z" fill="#A78FE6"/>
<path fill-rule="evenodd" clip-rule="evenodd" d="M11 138C10.4477 138 10 138.448 10 139V218C10 225.18 16.1028 230.743 22.571 233.859C32.2918 238.542 39 248.488 39 260C39 271.512 32.2918 281.458 22.571 286.141C16.1028 289.257 10 294.82 10 302V381C10 381.552 10.4477 382 11 382H157C157.552 382 158 381.552 158 381V139C158 138.448 157.552 138 157 138H11Z" fill="#F7F7F7"/>
<path d="M97.125 195.668L97.125 202.969C94.1901 202.841 91.7018 202.24 89.6602 201.164C87.6367 200.107 86.0964 198.585 85.0391 196.598C83.9818 194.629 83.4531 192.232 83.4531 189.406C83.4531 187.255 83.8268 185.332 84.5742 183.637C85.3398 181.941 86.4427 180.501 87.8828 179.316C89.3229 178.15 91.0911 177.257 93.1875 176.637C95.3021 176.035 97.7174 175.734 100.434 175.734L107.352 175.734C110.068 175.734 112.483 176.053 114.598 176.691C116.712 177.329 118.499 178.241 119.957 179.426C121.415 180.629 122.518 182.087 123.266 183.801C124.013 185.514 124.387 187.447 124.387 189.598C124.387 192.441 123.849 194.82 122.773 196.734C121.698 198.648 120.121 200.125 118.043 201.164C115.983 202.203 113.467 202.814 110.496 202.996L110.496 195.695C112.428 195.622 113.96 195.385 115.09 194.984C116.238 194.583 117.059 193.954 117.551 193.098C118.043 192.241 118.289 191.074 118.289 189.598C118.289 188.449 118.079 187.456 117.66 186.617C117.241 185.779 116.585 185.095 115.691 184.566C114.816 184.038 113.695 183.646 112.328 183.391C110.961 183.135 109.32 183.008 107.406 183.008L100.434 183.008C98.5924 183.008 96.9883 183.117 95.6211 183.336C94.2539 183.555 93.1146 183.901 92.2031 184.375C91.3099 184.867 90.6354 185.523 90.1797 186.344C89.7422 187.164 89.5234 188.185 89.5234 189.406C89.5234 190.883 89.7422 192.059 90.1797 192.934C90.6354 193.809 91.4102 194.456 92.5039 194.875C93.6159 195.313 95.1563 195.577 97.125 195.668ZM97.6992 206.988L99.8594 206.988C102.174 206.988 104.216 207.271 105.984 207.836C107.771 208.401 109.266 209.203 110.469 210.242C111.672 211.281 112.583 212.521 113.203 213.961C113.823 215.419 114.133 217.033 114.133 218.801C114.133 220.605 113.823 222.228 113.203 223.668C112.583 225.126 111.672 226.375 110.469 227.414C109.266 228.471 107.771 229.273 105.984 229.82C104.216 230.385 102.174 230.668 99.8594 230.668L97.6992 230.668C95.3841 230.668 93.3425 230.385 91.5742 229.82C89.806 229.273 88.3112 228.471 87.0898 227.414C85.8867 226.375 84.9753 225.126 84.3555 223.668C83.7539 222.228 83.4531 220.624 83.4531 218.855C83.4531 217.087 83.7539 215.474 84.3555 214.016C84.9753 212.576 85.8867 211.327 87.0898 210.27C88.3112 209.212 89.806 208.401 91.5742 207.836C93.3424 207.271 95.3841 206.988 97.6992 206.988ZM99.8594 214.016L97.6992 214.016C96.2591 214.016 95.0104 214.125 93.9531 214.344C92.9141 214.563 92.0482 214.882 91.3555 215.301C90.6628 215.738 90.1432 216.249 89.7969 216.832C89.4688 217.434 89.3047 218.108 89.3047 218.855C89.3047 219.658 89.4688 220.359 89.7969 220.961C90.1432 221.563 90.6628 222.064 91.3555 222.465C92.0482 222.866 92.9141 223.167 93.9531 223.367C95.0104 223.568 96.2591 223.668 97.6992 223.668L99.8594 223.668C101.263 223.668 102.493 223.549 103.551 223.313C104.608 223.094 105.483 222.775 106.176 222.355C106.868 221.936 107.388 221.426 107.734 220.824C108.099 220.223 108.281 219.548 108.281 218.801C108.281 218.072 108.099 217.415 107.734 216.832C107.388 216.249 106.868 215.738 106.176 215.301C105.483 214.882 104.608 214.563 103.551 214.344C102.493 214.125 101.263 214.016 99.8594 214.016ZM91.0547 250.301L113.586 250.301L113.586 257.328L84 257.328L84 250.738L91.0547 250.301ZM97.1797 251.203L97.2344 253.254C95.2656 253.254 93.4336 253.072 91.7383 252.707C90.0612 252.342 88.6029 251.777 87.3633 251.012C86.1237 250.246 85.1576 249.271 84.4648 248.086C83.7904 246.919 83.4531 245.534 83.4531 243.93C83.4531 242.708 83.6536 241.596 84.0547 240.594C84.474 239.591 85.1211 238.725 85.9961 237.996C86.8893 237.267 88.0286 236.702 89.4141 236.301C90.8177 235.9 92.5039 235.699 94.4727 235.699L113.586 235.699L113.586 242.727L94.3906 242.727C93.4792 242.727 92.6953 242.809 92.0391 242.973C91.401 243.137 90.8815 243.355 90.4805 243.629C90.0977 243.921 89.8242 244.258 89.6602 244.641C89.4961 245.023 89.4141 245.443 89.4141 245.898C89.4141 247.229 89.7513 248.277 90.4258 249.043C91.1003 249.827 92.0208 250.383 93.1875 250.711C94.3724 251.039 95.7031 251.203 97.1797 251.203ZM107.898 270.316L72.625 270.316L72.625 263.316L113.586 263.316L113.586 269.77L107.898 270.316ZM99.8867 285.957L97.7266 285.957C95.4115 285.957 93.3698 285.747 91.6016 285.328C89.8333 284.927 88.3385 284.326 87.1172 283.523C85.8958 282.721 84.9753 281.728 84.3555 280.543C83.7539 279.358 83.4531 277.973 83.4531 276.387C83.4531 274.892 83.7904 273.607 84.4648 272.531C85.1393 271.456 86.0872 270.544 87.3086 269.797C88.53 269.049 89.9609 268.457 91.6016 268.02C93.2422 267.582 95.0195 267.254 96.9336 267.035L100.27 267.035C102.311 267.236 104.18 267.546 105.875 267.965C107.57 268.402 109.038 268.995 110.277 269.742C111.517 270.49 112.465 271.401 113.121 272.477C113.796 273.57 114.133 274.855 114.133 276.332C114.133 277.936 113.841 279.34 113.258 280.543C112.693 281.746 111.827 282.749 110.66 283.551C109.493 284.353 108.008 284.954 106.203 285.355C104.417 285.757 102.311 285.957 99.8867 285.957ZM97.7266 278.93L99.8867 278.93C101.345 278.93 102.603 278.839 103.66 278.656C104.717 278.492 105.583 278.219 106.258 277.836C106.932 277.471 107.424 276.988 107.734 276.387C108.063 275.803 108.227 275.092 108.227 274.254C108.227 273.452 108.063 272.75 107.734 272.148C107.424 271.547 106.978 271.055 106.395 270.672C105.811 270.289 105.109 269.979 104.289 269.742C103.487 269.523 102.594 269.396 101.609 269.359L95.5664 269.359C94.3997 269.451 93.3425 269.66 92.3945 269.988C91.4466 270.335 90.6901 270.854 90.125 271.547C89.5781 272.24 89.3047 273.16 89.3047 274.309C89.3047 275.165 89.4779 275.885 89.8242 276.469C90.1706 277.052 90.6901 277.526 91.3828 277.891C92.0755 278.273 92.9505 278.538 94.0078 278.684C95.0651 278.848 96.3047 278.93 97.7266 278.93ZM97.6992 290.113L99.8594 290.113C102.174 290.113 104.216 290.396 105.984 290.961C107.771 291.526 109.266 292.328 110.469 293.367C111.672 294.406 112.583 295.646 113.203 297.086C113.823 298.544 114.133 300.158 114.133 301.926C114.133 303.73 113.823 305.353 113.203 306.793C112.583 308.251 111.672 309.5 110.469 310.539C109.266 311.596 107.771 312.398 105.984 312.945C104.216 313.51 102.174 313.793 99.8594 313.793L97.6992 313.793C95.3841 313.793 93.3425 313.51 91.5742 312.945C89.806 312.398 88.3112 311.596 87.0898 310.539C85.8867 309.5 84.9753 308.251 84.3555 306.793C83.7539 305.353 83.4531 303.749 83.4531 301.98C83.4531 300.212 83.7539 298.599 84.3555 297.141C84.9753 295.701 85.8867 294.452 87.0898 293.395C88.3112 292.337 89.806 291.526 91.5742 290.961C93.3425 290.396 95.3841 290.113 97.6992 290.113ZM99.8594 297.141L97.6992 297.141C96.2591 297.141 95.0104 297.25 93.9531 297.469C92.9141 297.688 92.0482 298.007 91.3555 298.426C90.6628 298.863 90.1432 299.374 89.7969 299.957C89.4688 300.559 89.3047 301.233 89.3047 301.98C89.3047 302.783 89.4688 303.484 89.7969 304.086C90.1432 304.688 90.6628 305.189 91.3555 305.59C92.0482 305.991 92.9141 306.292 93.9531 306.492C95.0104 306.693 96.2591 306.793 97.6992 306.793L99.8594 306.793C101.263 306.793 102.493 306.674 103.551 306.438C104.608 306.219 105.483 305.9 106.176 305.48C106.868 305.061 107.388 304.551 107.734 303.949C108.099 303.348 108.281 302.673 108.281 301.926C108.281 301.197 108.099 300.54 107.734 299.957C107.388 299.374 106.868 298.863 106.176 298.426C105.483 298.007 104.608 297.688 103.551 297.469C102.493 297.25 101.263 297.141 99.8594 297.141ZM107.27 325.879L84 325.879L84 318.852L113.586 318.852L113.586 325.441L107.27 325.879ZM99.832 324.73L99.8047 322.707C101.974 322.671 103.934 322.88 105.684 323.336C107.452 323.81 108.965 324.484 110.223 325.359C111.48 326.253 112.447 327.31 113.121 328.531C113.796 329.753 114.133 331.111 114.133 332.605C114.133 333.772 113.932 334.829 113.531 335.777C113.13 336.743 112.492 337.573 111.617 338.266C110.742 338.958 109.594 339.496 108.172 339.879C106.75 340.262 105.009 340.453 102.949 340.453L84 340.453L84 333.426L103.004 333.426C104.335 333.426 105.374 333.28 106.121 332.988C106.887 332.715 107.424 332.305 107.734 331.758C108.063 331.229 108.227 330.546 108.227 329.707C108.227 328.923 108.008 328.221 107.57 327.602C107.133 326.982 106.531 326.453 105.766 326.016C105 325.596 104.107 325.277 103.086 325.059C102.083 324.84 100.999 324.73 99.832 324.73Z" fill="#181818"/>
<line x1="160.5" y1="138" x2="160.5" y2="382" stroke="white" stroke-width="5" stroke-dasharray="2 2"/>
<path d="M338.498 175.858C362.469 176.044 372.875 184.034 372.875 205.776V278.247C372.875 299.988 362.469 308.164 338.498 308.35C314.527 308.164 304.121 299.988 304.121 278.247V205.776C304.121 184.034 314.527 176.044 338.498 175.858ZM357.266 281.22V202.988C357.266 189.237 351.878 183.849 338.498 183.663C324.933 183.849 319.73 189.237 319.73 202.988V281.22C319.73 294.971 324.933 300.359 338.498 300.545C351.878 300.359 357.266 294.971 357.266 281.22Z" fill="#FAF9F6"/>
<path d="M253.377 227.517C277.348 227.703 287.754 235.879 287.754 257.62V278.247C287.754 299.988 277.348 308.164 253.377 308.35C229.406 308.164 219 299.988 219 278.247V267.84H234.609V282.149C234.609 295.714 239.812 301.289 253.377 301.289C266.756 301.289 272.145 295.714 272.145 282.149V253.904C272.145 240.153 266.756 234.764 253.377 234.578C238.697 234.578 231.822 239.595 227.362 252.603H220.487L224.761 177.159H277.72C282.737 176.973 284.038 176.044 285.525 174H285.71V192.768H230.893L228.105 240.525C233.123 231.605 240.37 227.517 253.377 227.517Z" fill="#FAF9F6"/>
<path d="M418.871 198.132C418.871 206.655 414.411 211.016 405.789 211.016C397.167 211.016 392.707 206.655 392.707 198.132V188.023C392.707 179.401 397.167 175.14 405.789 175.14C414.411 175.14 418.871 179.401 418.871 188.023V198.132ZM439.187 175.833H442.854L403.708 245.108H400.041L439.187 175.833ZM398.951 199.321C398.951 204.772 401.131 208.043 405.789 208.043C410.447 208.043 412.627 204.772 412.627 199.321V186.735C412.627 181.383 410.447 178.113 405.789 178.113C401.131 178.113 398.951 181.383 398.951 186.735V199.321ZM437.899 209.926C446.521 209.926 450.981 214.187 450.981 222.809V232.918C450.981 241.441 446.521 245.802 437.899 245.802C429.277 245.802 424.817 241.441 424.817 232.918V222.809C424.817 214.187 429.277 209.926 437.899 209.926ZM444.737 234.107V221.521C444.737 216.169 442.557 212.899 437.899 212.899C433.241 212.899 431.061 216.169 431.061 221.521V234.107C431.061 239.558 433.241 242.829 437.899 242.829C442.557 242.829 444.737 239.558 444.737 234.107Z" fill="#FAF9F6"/>
<path d="M449.888 307.049H440.887V255.004H459.687V262.444H449.888V277.325H458.453V284.728H449.888V307.049Z" fill="#FAF9F6"/>
<path d="M428.764 307.049H419.764V255.004H438.564V262.444H428.764V277.325H437.33V284.728H428.764V307.049Z" fill="#FAF9F6"/>
<path d="M405.065 307.049H399.512C393.705 307.049 390.802 304 390.802 297.939V264.077C390.802 261.573 391.346 259.432 392.471 257.653C393.596 255.875 395.919 255.004 399.512 255.004H404.775C408.586 255.004 411.017 255.875 412.142 257.653C413.231 259.432 413.776 261.573 413.776 264.077V297.939C413.776 304 410.872 307.049 405.065 307.049ZM402.307 299.899C403.033 299.863 403.613 299.572 404.085 299.064C404.557 298.556 404.775 297.576 404.775 296.161V265.856C404.775 264.44 404.557 263.46 404.085 262.952C403.613 262.481 403.033 262.19 402.307 262.154C401.581 262.19 401 262.481 400.528 262.952C400.057 263.46 399.839 264.44 399.839 265.856V296.161C399.839 297.576 400.057 298.556 400.528 299.064C401 299.572 401.581 299.863 402.307 299.899Z" fill="#FAF9F6"/>
<rect x="219" y="333" width="278" height="8" rx="4" fill="#FAF9F6"/>
<rect x="219" y="348" width="151.95" height="8" rx="4" fill="#FAF9F6"/>
</g>
<g filter="url(#filter1_d_650_1402)">
<path fill-rule="evenodd" clip-rule="evenodd" d="M44 181C44 173.82 49.8203 168 57 168H585C592.18 168 598 173.82 598 181V254.782C598 258.375 594.594 261 591 261C574.984 261 562 273.984 562 290C562 306.016 574.984 319 591 319C594.594 319 598 321.625 598 325.218V399C598 406.18 592.18 412 585 412H57C49.8203 412 44 406.18 44 399V332C44 324.82 50.1028 319.257 56.571 316.141C66.2918 311.458 73 301.512 73 290C73 278.488 66.2918 268.542 56.571 263.859C50.1028 260.743 44 255.18 44 248V181Z" fill="#A78FE6"/>
<path fill-rule="evenodd" clip-rule="evenodd" d="M45 168C44.4477 168 44 168.448 44 169V248C44 255.18 50.1028 260.743 56.571 263.859C66.2918 268.542 73 278.488 73 290C73 301.512 66.2918 311.458 56.571 316.141C50.1028 319.257 44 324.82 44 332V411C44 411.552 44.4477 412 45 412H191C191.552 412 192 411.552 192 411V169C192 168.448 191.552 168 191 168H45Z" fill="#F7F7F7"/>
<path d="M131.125 225.668L131.125 232.969C128.19 232.841 125.702 232.24 123.66 231.164C121.637 230.107 120.096 228.585 119.039 226.598C117.982 224.629 117.453 222.232 117.453 219.406C117.453 217.255 117.827 215.332 118.574 213.637C119.34 211.941 120.443 210.501 121.883 209.316C123.323 208.15 125.091 207.257 127.188 206.637C129.302 206.035 131.717 205.734 134.434 205.734L141.352 205.734C144.068 205.734 146.483 206.053 148.598 206.691C150.712 207.329 152.499 208.241 153.957 209.426C155.415 210.629 156.518 212.087 157.266 213.801C158.013 215.514 158.387 217.447 158.387 219.598C158.387 222.441 157.849 224.82 156.773 226.734C155.698 228.648 154.121 230.125 152.043 231.164C149.983 232.203 147.467 232.814 144.496 232.996L144.496 225.695C146.428 225.622 147.96 225.385 149.09 224.984C150.238 224.583 151.059 223.954 151.551 223.098C152.043 222.241 152.289 221.074 152.289 219.598C152.289 218.449 152.079 217.456 151.66 216.617C151.241 215.779 150.585 215.095 149.691 214.566C148.816 214.038 147.695 213.646 146.328 213.391C144.961 213.135 143.32 213.008 141.406 213.008L134.434 213.008C132.592 213.008 130.988 213.117 129.621 213.336C128.254 213.555 127.115 213.901 126.203 214.375C125.31 214.867 124.635 215.523 124.18 216.344C123.742 217.164 123.523 218.185 123.523 219.406C123.523 220.883 123.742 222.059 124.18 222.934C124.635 223.809 125.41 224.456 126.504 224.875C127.616 225.313 129.156 225.577 131.125 225.668ZM131.699 236.988L133.859 236.988C136.174 236.988 138.216 237.271 139.984 237.836C141.771 238.401 143.266 239.203 144.469 240.242C145.672 241.281 146.583 242.521 147.203 243.961C147.823 245.419 148.133 247.033 148.133 248.801C148.133 250.605 147.823 252.228 147.203 253.668C146.583 255.126 145.672 256.375 144.469 257.414C143.266 258.471 141.771 259.273 139.984 259.82C138.216 260.385 136.174 260.668 133.859 260.668L131.699 260.668C129.384 260.668 127.342 260.385 125.574 259.82C123.806 259.273 122.311 258.471 121.09 257.414C119.887 256.375 118.975 255.126 118.355 253.668C117.754 252.228 117.453 250.624 117.453 248.855C117.453 247.087 117.754 245.474 118.355 244.016C118.975 242.576 119.887 241.327 121.09 240.27C122.311 239.212 123.806 238.401 125.574 237.836C127.342 237.271 129.384 236.988 131.699 236.988ZM133.859 244.016L131.699 244.016C130.259 244.016 129.01 244.125 127.953 244.344C126.914 244.563 126.048 244.882 125.355 245.301C124.663 245.738 124.143 246.249 123.797 246.832C123.469 247.434 123.305 248.108 123.305 248.855C123.305 249.658 123.469 250.359 123.797 250.961C124.143 251.563 124.663 252.064 125.355 252.465C126.048 252.866 126.914 253.167 127.953 253.367C129.01 253.568 130.259 253.668 131.699 253.668L133.859 253.668C135.263 253.668 136.493 253.549 137.551 253.313C138.608 253.094 139.483 252.775 140.176 252.355C140.868 251.936 141.388 251.426 141.734 250.824C142.099 250.223 142.281 249.548 142.281 248.801C142.281 248.072 142.099 247.415 141.734 246.832C141.388 246.249 140.868 245.738 140.176 245.301C139.483 244.882 138.608 244.563 137.551 244.344C136.493 244.125 135.263 244.016 133.859 244.016ZM125.055 280.301L147.586 280.301L147.586 287.328L118 287.328L118 280.738L125.055 280.301ZM131.18 281.203L131.234 283.254C129.266 283.254 127.434 283.072 125.738 282.707C124.061 282.342 122.603 281.777 121.363 281.012C120.124 280.246 119.158 279.271 118.465 278.086C117.79 276.919 117.453 275.534 117.453 273.93C117.453 272.708 117.654 271.596 118.055 270.594C118.474 269.591 119.121 268.725 119.996 267.996C120.889 267.267 122.029 266.702 123.414 266.301C124.818 265.9 126.504 265.699 128.473 265.699L147.586 265.699L147.586 272.727L128.391 272.727C127.479 272.727 126.695 272.809 126.039 272.973C125.401 273.137 124.882 273.355 124.48 273.629C124.098 273.921 123.824 274.258 123.66 274.641C123.496 275.023 123.414 275.443 123.414 275.898C123.414 277.229 123.751 278.277 124.426 279.043C125.1 279.827 126.021 280.383 127.188 280.711C128.372 281.039 129.703 281.203 131.18 281.203ZM141.898 300.316L106.625 300.316L106.625 293.316L147.586 293.316L147.586 299.77L141.898 300.316ZM133.887 315.957L131.727 315.957C129.411 315.957 127.37 315.747 125.602 315.328C123.833 314.927 122.339 314.326 121.117 313.523C119.896 312.721 118.975 311.728 118.355 310.543C117.754 309.358 117.453 307.973 117.453 306.387C117.453 304.892 117.79 303.607 118.465 302.531C119.139 301.456 120.087 300.544 121.309 299.797C122.53 299.049 123.961 298.457 125.602 298.02C127.242 297.582 129.02 297.254 130.934 297.035L134.27 297.035C136.311 297.236 138.18 297.546 139.875 297.965C141.57 298.402 143.038 298.995 144.277 299.742C145.517 300.49 146.465 301.401 147.121 302.477C147.796 303.57 148.133 304.855 148.133 306.332C148.133 307.936 147.841 309.34 147.258 310.543C146.693 311.746 145.827 312.749 144.66 313.551C143.493 314.353 142.008 314.954 140.203 315.355C138.417 315.757 136.311 315.957 133.887 315.957ZM131.727 308.93L133.887 308.93C135.345 308.93 136.603 308.839 137.66 308.656C138.717 308.492 139.583 308.219 140.258 307.836C140.932 307.471 141.424 306.988 141.734 306.387C142.063 305.803 142.227 305.092 142.227 304.254C142.227 303.452 142.063 302.75 141.734 302.148C141.424 301.547 140.978 301.055 140.395 300.672C139.811 300.289 139.109 299.979 138.289 299.742C137.487 299.523 136.594 299.396 135.609 299.359L129.566 299.359C128.4 299.451 127.342 299.66 126.395 299.988C125.447 300.335 124.69 300.854 124.125 301.547C123.578 302.24 123.305 303.16 123.305 304.309C123.305 305.165 123.478 305.885 123.824 306.469C124.171 307.052 124.69 307.526 125.383 307.891C126.076 308.273 126.951 308.538 128.008 308.684C129.065 308.848 130.305 308.93 131.727 308.93ZM131.699 320.113L133.859 320.113C136.174 320.113 138.216 320.396 139.984 320.961C141.771 321.526 143.266 322.328 144.469 323.367C145.672 324.406 146.583 325.646 147.203 327.086C147.823 328.544 148.133 330.158 148.133 331.926C148.133 333.73 147.823 335.353 147.203 336.793C146.583 338.251 145.672 339.5 144.469 340.539C143.266 341.596 141.771 342.398 139.984 342.945C138.216 343.51 136.174 343.793 133.859 343.793L131.699 343.793C129.384 343.793 127.342 343.51 125.574 342.945C123.806 342.398 122.311 341.596 121.09 340.539C119.887 339.5 118.975 338.251 118.355 336.793C117.754 335.353 117.453 333.749 117.453 331.98C117.453 330.212 117.754 328.599 118.355 327.141C118.975 325.701 119.887 324.452 121.09 323.395C122.311 322.337 123.806 321.526 125.574 320.961C127.342 320.396 129.384 320.113 131.699 320.113ZM133.859 327.141L131.699 327.141C130.259 327.141 129.01 327.25 127.953 327.469C126.914 327.688 126.048 328.007 125.355 328.426C124.663 328.863 124.143 329.374 123.797 329.957C123.469 330.559 123.305 331.233 123.305 331.98C123.305 332.783 123.469 333.484 123.797 334.086C124.143 334.688 124.663 335.189 125.355 335.59C126.048 335.991 126.914 336.292 127.953 336.492C129.01 336.693 130.259 336.793 131.699 336.793L133.859 336.793C135.263 336.793 136.493 336.674 137.551 336.438C138.608 336.219 139.483 335.9 140.176 335.48C140.868 335.061 141.388 334.551 141.734 333.949C142.099 333.348 142.281 332.673 142.281 331.926C142.281 331.197 142.099 330.54 141.734 329.957C141.388 329.374 140.868 328.863 140.176 328.426C139.483 328.007 138.608 327.688 137.551 327.469C136.493 327.25 135.263 327.141 133.859 327.141ZM141.27 355.879L118 355.879L118 348.852L147.586 348.852L147.586 355.441L141.27 355.879ZM133.832 354.73L133.805 352.707C135.974 352.671 137.934 352.88 139.684 353.336C141.452 353.81 142.965 354.484 144.223 355.359C145.48 356.253 146.447 357.31 147.121 358.531C147.796 359.753 148.133 361.111 148.133 362.605C148.133 363.772 147.932 364.829 147.531 365.777C147.13 366.743 146.492 367.573 145.617 368.266C144.742 368.958 143.594 369.496 142.172 369.879C140.75 370.262 139.009 370.453 136.949 370.453L118 370.453L118 363.426L137.004 363.426C138.335 363.426 139.374 363.28 140.121 362.988C140.887 362.715 141.424 362.305 141.734 361.758C142.063 361.229 142.227 360.546 142.227 359.707C142.227 358.923 142.008 358.221 141.57 357.602C141.133 356.982 140.531 356.453 139.766 356.016C139 355.596 138.107 355.277 137.086 355.059C136.083 354.84 134.999 354.73 133.832 354.73Z" fill="#181818"/>
<line x1="194.5" y1="168" x2="194.5" y2="412" stroke="white" stroke-width="5" stroke-dasharray="2 2"/>
<path d="M372.498 205.858C396.469 206.044 406.875 214.034 406.875 235.776V308.247C406.875 329.988 396.469 338.164 372.498 338.35C348.527 338.164 338.121 329.988 338.121 308.247V235.776C338.121 214.034 348.527 206.044 372.498 205.858ZM391.266 311.22V232.988C391.266 219.237 385.878 213.849 372.498 213.663C358.933 213.849 353.73 219.237 353.73 232.988V311.22C353.73 324.971 358.933 330.359 372.498 330.545C385.878 330.359 391.266 324.971 391.266 311.22Z" fill="#FAF9F6"/>
<path d="M287.377 257.517C311.348 257.703 321.754 265.879 321.754 287.62V308.247C321.754 329.988 311.348 338.164 287.377 338.35C263.406 338.164 253 329.988 253 308.247V297.84H268.609V312.149C268.609 325.714 273.812 331.289 287.377 331.289C300.756 331.289 306.145 325.714 306.145 312.149V283.904C306.145 270.153 300.756 264.764 287.377 264.578C272.697 264.578 265.822 269.595 261.362 282.603H254.487L258.761 207.159H311.72C316.737 206.973 318.038 206.044 319.525 204H319.71V222.768H264.893L262.105 270.525C267.123 261.605 274.37 257.517 287.377 257.517Z" fill="#FAF9F6"/>
<path d="M452.871 228.132C452.871 236.655 448.411 241.016 439.789 241.016C431.167 241.016 426.707 236.655 426.707 228.132V218.023C426.707 209.401 431.167 205.14 439.789 205.14C448.411 205.14 452.871 209.401 452.871 218.023V228.132ZM473.187 205.833H476.854L437.708 275.108H434.041L473.187 205.833ZM432.951 229.321C432.951 234.772 435.131 238.043 439.789 238.043C444.447 238.043 446.627 234.772 446.627 229.321V216.735C446.627 211.383 444.447 208.113 439.789 208.113C435.131 208.113 432.951 211.383 432.951 216.735V229.321ZM471.899 239.926C480.521 239.926 484.981 244.187 484.981 252.809V262.918C484.981 271.441 480.521 275.802 471.899 275.802C463.277 275.802 458.817 271.441 458.817 262.918V252.809C458.817 244.187 463.277 239.926 471.899 239.926ZM478.737 264.107V251.521C478.737 246.169 476.557 242.899 471.899 242.899C467.241 242.899 465.061 246.169 465.061 251.521V264.107C465.061 269.558 467.241 272.829 471.899 272.829C476.557 272.829 478.737 269.558 478.737 264.107Z" fill="#FAF9F6"/>
<path d="M483.888 337.049H474.887V285.004H493.687V292.444H483.888V307.325H492.453V314.728H483.888V337.049Z" fill="#FAF9F6"/>
<path d="M462.764 337.049H453.764V285.004H472.564V292.444H462.764V307.325H471.33V314.728H462.764V337.049Z" fill="#FAF9F6"/>
<path d="M439.065 337.049H433.512C427.705 337.049 424.802 334 424.802 327.939V294.077C424.802 291.573 425.346 289.432 426.471 287.653C427.596 285.875 429.919 285.004 433.512 285.004H438.775C442.586 285.004 445.017 285.875 446.142 287.653C447.231 289.432 447.776 291.573 447.776 294.077V327.939C447.776 334 444.872 337.049 439.065 337.049ZM436.307 329.899C437.033 329.863 437.613 329.572 438.085 329.064C438.557 328.556 438.775 327.576 438.775 326.161V295.856C438.775 294.44 438.557 293.46 438.085 292.952C437.613 292.481 437.033 292.19 436.307 292.154C435.581 292.19 435 292.481 434.528 292.952C434.057 293.46 433.839 294.44 433.839 295.856V326.161C433.839 327.576 434.057 328.556 434.528 329.064C435 329.572 435.581 329.863 436.307 329.899Z" fill="#FAF9F6"/>
<rect x="253" y="363" width="278" height="8" rx="4" fill="#FAF9F6"/>
<rect x="253" y="378" width="151.95" height="8" rx="4" fill="#FAF9F6"/>
</g>
<g filter="url(#filter2_d_650_1402)">
<path fill-rule="evenodd" clip-rule="evenodd" d="M78 206C78 198.82 83.8203 193 91 193H619C626.18 193 632 198.82 632 206V279.782C632 283.375 628.594 286 625 286C608.984 286 596 298.984 596 315C596 331.016 608.984 344 625 344C628.594 344 632 346.625 632 350.218V424C632 431.18 626.18 437 619 437H91C83.8203 437 78 431.18 78 424V357C78 349.82 84.1028 344.257 90.571 341.141C100.292 336.458 107 326.512 107 315C107 303.488 100.292 293.542 90.571 288.859C84.1028 285.743 78 280.18 78 273V206Z" fill="#A78FE6"/>
</g>
<path fill-rule="evenodd" clip-rule="evenodd" d="M79 193C78.4477 193 78 193.448 78 194V273C78 280.18 84.1028 285.743 90.571 288.859C100.292 293.542 107 303.488 107 315C107 326.512 100.292 336.458 90.571 341.141C84.1028 344.257 78 349.82 78 357V436C78 436.552 78.4477 437 79 437H225C225.552 437 226 436.552 226 436V194C226 193.448 225.552 193 225 193H79Z" fill="#F7F7F7"/>
<path d="M165.125 251.668L165.125 258.969C162.19 258.841 159.702 258.24 157.66 257.164C155.637 256.107 154.096 254.585 153.039 252.598C151.982 250.629 151.453 248.232 151.453 245.406C151.453 243.255 151.827 241.332 152.574 239.637C153.34 237.941 154.443 236.501 155.883 235.316C157.323 234.15 159.091 233.257 161.188 232.637C163.302 232.035 165.717 231.734 168.434 231.734L175.352 231.734C178.068 231.734 180.483 232.053 182.598 232.691C184.712 233.329 186.499 234.241 187.957 235.426C189.415 236.629 190.518 238.087 191.266 239.801C192.013 241.514 192.387 243.447 192.387 245.598C192.387 248.441 191.849 250.82 190.773 252.734C189.698 254.648 188.121 256.125 186.043 257.164C183.983 258.203 181.467 258.814 178.496 258.996L178.496 251.695C180.428 251.622 181.96 251.385 183.09 250.984C184.238 250.583 185.059 249.954 185.551 249.098C186.043 248.241 186.289 247.074 186.289 245.598C186.289 244.449 186.079 243.456 185.66 242.617C185.241 241.779 184.585 241.095 183.691 240.566C182.816 240.038 181.695 239.646 180.328 239.391C178.961 239.135 177.32 239.008 175.406 239.008L168.434 239.008C166.592 239.008 164.988 239.117 163.621 239.336C162.254 239.555 161.115 239.901 160.203 240.375C159.31 240.867 158.635 241.523 158.18 242.344C157.742 243.164 157.523 244.185 157.523 245.406C157.523 246.883 157.742 248.059 158.18 248.934C158.635 249.809 159.41 250.456 160.504 250.875C161.616 251.313 163.156 251.577 165.125 251.668ZM165.699 262.988L167.859 262.988C170.174 262.988 172.216 263.271 173.984 263.836C175.771 264.401 177.266 265.203 178.469 266.242C179.672 267.281 180.583 268.521 181.203 269.961C181.823 271.419 182.133 273.033 182.133 274.801C182.133 276.605 181.823 278.228 181.203 279.668C180.583 281.126 179.672 282.375 178.469 283.414C177.266 284.471 175.771 285.273 173.984 285.82C172.216 286.385 170.174 286.668 167.859 286.668L165.699 286.668C163.384 286.668 161.342 286.385 159.574 285.82C157.806 285.273 156.311 284.471 155.09 283.414C153.887 282.375 152.975 281.126 152.355 279.668C151.754 278.228 151.453 276.624 151.453 274.855C151.453 273.087 151.754 271.474 152.355 270.016C152.975 268.576 153.887 267.327 155.09 266.27C156.311 265.212 157.806 264.401 159.574 263.836C161.342 263.271 163.384 262.988 165.699 262.988ZM167.859 270.016L165.699 270.016C164.259 270.016 163.01 270.125 161.953 270.344C160.914 270.563 160.048 270.882 159.355 271.301C158.663 271.738 158.143 272.249 157.797 272.832C157.469 273.434 157.305 274.108 157.305 274.855C157.305 275.658 157.469 276.359 157.797 276.961C158.143 277.563 158.663 278.064 159.355 278.465C160.048 278.866 160.914 279.167 161.953 279.367C163.01 279.568 164.259 279.668 165.699 279.668L167.859 279.668C169.263 279.668 170.493 279.549 171.551 279.313C172.608 279.094 173.483 278.775 174.176 278.355C174.868 277.936 175.388 277.426 175.734 276.824C176.099 276.223 176.281 275.548 176.281 274.801C176.281 274.072 176.099 273.415 175.734 272.832C175.388 272.249 174.868 271.738 174.176 271.301C173.483 270.882 172.608 270.563 171.551 270.344C170.493 270.125 169.263 270.016 167.859 270.016ZM159.055 306.301L181.586 306.301L181.586 313.328L152 313.328L152 306.738L159.055 306.301ZM165.18 307.203L165.234 309.254C163.266 309.254 161.434 309.072 159.738 308.707C158.061 308.342 156.603 307.777 155.363 307.012C154.124 306.246 153.158 305.271 152.465 304.086C151.79 302.919 151.453 301.534 151.453 299.93C151.453 298.708 151.654 297.596 152.055 296.594C152.474 295.591 153.121 294.725 153.996 293.996C154.889 293.267 156.029 292.702 157.414 292.301C158.818 291.9 160.504 291.699 162.473 291.699L181.586 291.699L181.586 298.727L162.391 298.727C161.479 298.727 160.695 298.809 160.039 298.973C159.401 299.137 158.882 299.355 158.48 299.629C158.098 299.921 157.824 300.258 157.66 300.641C157.496 301.023 157.414 301.443 157.414 301.898C157.414 303.229 157.751 304.277 158.426 305.043C159.1 305.827 160.021 306.383 161.188 306.711C162.372 307.039 163.703 307.203 165.18 307.203ZM175.898 326.316L140.625 326.316L140.625 319.316L181.586 319.316L181.586 325.77L175.898 326.316ZM167.887 341.957L165.727 341.957C163.411 341.957 161.37 341.747 159.602 341.328C157.833 340.927 156.339 340.326 155.117 339.523C153.896 338.721 152.975 337.728 152.355 336.543C151.754 335.358 151.453 333.973 151.453 332.387C151.453 330.892 151.79 329.607 152.465 328.531C153.139 327.456 154.087 326.544 155.309 325.797C156.53 325.049 157.961 324.457 159.602 324.02C161.242 323.582 163.02 323.254 164.934 323.035L168.27 323.035C170.311 323.236 172.18 323.546 173.875 323.965C175.57 324.402 177.038 324.995 178.277 325.742C179.517 326.49 180.465 327.401 181.121 328.477C181.796 329.57 182.133 330.855 182.133 332.332C182.133 333.936 181.841 335.34 181.258 336.543C180.693 337.746 179.827 338.749 178.66 339.551C177.493 340.353 176.008 340.954 174.203 341.355C172.417 341.757 170.311 341.957 167.887 341.957ZM165.727 334.93L167.887 334.93C169.345 334.93 170.603 334.839 171.66 334.656C172.717 334.492 173.583 334.219 174.258 333.836C174.932 333.471 175.424 332.988 175.734 332.387C176.063 331.803 176.227 331.092 176.227 330.254C176.227 329.452 176.063 328.75 175.734 328.148C175.424 327.547 174.978 327.055 174.395 326.672C173.811 326.289 173.109 325.979 172.289 325.742C171.487 325.523 170.594 325.396 169.609 325.359L163.566 325.359C162.4 325.451 161.342 325.66 160.395 325.988C159.447 326.335 158.69 326.854 158.125 327.547C157.578 328.24 157.305 329.16 157.305 330.309C157.305 331.165 157.478 331.885 157.824 332.469C158.171 333.052 158.69 333.526 159.383 333.891C160.076 334.273 160.951 334.538 162.008 334.684C163.065 334.848 164.305 334.93 165.727 334.93ZM165.699 346.113L167.859 346.113C170.174 346.113 172.216 346.396 173.984 346.961C175.771 347.526 177.266 348.328 178.469 349.367C179.672 350.406 180.583 351.646 181.203 353.086C181.823 354.544 182.133 356.158 182.133 357.926C182.133 359.73 181.823 361.353 181.203 362.793C180.583 364.251 179.672 365.5 178.469 366.539C177.266 367.596 175.771 368.398 173.984 368.945C172.216 369.51 170.174 369.793 167.859 369.793L165.699 369.793C163.384 369.793 161.342 369.51 159.574 368.945C157.806 368.398 156.311 367.596 155.09 366.539C153.887 365.5 152.975 364.251 152.355 362.793C151.754 361.353 151.453 359.749 151.453 357.98C151.453 356.212 151.754 354.599 152.355 353.141C152.975 351.701 153.887 350.452 155.09 349.395C156.311 348.337 157.806 347.526 159.574 346.961C161.342 346.396 163.384 346.113 165.699 346.113ZM167.859 353.141L165.699 353.141C164.259 353.141 163.01 353.25 161.953 353.469C160.914 353.688 160.048 354.007 159.355 354.426C158.663 354.863 158.143 355.374 157.797 355.957C157.469 356.559 157.305 357.233 157.305 357.98C157.305 358.783 157.469 359.484 157.797 360.086C158.143 360.688 158.663 361.189 159.355 361.59C160.048 361.991 160.914 362.292 161.953 362.492C163.01 362.693 164.259 362.793 165.699 362.793L167.859 362.793C169.263 362.793 170.493 362.674 171.551 362.438C172.608 362.219 173.483 361.9 174.176 361.48C174.868 361.061 175.388 360.551 175.734 359.949C176.099 359.348 176.281 358.673 176.281 357.926C176.281 357.197 176.099 356.54 175.734 355.957C175.388 355.374 174.868 354.863 174.176 354.426C173.483 354.007 172.608 353.688 171.551 353.469C170.493 353.25 169.263 353.141 167.859 353.141ZM175.27 381.879L152 381.879L152 374.852L181.586 374.852L181.586 381.441L175.27 381.879ZM167.832 380.73L167.805 378.707C169.974 378.671 171.934 378.88 173.684 379.336C175.452 379.81 176.965 380.484 178.223 381.359C179.48 382.253 180.447 383.31 181.121 384.531C181.796 385.753 182.133 387.111 182.133 388.605C182.133 389.772 181.932 390.829 181.531 391.777C181.13 392.743 180.492 393.573 179.617 394.266C178.742 394.958 177.594 395.496 176.172 395.879C174.75 396.262 173.009 396.453 170.949 396.453L152 396.453L152 389.426L171.004 389.426C172.335 389.426 173.374 389.28 174.121 388.988C174.887 388.715 175.424 388.305 175.734 387.758C176.063 387.229 176.227 386.546 176.227 385.707C176.227 384.923 176.008 384.221 175.57 383.602C175.133 382.982 174.531 382.453 173.766 382.016C173 381.596 172.107 381.277 171.086 381.059C170.083 380.84 168.999 380.73 167.832 380.73Z" fill="#090B12"/>
<line x1="228.5" y1="193" x2="228.5" y2="437" stroke="white" stroke-width="5" stroke-dasharray="2 2"/>
<rect x="287" y="388" width="278" height="8" rx="4" fill="#FAF9F6"/>
<rect x="287" y="403" width="151.95" height="8" rx="4" fill="#FAF9F6"/>
<path d="M406.498 230.858C430.469 231.044 440.875 239.034 440.875 260.776V333.247C440.875 354.988 430.469 363.164 406.498 363.35C382.527 363.164 372.121 354.988 372.121 333.247V260.776C372.121 239.034 382.527 231.044 406.498 230.858ZM425.266 336.22V257.988C425.266 244.237 419.878 238.849 406.498 238.663C392.933 238.849 387.73 244.237 387.73 257.988V336.22C387.73 349.971 392.933 355.359 406.498 355.545C419.878 355.359 425.266 349.971 425.266 336.22Z" fill="#FAF9F6"/>
<path d="M321.377 282.517C345.348 282.703 355.754 290.879 355.754 312.62V333.247C355.754 354.988 345.348 363.164 321.377 363.35C297.406 363.164 287 354.988 287 333.247V322.84H302.609V337.149C302.609 350.714 307.812 356.289 321.377 356.289C334.756 356.289 340.145 350.714 340.145 337.149V308.904C340.145 295.153 334.756 289.764 321.377 289.578C306.697 289.578 299.822 294.595 295.362 307.603H288.487L292.761 232.159H345.72C350.737 231.973 352.038 231.044 353.525 229H353.71V247.768H298.893L296.105 295.525C301.123 286.605 308.37 282.517 321.377 282.517Z" fill="#FAF9F6"/>
<path d="M486.871 253.132C486.871 261.655 482.411 266.016 473.789 266.016C465.167 266.016 460.707 261.655 460.707 253.132V243.023C460.707 234.401 465.167 230.14 473.789 230.14C482.411 230.14 486.871 234.401 486.871 243.023V253.132ZM507.187 230.833H510.854L471.708 300.108H468.041L507.187 230.833ZM466.951 254.321C466.951 259.772 469.131 263.043 473.789 263.043C478.447 263.043 480.627 259.772 480.627 254.321V241.735C480.627 236.383 478.447 233.113 473.789 233.113C469.131 233.113 466.951 236.383 466.951 241.735V254.321ZM505.899 264.926C514.521 264.926 518.981 269.187 518.981 277.809V287.918C518.981 296.441 514.521 300.802 505.899 300.802C497.277 300.802 492.817 296.441 492.817 287.918V277.809C492.817 269.187 497.277 264.926 505.899 264.926ZM512.737 289.107V276.521C512.737 271.169 510.557 267.899 505.899 267.899C501.241 267.899 499.061 271.169 499.061 276.521V289.107C499.061 294.558 501.241 297.829 505.899 297.829C510.557 297.829 512.737 294.558 512.737 289.107Z" fill="#FAF9F6"/>
<path d="M517.888 362.049H508.887V310.004H527.687V317.444H517.888V332.325H526.453V339.728H517.888V362.049Z" fill="#FAF9F6"/>
<path d="M496.764 362.049H487.764V310.004H506.564V317.444H496.764V332.325H505.33V339.728H496.764V362.049Z" fill="#FAF9F6"/>
<path d="M473.065 362.049H467.512C461.705 362.049 458.802 359 458.802 352.939V319.077C458.802 316.573 459.346 314.432 460.471 312.653C461.596 310.875 463.919 310.004 467.512 310.004H472.775C476.586 310.004 479.017 310.875 480.142 312.653C481.231 314.432 481.776 316.573 481.776 319.077V352.939C481.776 359 478.872 362.049 473.065 362.049ZM470.307 354.899C471.033 354.863 471.613 354.572 472.085 354.064C472.557 353.556 472.775 352.576 472.775 351.161V320.856C472.775 319.44 472.557 318.46 472.085 317.952C471.613 317.481 471.033 317.19 470.307 317.154C469.581 317.19 469 317.481 468.528 317.952C468.057 318.46 467.839 319.44 467.839 320.856V351.161C467.839 352.576 468.057 353.556 468.528 354.064C469 354.572 469.581 354.863 470.307 354.899Z" fill="#FAF9F6"/>
<g filter="url(#filter3_d_650_1402)">
<rect x="237" y="20" width="344" height="74" rx="16" fill="white"/>
</g>
<path d="M398.537 64.8047L402.639 59.4727L396.604 57.7148L397.639 54.4531L403.635 56.7773L403.361 50H406.779L406.467 56.8945L412.346 54.6094L413.4 57.9102L407.268 59.668L411.232 64.9023L408.459 66.9336L404.865 61.2695L401.33 66.7578L398.537 64.8047Z" fill="#A78FE6"/>
<path d="M366.002 64.8047L370.104 59.4727L364.068 57.7148L365.104 54.4531L371.1 56.7773L370.826 50H374.244L373.932 56.8945L379.811 54.6094L380.865 57.9102L374.732 59.668L378.697 64.9023L375.924 66.9336L372.33 61.2695L368.795 66.7578L366.002 64.8047Z" fill="#A78FE6"/>
<path d="M333.468 64.8047L337.569 59.4727L331.534 57.7148L332.569 54.4531L338.565 56.7773L338.292 50H341.71L341.397 56.8945L347.276 54.6094L348.331 57.9102L342.198 59.668L346.163 64.9023L343.39 66.9336L339.796 61.2695L336.261 66.7578L333.468 64.8047Z" fill="#A78FE6"/>
<path d="M300.934 64.8047L305.035 59.4727L299 57.7148L300.035 54.4531L306.031 56.7773L305.758 50H309.176L308.863 56.8945L314.742 54.6094L315.797 57.9102L309.664 59.668L313.629 64.9023L310.855 66.9336L307.262 61.2695L303.727 66.7578L300.934 64.8047Z" fill="#A78FE6"/>
<rect x="423" y="47" width="1" height="22" fill="black"/>
<path d="M263.364 49C261.907 49 260.484 49.4319 259.273 50.241C258.062 51.0501 257.118 52.2001 256.561 53.5457C256.003 54.8912 255.857 56.3718 256.141 57.8002C256.426 59.2286 257.127 60.5406 258.157 61.5704C259.187 62.6003 260.499 63.3016 261.927 63.5857C263.355 63.8698 264.836 63.724 266.182 63.1667C267.527 62.6093 268.677 61.6655 269.486 60.4546C270.295 59.2437 270.727 57.82 270.727 56.3636C270.727 54.4107 269.951 52.5378 268.57 51.1569C267.189 49.776 265.317 49.0001 263.364 49Z" stroke="#B7B7B7" stroke-width="2" stroke-miterlimit="10"/>
<path d="M268.857 61.8573L274 67" stroke="#B7B7B7" stroke-width="2" stroke-miterlimit="10" stroke-linecap="round"/>
<defs>
<filter id="filter0_d_650_1402" x="0" y="123" width="574" height="264" filterUnits="userSpaceOnUse" color-interpolation-filters="sRGB">
<feFlood flood-opacity="0" result="BackgroundImageFix"/>
<feColorMatrix in="SourceAlpha" type="matrix" values="0 0 0 0 0 0 0 0 0 0 0 0 0 0 0 0 0 0 127 0" result="hardAlpha"/>
<feOffset dy="-5"/>
<feGaussianBlur stdDeviation="5"/>
<feComposite in2="hardAlpha" operator="out"/>
<feColorMatrix type="matrix" values="0 0 0 0 0 0 0 0 0 0 0 0 0 0 0 0 0 0 0.08 0"/>
<feBlend mode="normal" in2="BackgroundImageFix" result="effect1_dropShadow_650_1402"/>
<feBlend mode="normal" in="SourceGraphic" in2="effect1_dropShadow_650_1402" result="shape"/>
</filter>
<filter id="filter1_d_650_1402" x="34" y="153" width="574" height="264" filterUnits="userSpaceOnUse" color-interpolation-filters="sRGB">
<feFlood flood-opacity="0" result="BackgroundImageFix"/>
<feColorMatrix in="SourceAlpha" type="matrix" values="0 0 0 0 0 0 0 0 0 0 0 0 0 0 0 0 0 0 127 0" result="hardAlpha"/>
<feOffset dy="-5"/>
<feGaussianBlur stdDeviation="5"/>
<feComposite in2="hardAlpha" operator="out"/>
<feColorMatrix type="matrix" values="0 0 0 0 0 0 0 0 0 0 0 0 0 0 0 0 0 0 0.08 0"/>
<feBlend mode="normal" in2="BackgroundImageFix" result="effect1_dropShadow_650_1402"/>
<feBlend mode="normal" in="SourceGraphic" in2="effect1_dropShadow_650_1402" result="shape"/>
</filter>
<filter id="filter2_d_650_1402" x="68" y="178" width="574" height="264" filterUnits="userSpaceOnUse" color-interpolation-filters="sRGB">
<feFlood flood-opacity="0" result="BackgroundImageFix"/>
<feColorMatrix in="SourceAlpha" type="matrix" values="0 0 0 0 0 0 0 0 0 0 0 0 0 0 0 0 0 0 127 0" result="hardAlpha"/>
<feOffset dy="-5"/>
<feGaussianBlur stdDeviation="5"/>
<feComposite in2="hardAlpha" operator="out"/>
<feColorMatrix type="matrix" values="0 0 0 0 0 0 0 0 0 0 0 0 0 0 0 0 0 0 0.08 0"/>
<feBlend mode="normal" in2="BackgroundImageFix" result="effect1_dropShadow_650_1402"/>
<feBlend mode="normal" in="SourceGraphic" in2="effect1_dropShadow_650_1402" result="shape"/>
</filter>
<filter id="filter3_d_650_1402" x="197" y="0" width="424" height="154" filterUnits="userSpaceOnUse" color-interpolation-filters="sRGB">
<feFlood flood-opacity="0" result="BackgroundImageFix"/>
<feColorMatrix in="SourceAlpha" type="matrix" values="0 0 0 0 0 0 0 0 0 0 0 0 0 0 0 0 0 0 127 0" result="hardAlpha"/>
<feOffset dy="20"/>
<feGaussianBlur stdDeviation="20"/>
<feComposite in2="hardAlpha" operator="out"/>
<feColorMatrix type="matrix" values="0 0 0 0 0 0 0 0 0 0 0 0 0 0 0 0 0 0 0.07 0"/>
<feBlend mode="normal" in2="BackgroundImageFix" result="effect1_dropShadow_650_1402"/>
<feBlend mode="normal" in="SourceGraphic" in2="effect1_dropShadow_650_1402" result="shape"/>
</filter>
</defs>
</svg>
