<svg width="475" height="439" viewBox="0 0 475 439" fill="none" xmlns="http://www.w3.org/2000/svg">
<rect width="439" height="439" rx="20" fill="#FAF9F6"/>
<path d="M89.2758 245.355C89.2758 245.355 89.8445 214.078 124.454 207.306L207.553 203.278L396 196L379.786 319.945C379.786 319.945 376.162 350.217 346.991 354.64L157.475 363.823L103.934 366.649C103.934 366.649 88.2823 368.333 80.2443 379.14C80.2443 379.14 69.7903 392.611 70.0032 397L83.3163 289.624L89.2758 245.355Z" fill="#B8D9BA"/>
<path d="M258.701 282.051C269.665 282.051 277.298 273.99 277.298 261.023C277.298 248.061 269.665 240 258.701 240C247.736 240 240 248.171 240 261.023C239.997 273.88 247.736 282.051 258.701 282.051ZM258.701 273.117C254.079 273.117 250.854 269.088 250.854 261.023C250.854 252.962 254.079 248.93 258.701 248.93C263.432 248.93 266.55 252.854 266.55 261.023C266.55 269.194 263.432 273.117 258.701 273.117ZM252.144 317.131H264.936L316.317 240.871H303.524L252.144 317.131ZM309.757 318C320.719 318 328.463 309.829 328.463 296.977C328.463 284.12 320.722 275.949 309.757 275.949C298.901 275.949 291.162 284.12 291.162 296.977C291.164 309.829 298.901 318 309.757 318ZM309.757 309.07C305.136 309.07 301.913 305.148 301.913 296.977C301.913 288.806 305.138 284.883 309.757 284.883C314.486 284.883 317.604 288.912 317.604 296.977C317.604 305.038 314.486 309.07 309.757 309.07Z" fill="white"/>
<path d="M206.352 321.667C202.055 321.667 198.358 320.818 195.26 319.119C192.212 317.42 189.864 315.172 188.215 312.374C186.616 309.526 185.816 306.428 185.816 303.081H196.084C196.084 304.979 196.509 306.653 197.358 308.102C198.258 309.551 199.482 310.7 201.031 311.55C202.58 312.349 204.378 312.749 206.427 312.749C208.575 312.749 210.424 312.299 211.973 311.4C213.522 310.5 214.696 309.276 215.495 307.727C216.345 306.178 216.769 304.405 216.769 302.406C216.769 300.457 216.345 298.709 215.495 297.16C214.696 295.561 213.522 294.312 211.973 293.412C210.474 292.463 208.65 291.988 206.502 291.988C204.703 291.988 203.004 292.338 201.405 293.038C199.806 293.737 198.557 294.662 197.658 295.811H187.84L190.613 265.532H222.316V274.601H195.26L199.007 271.678L197.208 290.564L194.66 289.815C196.109 288.166 197.883 286.792 199.981 285.693C202.08 284.594 204.728 284.044 207.926 284.044C211.973 284.044 215.42 284.869 218.268 286.517C221.116 288.166 223.29 290.365 224.789 293.113C226.288 295.811 227.037 298.759 227.037 301.956V302.931C227.037 306.178 226.238 309.226 224.639 312.074C223.04 314.922 220.692 317.246 217.594 319.044C214.546 320.793 210.799 321.667 206.352 321.667Z" fill="white"/>
<path d="M158.161 321.667C153.964 321.667 150.341 320.868 147.293 319.269C144.296 317.67 141.997 315.547 140.398 312.899C138.799 310.201 138 307.203 138 303.905H148.268C148.268 306.553 149.142 308.702 150.891 310.35C152.69 311.949 155.113 312.749 158.161 312.749C160.209 312.749 161.958 312.374 163.407 311.625C164.906 310.825 166.055 309.751 166.855 308.402C167.654 307.003 168.054 305.404 168.054 303.605C168.054 300.907 167.179 298.709 165.431 297.01C163.682 295.261 161.283 294.387 158.236 294.387C156.737 294.387 155.413 294.587 154.263 294.986C153.164 295.386 152.19 295.911 151.341 296.56L146.469 288.166L164.456 275.875L163.782 274.601H140.248V265.532H175.998V276.474L157.486 288.766L151.715 287.717C152.665 287.417 153.689 287.192 154.788 287.042C155.887 286.842 157.086 286.742 158.386 286.742C162.533 286.742 166.08 287.467 169.028 288.916C172.026 290.315 174.324 292.263 175.923 294.762C177.522 297.26 178.321 300.133 178.321 303.38V304.355C178.321 307.502 177.522 310.4 175.923 313.049C174.324 315.647 172.026 317.745 169.028 319.344C166.03 320.893 162.408 321.667 158.161 321.667Z" fill="white"/>
<path d="M221.267 256.2C220.258 256.2 219.371 256.027 218.607 255.681C217.857 255.335 217.229 254.874 216.725 254.297C216.235 253.706 215.86 253.05 215.6 252.329C215.355 251.608 215.232 250.872 215.232 250.122V249.711C215.232 248.933 215.355 248.183 215.6 247.462C215.86 246.727 216.235 246.078 216.725 245.515C217.229 244.939 217.85 244.485 218.585 244.153C219.32 243.807 220.171 243.634 221.137 243.634C222.406 243.634 223.466 243.915 224.317 244.477C225.182 245.025 225.831 245.753 226.263 246.662C226.696 247.556 226.912 248.522 226.912 249.56V250.642H216.509V248.803H225.03L224.1 249.711C224.1 248.962 223.992 248.32 223.776 247.787C223.56 247.253 223.228 246.842 222.781 246.554C222.348 246.265 221.8 246.121 221.137 246.121C220.474 246.121 219.911 246.273 219.45 246.575C218.989 246.878 218.635 247.318 218.39 247.895C218.16 248.457 218.044 249.135 218.044 249.928C218.044 250.663 218.16 251.319 218.39 251.896C218.621 252.458 218.974 252.905 219.45 253.237C219.926 253.554 220.531 253.713 221.267 253.713C222.002 253.713 222.601 253.569 223.062 253.28C223.523 252.977 223.819 252.61 223.949 252.177H226.717C226.544 252.985 226.213 253.691 225.722 254.297C225.232 254.902 224.605 255.371 223.841 255.703C223.091 256.034 222.233 256.2 221.267 256.2Z" fill="white"/>
<path d="M207.855 256.2C206.845 256.2 205.959 256.027 205.194 255.681C204.445 255.335 203.817 254.874 203.313 254.297C202.822 253.706 202.448 253.05 202.188 252.329C201.943 251.608 201.82 250.872 201.82 250.122V249.711C201.82 248.933 201.943 248.183 202.188 247.462C202.448 246.727 202.822 246.078 203.313 245.515C203.817 244.939 204.437 244.485 205.173 244.153C205.908 243.807 206.759 243.634 207.725 243.634C208.994 243.634 210.054 243.915 210.904 244.477C211.77 245.025 212.418 245.753 212.851 246.662C213.284 247.556 213.5 248.522 213.5 249.56V250.642H203.096V248.803H211.618L210.688 249.711C210.688 248.962 210.58 248.32 210.364 247.787C210.147 247.253 209.816 246.842 209.369 246.554C208.936 246.265 208.388 246.121 207.725 246.121C207.062 246.121 206.499 246.273 206.038 246.575C205.577 246.878 205.223 247.318 204.978 247.895C204.747 248.457 204.632 249.135 204.632 249.928C204.632 250.663 204.747 251.319 204.978 251.896C205.209 252.458 205.562 252.905 206.038 253.237C206.514 253.554 207.119 253.713 207.855 253.713C208.59 253.713 209.189 253.569 209.65 253.28C210.111 252.977 210.407 252.61 210.537 252.177H213.305C213.132 252.985 212.801 253.691 212.31 254.297C211.82 254.902 211.193 255.371 210.429 255.703C209.679 256.034 208.821 256.2 207.855 256.2Z" fill="white"/>
<path d="M193.664 255.789V244.044H196.043V249.019H195.978C195.978 247.332 196.339 246.056 197.06 245.191C197.781 244.326 198.841 243.893 200.239 243.893H200.672V246.51H199.85C198.841 246.51 198.055 246.784 197.492 247.332C196.944 247.866 196.67 248.644 196.67 249.668V255.789H193.664Z" fill="white"/>
<path d="M181.945 255.789V240H185.017V255.789H181.945ZM184.584 249.214V246.618L190.9 246.597V249.192L184.584 249.214ZM184.584 242.595V240H191.202V242.595H184.584Z" fill="white"/>
<path d="M163.006 255.789L166.834 249.517L166.769 250.014L163.157 244.044H166.423L168.781 248.176H169.105L171.333 244.044H174.404L170.987 249.992L171.052 249.56L175.096 255.789H171.83L169.04 251.355H168.716L166.077 255.789H163.006Z" fill="white"/>
<path d="M158.747 255.789V252.307H158.25V248.435C158.25 247.758 158.084 247.253 157.752 246.921C157.421 246.59 156.909 246.424 156.217 246.424C155.856 246.424 155.423 246.431 154.919 246.445C154.414 246.46 153.902 246.481 153.383 246.51C152.878 246.525 152.424 246.546 152.021 246.575V244.023C152.352 243.994 152.727 243.965 153.145 243.936C153.563 243.908 153.989 243.893 154.421 243.893C154.868 243.879 155.286 243.872 155.676 243.872C156.887 243.872 157.889 244.03 158.682 244.347C159.49 244.665 160.095 245.162 160.499 245.84C160.917 246.518 161.126 247.404 161.126 248.5V255.789H158.747ZM154.962 256.092C154.111 256.092 153.362 255.94 152.713 255.638C152.078 255.335 151.581 254.902 151.22 254.34C150.874 253.778 150.701 253.1 150.701 252.307C150.701 251.442 150.91 250.735 151.328 250.187C151.761 249.639 152.359 249.228 153.124 248.954C153.902 248.68 154.811 248.543 155.849 248.543H158.574V250.339H155.806C155.113 250.339 154.58 250.512 154.205 250.858C153.845 251.189 153.664 251.622 153.664 252.155C153.664 252.689 153.845 253.121 154.205 253.453C154.58 253.785 155.113 253.951 155.806 253.951C156.224 253.951 156.606 253.879 156.952 253.734C157.312 253.576 157.608 253.316 157.839 252.956C158.084 252.581 158.221 252.076 158.25 251.442L158.985 252.285C158.913 253.107 158.711 253.799 158.379 254.362C158.062 254.924 157.615 255.356 157.038 255.659C156.476 255.948 155.784 256.092 154.962 256.092Z" fill="white"/>
<path d="M142.564 255.789V242.271H145.635V255.789H142.564ZM138 242.704V240H150.199V242.704H138Z" fill="white"/>
<rect x="225.047" y="378" width="26.9362" height="26.9362" transform="rotate(45 225.047 378)" fill="#A78FE6"/>
<rect x="243.523" y="405" width="10.6397" height="10.6397" transform="rotate(45 243.523 405)" fill="#A78FE6"/>
<path d="M272.72 102.292C269.929 110.638 265.101 118.157 258.674 124.169C252.246 130.18 244.422 134.495 235.908 136.722C227.394 138.949 218.459 139.018 209.911 136.924C201.364 134.829 193.473 130.637 186.953 124.726C197.931 132.592 211.501 135.963 224.884 134.149C238.266 132.336 250.449 125.475 258.938 114.971C267.427 104.467 271.579 91.1152 270.545 77.6495C269.511 64.1838 263.368 51.623 253.374 42.5391C262.557 49.1271 269.389 58.4824 272.871 69.2348C276.352 79.9873 276.299 91.5719 272.72 102.292Z" fill="#A78FE6"/>
<path d="M222.489 139.07C214.735 139.063 207.075 137.373 200.039 134.114C193.002 130.856 186.758 126.108 181.737 120.199C176.716 114.289 173.039 107.36 170.96 99.8894C168.881 92.4191 168.45 84.5862 169.696 76.9327C170.942 69.2792 173.835 61.9877 178.176 55.5627C182.518 49.1376 188.203 43.7323 194.839 39.7207C201.474 35.7092 208.902 33.1871 216.609 32.3289C224.315 31.4707 232.116 32.2969 239.472 34.7504C267.47 44.1062 282.671 74.4866 273.308 102.493C265.835 124.887 244.897 139.07 222.489 139.07ZM222.489 33.1977C210.073 33.2127 198.067 37.6431 188.617 45.697C179.167 53.7509 172.889 64.9032 170.906 77.1603C168.923 89.4175 171.363 101.98 177.792 112.604C184.22 123.227 194.216 131.217 205.994 135.147C233.347 144.277 263.034 129.445 272.16 102.088C281.286 74.7304 266.459 45.0422 239.102 35.9159C233.743 34.1245 228.129 33.2115 222.478 33.212L222.489 33.1977Z" fill="black"/>
<path d="M261.64 85.5459C261.64 93.2816 259.346 100.844 255.049 107.275C250.751 113.707 244.643 118.721 237.496 121.681C230.35 124.641 222.486 125.416 214.899 123.907C207.312 122.397 200.343 118.672 194.873 113.202C189.404 107.732 185.679 100.763 184.169 93.1763C182.66 85.5893 183.435 77.7252 186.395 70.5784C189.355 63.4315 194.368 57.323 200.8 53.0253C207.232 48.7276 214.794 46.4338 222.529 46.4338C227.669 46.4191 232.762 47.4207 237.513 49.3811C242.265 51.3415 246.583 54.2219 250.217 57.8567C253.852 61.4916 256.732 65.8091 258.693 70.561C260.653 75.3129 261.655 80.4055 261.64 85.5459Z" fill="#A78FE6"/>
<path d="M222.529 82.0567C227.793 82.0567 232.06 77.7893 232.06 72.5252C232.06 67.2611 227.793 62.9937 222.529 62.9937C217.265 62.9937 212.998 67.2611 212.998 72.5252C212.998 77.7893 217.265 82.0567 222.529 82.0567Z" fill="white"/>
<path d="M242.975 102.64C240.383 105.484 237.227 107.755 233.707 109.31C230.188 110.864 226.383 111.667 222.535 111.667C218.688 111.667 214.883 110.864 211.363 109.31C207.844 107.755 204.687 105.484 202.096 102.64C202.943 97.8345 205.457 93.4815 209.195 90.3452C212.932 87.2089 217.656 85.4897 222.535 85.4897C227.414 85.4897 232.138 87.2089 235.876 90.3452C239.613 93.4815 242.127 97.8345 242.975 102.64Z" fill="white"/>
<path d="M432.23 32C375.97 32 375.877 112 432.23 112C488.485 112.001 488.578 32 432.23 32Z" fill="#FFB902"/>
<path d="M466.438 79.4994C463.436 93.2624 452.025 105.201 432.221 105.201C385.46 105.201 385.533 38.8008 432.221 38.8008C432.527 38.8008 432.832 38.8008 433.137 38.8169C389.198 39.6225 389.413 102.504 433.999 102.504C452.187 102.504 463.023 91.9808 466.438 79.4994Z" fill="white"/>
<path d="M432.569 47.5557C433.36 47.5557 434.029 48.1689 434.029 48.8924V51.1195C438.412 51.453 441.576 52.7911 444.863 55.0168C445.409 55.4081 445.715 55.7416 445.715 56.2984C445.715 57.0771 444.984 57.689 444.132 57.689C443.767 57.689 443.462 57.6338 443.036 57.299C440.054 55.1271 437.133 54.0135 433.907 53.68V69.272C443.158 71.0539 447.054 74.229 447.054 79.6864C447.054 85.5902 441.637 89.7659 434.029 89.9891V94.3329C434.029 95.0578 433.36 95.6697 432.569 95.6697C431.777 95.6697 431.108 95.0578 431.108 94.3329V89.934C425.814 89.544 421.493 87.7621 417.414 84.5318C416.988 84.1983 416.744 83.8648 416.744 83.3631C416.744 82.6383 417.476 81.9713 418.267 81.9713C418.814 81.9713 419.18 82.1945 419.363 82.3612C422.77 85.258 426.483 86.9834 431.232 87.4299V71.5569C422.102 69.7198 418.328 66.6563 418.328 61.0874C418.328 55.4633 423.685 51.1746 431.11 51.0078V48.8911C431.108 48.1689 431.777 47.5557 432.569 47.5557ZM431.231 68.7193V53.5146C425.327 53.6262 421.431 56.8552 421.431 60.8655C421.431 64.6539 423.378 66.9925 431.231 68.7193ZM433.907 72.115V87.4864C439.994 87.3748 443.95 84.1445 443.95 79.9123C443.95 76.0701 441.82 73.7301 433.907 72.115Z" fill="white"/>
<rect x="188" y="151" width="126" height="7" rx="3" fill="#D7F2D8"/>
<rect x="188" y="164" width="72" height="7" rx="3" fill="#D7F2D8"/>
<path d="M78.7185 96.9351C83.3887 94.2469 89.2176 97.6225 89.2105 103.011L89.1563 144.039C89.1492 149.427 83.3114 152.787 78.6483 150.087L43.1445 129.526C38.4814 126.826 38.4903 120.09 43.1605 117.402L78.7185 96.9351Z" fill="#FB7B88"/>
<path d="M93.2138 154.276C92.8934 159.269 87.2876 162.043 83.1234 159.269L54.0478 139.899C49.8836 137.125 50.2841 130.883 54.7687 128.664L86.0814 113.169C90.566 110.95 95.7713 114.417 95.4509 119.411L93.2138 154.276Z" stroke="#FB7B88"/>
<path d="M324 189C324 189 351.197 202.408 357.948 218.775C362.805 230.55 356.414 239.182 360.174 251.36C365.581 268.87 388 289 388 289" stroke="#FAF9F6"/>
<path d="M333 188C333 188 360.197 201.408 366.948 217.775C371.805 229.55 365.414 238.182 369.174 250.36C374.581 267.87 397 288 397 288" stroke="#FAF9F6"/>
<path d="M343 184C343 184 370.197 197.274 376.948 213.478C381.805 225.135 375.414 233.68 379.174 245.736C384.581 263.071 407 283 407 283" stroke="#FAF9F6"/>
</svg>
