<svg width="512" height="86" viewBox="0 0 512 86" fill="none" xmlns="http://www.w3.org/2000/svg">
<g clip-path="url(#clip0_492_420)">
<path d="M270.356 0.36499C246.374 0.36499 226.916 19.1 226.916 42.222C226.916 66.806 245.529 85.182 270.356 85.182C294.564 85.182 313.678 66.562 313.678 42.705C313.678 18.989 294.692 0.36499 270.356 0.36499" fill="url(#paint0_linear_492_420)"/>
<g filter="url(#filter0_i_492_420)">
<path d="M270.356 0.36499C246.374 0.36499 226.916 19.1 226.916 42.222C226.916 66.806 245.529 85.182 270.356 85.182C294.564 85.182 313.678 66.562 313.678 42.705C313.678 18.989 294.692 0.36499 270.356 0.36499" fill="black"/>
</g>
<path d="M23.746 1.89096H0.393005V83.345H23.624C35.95 83.345 44.864 80.425 52.684 73.947C61.962 66.252 67.464 54.649 67.464 42.657C67.464 18.609 49.499 1.89096 23.746 1.89096ZM42.318 63.068C37.297 67.598 30.832 69.556 20.558 69.556H16.29V15.684H20.558C30.832 15.684 37.049 17.518 42.318 22.276C47.813 27.162 51.09 34.728 51.09 42.541C51.09 50.371 47.813 58.201 42.318 63.068ZM74.798 83.345H90.67V1.89096H74.8L74.798 83.345ZM129.526 33.136C119.987 29.602 117.18 27.271 117.18 22.89C117.18 17.756 122.178 13.851 129.029 13.851C133.792 13.851 137.7 15.804 141.865 20.431L150.16 9.57796C143.32 3.58096 135.139 0.531955 126.214 0.531955C111.816 0.531955 100.815 10.552 100.815 23.852C100.815 35.098 105.941 40.833 120.847 46.221C127.079 48.408 130.247 49.867 131.839 50.864C135.014 52.941 136.609 55.862 136.609 59.279C136.609 65.885 131.352 70.763 124.258 70.763C116.684 70.763 110.584 66.981 106.918 59.898L96.67 69.802C103.984 80.535 112.78 85.314 124.884 85.314C141.372 85.314 152.968 74.307 152.968 58.556C152.968 45.607 147.608 39.74 129.526 33.136ZM157.974 42.658C157.974 66.623 176.79 85.183 200.98 85.183C207.819 85.183 213.681 83.831 220.895 80.424V61.727C214.535 68.085 208.915 70.643 201.705 70.643C185.709 70.643 174.342 59.037 174.342 42.541C174.342 26.915 186.064 14.577 200.98 14.577C208.541 14.577 214.291 17.262 220.895 23.735V5.03996C213.933 1.50996 208.183 0.0539551 201.343 0.0539551C177.276 0.0539551 157.974 18.989 157.974 42.658ZM349.626 56.606L327.883 1.89096H310.537L345.117 85.426H353.66L388.843 1.88996H371.626L349.626 56.606ZM396.066 83.346H441.131V69.556H411.942V47.555H440.014V33.763H411.942V15.683H441.131V1.89196H396.065L396.066 83.346ZM504.02 25.93C504.02 10.671 493.53 1.89096 475.197 1.89096H451.62V83.345H467.515V50.608H469.595L491.57 83.345H511.114L485.447 49.035C497.435 46.583 504.02 38.396 504.02 25.93ZM472.138 39.382H467.515V14.7H472.392C482.307 14.7 487.679 18.865 487.679 26.792C487.679 34.969 482.307 39.382 472.138 39.382Z" fill="#0B1015"/>
</g>
<defs>
<filter id="filter0_i_492_420" x="226.916" y="0.36499" width="89.762" height="87.817" filterUnits="userSpaceOnUse" color-interpolation-filters="sRGB">
<feFlood flood-opacity="0" result="BackgroundImageFix"/>
<feBlend mode="normal" in="SourceGraphic" in2="BackgroundImageFix" result="shape"/>
<feColorMatrix in="SourceAlpha" type="matrix" values="0 0 0 0 0 0 0 0 0 0 0 0 0 0 0 0 0 0 127 0" result="hardAlpha"/>
<feOffset dx="3" dy="3"/>
<feGaussianBlur stdDeviation="4"/>
<feComposite in2="hardAlpha" operator="arithmetic" k2="-1" k3="1"/>
<feColorMatrix type="matrix" values="0 0 0 0 0 0 0 0 0 0 0 0 0 0 0 0 0 0 0.5 0"/>
<feBlend mode="normal" in2="shape" result="effect1_innerShadow_492_420"/>
</filter>
<linearGradient id="paint0_linear_492_420" x1="1911.31" y1="769.061" x2="7773.79" y2="6960.91" gradientUnits="userSpaceOnUse">
<stop stop-color="#F34F26"/>
<stop offset="1" stop-color="#F69E35"/>
</linearGradient>
<clipPath id="clip0_492_420">
<rect width="512" height="86" fill="white"/>
</clipPath>
</defs>
</svg>
