<svg width="49" height="55" viewBox="0 0 49 55" fill="none" xmlns="http://www.w3.org/2000/svg">
<path d="M25.7899 54.6121C23.5408 54.009 21.2895 53.4115 19.0437 52.8005C17.3381 52.3355 15.6314 51.8762 13.9381 51.3697C12.8545 51.0451 11.8482 51.1102 10.8811 51.7066C10.6551 51.8459 10.4204 51.9704 10.1784 52.0795C9.67975 52.3041 9.29201 52.5399 9.35364 53.2351C9.40295 53.79 8.95918 54.1336 8.37533 54.1224C6.06982 54.0752 3.76543 54.0157 1.46216 53.9438C0.780822 53.9214 0.453599 53.5406 0.469288 52.8275C0.543997 49.7367 0.628044 46.6463 0.72143 43.5563C0.77522 41.6021 0.833491 39.6479 0.887281 37.6948C0.909694 36.83 1.24365 36.5088 2.09645 36.5335C4.23984 36.5942 6.38435 36.6503 8.52998 36.702C9.52062 36.7267 9.82543 37.0389 9.80189 38.0362C9.79405 38.3653 9.80189 38.6944 9.80189 39.0381C10.5269 38.7775 11.2083 38.4911 11.9143 38.2867C14.9108 37.4197 17.801 37.7364 20.5622 39.1695C21.5618 39.6883 22.5793 40.1409 23.7123 40.2038C24.9338 40.2723 26.1586 40.2836 27.3812 40.3161C28.6218 40.3554 29.8724 40.3161 31.1006 40.4565C32.9944 40.6811 34.4199 41.6987 35.4128 43.3766C35.5865 43.3047 35.7613 43.2384 35.9305 43.1587C38.1381 42.1153 40.3368 41.0506 42.5534 40.0286C43.5178 39.5789 44.61 39.4865 45.6359 39.7678C46.6618 40.0491 47.555 40.6859 48.1566 41.565C48.6844 42.331 48.6048 42.7937 47.8327 43.2912C42.7944 46.5707 37.7549 49.8456 32.7143 53.1161C31.4984 53.9023 30.1458 54.2751 28.7405 54.5076C28.6063 54.5374 28.4738 54.5749 28.3438 54.6199L25.7899 54.6121ZM9.49036 50.3825C9.78733 50.2297 10.0081 50.123 10.2221 50.0051C11.4952 49.2976 12.8242 49.165 14.2228 49.566C16.1066 50.1073 17.9926 50.6464 19.8864 51.1552C21.9495 51.7089 24.0003 52.3513 26.0981 52.7196C27.9895 53.0723 29.9441 52.6956 31.5701 51.6651C36.3395 48.6327 41.0663 45.5284 45.8089 42.4556C45.9501 42.3647 46.08 42.258 46.2504 42.1333C45.2609 41.3595 44.2467 41.2517 43.1754 41.7537C40.8848 42.8285 38.6021 43.9179 36.3171 45.004C36.2152 45.0577 36.1161 45.1165 36.0202 45.1803C36.0493 45.3892 36.0852 45.5633 36.0975 45.7418C36.1782 46.8649 35.8734 47.1816 34.7527 47.1558C33.1226 47.1184 31.4917 47.0809 29.86 47.0435C28.141 47.0008 26.422 46.966 24.7052 46.9042C24.0328 46.8795 23.6428 46.4831 23.6753 45.9339C23.7078 45.3847 24.1336 45.0601 24.8071 45.0792C26.1721 45.1185 27.5359 45.1792 28.9008 45.1915C30.6535 45.2117 32.4072 45.1915 34.1453 45.1915C33.9324 43.6708 32.3232 42.2872 30.5873 42.2389C28.9568 42.194 27.3252 42.1625 25.6947 42.1086C24.8273 42.0805 23.9577 42.048 23.0948 41.9626C21.7288 41.8278 20.5521 41.1573 19.3272 40.5992C16.1772 39.1605 13.0775 39.3132 10.0809 41.0675C9.98158 41.1383 9.89829 41.2293 9.83649 41.3346C9.77469 41.4399 9.73579 41.5571 9.72233 41.6785C9.62932 44.2178 9.56656 46.7571 9.49821 49.2976C9.48252 49.6345 9.49036 49.9703 9.49036 50.387V50.3825ZM2.68478 38.4776C2.56039 43.0003 2.43488 47.5511 2.30712 52.1907H7.58192C7.70519 47.6545 7.82959 43.1059 7.9551 38.4776H2.68478Z" fill="#E6001E"/>
<path d="M25.017 37.9239C23.304 37.9195 21.6088 37.5755 20.0291 36.9116C18.4493 36.2477 17.0163 35.2771 15.8125 34.0556C14.6088 32.8342 13.6581 31.3861 13.0153 29.7948C12.3724 28.2034 12.0502 26.5004 12.067 24.7836C12.1085 17.6969 18.0064 11.8815 25.0977 11.9399C26.8062 11.9452 28.4967 12.2888 30.0722 12.9511C31.6477 13.6134 33.077 14.5813 34.278 15.7991C35.4789 17.0169 36.4279 18.4606 37.0702 20.0472C37.7125 21.6338 38.0356 23.332 38.0208 25.0442C37.9794 32.1501 32.1117 37.961 25.017 37.9239ZM25.0529 36.0899C31.2164 36.0843 36.2144 31.0876 36.2166 24.9274C36.2131 21.9646 35.0365 19.1242 32.9454 17.0299C30.8542 14.9356 28.0193 13.7585 25.063 13.7571C18.8816 13.7514 13.8567 18.7751 13.8701 24.9476C13.8836 31.1202 18.8883 36.0955 25.0518 36.0899H25.0529Z" fill="#E6001E"/>
<path d="M25.9586 5.1317C25.9586 6.53445 25.9721 7.93945 25.9519 9.33996C25.9429 9.93633 25.5529 10.3283 25.0554 10.3328C24.5578 10.3373 24.1835 9.94643 24.1353 9.35456C24.1253 9.23102 24.1353 9.10635 24.1353 8.98169V1.36371C24.1353 1.27498 24.1353 1.18626 24.1353 1.09753C24.1589 0.404581 24.4827 0.0204814 25.0453 0.0171121C25.6078 0.0137428 25.9575 0.392227 25.9642 1.08406C25.9777 2.43178 25.9642 3.77949 25.9642 5.12721L25.9586 5.1317Z" fill="#E6001E"/>
<path d="M32.6593 7.44888C32.6593 8.05198 32.6716 8.65509 32.6593 9.25819C32.6436 9.92419 32.2659 10.3465 31.7314 10.3341C31.1969 10.3218 30.8416 9.91296 30.8349 9.2784C30.8192 8.01829 30.817 6.75817 30.8349 5.49806C30.845 4.85901 31.217 4.48727 31.7628 4.49625C32.3085 4.50524 32.6335 4.85564 32.6593 5.47896C32.6761 6.13485 32.6582 6.79187 32.6593 7.44888Z" fill="#E6001E"/>
<path d="M19.2566 7.42627C19.2566 8.04734 19.2712 8.66954 19.2566 9.28949C19.2421 9.90944 18.8667 10.3295 18.3489 10.334C17.8312 10.3385 17.4423 9.93078 17.4334 9.30072C17.4154 8.0406 17.4154 6.78049 17.4334 5.52037C17.4423 4.86785 17.7931 4.49835 18.3388 4.4961C18.8846 4.49386 19.2353 4.86111 19.2566 5.50689C19.2779 6.15268 19.2566 6.78722 19.2566 7.42627Z" fill="#E6001E"/>
<path d="M21.2169 28.0824C21.2169 27.3153 21.5363 26.9222 22.0563 26.8919C22.6166 26.8593 22.964 27.2019 23.0211 27.8477C23.1141 28.9034 23.8683 29.7165 24.8141 29.7772C25.9628 29.8502 26.8212 29.2021 27.0397 28.0925C27.2168 27.2019 26.6497 26.2158 25.7398 25.9058C25.4004 25.8093 25.0511 25.7517 24.6987 25.734C22.9057 25.5577 21.5285 24.2526 21.2427 22.4388C20.9894 20.8328 21.9151 19.1145 23.4638 18.4586C23.9344 18.2587 24.0297 18.0093 24.0241 17.5601C24.014 16.7032 24.6886 16.1877 25.3128 16.5807C25.565 16.7402 25.8137 17.1423 25.8104 17.4253C25.8025 18.0071 26.0345 18.2115 26.5466 18.4226C27.9228 18.9842 28.6601 20.0927 28.8574 21.5561C28.8904 21.782 28.8716 22.0124 28.8025 22.2299C28.7481 22.4214 28.6265 22.5866 28.4601 22.6952C28.2937 22.8038 28.0937 22.8483 27.897 22.8207C27.4409 22.7769 27.1607 22.5006 27.0778 22.0446C27.0364 21.82 27.0319 21.5841 26.9658 21.3708C26.6822 20.36 25.7487 19.7883 24.6629 19.9523C23.7204 20.0949 22.9819 21.0282 23.02 22.012C23.042 22.5037 23.2438 22.9701 23.5868 23.3222C23.9299 23.6743 24.3903 23.8876 24.8803 23.9213C27.0229 24.092 28.3889 25.1635 28.7744 26.9784C28.9804 27.8878 28.8423 28.8414 28.3868 29.6545C27.9313 30.4677 27.1909 31.0825 26.3091 31.3798C25.9348 31.5101 25.7891 31.6774 25.8362 32.0537C25.8471 32.1777 25.8419 32.3027 25.8205 32.4254C25.7532 32.9308 25.4148 33.261 24.9565 33.2767C24.4981 33.2925 24.014 32.9634 24.06 32.4906C24.1429 31.6482 23.6689 31.3787 23.0514 31.0305C21.8691 30.369 21.3155 29.2617 21.2169 28.0824Z" fill="#E6001E"/>
</svg>
