<svg width="50" height="49" viewBox="0 0 50 49" fill="none" xmlns="http://www.w3.org/2000/svg">
<g clip-path="url(#clip0_946_9452)">
<path d="M17.97 36.2879H17.3198C12.9861 36.2879 8.65238 36.2879 4.31866 36.2879C2.13558 36.2879 0.459413 34.8922 0.0511831 32.7616C0.0119377 32.5128 -0.0043663 32.2609 0.00250547 32.0091C0.00250547 22.7544 0.00250547 13.5001 0.00250547 4.24629C0.00250547 1.85222 1.80304 0.00938392 4.19294 0.00803286C18.3701 -7.34553e-05 32.5473 -7.34553e-05 46.7245 0.00803286C48.598 0.00803286 50.0025 1.42799 50.0039 3.29244C50.0039 12.8831 50.0039 22.4756 50.0039 32.0699C50.0098 32.6254 49.9049 33.1765 49.6951 33.691C49.4853 34.2055 49.175 34.673 48.7823 35.0662C48.3896 35.4593 47.9223 35.7702 47.4079 35.9807C46.8935 36.1912 46.3422 36.297 45.7864 36.2919C41.3851 36.3081 36.9838 36.2919 32.5825 36.2919H31.862C31.9972 37.3728 32.0526 38.4131 32.2675 39.4156C32.5298 40.6207 32.9339 41.7961 33.2705 42.985C33.353 43.2782 33.5301 43.3593 33.8261 43.3525C34.6993 43.3354 35.5726 43.3354 36.4458 43.3525C37.1836 43.3729 37.8844 43.6797 38.3997 44.2078C38.915 44.736 39.2042 45.4439 39.2061 46.1816C39.2058 46.9207 38.9148 47.6301 38.3958 48.1566C37.8769 48.6831 37.1716 48.9845 36.4323 48.9959C28.8075 49.0058 21.1813 49.0058 13.5538 48.9959C12.0318 48.9959 10.7935 47.6908 10.799 46.1587C10.8051 45.4211 11.0984 44.7148 11.6168 44.1897C12.1351 43.6646 12.8376 43.3619 13.5755 43.3458C14.4487 43.3323 15.3233 43.3296 16.1952 43.3458C16.3097 43.3627 16.4265 43.3366 16.5229 43.2725C16.6193 43.2083 16.6884 43.1107 16.7169 42.9986C17.5309 40.854 17.9552 38.5815 17.97 36.2879ZM48.5805 27.9113V3.59238C48.5805 2.15486 47.8478 1.42259 46.4177 1.42259H4.49034C2.56949 1.42259 1.42049 2.56963 1.42049 4.49218C1.42049 12.1175 1.42049 19.742 1.42049 27.3655V27.9059L48.5805 27.9113ZM1.4232 29.3664C1.4232 30.3324 1.41104 31.239 1.43132 32.1442C1.44483 32.4285 1.49993 32.7094 1.59487 32.9778C2.01257 34.2194 3.03584 34.8531 4.59982 34.8531C18.2075 34.8531 31.8115 34.8531 45.412 34.8531C45.6636 34.8519 45.915 34.8365 46.1649 34.8071C47.272 34.6801 48.3277 33.8614 48.4507 32.7805C48.5859 31.6632 48.4804 30.5202 48.4804 29.3718L1.4232 29.3664ZM30.4494 36.3189H19.4407C19.3475 38.7211 18.973 41.0571 18.143 43.3161H31.8376C31.0022 41.0709 30.5335 38.7061 30.4494 36.3122V36.3189ZM25.0059 44.7657H17.6524C16.3601 44.7657 15.0664 44.7576 13.7742 44.7657C12.8698 44.7738 12.2656 45.348 12.2629 46.1681C12.2629 47.0423 12.8874 47.5854 13.9148 47.5867H36.0741C36.2094 47.5912 36.3449 47.5867 36.4796 47.5732C36.8346 47.5396 37.1632 47.3713 37.3978 47.1029C37.6324 46.8345 37.7551 46.4864 37.7408 46.1303C37.7191 45.3007 37.1 44.7644 36.1389 44.7644C32.427 44.7572 28.716 44.7554 25.0059 44.759V44.7657Z" fill="#E6001E"/>
<path d="M28.8708 18.5584C28.9533 19.5866 28.9668 19.5987 29.9157 19.5987C34.0989 19.5987 38.2821 19.5987 42.4654 19.5987C42.7839 19.5895 43.1022 19.6236 43.4116 19.7001C44.178 19.923 44.6593 20.7431 44.5457 21.5591C44.4866 21.944 44.2952 22.2964 44.0043 22.5555C43.7135 22.8146 43.3414 22.9644 42.952 22.9791C42.387 22.9939 41.8206 22.9791 41.2191 22.9791C41.5246 24.0248 41.3786 24.9003 40.4797 25.5231C40.148 25.7582 39.7508 25.8832 39.3443 25.8802C38.9377 25.8773 38.5423 25.7467 38.2141 25.5069C37.4558 24.9813 37.2273 24.2153 37.4896 22.9804H32.7341C33.0328 24.068 32.8693 24.9827 31.8771 25.5934C31.5378 25.8006 31.143 25.8988 30.746 25.8747C30.3491 25.8505 29.9692 25.7051 29.6575 25.4583C28.8613 24.8111 28.664 23.9856 29.0235 23.0034C28.7816 22.9399 28.5545 22.8899 28.3328 22.8237C26.7404 22.3427 25.6874 20.9755 25.5076 19.2664C25.2008 16.3481 24.8534 13.4352 24.5263 10.5183C24.4091 9.46809 24.2978 8.41742 24.1924 7.3663C24.1126 6.57053 24.0572 6.50703 23.2637 6.44353C22.8334 6.40183 22.4341 6.20122 22.1438 5.88091C21.8536 5.5606 21.6933 5.14362 21.6943 4.71148C21.7254 3.76574 22.4946 3.05914 23.4962 3.04428C24.5066 3.0312 25.4842 3.40265 26.2307 4.0833C26.9772 4.76395 27.4368 5.70287 27.5163 6.70969C27.5326 6.90829 27.5663 7.10554 27.6001 7.35684H41.5151C43.075 7.35684 43.855 8.32825 43.5211 9.85089C43.0223 12.1234 42.5181 14.3945 42.0247 16.6683C41.7827 17.7802 41.092 18.58 39.6929 18.5598C36.2838 18.5192 32.8733 18.5463 29.4629 18.5463L28.8708 18.5584ZM36.0094 21.5713H40.6446C41.334 21.5713 42.0234 21.5861 42.71 21.5578C42.8452 21.551 42.9804 21.3781 43.1075 21.2808C42.9838 21.1978 42.8526 21.1268 42.7155 21.0687C42.5997 21.0495 42.4818 21.0472 42.3653 21.0619H29.817C28.2747 21.0619 27.5298 20.3675 27.4258 18.8327C27.4258 18.7327 27.4163 18.6314 27.4041 18.5314C26.9716 14.6836 26.539 10.8349 26.1065 6.9853C25.9429 5.51941 24.9832 4.53314 23.6733 4.53449C23.5097 4.53449 23.3475 4.66959 23.1853 4.73444C23.3448 4.83307 23.4989 5.00466 23.6665 5.01682C24.7953 5.13031 25.4901 5.81934 25.6022 6.96098C25.705 7.99589 25.8172 9.02944 25.9321 10.0684C26.2606 13.0002 26.608 15.9306 26.9175 18.8651C27.1108 20.7025 28.0273 21.5753 29.8684 21.5767L36.0094 21.5713ZM37.6707 10.571C37.7302 9.96437 37.7856 9.40369 37.8437 8.82544H31.9136C31.9785 9.43206 32.0393 9.99274 32.1015 10.571H37.6707ZM32.2637 12.0572C32.334 12.6435 32.3989 13.2015 32.4692 13.7716H37.2895C37.3571 13.1893 37.4247 12.6341 37.4896 12.0572H32.2637ZM37.13 15.2537H32.6287L32.845 17.125H36.9178L37.13 15.2537ZM31.1715 15.2537H28.4869C28.5545 15.8928 28.6221 16.4994 28.6843 17.1182H31.3796C31.3093 16.4778 31.2418 15.8658 31.1728 15.2524L31.1715 15.2537ZM39.109 10.5953C39.9781 10.5953 40.8135 10.5953 41.6503 10.5859C41.7094 10.5746 41.7648 10.5492 41.8119 10.5117C41.859 10.4743 41.8963 10.426 41.9206 10.371C42.018 10.0346 42.0761 9.68741 42.145 9.34289C42.2058 9.0389 42.0788 8.81598 41.776 8.80247C40.9649 8.77815 40.1539 8.79436 39.3239 8.79436C39.2495 9.41585 39.1833 9.97923 39.1103 10.5967L39.109 10.5953ZM30.4375 8.81733H27.7556C27.8232 9.428 27.8908 10.0009 27.9502 10.5561H30.6537C30.5794 9.94951 30.5105 9.38747 30.4388 8.81598L30.4375 8.81733ZM28.3152 13.7608H30.9944C30.9322 13.1731 30.8754 12.6314 30.8173 12.072H28.1138C28.1841 12.6516 28.249 13.1947 28.3166 13.7595L28.3152 13.7608ZM41.5502 12.0382C40.723 12.0382 39.9714 12.0315 39.2198 12.0463C39.1184 12.0463 38.9495 12.1558 38.9319 12.2314C38.8616 12.7367 38.8265 13.2461 38.7751 13.8014C39.5469 13.8014 40.2471 13.8095 40.9474 13.7919C41.0068 13.7806 41.0626 13.7548 41.1097 13.7169C41.1568 13.679 41.1939 13.63 41.2177 13.5744C41.3394 13.0921 41.4313 12.603 41.5516 12.0369L41.5502 12.0382ZM38.3723 17.1425C38.9319 17.1425 39.4077 17.1939 39.8592 17.1223C39.9911 17.0969 40.1159 17.0434 40.2251 16.9652C40.3343 16.8871 40.4253 16.7863 40.4918 16.6697C40.6756 16.2346 40.7338 15.7455 40.8514 15.247H38.5913L38.3723 17.1425ZM31.0336 24.4301C31.135 24.295 31.3918 24.0869 31.4229 23.8559C31.4648 23.5303 31.212 23.2912 30.8552 23.2993C30.783 23.2949 30.7108 23.3059 30.6432 23.3316C30.5757 23.3572 30.5143 23.3969 30.4632 23.4479C30.4121 23.499 30.3724 23.5603 30.3468 23.6279C30.3211 23.6954 30.3101 23.7676 30.3145 23.8397C30.3063 24.1991 30.4943 24.3977 31.035 24.4288L31.0336 24.4301ZM38.7183 23.7276C38.8332 24.1964 38.9954 24.4179 39.3645 24.4166C39.701 24.4166 39.9052 24.2315 39.9187 23.8964C39.9376 23.5357 39.7213 23.279 39.3874 23.3155C39.1536 23.3385 38.9414 23.5803 38.7197 23.7262L38.7183 23.7276Z" fill="#E6001E"/>
<path d="M12.5709 25.209C11.1881 25.2009 9.28344 24.9901 7.48561 24.1903C7.33289 24.1223 7.18397 24.0461 7.03952 23.962C5.7486 23.2122 5.27413 22.2462 5.46878 20.7708C5.95001 17.123 8.55754 14.4114 12.2276 13.9628C16.7329 13.4116 20.211 16.7082 20.7909 20.5479C21.1153 22.6893 20.0231 23.6891 18.5456 24.2998C16.8113 25.0158 14.9797 25.2117 12.5709 25.209ZM13.1792 23.7985C14.8283 23.7215 16.5194 23.631 18.1009 22.9217C19.3175 22.3813 19.5311 21.984 19.3472 20.6938C18.9201 17.6945 16.2706 15.3747 13.2211 15.3301C11.7403 15.324 10.3041 15.8364 9.16203 16.7785C8.01994 17.7206 7.24408 19.0328 6.96923 20.4871C6.69888 21.9732 6.93543 22.4137 8.35342 23C9.88361 23.6323 11.5071 23.7323 13.1792 23.7985Z" fill="#E6001E"/>
<path d="M9.18555 9.5575C9.18798 8.50692 9.60449 7.49962 10.3448 6.75384C11.0852 6.00807 12.0897 5.5839 13.1408 5.57324C14.1836 5.58267 15.1813 5.99961 15.9205 6.73486C16.6596 7.47012 17.0816 8.4653 17.096 9.50751C17.1217 11.6611 15.3036 13.4931 13.1408 13.4918C12.0985 13.4806 11.1018 13.0631 10.363 12.3282C9.62418 11.5934 9.2017 10.5992 9.18555 9.5575ZM13.1651 7.04319C12.8382 7.03563 12.513 7.09346 12.2088 7.2133C11.9045 7.33315 11.6273 7.51257 11.3934 7.74103C11.1596 7.9695 10.9738 8.24238 10.8469 8.54365C10.7201 8.84492 10.6548 9.1685 10.6549 9.49535C10.6454 9.82692 10.7031 10.157 10.8246 10.4657C10.9461 10.7743 11.1289 11.0552 11.3619 11.2914C11.595 11.5276 11.8734 11.7142 12.1805 11.84C12.4876 11.9657 12.817 12.028 13.1489 12.0232C13.4765 12.0275 13.8016 11.9664 14.1053 11.8435C14.4089 11.7206 14.685 11.5384 14.9172 11.3075C15.1495 11.0766 15.3333 10.8017 15.4579 10.4989C15.5826 10.196 15.6454 9.87141 15.6429 9.54399C15.6492 9.21589 15.5896 8.88985 15.4677 8.58517C15.3457 8.28049 15.1638 8.00336 14.9328 7.77019C14.7018 7.53701 14.4263 7.35253 14.1227 7.22766C13.819 7.10278 13.4934 7.04006 13.1651 7.04319Z" fill="#E6001E"/>
<path d="M24.997 32.8247C24.4117 32.8247 23.8251 32.8396 23.2398 32.8247C22.6545 32.8099 22.3665 32.5356 22.3814 32.0668C22.3949 31.6291 22.7018 31.3724 23.2452 31.3683C24.4167 31.3629 25.5882 31.3629 26.7597 31.3683C27.3004 31.3683 27.6073 31.6385 27.6181 32.0709C27.6289 32.5032 27.3477 32.8018 26.807 32.8207C26.2001 32.841 25.5999 32.8247 24.997 32.8247Z" fill="#E6001E"/>
</g>
<defs>
<clipPath id="clip0_946_9452">
<rect width="50" height="49" fill="white"/>
</clipPath>
</defs>
</svg>
