<svg width="619" height="479" viewBox="0 0 619 479" fill="none" xmlns="http://www.w3.org/2000/svg">
<g filter="url(#filter0_d_1302_889)">
<rect x="119" y="67" width="495" height="346" rx="20" fill="white"/>
</g>
<path d="M504.487 300.323H528.927V275.892H504.487V300.323Z" fill="#B8D9BA"/>
<path d="M350.705 261.356L429.574 332.66C395.914 369.962 339.427 379.185 295.062 351.944C259 329.808 240.8 289.625 244.95 250.184L350.705 261.356Z" fill="#A78FE6"/>
<path d="M462.175 314.764C458.719 320.387 454.831 325.564 450.569 330.299L371.573 259.14L398.085 156.17C408.111 158.755 417.923 162.856 427.204 168.551C477.249 199.27 492.904 264.731 462.175 314.764Z" fill="#B8D9BA"/>
<path d="M343.419 114.56C359.487 110.979 376.397 111.1 392.77 115.272L366.51 218.307L343.419 114.56Z" fill="#090B12"/>
<path d="M345.665 245.348C345.621 245.348 345.577 245.346 345.533 245.34L239.758 234.293C239.062 234.221 238.556 233.598 238.629 232.901C240.301 216.829 245.466 201.651 253.977 187.794C269.389 162.706 293.72 145.393 322.482 139.046C322.812 138.977 323.155 139.035 323.438 139.216C323.721 139.396 323.921 139.682 323.994 140.01L346.846 243.549C346.92 243.71 346.962 243.891 346.962 244.082C346.962 244.781 346.394 245.349 345.694 245.349C345.685 245.348 345.678 245.349 345.665 245.348ZM241.288 231.904L344.046 242.637L321.792 141.8C294.245 148.217 270.964 164.983 256.135 189.12C248.049 202.289 243.056 216.677 241.288 231.904Z" fill="#46577B"/>
<path d="M206 349.884H230.442V325.449H206V349.884Z" fill="#A78FE6"/>
<path d="M233.389 173.669H208.95C208.251 173.669 207.683 173.101 207.683 172.401V147.967C207.683 147.267 208.251 146.699 208.95 146.699H233.389C234.088 146.699 234.656 147.267 234.656 147.967V172.401C234.656 173.102 234.088 173.669 233.389 173.669ZM210.218 171.134H232.119V149.234H210.218V171.134Z" fill="#46577B"/>
<path d="M433.416 136.452H457.853V112.016H433.416V136.452Z" fill="#090B12"/>
<path d="M505.204 292.252H449.017C448.316 292.252 447.749 291.684 447.749 290.984C447.749 290.285 448.316 289.717 449.017 289.717H505.204C505.905 289.717 506.472 290.285 506.472 290.984C506.472 291.684 505.905 292.252 505.204 292.252Z" fill="#46577B"/>
<path d="M435.708 124.054H374.61C373.909 124.054 373.343 123.486 373.343 122.787C373.343 122.088 373.909 121.52 374.61 121.52H435.708C436.408 121.52 436.975 122.088 436.975 122.787C436.974 123.486 436.408 124.054 435.708 124.054Z" fill="#46577B"/>
<path d="M303.769 161.451H234.109C233.409 161.451 232.841 160.883 232.841 160.183C232.841 159.484 233.409 158.916 234.109 158.916H303.769C304.47 158.916 305.037 159.484 305.037 160.183C305.037 160.883 304.47 161.451 303.769 161.451Z" fill="#46577B"/>
<path d="M339.394 337.491H230.849C230.149 337.491 229.581 336.923 229.581 336.223C229.581 335.524 230.149 334.956 230.849 334.956H339.394C340.094 334.956 340.661 335.524 340.661 336.223C340.66 336.923 340.093 337.491 339.394 337.491Z" fill="#46577B"/>
<path d="M156.843 245.052H83V253.451H156.843V245.052Z" fill="#A78FE6"/>
<path d="M157.57 227H83V235.481H157.57V227Z" fill="#B8D9BA"/>
<path d="M41.1738 401C-13.6794 401 -13.7698 479 41.1738 479C96.0231 479.001 96.1136 401 41.1738 401Z" fill="#FFB902"/>
<path d="M74.5277 447.312C71.6011 460.731 60.4754 472.371 41.1666 472.371C-4.42555 472.371 -4.35474 407.631 41.1666 407.631C41.4642 407.631 41.7618 407.631 42.0595 407.647C-0.781695 408.432 -0.571912 469.742 42.9 469.742C60.6328 469.742 71.1985 459.481 74.5277 447.312Z" fill="white"/>
<path d="M41.5052 416.167C42.2762 416.167 42.9292 416.765 42.9292 417.47V419.642C47.2024 419.967 50.2877 421.272 53.4923 423.442C54.0247 423.823 54.3223 424.148 54.3223 424.691C54.3223 425.45 53.6103 426.047 52.779 426.047C52.4237 426.047 52.126 425.993 51.7104 425.667C48.8034 423.549 45.9555 422.463 42.8099 422.138V437.34C51.8297 439.078 55.6283 442.174 55.6283 447.494C55.6283 453.251 50.3467 457.322 42.9292 457.54V461.775C42.9292 462.482 42.2762 463.078 41.5052 463.078C40.7329 463.078 40.0812 462.482 40.0812 461.775V457.486C34.919 457.106 30.7061 455.368 26.7292 452.219C26.3135 451.894 26.0762 451.568 26.0762 451.079C26.0762 450.373 26.7895 449.722 27.5605 449.722C28.0942 449.722 28.4508 449.94 28.6291 450.102C31.9517 452.927 35.572 454.609 40.2019 455.044V439.568C31.3 437.777 27.6208 434.79 27.6208 429.36C27.6208 423.877 32.8433 419.695 40.0825 419.533V417.469C40.0812 416.765 40.7329 416.167 41.5052 416.167ZM40.2005 436.802V421.977C34.4443 422.086 30.6458 425.234 30.6458 429.144C30.6458 432.838 32.5444 435.118 40.2005 436.802ZM42.8099 440.112V455.099C48.7444 454.991 52.602 451.841 52.602 447.715C52.602 443.969 50.525 441.687 42.8099 440.112Z" fill="white"/>
<circle cx="22" cy="90" r="22" fill="#A78FE6"/>
<circle cx="56" cy="127" r="9" fill="#A78FE6"/>
<path d="M237.633 19.0676C232.661 19.0676 229.2 15.4125 229.2 9.53274C229.2 3.65505 232.661 0 237.633 0C242.605 0 246.113 3.70509 246.113 9.53274C246.114 15.3625 242.605 19.0676 237.633 19.0676ZM237.633 15.0164C239.728 15.0164 241.191 13.1899 241.191 9.53274C241.191 5.87769 239.728 4.04913 237.633 4.04913C235.488 4.04913 234.074 5.82869 234.074 9.53274C234.074 13.2378 235.488 15.0164 237.633 15.0164ZM240.606 34.9743H234.806L211.508 0.39511H217.308L240.606 34.9743ZM214.482 35.3683C209.511 35.3683 206 31.6632 206 25.8356C206 20.0058 209.51 16.3007 214.482 16.3007C219.405 16.3007 222.914 20.0058 222.914 25.8356C222.913 31.6632 219.405 35.3683 214.482 35.3683ZM214.482 31.3192C216.577 31.3192 218.039 29.5407 218.039 25.8356C218.039 22.1305 216.576 20.352 214.482 20.352C212.337 20.352 210.924 22.1784 210.924 25.8356C210.924 29.4906 212.337 31.3192 214.482 31.3192Z" fill="#B8D9BA"/>
<defs>
<filter id="filter0_d_1302_889" x="84" y="62" width="535" height="386" filterUnits="userSpaceOnUse" color-interpolation-filters="sRGB">
<feFlood flood-opacity="0" result="BackgroundImageFix"/>
<feColorMatrix in="SourceAlpha" type="matrix" values="0 0 0 0 0 0 0 0 0 0 0 0 0 0 0 0 0 0 127 0" result="hardAlpha"/>
<feOffset dx="-15" dy="15"/>
<feGaussianBlur stdDeviation="10"/>
<feComposite in2="hardAlpha" operator="out"/>
<feColorMatrix type="matrix" values="0 0 0 0 0 0 0 0 0 0 0 0 0 0 0 0 0 0 0.03 0"/>
<feBlend mode="normal" in2="BackgroundImageFix" result="effect1_dropShadow_1302_889"/>
<feBlend mode="normal" in="SourceGraphic" in2="effect1_dropShadow_1302_889" result="shape"/>
</filter>
</defs>
</svg>
