<svg width="49" height="53" viewBox="0 0 49 53" fill="none" xmlns="http://www.w3.org/2000/svg">
<path fill-rule="evenodd" clip-rule="evenodd" d="M8.84163 41.8138H30.929V30.7176H8.84163V41.8138ZM31.5353 43.0265H8.23528C7.9006 43.0265 7.62891 42.7549 7.62891 42.4202L7.62894 30.1112C7.62894 29.7765 7.9005 29.5049 8.23525 29.5049H31.5353C31.8701 29.5049 32.1416 29.7765 32.1416 30.1112L32.1417 42.4202C32.1417 42.7549 31.87 43.0265 31.5353 43.0265Z" fill="#FF3A54"/>
<path fill-rule="evenodd" clip-rule="evenodd" d="M1.75171 20.7653V49.1308C1.75171 50.5835 2.96954 51.7657 4.46648 51.7657H44.5338C46.0307 51.7657 47.2485 50.5835 47.2485 49.1308V16.3378C47.2485 14.564 45.7642 13.1219 43.9389 13.1219H33.3111C31.9216 13.1219 31.3015 14.1293 30.4046 15.7735C30.2489 16.0578 30.0888 16.3525 29.9183 16.6441L27.6804 20.4653C27.5719 20.6516 27.3729 20.7654 27.1571 20.7654L1.75171 20.7653ZM44.5336 52.9783H4.46665C2.30137 52.9783 0.539062 51.2519 0.539062 49.1308L0.539164 20.159C0.539164 19.8243 0.810658 19.5527 1.14541 19.5527L26.8098 19.5526L28.8719 16.0304C29.033 15.7556 29.1887 15.4693 29.3403 15.1925C30.2205 13.5787 31.131 11.9092 33.311 11.9092H43.939C46.4327 11.9092 48.4612 13.8956 48.4612 16.3378V49.1308C48.4612 51.2519 46.6989 52.9783 44.5336 52.9783Z" fill="#FF3A54"/>
<path fill-rule="evenodd" clip-rule="evenodd" d="M41.5619 13.1225C41.2271 13.1225 40.9554 12.8509 40.9554 12.5161L40.9555 7.38847H35.5479C35.2132 7.38847 34.9415 7.11694 34.9415 6.78216C34.9415 6.44738 35.2131 6.17581 35.5478 6.17581L41.5619 6.17578C41.8965 6.17578 42.1681 6.44738 42.1681 6.78216L42.1682 12.5161C42.1682 12.8508 41.8965 13.1225 41.5619 13.1225ZM1.14551 20.7659C0.810726 20.7659 0.539062 20.4943 0.539062 20.1596L0.539164 6.78212C0.539164 6.44738 0.810658 6.17581 1.1454 6.17581L7.15943 6.17578C7.49411 6.17578 7.7657 6.44738 7.7657 6.78216C7.76577 7.1169 7.4941 7.3885 7.15936 7.3885L1.75185 7.38847V20.1596C1.75185 20.4943 1.48015 20.7659 1.14551 20.7659Z" fill="#FF3A54"/>
<path fill-rule="evenodd" clip-rule="evenodd" d="M7.15915 20.7655C6.82436 20.7655 6.55273 20.4939 6.55273 20.1592L6.5528 0.628804C6.5528 0.293001 6.82433 0.0224609 7.15908 0.0224609H35.5477C35.8836 0.0224609 36.154 0.293035 36.154 0.628804L36.1541 12.5157C36.1541 12.8504 35.8835 13.122 35.5477 13.122C35.213 13.122 34.9414 12.8504 34.9414 12.5157V1.23515H7.76549V20.1591C7.76549 20.4939 7.49382 20.7655 7.15915 20.7655Z" fill="#FF3A54"/>
<path fill-rule="evenodd" clip-rule="evenodd" d="M32.157 5.23124H10.5497C10.215 5.23124 9.94336 4.95964 9.94336 4.6249C9.94339 4.29015 10.215 4.01855 10.5497 4.01855H32.157C32.4918 4.01855 32.7633 4.29015 32.7633 4.6249C32.7633 4.95964 32.4917 5.23124 32.157 5.23124Z" fill="#FF3A54"/>
<path fill-rule="evenodd" clip-rule="evenodd" d="M32.157 9.07792H10.5497C10.215 9.07792 9.94336 8.80639 9.94336 8.47161C9.94339 8.13683 10.215 7.86527 10.5497 7.86527L32.157 7.86523C32.4918 7.86523 32.7633 8.13686 32.7633 8.47161C32.7633 8.80636 32.4917 9.07795 32.157 9.07792Z" fill="#FF3A54"/>
<path fill-rule="evenodd" clip-rule="evenodd" d="M27.1568 12.9226H10.5497C10.215 12.9226 9.94336 12.6511 9.94336 12.3163C9.94339 11.9816 10.215 11.71 10.5497 11.71H27.1568C27.4926 11.71 27.7631 11.9816 27.7631 12.3163C27.7631 12.6511 27.4926 12.9226 27.1568 12.9226Z" fill="#FF3A54"/>
<path fill-rule="evenodd" clip-rule="evenodd" d="M24.0103 16.7683H10.5497C10.215 16.7683 9.94336 16.4978 9.94336 16.162C9.94339 15.8272 10.215 15.5557 10.5497 15.5557H24.0103C24.3451 15.5557 24.6166 15.8273 24.6166 16.162C24.6166 16.4978 24.345 16.7683 24.0103 16.7683Z" fill="#FF3A54"/>
<path fill-rule="evenodd" clip-rule="evenodd" d="M38.626 52.9782C38.2912 52.9782 38.0195 52.7066 38.0195 52.3718L38.0196 12.5155C38.0196 12.1807 38.2911 11.9092 38.6259 11.9092C38.9606 11.9092 39.2322 12.1807 39.2322 12.5155L39.2323 52.3718C39.2323 52.7066 38.9606 52.9782 38.626 52.9782Z" fill="#FF3A54"/>
<path fill-rule="evenodd" clip-rule="evenodd" d="M31.5353 26.6902H8.23528C7.9006 26.6902 7.62891 26.4186 7.62891 26.0839C7.62894 25.7491 7.9005 25.4775 8.23525 25.4775H31.5353C31.8701 25.4775 32.1416 25.7491 32.1416 26.0839C32.1417 26.4186 31.87 26.6902 31.5353 26.6902Z" fill="#FF3A54"/>
<path fill-rule="evenodd" clip-rule="evenodd" d="M31.5353 46.7586H8.23528C7.9006 46.7586 7.62891 46.487 7.62891 46.1523C7.62894 45.8175 7.9005 45.5459 8.23525 45.5459H31.5353C31.8701 45.5459 32.1416 45.8175 32.1416 46.1523C32.1417 46.487 31.87 46.7586 31.5353 46.7586Z" fill="#FF3A54"/>
<path fill-rule="evenodd" clip-rule="evenodd" d="M26.9254 39.9653C25 39.9653 23.4336 38.3063 23.4336 36.2683C23.4336 34.2292 25 32.5713 26.9253 32.5713C27.6864 32.5713 28.4401 32.8408 29.0454 33.3303C29.3054 33.5408 29.3465 33.9229 29.1359 34.1829C28.9245 34.444 28.5433 34.484 28.2822 34.2735C27.8865 33.9524 27.4169 33.783 26.9253 33.783C25.6685 33.7829 24.6463 34.8977 24.6463 36.2683C24.6463 37.6379 25.6684 38.7527 26.9253 38.7527C27.3264 38.7527 27.7138 38.64 28.058 38.4242L28.058 37.3757H26.9558C26.6201 37.3757 26.3495 37.1041 26.3495 36.7694C26.3495 36.4346 26.62 36.163 26.9558 36.163H28.6644C28.9992 36.163 29.2707 36.4346 29.2707 36.7694L29.2707 38.7337C29.2707 38.9168 29.1875 39.0906 29.0454 39.2053C28.4402 39.6958 27.6864 39.9653 26.9254 39.9653Z" fill="#FF3A54"/>
<path fill-rule="evenodd" clip-rule="evenodd" d="M19.3832 33.7791C18.2852 33.7791 17.3904 34.8949 17.3904 36.2666C17.3905 37.6372 18.2852 38.753 19.3832 38.753C20.4822 38.753 21.3759 37.6372 21.3759 36.2666C21.3759 34.8949 20.4822 33.7791 19.3832 33.7791ZM19.3832 39.9657C17.6157 39.9657 16.1777 38.3056 16.1777 36.2666C16.1778 34.2265 17.6157 32.5664 19.3832 32.5664C21.1507 32.5664 22.5886 34.2265 22.5886 36.2666C22.5886 38.3056 21.1506 39.9657 19.3832 39.9657Z" fill="#FF3A54"/>
<path fill-rule="evenodd" clip-rule="evenodd" d="M15.3518 39.9655H11.1063C10.7716 39.9655 10.5 39.6939 10.5 39.3592V33.1747C10.5 32.84 10.7716 32.5684 11.1063 32.5684C11.4412 32.5684 11.7127 32.84 11.7127 33.1747V38.7529H15.3518C15.6866 38.7529 15.9581 39.0244 15.9581 39.3592C15.9582 39.6939 15.6865 39.9655 15.3518 39.9655Z" fill="#FF3A54"/>
</svg>
