<svg width="57" height="59" viewBox="0 0 57 59" fill="none" xmlns="http://www.w3.org/2000/svg">
<path d="M21.0701 40.514L23.4885 44.0936C25.0788 46.4469 26.6798 48.794 28.258 51.155C29.4083 52.8759 29.4129 54.9444 28.3084 56.5275C26.744 58.769 23.6473 59.1548 21.533 57.3436C21.0863 56.9578 20.6918 56.5152 20.3597 56.0268C17.8135 52.2941 15.278 48.5542 12.7532 44.8071C12.6371 44.6356 12.5119 44.4703 12.3774 44.2835C11.0706 45.1366 9.52752 45.5525 7.96998 45.4716C4.06363 45.3001 1.59942 42.1874 1.01278 39.4529C0.368089 36.4474 1.5322 33.5598 4.0682 31.8098C5.57453 30.7733 7.1053 29.7704 8.5994 28.717C8.95152 28.4705 9.24006 28.1435 9.44117 27.7632C12.3326 21.9287 15.2108 16.0867 18.0758 10.2369C18.9741 8.41189 20.7905 7.46569 22.8209 7.69229C25.5005 7.9985 27.7508 9.25705 29.7689 10.9075C35.6246 15.7029 39.6562 21.7338 41.6407 29.0753C42.2121 31.1897 42.4413 33.3623 41.8088 35.5165C41.2603 37.3829 40.1451 38.7456 38.1423 39.1008C37.1355 39.2784 36.0967 39.2799 35.0716 39.3641C31.9224 39.6214 28.7733 39.8765 25.6242 40.1297C24.4479 40.2246 23.27 40.3057 22.0937 40.3961C21.782 40.4298 21.4704 40.4711 21.0701 40.514ZM19.4522 14.008C19.524 14.7444 19.5485 15.415 19.6631 16.0688C19.7904 16.8196 19.9649 17.5616 20.1856 18.2904C21.9501 23.9768 25.117 28.7859 29.3992 32.8693C31.1163 34.5076 33.0122 35.9315 35.3191 36.6465C35.8675 36.8195 36.4878 36.9757 37.0393 36.893C38.4142 36.6863 39.178 35.737 39.5416 34.4433C39.9786 32.8953 39.8136 31.3398 39.4912 29.7995C38.8664 26.8124 37.5449 24.1177 35.9622 21.5409C33.8693 18.1358 31.402 15.0491 28.2122 12.5994C26.7394 11.4695 25.1705 10.5064 23.3235 10.0884C21.5315 9.68115 20.0695 10.5049 19.6768 12.1967C19.5378 12.8107 19.5195 13.4476 19.4522 14.008ZM31.3485 37.3814C24.2111 32.1497 19.5699 25.318 17.396 16.7838C17.3511 16.8484 17.3098 16.9153 17.2722 16.9844C15.3626 20.8846 13.4504 24.7827 11.5357 28.6788C11.3737 29.0064 11.4914 29.2039 11.6548 29.4443C13.6042 32.3156 15.5484 35.1899 17.4876 38.0673C17.6969 38.3735 17.9062 38.4639 18.279 38.4332C21.0289 38.1959 23.7787 37.9892 26.5286 37.7703C28.1297 37.6463 29.7093 37.5146 31.3485 37.3814ZM15.6131 39.3427C13.6485 36.4428 11.7159 33.5935 9.75893 30.7074C8.20066 31.7792 6.67755 32.7866 5.19262 33.8507C3.85281 34.8107 3.21573 36.1473 3.1424 37.8086C3.03241 40.2782 5.38509 43.645 8.98896 43.1888C10.1347 43.0433 11.0529 42.4692 11.9649 41.8384C13.1581 41.007 14.3803 40.1863 15.6024 39.3427H15.6131ZM14.313 43.0035C14.4291 43.1934 14.5208 43.3557 14.6186 43.5088C15.3427 44.5836 16.0684 45.6553 16.7956 46.724C18.6645 49.48 20.5329 52.24 22.4007 55.0041C22.9965 55.8875 23.8017 56.3713 24.8695 56.1738C26.6753 55.84 27.4009 53.9461 26.3422 52.3722C23.8215 48.6292 21.2931 44.8913 18.7571 41.1586C18.4516 40.7176 17.9429 40.5461 17.5014 40.8355C16.4335 41.5306 15.3931 42.264 14.3069 42.9974L14.313 43.0035Z" fill="#E6001E"/>
<path d="M53.131 9.64174C52.8438 10.0398 52.6864 10.4425 52.3931 10.64C49.8327 12.3594 47.2539 14.0497 44.6706 15.7324C44.5417 15.8242 44.3956 15.8889 44.2411 15.9226C44.0867 15.9563 43.927 15.9584 43.7717 15.9286C43.6164 15.8989 43.4687 15.8379 43.3375 15.7495C43.2064 15.661 43.0944 15.5469 43.0084 15.4139C42.6586 14.8719 42.8251 14.1982 43.4453 13.7879C45.9864 12.1068 48.5326 10.4302 51.0839 8.75831C51.4994 8.48424 51.9623 8.38472 52.3641 8.67716C52.6513 8.88998 52.8331 9.25897 53.131 9.64174Z" fill="#E6001E"/>
<path d="M54.7765 25.0393L50.7632 24.3182C49.1183 24.0242 47.4725 23.7287 45.8256 23.4317C45.3245 23.3429 44.857 23.1255 44.773 22.6095C44.7295 22.226 44.8126 21.8387 45.0098 21.5071C45.2772 21.0601 45.7951 21.0922 46.2549 21.1718C47.6039 21.4046 48.9482 21.6572 50.2942 21.9006C51.883 22.1869 53.4718 22.4778 55.0622 22.758C55.7267 22.8759 56.1545 23.3505 56.1147 23.963C56.075 24.5754 55.5403 25.05 54.7765 25.0393Z" fill="#E6001E"/>
<path d="M40.3245 1.13003C40.1534 2.82493 39.9945 4.41572 39.8295 6.00497C39.6996 7.25433 39.5728 8.50522 39.4231 9.75152C39.4116 9.90409 39.3685 10.0526 39.2966 10.1875C39.2246 10.3225 39.1254 10.4409 39.0052 10.5353C38.8851 10.6296 38.7466 10.6979 38.5986 10.7356C38.4507 10.7733 38.2965 10.7797 38.1459 10.7544C37.9991 10.7351 37.8575 10.6871 37.7293 10.6129C37.601 10.5387 37.4886 10.4399 37.3985 10.3222C37.3084 10.2044 37.2423 10.07 37.2041 9.92664C37.1659 9.78327 37.1563 9.63375 37.1759 9.48664C37.461 6.68477 37.7538 3.88341 38.0543 1.08256C38.1261 0.418075 38.6318 -0.0305298 39.2291 0.0016228C39.5205 0.0151782 39.7959 0.139329 39.9993 0.348887C40.2027 0.558445 40.319 0.837713 40.3245 1.13003Z" fill="#E6001E"/>
<path d="M27.6026 18.7423C30.3158 18.7423 32.6441 20.4005 33.4721 22.9145C33.8812 24.144 33.8918 25.4716 33.5025 26.7075C33.1131 27.9434 32.3437 29.0241 31.3043 29.7952C30.768 30.1902 30.2119 30.2361 29.7766 29.9054C29.3412 29.5747 29.1975 29.1276 29.387 28.6377C29.5151 28.3657 29.7089 28.13 29.9507 27.9518C31.2111 26.929 31.7152 25.597 31.3806 24.0383C31.0384 22.446 29.9904 21.4355 28.3894 21.0941C27.4071 20.8813 26.4843 21.0941 25.5891 21.5794C25.2438 21.7647 24.7229 21.852 24.3669 21.7325C24.0705 21.6269 23.7375 21.1615 23.7207 20.8399C23.7271 20.6394 23.7755 20.4426 23.8629 20.2621C23.9503 20.0817 24.0747 19.9217 24.2279 19.7927C25.2025 19.0714 26.3917 18.7012 27.6026 18.7423Z" fill="#E6001E"/>
</svg>
