<svg width="398" height="488" viewBox="0 0 398 488" fill="none" xmlns="http://www.w3.org/2000/svg">
<rect x="0.5" y="0.5" width="397" height="487" rx="19.5" fill="#FAF9F6" stroke="#CBE0CC"/>
<path d="M340.429 344V337.333C340.429 332.731 336.804 329 332.333 329C327.862 329 324.238 332.731 324.238 337.333V344L321 350.667H328.367C328.742 352.568 330.375 354 332.333 354C334.292 354 335.924 352.568 336.299 350.667H343.667L340.429 344ZM332.333 352.333C331.278 352.333 330.388 351.636 330.054 350.667H334.614C334.279 351.636 333.389 352.333 332.333 352.333ZM323.429 349L325.857 344V337.333C325.857 333.652 328.757 330.667 332.333 330.667C335.91 330.667 338.809 333.652 338.809 337.333V344L341.238 349H323.429V349Z" fill="#090B12"/>
<circle cx="339.215" cy="334.357" r="4.92857" fill="#E6001E" stroke="white" stroke-width="2"/>
<rect x="37" y="328" width="243" height="8" rx="4" fill="#D3E2D1"/>
<rect x="38" y="347" width="157" height="8" rx="4" fill="#D3E2D1"/>
</svg>
