<svg width="309" height="27" viewBox="0 0 309 27" fill="none" xmlns="http://www.w3.org/2000/svg">
<path d="M303.429 16V9.33335C303.429 4.73081 299.804 1 295.333 1C290.862 1 287.238 4.73081 287.238 9.33335V16L284 22.6667H291.367C291.742 24.5683 293.375 26 295.333 26C297.292 26 298.924 24.5683 299.299 22.6667H306.667L303.429 16ZM295.333 24.3333C294.278 24.3333 293.388 23.6358 293.054 22.6667H297.614C297.279 23.6358 296.389 24.3333 295.333 24.3333ZM286.429 21L288.857 16V9.33335C288.857 5.65168 291.757 2.66669 295.333 2.66669C298.91 2.66669 301.809 5.65168 301.809 9.33335V16L304.238 21H286.429V21Z" fill="#090B12"/>
<circle cx="302.215" cy="6.3571" r="4.92857" fill="#E6001E" stroke="white" stroke-width="2"/>
<rect width="243" height="8" rx="4" fill="#D3E2D1"/>
<rect x="1" y="19" width="157" height="8" rx="4" fill="#D3E2D1"/>
</svg>
