<svg width="55" height="53" viewBox="0 0 55 53" fill="none" xmlns="http://www.w3.org/2000/svg">
<g clip-path="url(#clip0_1_52)">
<path d="M52.5308 10.4218C52.5439 10.6775 52.5634 10.8746 52.5634 11.0717C52.5634 17.6743 52.5667 24.2785 52.5634 30.8811C52.5634 32.4186 51.894 33.4007 50.6089 33.741C50.3401 33.8127 50.0486 33.8225 49.7668 33.8241C47.2667 33.8306 44.7681 33.8192 42.268 33.829C37.1635 33.8502 32.9906 37.2296 31.9596 42.2231C31.7853 43.0684 31.7885 43.9577 31.7706 44.8274C31.7413 46.3094 31.7706 47.7932 31.7608 49.2769C31.7494 50.8827 30.7201 52.0293 29.1337 52.0326C22.7929 52.0472 16.4521 52.1059 10.1146 51.9707C5.56057 51.873 1.44957 48.088 0.701973 43.5977C0.5733 42.8209 0.563528 42.0228 0.511407 41.2345C0.493491 40.9544 0.50815 40.6726 0.50815 40.3111H1.21992C4.36995 40.3111 7.51997 40.3143 10.67 40.3111C15.4227 40.3062 19.0223 37.329 19.9067 32.6792C20.8302 27.8225 17.0857 22.7085 12.1701 22.259C10.1537 22.0733 8.11284 22.1498 6.08178 22.1287C4.25593 22.1108 2.43009 22.1254 0.542354 22.1254C0.441371 20.4577 0.552126 18.8632 1.11405 17.3143C2.62717 13.1498 6.49711 10.4267 10.9273 10.4251C24.5845 10.4218 38.2417 10.4251 51.8972 10.4251H52.5308V10.4218Z" fill="#E6001E"/>
<path d="M16.874 6.47453C18.4539 3.04944 20.985 0.92078 24.6351 0.196024C25.3664 0.0510727 26.1287 0.0136134 26.8763 0.0119848C31.8538 -0.00267321 36.8329 -0.00267321 41.8104 0.00547011C46.1087 0.0136134 49.3125 1.89961 51.407 5.65694C51.5439 5.90124 51.6432 6.16508 51.7866 6.47453H16.874Z" fill="#E6001E"/>
<path d="M0.542358 36.4072V26.0293H1.16292C4.39438 26.0293 7.62585 26.0244 10.8573 26.0293C13.6686 26.0342 15.825 28.0033 16.1296 30.829C16.3967 33.3176 14.5921 35.7345 12.0105 36.3176C11.6179 36.4055 11.2042 36.4332 10.8003 36.4349C7.50858 36.4446 4.21522 36.4397 0.923489 36.4381C0.822506 36.4381 0.721522 36.4218 0.542358 36.4055V36.4072Z" fill="#E6001E"/>
<path d="M42.8088 53.0004C42.0465 53.0134 41.11 52.6681 40.2875 52.0183C38.7744 50.8212 37.2645 49.6193 35.7677 48.4027C34.8604 47.6649 34.7155 46.5036 35.3898 45.6437C36.0771 44.7659 37.2922 44.6242 38.2092 45.344C39.6457 46.4727 41.066 47.6242 42.4945 48.7642C43.0841 49.2349 43.317 49.2121 43.8203 48.6372C46.1869 45.9303 48.5518 43.2235 50.92 40.5167C51.6579 39.6746 52.5521 39.4483 53.4186 39.8799C54.6076 40.4711 54.8665 41.9499 53.9381 43.0264C52.4511 44.7496 50.9445 46.4532 49.446 48.1649C48.4818 49.2642 47.5241 50.3701 46.5501 51.4613C45.6347 52.4857 44.4848 53.0053 42.8088 53.002V53.0004Z" fill="#E6001E"/>
</g>
<defs>
<clipPath id="clip0_1_52">
<rect width="54" height="53" fill="white" transform="translate(0.5)"/>
</clipPath>
</defs>
</svg>
