<svg width="48" height="38" viewBox="0 0 48 38" fill="none" xmlns="http://www.w3.org/2000/svg">
<path d="M47.0778 9.58872L31.2319 0.850445C30.9559 0.698289 30.6212 0.698289 30.3452 0.850445L24.3865 4.13643C24.2519 4.17401 24.1263 4.24304 24.0197 4.33846L14.4994 9.58872C14.2046 9.75136 14.0214 10.0622 14.0214 10.3997V12.2914H3.39228C2.88342 12.2914 2.47101 12.7059 2.47101 13.2166C2.47101 13.7276 2.88342 14.1418 3.39228 14.1418H14.0214V17.4726H8.73961C8.23075 17.4726 7.81834 17.8872 7.81834 18.3978C7.81834 18.9089 8.23075 19.3231 8.73961 19.3231H14.0214V24.1342H6.28277C5.77391 24.1342 5.3615 24.5488 5.3615 25.0594C5.3615 25.5705 5.77391 25.9847 6.28277 25.9847H14.0214V27.8767C14.0214 28.2142 14.2046 28.525 14.4994 28.6877L30.3452 37.426C30.4834 37.5022 30.636 37.5402 30.7886 37.5402C30.9412 37.5402 31.0937 37.5022 31.2319 37.426L47.0778 28.6877C47.3725 28.525 47.5557 28.2142 47.5557 27.8767V23.7334C47.5557 23.2227 47.1433 22.8082 46.6344 22.8082C46.1256 22.8082 45.7132 23.2227 45.7132 23.7334V27.3291L31.7098 35.0515V19.6856L36.1633 17.2298V21.1272C36.1633 21.4547 36.3353 21.7576 36.6156 21.9238C36.7599 22.0095 36.9222 22.0525 37.0845 22.0525C37.2371 22.0525 37.3901 22.0145 37.5286 21.9379L40.9243 20.0611C41.2184 19.8984 41.4012 19.588 41.4012 19.2504V14.3413L45.7132 11.9636V16.3316C45.7132 16.8427 46.1256 17.2569 46.6344 17.2569C47.1433 17.2569 47.5557 16.8427 47.5557 16.3316V10.3997C47.5557 10.0622 47.3725 9.75136 47.0778 9.58872ZM29.8673 35.0515L15.864 27.3291V11.9636L29.8673 19.6856V35.0515ZM30.7886 18.0827L16.8569 10.3997L21.2354 7.98513L35.1675 15.6681L30.7886 18.0827ZM37.0816 14.6124L23.1496 6.92944L24.66 6.09674L38.5917 13.7797L37.0816 14.6124ZM39.5586 18.7036L38.0058 19.562V16.2138L39.5586 15.3573V18.7036ZM40.5058 12.724L26.5741 5.04105L30.7886 2.71715L44.7203 10.3997L40.5058 12.724Z" fill="#E6001E"/>
<path d="M46.6357 19.1387C46.3938 19.1387 46.1562 19.2361 45.9851 19.4082C45.8141 19.5793 45.7156 19.8158 45.7156 20.0588C45.7156 20.3007 45.8141 20.5382 45.9851 20.7093C46.1562 20.8804 46.3938 20.9789 46.6357 20.9789C46.8776 20.9789 47.1151 20.8804 47.2862 20.7093C47.4573 20.5382 47.5558 20.3007 47.5558 20.0588C47.5558 19.8158 47.4573 19.5793 47.2862 19.4082C47.1151 19.2361 46.8776 19.1387 46.6357 19.1387Z" fill="#E6001E"/>
<path d="M2.58715 23.7383H1.43486C0.990774 23.7383 0.630859 24.1505 0.630859 24.6584C0.630859 25.1666 0.990774 25.5785 1.43486 25.5785H2.58715C3.03123 25.5785 3.39115 25.1666 3.39115 24.6584C3.39115 24.1505 3.03123 23.7383 2.58715 23.7383Z" fill="#E6001E"/>
<path d="M6.15147 18.2189C6.15147 17.977 6.05299 17.7398 5.88155 17.5687C5.71047 17.3973 5.47326 17.2988 5.23138 17.2988C4.98913 17.2988 4.75192 17.3973 4.58084 17.5687C4.40868 17.7398 4.31128 17.977 4.31128 18.2189C4.31128 18.4612 4.40868 18.6984 4.58084 18.8695C4.75192 19.0405 4.98913 19.139 5.23138 19.139C5.47326 19.139 5.71047 19.0409 5.88155 18.8695C6.05299 18.6984 6.15147 18.4612 6.15147 18.2189Z" fill="#E6001E"/>
</svg>
