<svg width="578" height="403" viewBox="0 0 578 403" fill="none" xmlns="http://www.w3.org/2000/svg">
<rect width="578" height="403" rx="20" fill="#FAF9F6"/>
<g clip-path="url(#clip0_1006_1425)">
<g filter="url(#filter0_d_1006_1425)">
<path d="M40 62C40 50.9543 48.9543 42 60 42H168C179.046 42 188 50.9543 188 62V170H60C48.9543 170 40 161.046 40 150V62Z" fill="white"/>
</g>
<circle cx="113.5" cy="157.5" r="51.5" stroke="url(#paint0_linear_1006_1425)" stroke-width="24"/>
<path d="M121.728 139.734V138.973C121.728 138.427 121.846 137.929 122.083 137.482C122.32 137.034 122.666 136.675 123.12 136.405C123.575 136.135 124.121 136 124.76 136C125.419 136 125.972 136.135 126.419 136.405C126.874 136.675 127.22 137.034 127.457 137.482C127.694 137.929 127.812 138.427 127.812 138.973V139.734C127.812 140.267 127.694 140.758 127.457 141.206C127.226 141.653 126.884 142.012 126.429 142.282C125.982 142.552 125.432 142.687 124.78 142.687C124.134 142.687 123.581 142.552 123.12 142.282C122.666 142.012 122.32 141.653 122.083 141.206C121.846 140.758 121.728 140.267 121.728 139.734ZM123.377 138.973V139.734C123.377 139.997 123.427 140.247 123.525 140.484C123.631 140.722 123.789 140.913 123.999 141.057C124.21 141.202 124.47 141.275 124.78 141.275C125.096 141.275 125.353 141.202 125.55 141.057C125.754 140.913 125.906 140.722 126.005 140.484C126.103 140.247 126.153 139.997 126.153 139.734V138.973C126.153 138.703 126.1 138.45 125.995 138.213C125.896 137.969 125.744 137.775 125.54 137.63C125.336 137.485 125.076 137.413 124.76 137.413C124.457 137.413 124.2 137.485 123.99 137.63C123.785 137.775 123.631 137.969 123.525 138.213C123.427 138.45 123.377 138.703 123.377 138.973ZM128.662 147.834V147.063C128.662 146.523 128.78 146.029 129.017 145.581C129.261 145.134 129.61 144.775 130.064 144.505C130.519 144.235 131.065 144.1 131.704 144.1C132.363 144.1 132.916 144.235 133.364 144.505C133.818 144.775 134.16 145.134 134.391 145.581C134.628 146.029 134.746 146.523 134.746 147.063V147.834C134.746 148.374 134.628 148.867 134.391 149.315C134.16 149.763 133.821 150.122 133.373 150.392C132.926 150.662 132.379 150.797 131.734 150.797C131.082 150.797 130.525 150.662 130.064 150.392C129.61 150.122 129.261 149.763 129.017 149.315C128.78 148.867 128.662 148.374 128.662 147.834ZM130.321 147.063V147.834C130.321 148.097 130.374 148.347 130.479 148.584C130.591 148.821 130.753 149.016 130.963 149.167C131.174 149.312 131.427 149.384 131.724 149.384C132.06 149.384 132.33 149.312 132.534 149.167C132.738 149.016 132.883 148.825 132.968 148.594C133.061 148.357 133.107 148.104 133.107 147.834V147.063C133.107 146.793 133.054 146.54 132.949 146.302C132.85 146.065 132.695 145.874 132.484 145.73C132.28 145.585 132.02 145.512 131.704 145.512C131.395 145.512 131.138 145.585 130.934 145.73C130.729 145.874 130.575 146.065 130.469 146.302C130.371 146.54 130.321 146.793 130.321 147.063ZM132.297 138.262L125.274 149.503L124.059 148.802L131.082 137.561L132.297 138.262Z" fill="#090B12"/>
<path d="M120.237 145.463V147.36H109.865L109.786 145.927L115.989 136.208H117.896L115.831 139.744L112.265 145.463H120.237ZM118.439 136.208V150.59H116.059V136.208H118.439Z" fill="#090B12"/>
<path d="M101.331 143.902L99.4346 143.438L100.215 136.208H107.969V138.223H102.191L101.795 141.749C102.019 141.617 102.329 141.489 102.724 141.364C103.119 141.232 103.57 141.166 104.077 141.166C104.755 141.166 105.361 141.278 105.895 141.502C106.435 141.719 106.892 142.039 107.268 142.46C107.643 142.875 107.929 143.382 108.127 143.981C108.325 144.574 108.423 145.242 108.423 145.986C108.423 146.652 108.325 147.274 108.127 147.853C107.936 148.433 107.646 148.943 107.258 149.384C106.869 149.826 106.379 150.171 105.786 150.422C105.2 150.665 104.505 150.787 103.702 150.787C103.103 150.787 102.526 150.701 101.973 150.53C101.427 150.352 100.936 150.092 100.501 149.75C100.067 149.401 99.7178 148.973 99.4544 148.466C99.191 147.952 99.0395 147.363 99 146.698H101.331C101.39 147.165 101.519 147.564 101.716 147.893C101.921 148.216 102.191 148.463 102.526 148.634C102.862 148.805 103.251 148.891 103.692 148.891C104.094 148.891 104.439 148.821 104.729 148.683C105.019 148.538 105.259 148.334 105.45 148.071C105.648 147.801 105.793 147.485 105.885 147.122C105.984 146.76 106.033 146.359 106.033 145.917C106.033 145.496 105.977 145.111 105.865 144.762C105.76 144.413 105.598 144.11 105.381 143.853C105.17 143.596 104.904 143.399 104.581 143.26C104.258 143.115 103.886 143.043 103.465 143.043C102.898 143.043 102.464 143.125 102.161 143.29C101.865 143.454 101.588 143.659 101.331 143.902Z" fill="#090B12"/>
<path d="M56.1553 55.0469H59.4502C60.1976 55.0469 60.8288 55.1608 61.3438 55.3887C61.8633 55.6165 62.2575 55.9538 62.5264 56.4004C62.7998 56.8424 62.9365 57.387 62.9365 58.0342C62.9365 58.4899 62.8431 58.9069 62.6562 59.2852C62.474 59.6589 62.2096 59.9779 61.8633 60.2422C61.5215 60.502 61.1113 60.6956 60.6328 60.8232L60.2637 60.9668H57.167L57.1533 59.8936H59.4912C59.9652 59.8936 60.3594 59.8115 60.6738 59.6475C60.9883 59.4788 61.2253 59.2533 61.3848 58.9707C61.5443 58.6882 61.624 58.376 61.624 58.0342C61.624 57.6514 61.5488 57.3164 61.3984 57.0293C61.248 56.7422 61.0111 56.5212 60.6875 56.3662C60.3685 56.2067 59.9561 56.127 59.4502 56.127H57.4746V65H56.1553V55.0469ZM61.9727 65L59.5527 60.4883L60.9268 60.4814L63.3809 64.918V65H61.9727ZM67.6602 65.1367C67.1452 65.1367 66.6781 65.0501 66.2588 64.877C65.8441 64.6992 65.4863 64.4508 65.1855 64.1318C64.8893 63.8128 64.6615 63.4346 64.502 62.9971C64.3424 62.5596 64.2627 62.0811 64.2627 61.5615V61.2744C64.2627 60.6729 64.3516 60.1374 64.5293 59.668C64.707 59.194 64.9486 58.793 65.2539 58.4648C65.5592 58.1367 65.9056 57.8883 66.293 57.7197C66.6803 57.5511 67.0814 57.4668 67.4961 57.4668C68.0247 57.4668 68.4805 57.5579 68.8633 57.7402C69.2507 57.9225 69.5674 58.1777 69.8135 58.5059C70.0596 58.8294 70.2419 59.2122 70.3604 59.6543C70.4788 60.0918 70.5381 60.5703 70.5381 61.0898V61.6572H65.0146V60.625H69.2734V60.5293C69.2552 60.2012 69.1868 59.8822 69.0684 59.5723C68.9544 59.2624 68.7721 59.0072 68.5215 58.8066C68.2708 58.6061 67.929 58.5059 67.4961 58.5059C67.209 58.5059 66.9447 58.5674 66.7031 58.6904C66.4616 58.8089 66.2542 58.9867 66.0811 59.2236C65.9079 59.4606 65.7734 59.75 65.6777 60.0918C65.582 60.4336 65.5342 60.8278 65.5342 61.2744V61.5615C65.5342 61.9124 65.582 62.2428 65.6777 62.5527C65.778 62.8581 65.9215 63.127 66.1084 63.3594C66.2998 63.5918 66.5299 63.7741 66.7988 63.9062C67.0723 64.0384 67.3822 64.1045 67.7285 64.1045C68.1751 64.1045 68.5534 64.0133 68.8633 63.8311C69.1732 63.6488 69.4443 63.4049 69.6768 63.0996L70.4424 63.708C70.2829 63.9495 70.0801 64.1797 69.834 64.3984C69.5879 64.6172 69.2848 64.7949 68.9248 64.9316C68.5693 65.0684 68.1478 65.1367 67.6602 65.1367ZM73.2793 59.0254V67.8438H72.0078V57.6035H73.1699L73.2793 59.0254ZM78.2627 61.2402V61.3838C78.2627 61.9215 78.1989 62.4206 78.0713 62.8809C77.9437 63.3366 77.7568 63.7331 77.5107 64.0703C77.2692 64.4076 76.9707 64.6696 76.6152 64.8564C76.2598 65.0433 75.8519 65.1367 75.3916 65.1367C74.9222 65.1367 74.5075 65.0592 74.1475 64.9043C73.7874 64.7493 73.4821 64.5238 73.2314 64.2275C72.9808 63.9313 72.7803 63.5758 72.6299 63.1611C72.484 62.7464 72.3838 62.2793 72.3291 61.7598V60.9941C72.3838 60.4473 72.4863 59.9574 72.6367 59.5244C72.7871 59.0915 72.9854 58.7223 73.2314 58.417C73.4821 58.1071 73.7852 57.8724 74.1406 57.7129C74.4961 57.5488 74.9062 57.4668 75.3711 57.4668C75.8359 57.4668 76.2484 57.5579 76.6084 57.7402C76.9684 57.918 77.2715 58.1732 77.5176 58.5059C77.7637 58.8385 77.9482 59.2373 78.0713 59.7021C78.1989 60.1624 78.2627 60.6751 78.2627 61.2402ZM76.9912 61.3838V61.2402C76.9912 60.8711 76.9525 60.5247 76.875 60.2012C76.7975 59.873 76.6768 59.5859 76.5127 59.3398C76.3532 59.0892 76.1481 58.8932 75.8975 58.752C75.6468 58.6061 75.3483 58.5332 75.002 58.5332C74.6829 58.5332 74.4049 58.5879 74.168 58.6973C73.9355 58.8066 73.7373 58.9548 73.5732 59.1416C73.4092 59.3239 73.2747 59.5335 73.1699 59.7705C73.0697 60.0029 72.9945 60.2445 72.9443 60.4951V62.2656C73.0355 62.5846 73.1631 62.8854 73.3271 63.168C73.4912 63.446 73.71 63.6715 73.9834 63.8447C74.2568 64.0133 74.6009 64.0977 75.0156 64.0977C75.3574 64.0977 75.6514 64.027 75.8975 63.8857C76.1481 63.7399 76.3532 63.5417 76.5127 63.291C76.6768 63.0404 76.7975 62.7533 76.875 62.4297C76.9525 62.1016 76.9912 61.7529 76.9912 61.3838ZM82.9453 65.1367C82.4303 65.1367 81.9632 65.0501 81.5439 64.877C81.1292 64.6992 80.7715 64.4508 80.4707 64.1318C80.1745 63.8128 79.9466 63.4346 79.7871 62.9971C79.6276 62.5596 79.5479 62.0811 79.5479 61.5615V61.2744C79.5479 60.6729 79.6367 60.1374 79.8145 59.668C79.9922 59.194 80.2337 58.793 80.5391 58.4648C80.8444 58.1367 81.1908 57.8883 81.5781 57.7197C81.9655 57.5511 82.3665 57.4668 82.7812 57.4668C83.3099 57.4668 83.7656 57.5579 84.1484 57.7402C84.5358 57.9225 84.8525 58.1777 85.0986 58.5059C85.3447 58.8294 85.527 59.2122 85.6455 59.6543C85.764 60.0918 85.8232 60.5703 85.8232 61.0898V61.6572H80.2998V60.625H84.5586V60.5293C84.5404 60.2012 84.472 59.8822 84.3535 59.5723C84.2396 59.2624 84.0573 59.0072 83.8066 58.8066C83.556 58.6061 83.2142 58.5059 82.7812 58.5059C82.4941 58.5059 82.2298 58.5674 81.9883 58.6904C81.7467 58.8089 81.5394 58.9867 81.3662 59.2236C81.193 59.4606 81.0586 59.75 80.9629 60.0918C80.8672 60.4336 80.8193 60.8278 80.8193 61.2744V61.5615C80.8193 61.9124 80.8672 62.2428 80.9629 62.5527C81.0632 62.8581 81.2067 63.127 81.3936 63.3594C81.585 63.5918 81.8151 63.7741 82.084 63.9062C82.3574 64.0384 82.6673 64.1045 83.0137 64.1045C83.4603 64.1045 83.8385 64.0133 84.1484 63.8311C84.4583 63.6488 84.7295 63.4049 84.9619 63.0996L85.7275 63.708C85.568 63.9495 85.3652 64.1797 85.1191 64.3984C84.873 64.6172 84.57 64.7949 84.21 64.9316C83.8545 65.0684 83.4329 65.1367 82.9453 65.1367ZM91.6611 63.7354V59.9277C91.6611 59.6361 91.6019 59.3831 91.4834 59.1689C91.3695 58.9502 91.1963 58.7816 90.9639 58.6631C90.7314 58.5446 90.4443 58.4854 90.1025 58.4854C89.7835 58.4854 89.5033 58.54 89.2617 58.6494C89.0247 58.7588 88.8379 58.9023 88.7012 59.0801C88.569 59.2578 88.5029 59.4492 88.5029 59.6543H87.2383C87.2383 59.39 87.3066 59.1279 87.4434 58.8682C87.5801 58.6084 87.776 58.3737 88.0312 58.1641C88.291 57.9499 88.6009 57.7812 88.9609 57.6582C89.3255 57.5306 89.7311 57.4668 90.1777 57.4668C90.7155 57.4668 91.1895 57.5579 91.5996 57.7402C92.0143 57.9225 92.3379 58.1982 92.5703 58.5674C92.8073 58.932 92.9258 59.39 92.9258 59.9414V63.3867C92.9258 63.6328 92.9463 63.8949 92.9873 64.1729C93.0329 64.4508 93.099 64.6901 93.1855 64.8906V65H91.8662C91.8024 64.8542 91.7523 64.6605 91.7158 64.4189C91.6794 64.1729 91.6611 63.945 91.6611 63.7354ZM91.8799 60.5156L91.8936 61.4043H90.6152C90.2552 61.4043 89.9339 61.4339 89.6514 61.4932C89.3688 61.5479 89.1318 61.6322 88.9404 61.7461C88.749 61.86 88.6032 62.0036 88.5029 62.1768C88.4027 62.3454 88.3525 62.5436 88.3525 62.7715C88.3525 63.0039 88.4049 63.2158 88.5098 63.4072C88.6146 63.5986 88.7718 63.7513 88.9814 63.8652C89.1956 63.9746 89.4577 64.0293 89.7676 64.0293C90.1549 64.0293 90.4967 63.9473 90.793 63.7832C91.0892 63.6191 91.3239 63.4186 91.4971 63.1816C91.6748 62.9447 91.7705 62.7145 91.7842 62.4912L92.3242 63.0996C92.2923 63.291 92.2057 63.5029 92.0645 63.7354C91.9232 63.9678 91.734 64.1911 91.4971 64.4053C91.2646 64.6149 90.9867 64.7904 90.6631 64.9316C90.3441 65.0684 89.984 65.1367 89.583 65.1367C89.0817 65.1367 88.6419 65.0387 88.2637 64.8428C87.89 64.6468 87.5983 64.3848 87.3887 64.0566C87.1836 63.724 87.0811 63.3525 87.0811 62.9424C87.0811 62.5459 87.1585 62.1973 87.3135 61.8965C87.4684 61.5911 87.6917 61.3382 87.9834 61.1377C88.2751 60.9326 88.626 60.7777 89.0361 60.6729C89.4463 60.568 89.9043 60.5156 90.4102 60.5156H91.8799ZM98.0117 57.6035V58.5742H94.0127V57.6035H98.0117ZM95.3662 55.8057H96.6309V63.168C96.6309 63.4186 96.6696 63.6077 96.7471 63.7354C96.8245 63.863 96.9248 63.9473 97.0479 63.9883C97.1709 64.0293 97.3031 64.0498 97.4443 64.0498C97.5492 64.0498 97.6585 64.0407 97.7725 64.0225C97.891 63.9997 97.9798 63.9814 98.0391 63.9678L98.0459 65C97.9456 65.0319 97.8135 65.0615 97.6494 65.0889C97.4899 65.1208 97.2962 65.1367 97.0684 65.1367C96.7585 65.1367 96.4736 65.0752 96.2139 64.9521C95.9541 64.8291 95.7467 64.624 95.5918 64.3369C95.4414 64.0452 95.3662 63.6533 95.3662 63.1611V55.8057ZM102.564 65.1367C102.049 65.1367 101.582 65.0501 101.163 64.877C100.748 64.6992 100.391 64.4508 100.09 64.1318C99.7936 63.8128 99.5658 63.4346 99.4062 62.9971C99.2467 62.5596 99.167 62.0811 99.167 61.5615V61.2744C99.167 60.6729 99.2559 60.1374 99.4336 59.668C99.6113 59.194 99.8529 58.793 100.158 58.4648C100.464 58.1367 100.81 57.8883 101.197 57.7197C101.585 57.5511 101.986 57.4668 102.4 57.4668C102.929 57.4668 103.385 57.5579 103.768 57.7402C104.155 57.9225 104.472 58.1777 104.718 58.5059C104.964 58.8294 105.146 59.2122 105.265 59.6543C105.383 60.0918 105.442 60.5703 105.442 61.0898V61.6572H99.9189V60.625H104.178V60.5293C104.16 60.2012 104.091 59.8822 103.973 59.5723C103.859 59.2624 103.676 59.0072 103.426 58.8066C103.175 58.6061 102.833 58.5059 102.4 58.5059C102.113 58.5059 101.849 58.5674 101.607 58.6904C101.366 58.8089 101.159 58.9867 100.985 59.2236C100.812 59.4606 100.678 59.75 100.582 60.0918C100.486 60.4336 100.438 60.8278 100.438 61.2744V61.5615C100.438 61.9124 100.486 62.2428 100.582 62.5527C100.682 62.8581 100.826 63.127 101.013 63.3594C101.204 63.5918 101.434 63.7741 101.703 63.9062C101.977 64.0384 102.286 64.1045 102.633 64.1045C103.079 64.1045 103.458 64.0133 103.768 63.8311C104.077 63.6488 104.349 63.4049 104.581 63.0996L105.347 63.708C105.187 63.9495 104.984 64.1797 104.738 64.3984C104.492 64.6172 104.189 64.7949 103.829 64.9316C103.474 65.0684 103.052 65.1367 102.564 65.1367ZM111.581 63.5645V54.5H112.853V65H111.69L111.581 63.5645ZM106.604 61.3838V61.2402C106.604 60.6751 106.673 60.1624 106.81 59.7021C106.951 59.2373 107.149 58.8385 107.404 58.5059C107.664 58.1732 107.972 57.918 108.327 57.7402C108.687 57.5579 109.088 57.4668 109.53 57.4668C109.995 57.4668 110.401 57.5488 110.747 57.7129C111.098 57.8724 111.394 58.1071 111.636 58.417C111.882 58.7223 112.076 59.0915 112.217 59.5244C112.358 59.9574 112.456 60.4473 112.511 60.9941V61.623C112.461 62.1654 112.363 62.653 112.217 63.0859C112.076 63.5189 111.882 63.888 111.636 64.1934C111.394 64.4987 111.098 64.7334 110.747 64.8975C110.396 65.057 109.986 65.1367 109.517 65.1367C109.084 65.1367 108.687 65.0433 108.327 64.8564C107.972 64.6696 107.664 64.4076 107.404 64.0703C107.149 63.7331 106.951 63.3366 106.81 62.8809C106.673 62.4206 106.604 61.9215 106.604 61.3838ZM107.876 61.2402V61.3838C107.876 61.7529 107.912 62.0993 107.985 62.4229C108.063 62.7464 108.181 63.0312 108.341 63.2773C108.5 63.5234 108.703 63.7171 108.949 63.8584C109.195 63.9951 109.489 64.0635 109.831 64.0635C110.25 64.0635 110.594 63.9746 110.863 63.7969C111.137 63.6191 111.355 63.3844 111.52 63.0928C111.684 62.8011 111.811 62.4844 111.902 62.1426V60.4951C111.848 60.2445 111.768 60.0029 111.663 59.7705C111.563 59.5335 111.431 59.3239 111.267 59.1416C111.107 58.9548 110.909 58.8066 110.672 58.6973C110.439 58.5879 110.164 58.5332 109.845 58.5332C109.498 58.5332 109.2 58.6061 108.949 58.752C108.703 58.8932 108.5 59.0892 108.341 59.3398C108.181 59.5859 108.063 59.873 107.985 60.2012C107.912 60.5247 107.876 60.8711 107.876 61.2402Z" fill="#090B12"/>
<path d="M60.1172 74.7393H61.0547C61.0059 75.1885 60.8773 75.5905 60.6689 75.9453C60.4606 76.3001 60.166 76.5817 59.7852 76.79C59.4043 76.9951 58.929 77.0977 58.3594 77.0977C57.9427 77.0977 57.5635 77.0195 57.2217 76.8633C56.8831 76.707 56.5918 76.4857 56.3477 76.1992C56.1035 75.9095 55.9147 75.5628 55.7812 75.1592C55.651 74.7523 55.5859 74.2998 55.5859 73.8018V73.0938C55.5859 72.5957 55.651 72.1449 55.7812 71.7412C55.9147 71.3343 56.1051 70.986 56.3525 70.6963C56.6032 70.4066 56.9043 70.1836 57.2559 70.0273C57.6074 69.8711 58.0029 69.793 58.4424 69.793C58.9795 69.793 59.4336 69.8939 59.8047 70.0957C60.1758 70.2975 60.4639 70.5775 60.6689 70.9355C60.8773 71.2904 61.0059 71.7021 61.0547 72.1709H60.1172C60.0716 71.8389 59.987 71.554 59.8633 71.3164C59.7396 71.0755 59.5638 70.89 59.3359 70.7598C59.1081 70.6296 58.8102 70.5645 58.4424 70.5645C58.1266 70.5645 57.8483 70.6247 57.6074 70.7451C57.3698 70.8656 57.1696 71.0365 57.0068 71.2578C56.8473 71.4792 56.7269 71.7445 56.6455 72.0537C56.5641 72.363 56.5234 72.7064 56.5234 73.084V73.8018C56.5234 74.1501 56.5592 74.4772 56.6309 74.7832C56.7057 75.0892 56.818 75.3577 56.9678 75.5889C57.1175 75.82 57.3079 76.0023 57.5391 76.1357C57.7702 76.266 58.0436 76.3311 58.3594 76.3311C58.7598 76.3311 59.0788 76.2676 59.3164 76.1406C59.554 76.0137 59.7331 75.8314 59.8535 75.5938C59.9772 75.3561 60.0651 75.0713 60.1172 74.7393ZM65.4346 75.7793V71.7168H66.3428V77H65.4785L65.4346 75.7793ZM65.6055 74.666L65.9814 74.6562C65.9814 75.0078 65.944 75.3333 65.8691 75.6328C65.7975 75.929 65.6803 76.1862 65.5176 76.4043C65.3548 76.6224 65.1416 76.7933 64.8779 76.917C64.6143 77.0374 64.2936 77.0977 63.916 77.0977C63.6589 77.0977 63.4229 77.0602 63.208 76.9854C62.9964 76.9105 62.8141 76.7949 62.6611 76.6387C62.5081 76.4824 62.3893 76.279 62.3047 76.0283C62.2233 75.7777 62.1826 75.4766 62.1826 75.125V71.7168H63.0859V75.1348C63.0859 75.3724 63.112 75.5693 63.1641 75.7256C63.2194 75.8786 63.2926 76.0007 63.3838 76.0918C63.4782 76.1797 63.5824 76.2415 63.6963 76.2773C63.8135 76.3132 63.9339 76.3311 64.0576 76.3311C64.4417 76.3311 64.7461 76.2578 64.9707 76.1113C65.1953 75.9616 65.3564 75.7614 65.4541 75.5107C65.555 75.2568 65.6055 74.9753 65.6055 74.666ZM70.7959 75.5986C70.7959 75.4684 70.7666 75.348 70.708 75.2373C70.6527 75.1234 70.5371 75.0208 70.3613 74.9297C70.1888 74.8353 69.9284 74.7539 69.5801 74.6855C69.2871 74.6237 69.0218 74.5505 68.7842 74.4658C68.5498 74.3812 68.3496 74.2786 68.1836 74.1582C68.0208 74.0378 67.8955 73.8962 67.8076 73.7334C67.7197 73.5706 67.6758 73.3802 67.6758 73.1621C67.6758 72.9538 67.7214 72.7568 67.8125 72.5713C67.9069 72.3857 68.0387 72.2214 68.208 72.0781C68.3805 71.9349 68.5872 71.8226 68.8281 71.7412C69.069 71.6598 69.3376 71.6191 69.6338 71.6191C70.057 71.6191 70.4183 71.694 70.7178 71.8438C71.0173 71.9935 71.2467 72.1937 71.4062 72.4443C71.5658 72.6917 71.6455 72.9668 71.6455 73.2695H70.7422C70.7422 73.123 70.6982 72.9814 70.6104 72.8447C70.5257 72.7048 70.4004 72.5892 70.2344 72.498C70.0716 72.4069 69.8714 72.3613 69.6338 72.3613C69.3831 72.3613 69.1797 72.4004 69.0234 72.4785C68.8704 72.5534 68.7581 72.6494 68.6865 72.7666C68.6182 72.8838 68.584 73.0075 68.584 73.1377C68.584 73.2354 68.6003 73.3232 68.6328 73.4014C68.6686 73.4762 68.7305 73.5462 68.8184 73.6113C68.9062 73.6732 69.0299 73.7318 69.1895 73.7871C69.349 73.8424 69.5524 73.8978 69.7998 73.9531C70.2327 74.0508 70.5892 74.168 70.8691 74.3047C71.1491 74.4414 71.3574 74.609 71.4941 74.8076C71.6309 75.0062 71.6992 75.2471 71.6992 75.5303C71.6992 75.7614 71.6504 75.973 71.5527 76.165C71.4583 76.3571 71.32 76.5231 71.1377 76.6631C70.9587 76.7998 70.7438 76.9072 70.4932 76.9854C70.2458 77.0602 69.9674 77.0977 69.6582 77.0977C69.1927 77.0977 68.7988 77.0146 68.4766 76.8486C68.1543 76.6826 67.9102 76.4678 67.7441 76.2041C67.5781 75.9404 67.4951 75.6621 67.4951 75.3691H68.4033C68.4163 75.6165 68.488 75.8135 68.6182 75.96C68.7484 76.1032 68.9079 76.2057 69.0967 76.2676C69.2855 76.3262 69.4727 76.3555 69.6582 76.3555C69.9056 76.3555 70.1123 76.3229 70.2783 76.2578C70.4476 76.1927 70.5762 76.1032 70.6641 75.9893C70.752 75.8753 70.7959 75.7451 70.7959 75.5986ZM75.0977 71.7168V72.4102H72.2412V71.7168H75.0977ZM73.208 70.4326H74.1113V75.6914C74.1113 75.8704 74.139 76.0055 74.1943 76.0967C74.2497 76.1878 74.3213 76.248 74.4092 76.2773C74.4971 76.3066 74.5915 76.3213 74.6924 76.3213C74.7673 76.3213 74.8454 76.3148 74.9268 76.3018C75.0114 76.2855 75.0749 76.2725 75.1172 76.2627L75.1221 77C75.0505 77.0228 74.9561 77.0439 74.8389 77.0635C74.7249 77.0863 74.5866 77.0977 74.4238 77.0977C74.2025 77.0977 73.999 77.0537 73.8135 76.9658C73.6279 76.8779 73.4798 76.7314 73.3691 76.5264C73.2617 76.318 73.208 76.0381 73.208 75.6865V70.4326ZM75.8203 74.417V74.3047C75.8203 73.9238 75.8757 73.5706 75.9863 73.2451C76.097 72.9163 76.2565 72.6315 76.4648 72.3906C76.6732 72.1465 76.9255 71.9577 77.2217 71.8242C77.5179 71.6875 77.8499 71.6191 78.2178 71.6191C78.5889 71.6191 78.9225 71.6875 79.2188 71.8242C79.5182 71.9577 79.7721 72.1465 79.9805 72.3906C80.1921 72.6315 80.3532 72.9163 80.4639 73.2451C80.5745 73.5706 80.6299 73.9238 80.6299 74.3047V74.417C80.6299 74.7979 80.5745 75.151 80.4639 75.4766C80.3532 75.8021 80.1921 76.0869 79.9805 76.3311C79.7721 76.5719 79.5199 76.7607 79.2236 76.8975C78.9307 77.0309 78.5986 77.0977 78.2275 77.0977C77.8564 77.0977 77.5228 77.0309 77.2266 76.8975C76.9303 76.7607 76.6764 76.5719 76.4648 76.3311C76.2565 76.0869 76.097 75.8021 75.9863 75.4766C75.8757 75.151 75.8203 74.7979 75.8203 74.417ZM76.7236 74.3047V74.417C76.7236 74.6807 76.7546 74.9297 76.8164 75.1641C76.8783 75.3952 76.971 75.6003 77.0947 75.7793C77.2217 75.9583 77.3796 76.0999 77.5684 76.2041C77.7572 76.305 77.9769 76.3555 78.2275 76.3555C78.4749 76.3555 78.6914 76.305 78.877 76.2041C79.0658 76.0999 79.222 75.9583 79.3457 75.7793C79.4694 75.6003 79.5622 75.3952 79.624 75.1641C79.6891 74.9297 79.7217 74.6807 79.7217 74.417V74.3047C79.7217 74.0443 79.6891 73.7985 79.624 73.5674C79.5622 73.333 79.4678 73.1263 79.3408 72.9473C79.2171 72.765 79.0609 72.6217 78.8721 72.5176C78.6865 72.4134 78.4684 72.3613 78.2178 72.3613C77.9704 72.3613 77.7523 72.4134 77.5635 72.5176C77.3779 72.6217 77.2217 72.765 77.0947 72.9473C76.971 73.1263 76.8783 73.333 76.8164 73.5674C76.7546 73.7985 76.7236 74.0443 76.7236 74.3047ZM82.6611 72.7666V77H81.7529V71.7168H82.6123L82.6611 72.7666ZM82.4756 74.1582L82.0557 74.1436C82.0589 73.7822 82.1061 73.4486 82.1973 73.1426C82.2884 72.8333 82.4235 72.5648 82.6025 72.3369C82.7816 72.109 83.0046 71.9333 83.2715 71.8096C83.5384 71.6826 83.8477 71.6191 84.1992 71.6191C84.4466 71.6191 84.6745 71.6549 84.8828 71.7266C85.0911 71.7949 85.2718 71.904 85.4248 72.0537C85.5778 72.2035 85.6966 72.3955 85.7812 72.6299C85.8659 72.8643 85.9082 73.1475 85.9082 73.4795V77H85.0049V73.5234C85.0049 73.2467 84.9577 73.0254 84.8633 72.8594C84.7721 72.6934 84.6419 72.5729 84.4727 72.498C84.3034 72.4199 84.1048 72.3809 83.877 72.3809C83.61 72.3809 83.387 72.4281 83.208 72.5225C83.029 72.6169 82.8857 72.7471 82.7783 72.9131C82.6709 73.0791 82.5928 73.2695 82.5439 73.4844C82.4984 73.696 82.4756 73.9206 82.4756 74.1582ZM85.8984 73.6602L85.293 73.8457C85.2962 73.556 85.3434 73.2777 85.4346 73.0107C85.529 72.7438 85.6641 72.5062 85.8398 72.2979C86.0189 72.0895 86.2386 71.9251 86.499 71.8047C86.7594 71.681 87.0573 71.6191 87.3926 71.6191C87.6758 71.6191 87.9264 71.6566 88.1445 71.7314C88.3659 71.8063 88.5514 71.9219 88.7012 72.0781C88.8542 72.2311 88.9697 72.4281 89.0479 72.6689C89.126 72.9098 89.165 73.1963 89.165 73.5283V77H88.2568V73.5186C88.2568 73.2223 88.2096 72.9928 88.1152 72.8301C88.0241 72.6641 87.8939 72.5485 87.7246 72.4834C87.5586 72.415 87.36 72.3809 87.1289 72.3809C86.9303 72.3809 86.7546 72.415 86.6016 72.4834C86.4486 72.5518 86.32 72.6462 86.2158 72.7666C86.1117 72.8838 86.0319 73.0189 85.9766 73.1719C85.9245 73.3249 85.8984 73.4876 85.8984 73.6602ZM92.7246 77.0977C92.3568 77.0977 92.0231 77.0358 91.7236 76.9121C91.4274 76.7852 91.1719 76.6077 90.957 76.3799C90.7454 76.152 90.5827 75.8818 90.4688 75.5693C90.3548 75.2568 90.2979 74.915 90.2979 74.5439V74.3389C90.2979 73.9092 90.3613 73.5267 90.4883 73.1914C90.6152 72.8529 90.7878 72.5664 91.0059 72.332C91.224 72.0977 91.4714 71.9202 91.748 71.7998C92.0247 71.6794 92.3112 71.6191 92.6074 71.6191C92.985 71.6191 93.3105 71.6842 93.584 71.8145C93.8607 71.9447 94.0869 72.127 94.2627 72.3613C94.4385 72.5924 94.5687 72.8659 94.6533 73.1816C94.738 73.4941 94.7803 73.8359 94.7803 74.207V74.6123H90.835V73.875H93.877V73.8066C93.8639 73.5723 93.8151 73.3444 93.7305 73.123C93.6491 72.9017 93.5189 72.7194 93.3398 72.5762C93.1608 72.4329 92.9167 72.3613 92.6074 72.3613C92.4023 72.3613 92.2135 72.4053 92.041 72.4932C91.8685 72.5778 91.7204 72.7048 91.5967 72.874C91.473 73.0433 91.377 73.25 91.3086 73.4941C91.2402 73.7383 91.2061 74.0199 91.2061 74.3389V74.5439C91.2061 74.7946 91.2402 75.0306 91.3086 75.252C91.3802 75.4701 91.4827 75.6621 91.6162 75.8281C91.7529 75.9941 91.9173 76.1243 92.1094 76.2188C92.3047 76.3132 92.526 76.3604 92.7734 76.3604C93.0924 76.3604 93.3626 76.2952 93.584 76.165C93.8053 76.0348 93.999 75.8607 94.165 75.6426L94.7119 76.0771C94.598 76.2497 94.4531 76.4141 94.2773 76.5703C94.1016 76.7266 93.8851 76.8535 93.6279 76.9512C93.374 77.0488 93.0729 77.0977 92.7246 77.0977ZM96.7383 72.5469V77H95.835V71.7168H96.7139L96.7383 72.5469ZM98.3887 71.6875L98.3838 72.5273C98.3089 72.5111 98.2373 72.5013 98.1689 72.498C98.1038 72.4915 98.029 72.4883 97.9443 72.4883C97.736 72.4883 97.5521 72.5208 97.3926 72.5859C97.2331 72.651 97.098 72.7422 96.9873 72.8594C96.8766 72.9766 96.7887 73.1165 96.7236 73.2793C96.6618 73.4388 96.6211 73.6146 96.6016 73.8066L96.3477 73.9531C96.3477 73.6341 96.3786 73.3346 96.4404 73.0547C96.5055 72.7747 96.6048 72.5273 96.7383 72.3125C96.8717 72.0944 97.041 71.9251 97.2461 71.8047C97.4544 71.681 97.7018 71.6191 97.9883 71.6191C98.0534 71.6191 98.1283 71.6273 98.2129 71.6436C98.2975 71.6566 98.3561 71.6712 98.3887 71.6875Z" fill="#090B12"/>
<path d="M161 68L171 58M171 58H163M171 58V66" stroke="#090B12" stroke-width="2" stroke-linecap="round" stroke-linejoin="round"/>
</g>
<g filter="url(#filter1_d_1006_1425)">
<path d="M40 198C40 186.954 48.9543 178 60 178H188V286C188 297.046 179.046 306 168 306H60C48.9543 306 40 297.046 40 286V198Z" fill="white"/>
</g>
<g filter="url(#filter2_d_1006_1425)">
<path d="M196 62C196 50.9543 204.954 42 216 42H324C335.046 42 344 50.9543 344 62V150C344 161.046 335.046 170 324 170H196V62Z" fill="white"/>
</g>
<g clip-path="url(#clip1_1006_1425)">
<path d="M289.075 131C288.863 131 288.65 130.934 288.473 130.802L281.929 126.006L275.386 130.802C275.032 131.061 274.549 131.065 274.191 130.81C273.832 130.555 273.679 130.097 273.807 129.677L276.213 121.849L269.479 116.955C269.122 116.696 268.971 116.234 269.108 115.814C269.244 115.393 269.636 115.107 270.079 115.107H278.391L280.959 107.202C281.233 106.361 282.627 106.361 282.901 107.202L285.469 115.107H293.781C294.224 115.107 294.616 115.393 294.753 115.814C294.89 116.234 294.741 116.696 294.381 116.955L287.648 121.849L290.053 129.677C290.182 130.097 290.026 130.555 289.669 130.81C289.489 130.937 289.281 131 289.075 131ZM281.929 123.719C282.142 123.719 282.354 123.785 282.531 123.917L287.195 127.335L285.48 121.753C285.351 121.335 285.502 120.883 285.855 120.628L290.637 117.153H284.724C284.281 117.153 283.889 116.867 283.752 116.447L281.925 110.826L280.098 116.447C279.961 116.867 279.569 117.153 279.126 117.153H273.213L277.995 120.628C278.348 120.883 278.499 121.337 278.371 121.753L276.656 127.335L281.319 123.917C281.505 123.787 281.717 123.719 281.929 123.719Z" fill="#090B12"/>
<path d="M247.221 131C247.105 131 246.986 130.98 246.874 130.939C246.47 130.792 246.2 130.408 246.2 129.979V91.1875C246.2 86.1221 250.322 82 255.388 82H283.971C289.036 82 293.159 86.1221 293.159 91.1875V111.604C293.159 112.168 292.701 112.625 292.138 112.625C291.574 112.625 291.117 112.168 291.117 111.604V91.1875C291.117 87.2471 287.911 84.0417 283.971 84.0417H255.388C251.447 84.0417 248.242 87.2471 248.242 91.1875V127.16L256.645 117.076C256.839 116.843 257.125 116.708 257.429 116.708H266.617C267.18 116.708 267.638 117.166 267.638 117.729C267.638 118.293 267.18 118.75 266.617 118.75H257.907L248.005 130.632C247.807 130.869 247.517 131 247.221 131Z" fill="#090B12"/>
<path d="M259.471 104.458C257.782 104.458 256.408 103.084 256.408 101.396C256.408 99.7075 257.78 98.3335 259.471 98.3335C261.161 98.3335 262.533 99.7075 262.533 101.396C262.533 103.084 261.159 104.458 259.471 104.458ZM259.471 100.375C258.907 100.375 258.45 100.832 258.45 101.396C258.45 101.959 258.907 102.417 259.471 102.417C260.034 102.417 260.492 101.959 260.492 101.396C260.492 100.832 260.032 100.375 259.471 100.375Z" fill="#090B12"/>
<path d="M269.679 104.458C267.99 104.458 266.616 103.084 266.616 101.396C266.616 99.7075 267.988 98.3335 269.679 98.3335C271.369 98.3335 272.741 99.7075 272.741 101.396C272.741 103.084 271.367 104.458 269.679 104.458ZM269.679 100.375C269.115 100.375 268.658 100.832 268.658 101.396C268.658 101.959 269.115 102.417 269.679 102.417C270.242 102.417 270.7 101.959 270.7 101.396C270.7 100.832 270.24 100.375 269.679 100.375Z" fill="#090B12"/>
<path d="M279.888 104.458C278.199 104.458 276.825 103.084 276.825 101.396C276.825 99.7075 278.197 98.3335 279.888 98.3335C281.578 98.3335 282.95 99.7075 282.95 101.396C282.95 103.084 281.576 104.458 279.888 104.458ZM279.888 100.375C279.324 100.375 278.867 100.832 278.867 101.396C278.867 101.959 279.324 102.417 279.888 102.417C280.451 102.417 280.909 101.959 280.909 101.396C280.909 100.832 280.449 100.375 279.888 100.375Z" fill="#090B12"/>
</g>
<path d="M416.246 274.355V273.643C416.246 269.404 416.246 265.165 416.246 260.926C416.246 259.227 417.225 258.255 418.941 258.255H432.327C431.319 256.471 430.985 254.621 431.452 252.672C431.665 251.74 432.061 250.859 432.618 250.081C433.174 249.302 433.88 248.643 434.694 248.14C436.004 247.311 437.543 246.918 439.091 247.014C440.638 247.111 442.116 247.694 443.313 248.679C444.696 249.787 445.617 251.37 445.898 253.12C446.206 254.905 445.868 256.598 444.916 258.255H458.326C460.024 258.255 460.992 259.2 460.995 260.88C461.002 265.852 461.002 270.824 460.995 275.795C460.995 276.226 460.937 276.615 460.492 276.802C460.072 276.977 459.768 276.759 459.462 276.486C457.764 274.96 455.806 274.469 453.633 275.218C451.459 275.967 450.188 277.585 449.793 279.851C449.248 282.987 451.843 286.182 455.024 286.358C455.841 286.418 456.662 286.309 457.435 286.036C458.208 285.763 458.916 285.332 459.515 284.772C459.787 284.559 460.133 284.461 460.477 284.502C460.92 284.57 460.995 284.996 460.995 285.413C460.995 290.442 460.995 295.47 460.988 300.5C460.988 302.044 460.003 303 458.442 303C445.228 303 432.014 303 418.799 303C417.228 303 416.249 302.007 416.247 300.434C416.247 296.175 416.247 291.916 416.247 287.658V286.935C414.174 288.092 412.056 288.348 409.87 287.573C408.402 287.063 407.142 286.087 406.282 284.794C405.409 283.512 404.961 281.988 405.003 280.438C405.044 278.888 405.573 277.39 406.513 276.157C407.613 274.694 409.228 273.704 411.031 273.39C412.857 273.058 414.574 273.394 416.246 274.355ZM459.367 274.282V270.701C459.367 267.426 459.367 264.15 459.367 260.875C459.367 260.392 459.226 260.037 458.749 259.905C458.541 259.865 458.329 259.852 458.118 259.867C453.224 259.867 448.332 259.867 443.441 259.867C442.943 259.867 442.492 259.752 442.446 259.227C442.419 258.926 442.628 258.537 442.847 258.292C443.643 257.417 444.154 256.321 444.313 255.15C444.472 253.978 444.272 252.785 443.738 251.73C443.201 250.674 442.349 249.811 441.3 249.262C440.251 248.712 439.057 248.503 437.883 248.663C435.674 248.98 434.073 250.208 433.272 252.298C432.447 254.46 432.861 256.459 434.363 258.218C434.655 258.559 435.007 258.866 434.78 259.377C434.553 259.888 434.064 259.864 433.594 259.864C428.757 259.864 423.923 259.864 419.091 259.864C418.108 259.864 417.856 260.108 417.856 261.088C417.856 265.964 417.856 270.839 417.856 275.714C417.856 276.155 417.845 276.578 417.376 276.795C416.907 277.011 416.587 276.722 416.258 276.43C414.869 275.195 413.258 274.667 411.409 274.988C410.528 275.137 409.693 275.49 408.973 276.019C408.252 276.547 407.664 277.237 407.257 278.032C406.85 278.828 406.633 279.708 406.626 280.602C406.619 281.496 406.82 282.379 407.214 283.182C407.608 283.984 408.184 284.683 408.895 285.224C409.607 285.765 410.435 286.132 411.314 286.296C412.193 286.46 413.097 286.416 413.956 286.169C414.815 285.922 415.604 285.477 416.261 284.871C416.582 284.576 416.879 284.279 417.374 284.5C417.87 284.721 417.856 285.132 417.856 285.572C417.856 290.448 417.856 295.323 417.856 300.197C417.856 301.17 418.078 301.397 419.028 301.397H458.206C459.16 301.397 459.362 301.199 459.362 300.262V286.951C457.634 287.919 455.88 288.256 454.014 287.868C452.177 287.514 450.552 286.455 449.484 284.919C448.57 283.63 448.093 282.082 448.124 280.502C448.154 278.922 448.69 277.393 449.652 276.14C451.885 273.243 455.065 272.625 459.367 274.282Z" fill="#CBE0CC"/>
<path d="M133.025 354.654V354.273C133.025 352.002 133.025 349.732 133.025 347.46C133.025 346.55 133.549 346.029 134.469 346.029H141.639C141.099 345.074 140.921 344.083 141.17 343.039C141.285 342.539 141.497 342.067 141.795 341.65C142.093 341.233 142.471 340.88 142.907 340.611C143.61 340.167 144.434 339.956 145.263 340.008C146.092 340.06 146.883 340.372 147.525 340.899C148.266 341.493 148.759 342.341 148.909 343.279C149.075 344.235 148.894 345.142 148.383 346.029H155.567C156.477 346.029 156.996 346.536 156.998 347.436C157.001 350.099 157.001 352.763 156.998 355.426C156.998 355.657 156.966 355.865 156.728 355.965C156.503 356.059 156.34 355.942 156.176 355.796C155.266 354.979 154.218 354.715 153.053 355.117C151.889 355.518 151.208 356.385 150.996 357.599C150.704 359.279 152.095 360.99 153.798 361.085C154.236 361.117 154.676 361.058 155.09 360.912C155.504 360.766 155.884 360.535 156.204 360.235C156.35 360.121 156.535 360.069 156.72 360.09C156.957 360.127 156.998 360.355 156.998 360.578C156.998 363.273 156.998 365.966 156.993 368.661C156.993 369.488 156.466 370 155.63 370C148.551 370 141.472 370 134.393 370C133.551 370 133.026 369.468 133.025 368.625C133.025 366.343 133.025 364.062 133.025 361.781V361.394C131.915 362.014 130.78 362.151 129.609 361.736C128.823 361.462 128.148 360.939 127.687 360.247C127.219 359.56 126.979 358.744 127.001 357.913C127.024 357.083 127.307 356.28 127.811 355.62C128.4 354.836 129.265 354.306 130.231 354.137C131.209 353.959 132.129 354.14 133.025 354.654ZM156.125 354.615V352.697C156.125 350.942 156.125 349.188 156.125 347.433C156.125 347.174 156.05 346.984 155.794 346.914C155.683 346.892 155.569 346.885 155.456 346.893C152.835 346.893 150.214 346.893 147.594 346.893C147.326 346.893 147.085 346.832 147.06 346.55C147.046 346.389 147.158 346.181 147.275 346.049C147.701 345.581 147.975 344.994 148.061 344.366C148.146 343.738 148.038 343.099 147.752 342.534C147.465 341.968 147.009 341.506 146.446 341.212C145.884 340.917 145.245 340.805 144.616 340.891C143.433 341.061 142.575 341.718 142.146 342.838C141.704 343.997 141.926 345.067 142.73 346.009C142.887 346.192 143.075 346.357 142.954 346.631C142.832 346.904 142.57 346.891 142.318 346.891C139.727 346.891 137.137 346.891 134.549 346.891C134.022 346.891 133.887 347.022 133.887 347.547C133.887 350.159 133.887 352.771 133.887 355.382C133.887 355.619 133.881 355.846 133.63 355.961C133.379 356.077 133.207 355.922 133.031 355.766C132.287 355.104 131.424 354.821 130.433 354.993C129.961 355.073 129.514 355.263 129.128 355.546C128.742 355.829 128.427 356.198 128.209 356.625C127.991 357.051 127.875 357.522 127.871 358.001C127.867 358.48 127.975 358.953 128.186 359.383C128.397 359.813 128.705 360.188 129.087 360.477C129.468 360.767 129.912 360.963 130.382 361.051C130.853 361.139 131.338 361.116 131.798 360.983C132.258 360.851 132.681 360.613 133.033 360.288C133.205 360.13 133.364 359.971 133.629 360.089C133.895 360.208 133.887 360.428 133.887 360.664C133.887 363.275 133.887 365.887 133.887 368.499C133.887 369.02 134.006 369.141 134.515 369.141H155.503C156.014 369.141 156.122 369.035 156.122 368.533V361.402C155.197 361.921 154.257 362.101 153.257 361.894C152.273 361.704 151.403 361.137 150.831 360.314C150.341 359.623 150.086 358.794 150.102 357.947C150.118 357.101 150.405 356.282 150.921 355.611C152.117 354.059 153.821 353.728 156.125 354.615Z" fill="black"/>
<g filter="url(#filter3_d_1006_1425)">
<path d="M196 178H324C335.046 178 344 186.954 344 198V286C344 297.046 335.046 306 324 306H216C204.954 306 196 297.046 196 286V178Z" fill="white"/>
</g>
<path d="M296.945 240.063C296.839 242.718 296.451 245.358 295.784 247.985C295.116 250.612 294.101 253.006 292.739 255.168C291.404 257.33 289.682 259.053 287.572 260.34C285.462 261.626 282.926 262.269 279.961 262.269C278.172 262.269 276.583 261.954 275.195 261.325C273.806 260.668 272.644 259.738 271.71 258.534C270.802 257.33 270.147 255.879 269.747 254.183C269.346 252.459 269.239 250.544 269.426 248.437L271.469 225.164H278.479L276.476 248.437C276.316 250.106 276.343 251.474 276.556 252.541C276.797 253.608 277.157 254.429 277.638 255.004C278.119 255.578 278.666 255.975 279.28 256.194C279.895 256.413 280.509 256.522 281.123 256.522C282.565 256.522 283.86 256.112 285.008 255.291C286.157 254.443 287.132 253.28 287.933 251.802C288.76 250.297 289.401 248.56 289.855 246.59C290.336 244.619 290.616 242.485 290.697 240.187C290.884 236.356 290.71 232.826 290.176 229.597C289.642 226.341 288.734 223.44 287.452 220.896C286.197 218.351 284.555 216.203 282.525 214.451C280.522 212.673 278.119 211.318 275.315 210.388C272.511 209.458 269.306 208.993 265.701 208.993C262.39 208.993 259.332 209.512 256.528 210.552C253.724 211.592 251.214 213.097 248.997 215.067C246.781 217.01 244.871 219.35 243.269 222.086C241.693 224.795 240.452 227.846 239.544 231.239C238.662 234.604 238.142 238.216 237.982 242.075C237.795 246.124 237.995 249.818 238.582 253.157C239.197 256.495 240.185 259.45 241.547 262.022C242.909 264.595 244.618 266.756 246.674 268.507C248.757 270.286 251.16 271.627 253.884 272.53C256.635 273.433 259.679 273.884 263.017 273.884C265.367 273.884 267.744 273.611 270.147 273.063C272.577 272.516 274.62 271.791 276.276 270.888L277.798 276.347C275.929 277.578 273.592 278.495 270.788 279.097C267.984 279.699 265.34 280 262.857 280C258.718 280 254.926 279.453 251.481 278.358C248.063 277.264 245.032 275.649 242.388 273.515C239.771 271.408 237.594 268.822 235.858 265.757C234.123 262.693 232.841 259.177 232.013 255.209C231.185 251.241 230.865 246.863 231.052 242.075C231.239 237.587 231.906 233.373 233.055 229.433C234.203 225.465 235.778 221.867 237.781 218.638C239.811 215.409 242.214 212.632 244.992 210.306C247.795 207.953 250.947 206.147 254.445 204.888C257.943 203.629 261.749 203 265.861 203C270.027 203 273.793 203.561 277.157 204.683C280.522 205.805 283.473 207.433 286.01 209.567C288.574 211.701 290.697 214.287 292.379 217.325C294.061 220.362 295.29 223.796 296.064 227.627C296.839 231.43 297.132 235.576 296.945 240.063ZM256.207 243.963C256.021 245.823 256.007 247.479 256.167 248.929C256.354 250.379 256.688 251.597 257.169 252.582C257.676 253.567 258.33 254.32 259.132 254.84C259.933 255.359 260.867 255.619 261.936 255.619C262.603 255.619 263.311 255.455 264.059 255.127C264.833 254.771 265.594 254.21 266.342 253.444C267.09 252.678 267.797 251.665 268.465 250.407C269.133 249.121 269.693 247.534 270.147 245.646L273.192 249.216C272.577 251.351 271.803 253.239 270.868 254.881C269.934 256.495 268.879 257.85 267.704 258.944C266.529 260.011 265.26 260.832 263.898 261.407C262.536 261.954 261.121 262.228 259.652 262.228C257.703 262.228 255.967 261.79 254.445 260.914C252.95 260.039 251.721 258.807 250.76 257.22C249.798 255.606 249.117 253.69 248.717 251.474C248.316 249.23 248.236 246.726 248.476 243.963C248.744 241.144 249.251 238.531 249.999 236.123C250.773 233.715 251.721 231.567 252.843 229.679C253.991 227.791 255.286 226.19 256.728 224.877C258.17 223.536 259.719 222.524 261.375 221.84C263.057 221.128 264.78 220.772 266.542 220.772C269.56 220.772 271.923 221.21 273.632 222.086C275.341 222.961 276.957 223.988 278.479 225.164L274.714 230.09C273.939 229.351 272.925 228.653 271.669 227.996C270.441 227.34 268.972 227.011 267.263 227.011C265.741 227.011 264.352 227.367 263.097 228.078C261.869 228.79 260.787 229.871 259.853 231.321C258.918 232.744 258.13 234.509 257.489 236.616C256.875 238.723 256.448 241.172 256.207 243.963Z" fill="#A78FE6"/>
<rect width="116" height="22" transform="translate(206 231)" fill="white"/>
<path d="M238.812 237.047V247H237.485L232.475 239.323V247H231.155V237.047H232.475L237.506 244.744V237.047H238.812ZM244.027 247.137C243.512 247.137 243.045 247.05 242.626 246.877C242.211 246.699 241.854 246.451 241.553 246.132C241.257 245.813 241.029 245.435 240.869 244.997C240.71 244.56 240.63 244.081 240.63 243.562V243.274C240.63 242.673 240.719 242.137 240.896 241.668C241.074 241.194 241.316 240.793 241.621 240.465C241.926 240.137 242.273 239.888 242.66 239.72C243.048 239.551 243.449 239.467 243.863 239.467C244.392 239.467 244.848 239.558 245.23 239.74C245.618 239.923 245.935 240.178 246.181 240.506C246.427 240.829 246.609 241.212 246.728 241.654C246.846 242.092 246.905 242.57 246.905 243.09V243.657H241.382V242.625H245.641V242.529C245.622 242.201 245.554 241.882 245.436 241.572C245.322 241.262 245.139 241.007 244.889 240.807C244.638 240.606 244.296 240.506 243.863 240.506C243.576 240.506 243.312 240.567 243.07 240.69C242.829 240.809 242.621 240.987 242.448 241.224C242.275 241.461 242.141 241.75 242.045 242.092C241.949 242.434 241.901 242.828 241.901 243.274V243.562C241.901 243.912 241.949 244.243 242.045 244.553C242.145 244.858 242.289 245.127 242.476 245.359C242.667 245.592 242.897 245.774 243.166 245.906C243.439 246.038 243.749 246.104 244.096 246.104C244.542 246.104 244.921 246.013 245.23 245.831C245.54 245.649 245.812 245.405 246.044 245.1L246.81 245.708C246.65 245.95 246.447 246.18 246.201 246.398C245.955 246.617 245.652 246.795 245.292 246.932C244.937 247.068 244.515 247.137 244.027 247.137ZM250.255 245.688L252.155 239.604H252.989L252.825 240.813L250.891 247H250.077L250.255 245.688ZM248.977 239.604L250.597 245.756L250.713 247H249.858L247.712 239.604H248.977ZM254.808 245.708L256.353 239.604H257.61L255.464 247H254.616L254.808 245.708ZM253.174 239.604L255.033 245.585L255.245 247H254.438L252.449 240.8L252.285 239.604H253.174ZM263.216 245.038C263.216 244.856 263.175 244.687 263.093 244.532C263.015 244.373 262.854 244.229 262.607 244.102C262.366 243.969 262.001 243.855 261.514 243.76C261.104 243.673 260.732 243.571 260.399 243.452C260.071 243.334 259.791 243.19 259.559 243.021C259.331 242.853 259.155 242.655 259.032 242.427C258.909 242.199 258.848 241.932 258.848 241.627C258.848 241.335 258.911 241.06 259.039 240.8C259.171 240.54 259.356 240.31 259.593 240.109C259.834 239.909 260.124 239.752 260.461 239.638C260.798 239.524 261.174 239.467 261.589 239.467C262.181 239.467 262.687 239.572 263.106 239.781C263.526 239.991 263.847 240.271 264.07 240.622C264.294 240.968 264.405 241.354 264.405 241.777H263.141C263.141 241.572 263.079 241.374 262.956 241.183C262.838 240.987 262.662 240.825 262.43 240.697C262.202 240.57 261.922 240.506 261.589 240.506C261.238 240.506 260.953 240.561 260.734 240.67C260.52 240.775 260.363 240.909 260.263 241.073C260.167 241.237 260.119 241.41 260.119 241.593C260.119 241.729 260.142 241.853 260.188 241.962C260.238 242.067 260.324 242.165 260.447 242.256C260.57 242.342 260.743 242.424 260.967 242.502C261.19 242.579 261.475 242.657 261.821 242.734C262.427 242.871 262.926 243.035 263.318 243.227C263.71 243.418 264.002 243.653 264.193 243.931C264.385 244.209 264.48 244.546 264.48 244.942C264.48 245.266 264.412 245.562 264.275 245.831C264.143 246.1 263.95 246.332 263.694 246.528C263.444 246.72 263.143 246.87 262.792 246.979C262.446 247.084 262.056 247.137 261.623 247.137C260.971 247.137 260.42 247.021 259.969 246.788C259.518 246.556 259.176 246.255 258.943 245.886C258.711 245.517 258.595 245.127 258.595 244.717H259.866C259.884 245.063 259.985 245.339 260.167 245.544C260.349 245.744 260.573 245.888 260.837 245.975C261.101 246.057 261.363 246.098 261.623 246.098C261.969 246.098 262.259 246.052 262.491 245.961C262.728 245.87 262.908 245.744 263.031 245.585C263.154 245.425 263.216 245.243 263.216 245.038ZM267.516 236.5V247H266.244V236.5H267.516ZM272.615 247.137C272.1 247.137 271.633 247.05 271.214 246.877C270.799 246.699 270.441 246.451 270.141 246.132C269.844 245.813 269.617 245.435 269.457 244.997C269.298 244.56 269.218 244.081 269.218 243.562V243.274C269.218 242.673 269.307 242.137 269.484 241.668C269.662 241.194 269.904 240.793 270.209 240.465C270.514 240.137 270.861 239.888 271.248 239.72C271.635 239.551 272.036 239.467 272.451 239.467C272.98 239.467 273.436 239.558 273.818 239.74C274.206 239.923 274.522 240.178 274.769 240.506C275.015 240.829 275.197 241.212 275.315 241.654C275.434 242.092 275.493 242.57 275.493 243.09V243.657H269.97V242.625H274.229V242.529C274.21 242.201 274.142 241.882 274.023 241.572C273.91 241.262 273.727 241.007 273.477 240.807C273.226 240.606 272.884 240.506 272.451 240.506C272.164 240.506 271.9 240.567 271.658 240.69C271.417 240.809 271.209 240.987 271.036 241.224C270.863 241.461 270.729 241.75 270.633 242.092C270.537 242.434 270.489 242.828 270.489 243.274V243.562C270.489 243.912 270.537 244.243 270.633 244.553C270.733 244.858 270.877 245.127 271.063 245.359C271.255 245.592 271.485 245.774 271.754 245.906C272.027 246.038 272.337 246.104 272.684 246.104C273.13 246.104 273.508 246.013 273.818 245.831C274.128 245.649 274.399 245.405 274.632 245.1L275.397 245.708C275.238 245.95 275.035 246.18 274.789 246.398C274.543 246.617 274.24 246.795 273.88 246.932C273.524 247.068 273.103 247.137 272.615 247.137ZM280.066 239.604V240.574H276.067V239.604H280.066ZM277.421 237.806H278.686V245.168C278.686 245.419 278.724 245.608 278.802 245.735C278.879 245.863 278.979 245.947 279.103 245.988C279.226 246.029 279.358 246.05 279.499 246.05C279.604 246.05 279.713 246.041 279.827 246.022C279.946 246 280.035 245.981 280.094 245.968L280.101 247C280 247.032 279.868 247.062 279.704 247.089C279.545 247.121 279.351 247.137 279.123 247.137C278.813 247.137 278.528 247.075 278.269 246.952C278.009 246.829 277.801 246.624 277.646 246.337C277.496 246.045 277.421 245.653 277.421 245.161V237.806ZM284.646 239.604V240.574H280.647V239.604H284.646ZM282.001 237.806H283.266V245.168C283.266 245.419 283.304 245.608 283.382 245.735C283.459 245.863 283.56 245.947 283.683 245.988C283.806 246.029 283.938 246.05 284.079 246.05C284.184 246.05 284.293 246.041 284.407 246.022C284.526 246 284.615 245.981 284.674 245.968L284.681 247C284.58 247.032 284.448 247.062 284.284 247.089C284.125 247.121 283.931 247.137 283.703 247.137C283.393 247.137 283.108 247.075 282.849 246.952C282.589 246.829 282.382 246.624 282.227 246.337C282.076 246.045 282.001 245.653 282.001 245.161V237.806ZM289.199 247.137C288.684 247.137 288.217 247.05 287.798 246.877C287.383 246.699 287.025 246.451 286.725 246.132C286.428 245.813 286.201 245.435 286.041 244.997C285.882 244.56 285.802 244.081 285.802 243.562V243.274C285.802 242.673 285.891 242.137 286.068 241.668C286.246 241.194 286.488 240.793 286.793 240.465C287.098 240.137 287.445 239.888 287.832 239.72C288.219 239.551 288.62 239.467 289.035 239.467C289.564 239.467 290.02 239.558 290.402 239.74C290.79 239.923 291.106 240.178 291.353 240.506C291.599 240.829 291.781 241.212 291.899 241.654C292.018 242.092 292.077 242.57 292.077 243.09V243.657H286.554V242.625H290.812V242.529C290.794 242.201 290.726 241.882 290.607 241.572C290.493 241.262 290.311 241.007 290.061 240.807C289.81 240.606 289.468 240.506 289.035 240.506C288.748 240.506 288.484 240.567 288.242 240.69C288.001 240.809 287.793 240.987 287.62 241.224C287.447 241.461 287.312 241.75 287.217 242.092C287.121 242.434 287.073 242.828 287.073 243.274V243.562C287.073 243.912 287.121 244.243 287.217 244.553C287.317 244.858 287.461 245.127 287.647 245.359C287.839 245.592 288.069 245.774 288.338 245.906C288.611 246.038 288.921 246.104 289.268 246.104C289.714 246.104 290.092 246.013 290.402 245.831C290.712 245.649 290.983 245.405 291.216 245.1L291.981 245.708C291.822 245.95 291.619 246.18 291.373 246.398C291.127 246.617 290.824 246.795 290.464 246.932C290.108 247.068 289.687 247.137 289.199 247.137ZM294.818 240.766V247H293.554V239.604H294.784L294.818 240.766ZM297.129 239.562L297.122 240.738C297.017 240.715 296.917 240.702 296.821 240.697C296.73 240.688 296.625 240.684 296.507 240.684C296.215 240.684 295.958 240.729 295.734 240.82C295.511 240.911 295.322 241.039 295.167 241.203C295.012 241.367 294.889 241.563 294.798 241.791C294.711 242.014 294.654 242.26 294.627 242.529L294.271 242.734C294.271 242.288 294.315 241.868 294.401 241.477C294.493 241.085 294.632 240.738 294.818 240.438C295.005 240.132 295.242 239.895 295.529 239.727C295.821 239.553 296.167 239.467 296.568 239.467C296.66 239.467 296.764 239.478 296.883 239.501C297.001 239.519 297.083 239.54 297.129 239.562Z" fill="black"/>
<path d="M310 205.996C310.122 205.841 310.229 205.673 310.369 205.533C311.248 204.645 312.131 203.76 313.018 202.879C313.39 202.51 313.929 202.623 314.088 203.094C314.128 203.202 314.136 203.32 314.11 203.432C314.084 203.544 314.025 203.647 313.942 203.726C312.99 204.688 312.04 205.645 311.077 206.592C310.718 206.945 310.303 206.837 310 206.34V205.996Z" fill="#090B12"/>
<path d="M316.653 212.998C316.596 212.962 316.538 212.927 316.481 212.889C316.144 212.668 316.103 212.211 316.403 211.906C316.894 211.406 317.393 210.913 317.888 210.417C318.336 209.968 318.781 209.514 319.237 209.067C319.466 208.84 319.764 208.805 320.021 208.959C320.14 209.028 320.231 209.136 320.281 209.264C320.33 209.392 320.334 209.533 320.293 209.663C320.25 209.784 320.181 209.893 320.09 209.984C319.164 210.919 318.233 211.85 317.299 212.779C317.204 212.861 317.103 212.934 316.996 213L316.653 212.998Z" fill="#090B12"/>
<path d="M331.999 191.762C331.972 191.886 331.938 192.008 331.898 192.128C329.674 197.793 327.45 203.458 325.225 209.123C325.097 209.447 324.899 209.676 324.526 209.69C324.137 209.704 323.905 209.492 323.755 209.155C322.763 206.942 321.771 204.728 320.779 202.513C320.751 202.445 320.711 202.383 320.659 202.331C320.607 202.279 320.546 202.238 320.478 202.21C318.264 201.222 316.051 200.229 313.839 199.231C313.502 199.08 313.291 198.849 313.305 198.46C313.32 198.088 313.546 197.891 313.873 197.762C319.54 195.534 325.207 193.304 330.873 191.073C331.454 190.845 331.977 191.173 331.999 191.762ZM324.454 207.646C326.429 202.619 328.385 197.643 330.36 192.626L315.361 198.528C315.418 198.559 315.443 198.574 315.469 198.586C317.271 199.395 319.072 200.206 320.873 201.018C321.013 201.082 321.078 201.028 321.164 200.942C322.225 199.877 323.287 198.813 324.35 197.751C324.431 197.671 324.507 197.585 324.594 197.51C324.684 197.426 324.797 197.372 324.919 197.354C325.04 197.337 325.164 197.357 325.274 197.412C325.517 197.522 325.666 197.73 325.618 197.995C325.585 198.181 325.498 198.353 325.37 198.491C324.276 199.604 323.174 200.708 322.065 201.804C321.945 201.922 321.916 202.011 321.991 202.171C322.265 202.751 322.522 203.34 322.786 203.927L324.454 207.646Z" fill="#090B12"/>
<path d="M318.169 204.089C318.52 204.096 318.715 204.204 318.828 204.426C318.882 204.527 318.907 204.642 318.899 204.757C318.891 204.872 318.851 204.982 318.784 205.076C318.75 205.122 318.711 205.165 318.669 205.204C317.214 206.661 315.76 208.117 314.307 209.573C314.147 209.734 313.963 209.834 313.734 209.797C313.616 209.784 313.504 209.736 313.413 209.659C313.322 209.583 313.256 209.481 313.222 209.367C313.139 209.117 313.209 208.902 313.389 208.72C313.903 208.203 314.418 207.687 314.935 207.171C315.885 206.221 316.831 205.267 317.789 204.324C317.911 204.203 318.092 204.136 318.169 204.089Z" fill="#090B12"/>
<circle cx="470" cy="110" r="9" fill="#A78FE6"/>
<circle cx="504" cy="78" r="19" fill="#A78FE6"/>
<path d="M114 218V266.5" stroke="#090B12" stroke-width="3" stroke-linecap="round"/>
<path d="M90 242L138.5 242" stroke="#090B12" stroke-width="3" stroke-linecap="round"/>
<defs>
<filter id="filter0_d_1006_1425" x="8" y="26" width="212" height="192" filterUnits="userSpaceOnUse" color-interpolation-filters="sRGB">
<feFlood flood-opacity="0" result="BackgroundImageFix"/>
<feColorMatrix in="SourceAlpha" type="matrix" values="0 0 0 0 0 0 0 0 0 0 0 0 0 0 0 0 0 0 127 0" result="hardAlpha"/>
<feOffset dy="16"/>
<feGaussianBlur stdDeviation="16"/>
<feComposite in2="hardAlpha" operator="out"/>
<feColorMatrix type="matrix" values="0 0 0 0 0 0 0 0 0 0 0 0 0 0 0 0 0 0 0.06 0"/>
<feBlend mode="normal" in2="BackgroundImageFix" result="effect1_dropShadow_1006_1425"/>
<feBlend mode="normal" in="SourceGraphic" in2="effect1_dropShadow_1006_1425" result="shape"/>
</filter>
<filter id="filter1_d_1006_1425" x="8" y="162" width="212" height="192" filterUnits="userSpaceOnUse" color-interpolation-filters="sRGB">
<feFlood flood-opacity="0" result="BackgroundImageFix"/>
<feColorMatrix in="SourceAlpha" type="matrix" values="0 0 0 0 0 0 0 0 0 0 0 0 0 0 0 0 0 0 127 0" result="hardAlpha"/>
<feOffset dy="16"/>
<feGaussianBlur stdDeviation="16"/>
<feComposite in2="hardAlpha" operator="out"/>
<feColorMatrix type="matrix" values="0 0 0 0 0 0 0 0 0 0 0 0 0 0 0 0 0 0 0.06 0"/>
<feBlend mode="normal" in2="BackgroundImageFix" result="effect1_dropShadow_1006_1425"/>
<feBlend mode="normal" in="SourceGraphic" in2="effect1_dropShadow_1006_1425" result="shape"/>
</filter>
<filter id="filter2_d_1006_1425" x="164" y="26" width="212" height="192" filterUnits="userSpaceOnUse" color-interpolation-filters="sRGB">
<feFlood flood-opacity="0" result="BackgroundImageFix"/>
<feColorMatrix in="SourceAlpha" type="matrix" values="0 0 0 0 0 0 0 0 0 0 0 0 0 0 0 0 0 0 127 0" result="hardAlpha"/>
<feOffset dy="16"/>
<feGaussianBlur stdDeviation="16"/>
<feComposite in2="hardAlpha" operator="out"/>
<feColorMatrix type="matrix" values="0 0 0 0 0 0 0 0 0 0 0 0 0 0 0 0 0 0 0.06 0"/>
<feBlend mode="normal" in2="BackgroundImageFix" result="effect1_dropShadow_1006_1425"/>
<feBlend mode="normal" in="SourceGraphic" in2="effect1_dropShadow_1006_1425" result="shape"/>
</filter>
<filter id="filter3_d_1006_1425" x="164" y="162" width="212" height="192" filterUnits="userSpaceOnUse" color-interpolation-filters="sRGB">
<feFlood flood-opacity="0" result="BackgroundImageFix"/>
<feColorMatrix in="SourceAlpha" type="matrix" values="0 0 0 0 0 0 0 0 0 0 0 0 0 0 0 0 0 0 127 0" result="hardAlpha"/>
<feOffset dy="16"/>
<feGaussianBlur stdDeviation="16"/>
<feComposite in2="hardAlpha" operator="out"/>
<feColorMatrix type="matrix" values="0 0 0 0 0 0 0 0 0 0 0 0 0 0 0 0 0 0 0.06 0"/>
<feBlend mode="normal" in2="BackgroundImageFix" result="effect1_dropShadow_1006_1425"/>
<feBlend mode="normal" in="SourceGraphic" in2="effect1_dropShadow_1006_1425" result="shape"/>
</filter>
<linearGradient id="paint0_linear_1006_1425" x1="113.5" y1="94" x2="113.5" y2="221" gradientUnits="userSpaceOnUse">
<stop stop-color="#FFA3AC"/>
<stop offset="1" stop-color="#FF8591"/>
</linearGradient>
<clipPath id="clip0_1006_1425">
<rect x="40" y="42" width="148" height="128" rx="20" fill="white"/>
</clipPath>
<clipPath id="clip1_1006_1425">
<rect width="49" height="49" fill="white" transform="translate(246 82)"/>
</clipPath>
</defs>
</svg>
