<svg width="39" height="39" viewBox="0 0 39 39" fill="none" xmlns="http://www.w3.org/2000/svg">
<circle cx="19.8839" cy="19.4952" r="19.0284" fill="#E6001E"/>
<path fill-rule="evenodd" clip-rule="evenodd" d="M20.9347 10.5175C20.9347 9.93723 20.4643 9.4668 19.8839 9.4668C19.3036 9.4668 18.8332 9.93723 18.8332 10.5175V18.4434H10.9069C10.3266 18.4434 9.8562 18.9138 9.8562 19.4942C9.8562 20.0745 10.3266 20.5449 10.9069 20.5449H18.8332V28.4715C18.8332 29.0518 19.3036 29.5223 19.8839 29.5223C20.4643 29.5223 20.9347 29.0518 20.9347 28.4715V20.5449H28.8609C29.4412 20.5449 29.9117 20.0745 29.9117 19.4942C29.9117 18.9138 29.4412 18.4434 28.8609 18.4434H20.9347V10.5175Z" fill="#FEFEFE"/>
</svg>
