<svg width="529" height="391" viewBox="0 0 529 391" fill="none" xmlns="http://www.w3.org/2000/svg">
<rect y="0.189453" width="529" height="390" rx="20" fill="#FAF9F6"/>
<path d="M342.58 226.853H268.91V273.925H342.58V226.853Z" fill="#B8D9BA"/>
<path d="M379.916 287.342H268.91V278.455L347.25 278.592V249.393H373.464L379.916 269.627V287.342Z" fill="white"/>
<path d="M379.918 288.15H268.911C268.805 288.15 268.7 288.129 268.601 288.088C268.503 288.047 268.414 287.987 268.339 287.912C268.264 287.837 268.204 287.747 268.164 287.649C268.124 287.55 268.103 287.445 268.104 287.338V278.452C268.104 278.237 268.189 278.032 268.34 277.88C268.413 277.801 268.502 277.739 268.601 277.698C268.701 277.657 268.808 277.639 268.915 277.644L346.444 277.776V249.393C346.443 249.287 346.464 249.181 346.504 249.083C346.544 248.984 346.604 248.895 346.679 248.819C346.754 248.744 346.843 248.684 346.941 248.643C347.04 248.602 347.145 248.582 347.251 248.582H373.466C373.638 248.581 373.806 248.636 373.945 248.737C374.085 248.839 374.188 248.982 374.24 249.146L380.689 269.38C380.715 269.459 380.729 269.541 380.729 269.624V287.331C380.73 287.438 380.71 287.545 380.67 287.644C380.629 287.743 380.57 287.833 380.494 287.91C380.419 287.986 380.329 288.046 380.23 288.087C380.131 288.129 380.025 288.15 379.918 288.15ZM269.723 286.53H379.106V269.753L372.875 250.201H348.063V278.606C348.063 278.713 348.043 278.819 348.002 278.918C347.962 279.016 347.902 279.106 347.827 279.182C347.674 279.333 347.467 279.418 347.251 279.418L269.723 279.285V286.53Z" fill="black"/>
<path d="M378.241 270.177H357.276C357.17 270.178 357.064 270.157 356.965 270.116C356.867 270.076 356.777 270.016 356.701 269.941C356.626 269.865 356.566 269.775 356.526 269.677C356.485 269.578 356.464 269.472 356.465 269.366V251.16C356.464 251.054 356.485 250.948 356.526 250.849C356.566 250.75 356.626 250.661 356.701 250.585C356.777 250.51 356.867 250.45 356.965 250.409C357.064 250.369 357.17 250.348 357.276 250.349C357.492 250.349 357.698 250.434 357.85 250.586C358.003 250.739 358.088 250.945 358.088 251.16V268.558H378.241C378.456 268.558 378.663 268.643 378.815 268.795C378.967 268.948 379.053 269.154 379.053 269.369C379.053 269.476 379.032 269.581 378.991 269.679C378.95 269.778 378.89 269.867 378.815 269.942C378.739 270.017 378.65 270.076 378.551 270.117C378.453 270.157 378.348 270.178 378.241 270.177Z" fill="black"/>
<path d="M371.225 290.645C372.215 286.453 369.619 282.253 365.427 281.264C361.235 280.274 357.035 282.87 356.045 287.062C355.056 291.254 357.652 295.454 361.844 296.444C366.036 297.433 370.236 294.837 371.225 290.645Z" fill="black"/>
<path d="M289.217 289.142C293.179 287.505 295.065 282.966 293.428 279.004C291.791 275.041 287.252 273.156 283.29 274.792C279.327 276.429 277.442 280.968 279.079 284.931C280.715 288.893 285.254 290.779 289.217 289.142Z" fill="black"/>
<path d="M285.076 296.594H256.833C256.618 296.594 256.411 296.508 256.259 296.356C256.107 296.204 256.021 295.998 256.021 295.782C256.022 295.567 256.108 295.361 256.26 295.209C256.412 295.057 256.618 294.972 256.833 294.971H285.076C285.291 294.972 285.496 295.058 285.648 295.21C285.799 295.362 285.884 295.568 285.884 295.782C285.885 295.889 285.864 295.994 285.824 296.093C285.783 296.191 285.724 296.28 285.649 296.356C285.574 296.431 285.484 296.491 285.386 296.532C285.288 296.573 285.183 296.594 285.076 296.594Z" fill="black"/>
<path d="M273.165 288.15H244.925C244.819 288.15 244.713 288.129 244.615 288.088C244.517 288.047 244.428 287.987 244.353 287.912C244.277 287.836 244.218 287.747 244.178 287.649C244.137 287.55 244.117 287.445 244.117 287.338C244.117 287.124 244.202 286.918 244.354 286.767C244.505 286.615 244.711 286.53 244.925 286.53H273.165C273.271 286.53 273.376 286.55 273.475 286.591C273.573 286.631 273.663 286.691 273.738 286.766C273.814 286.841 273.873 286.93 273.914 287.028C273.955 287.126 273.976 287.232 273.976 287.338C273.977 287.445 273.956 287.551 273.915 287.649C273.875 287.748 273.815 287.838 273.74 287.913C273.664 287.989 273.574 288.048 273.476 288.089C273.377 288.13 273.271 288.15 273.165 288.15Z" fill="black"/>
<path d="M453.367 285.98H400.364C400.092 285.98 399.832 285.915 399.64 285.801C399.448 285.686 399.34 285.53 399.34 285.368C399.339 285.288 399.365 285.208 399.417 285.134C399.468 285.059 399.543 284.992 399.638 284.935C399.734 284.878 399.847 284.833 399.971 284.802C400.096 284.772 400.229 284.756 400.364 284.756H453.367C453.502 284.756 453.635 284.772 453.76 284.802C453.884 284.833 453.997 284.878 454.093 284.935C454.188 284.992 454.263 285.059 454.314 285.134C454.366 285.208 454.392 285.288 454.391 285.368C454.391 285.448 454.365 285.528 454.313 285.602C454.262 285.676 454.186 285.744 454.091 285.801C453.996 285.857 453.883 285.902 453.759 285.933C453.635 285.964 453.502 285.98 453.367 285.98Z" fill="black"/>
<path d="M232.21 287.203H193.341C193.142 287.203 192.951 287.138 192.81 287.024C192.669 286.909 192.59 286.753 192.59 286.591C192.589 286.511 192.608 286.431 192.646 286.357C192.684 286.282 192.739 286.215 192.809 286.158C192.879 286.101 192.962 286.056 193.053 286.025C193.144 285.995 193.242 285.979 193.341 285.979H232.21C232.309 285.979 232.406 285.995 232.498 286.025C232.589 286.056 232.672 286.101 232.742 286.158C232.812 286.215 232.867 286.282 232.905 286.357C232.942 286.431 232.961 286.511 232.961 286.591C232.961 286.671 232.941 286.751 232.904 286.825C232.866 286.899 232.811 286.967 232.741 287.024C232.671 287.08 232.588 287.126 232.497 287.156C232.406 287.187 232.308 287.203 232.21 287.203Z" fill="black"/>
<path d="M494.999 242.045C494.999 255.618 470.041 285.477 470.041 285.477C470.041 285.477 445.084 255.618 445.084 242.045C445.082 238.819 445.726 235.624 446.979 232.642C448.232 229.661 450.07 226.952 452.388 224.67C454.706 222.388 457.458 220.577 460.487 219.342C463.516 218.107 466.763 217.471 470.041 217.471C473.32 217.471 476.567 218.107 479.596 219.342C482.625 220.577 485.377 222.388 487.695 224.67C490.012 226.952 491.85 229.661 493.104 232.642C494.357 235.624 495.001 238.819 494.999 242.045Z" fill="#B8D9BA"/>
<path d="M470.047 255.153C476.937 255.153 482.523 249.651 482.523 242.865C482.523 236.078 476.937 230.577 470.047 230.577C463.158 230.577 457.572 236.078 457.572 242.865C457.572 249.651 463.158 255.153 470.047 255.153Z" fill="white"/>
<path d="M71.4449 278.028H65.3933C63.3482 278.028 61.6219 276.496 61.3788 274.462L60.7331 269.393C59.4444 268.975 58.2017 268.459 57.0211 267.856L52.9849 270.993C51.3477 272.26 49.0433 272.114 47.6223 270.652L43.3672 266.397C41.9165 264.99 41.7706 262.685 43.0376 261.051L46.1742 257.012C45.569 255.831 45.053 254.589 44.637 253.3L39.558 252.654C37.5318 252.406 36 250.679 36 248.634V242.583C36 240.538 37.5318 238.811 39.5661 238.568L44.6343 237.923C45.053 236.634 45.569 235.391 46.1715 234.211L43.0376 230.174C41.7679 228.537 41.9165 226.23 43.3808 224.809L47.6358 220.554C49.0433 219.103 51.3504 218.96 52.9822 220.224L57.0184 223.364C58.199 222.761 59.4417 222.245 60.7331 221.826L61.3788 216.747C61.6219 214.721 63.3482 213.189 65.3933 213.189H71.4449C73.49 213.189 75.2163 214.721 75.4595 216.756L76.1051 221.824C77.3965 222.242 78.6392 222.758 79.8198 223.361L83.856 220.224C85.4959 218.957 87.7976 219.103 89.2187 220.568L93.4737 224.823C94.9244 226.23 95.0703 228.534 93.8033 230.169L90.6667 234.208C91.2719 235.388 91.7879 236.631 92.2039 237.92L97.2829 238.566C99.3064 238.811 100.838 240.538 100.838 242.583V248.634C100.838 250.679 99.3064 252.406 97.2721 252.649L92.2039 253.295C91.7852 254.583 91.2692 255.826 90.6667 257.007L93.8033 261.043C95.073 262.68 94.9244 264.984 93.4602 266.405L89.2052 270.66C87.7976 272.111 85.4905 272.26 83.8587 270.99L79.8198 267.853C78.6392 268.459 77.3965 268.975 76.1078 269.391L75.4622 274.47C75.2163 276.496 73.49 278.028 71.4449 278.028ZM56.8833 264.898C57.1075 264.898 57.3372 264.955 57.5425 265.068C59.0311 265.9 60.6439 266.57 62.3351 267.057C62.8538 267.205 63.2348 267.648 63.3023 268.183L64.0587 274.127C64.1398 274.805 64.726 275.326 65.3933 275.326H71.4449C72.1122 275.326 72.6984 274.805 72.7768 274.14L73.5359 268.186C73.6035 267.651 73.9844 267.208 74.5031 267.059C76.1943 266.573 77.8071 265.903 79.2957 265.071C79.7685 264.806 80.3574 264.852 80.7816 265.184L85.5094 268.858C86.0524 269.28 86.8143 269.245 87.2789 268.767L91.5609 264.485C92.0499 264.009 92.0878 263.247 91.6663 262.702L87.9921 257.974C87.6599 257.547 87.6139 256.961 87.8787 256.488C88.7108 254.999 89.3808 253.386 89.8671 251.695C90.0156 251.177 90.4587 250.796 90.9936 250.728L96.9371 249.972C97.6152 249.888 98.1366 249.302 98.1366 248.634V242.583C98.1366 241.915 97.6152 241.329 96.9506 241.251L90.9963 240.492C90.4614 240.424 90.0183 240.043 89.8698 239.525C89.3835 237.833 88.7135 236.221 87.8814 234.732C87.6166 234.259 87.6599 233.673 87.9949 233.246L91.669 228.518C92.0932 227.973 92.0553 227.211 91.5799 226.751L87.2978 222.469C86.8251 221.978 86.0605 221.94 85.5148 222.364L80.787 226.038C80.3574 226.371 79.7712 226.416 79.2984 226.152C77.8152 225.32 76.2024 224.652 74.5058 224.163C73.9871 224.015 73.6062 223.572 73.5386 223.037L72.7822 217.093C72.6984 216.412 72.1122 215.891 71.4449 215.891H65.3933C64.726 215.891 64.1398 216.412 64.0614 217.077L63.3023 223.031C63.2348 223.566 62.8538 224.009 62.3351 224.161C60.6385 224.647 59.0257 225.317 57.5425 226.146C57.0697 226.414 56.4835 226.365 56.0539 226.036L51.3261 222.361C50.7804 221.937 50.0213 221.975 49.5593 222.451L45.2773 226.735C44.7883 227.211 44.7505 227.973 45.1719 228.518L48.8461 233.246C49.1784 233.673 49.2243 234.259 48.9595 234.732C48.1247 236.221 47.4575 237.833 46.9712 239.525C46.8226 240.043 46.3795 240.424 45.8446 240.492L39.9011 241.248C39.223 241.329 38.7016 241.915 38.7016 242.583V248.634C38.7016 249.302 39.223 249.888 39.8876 249.966L45.8419 250.725C46.3768 250.793 46.8199 251.174 46.9685 251.693C47.4548 253.384 48.1247 254.997 48.9568 256.485C49.2216 256.958 49.1784 257.544 48.8434 257.971L45.1692 262.699C44.7451 263.245 44.7829 264.006 45.2584 264.466L49.5404 268.748C50.0132 269.237 50.7723 269.275 51.3234 268.853L56.0512 265.179C56.2971 264.995 56.5888 264.898 56.8833 264.898Z" fill="black"/>
<path d="M68.4181 259.117C60.9698 259.117 54.9102 253.057 54.9102 245.609C54.9102 238.16 60.9698 232.101 68.4181 232.101C75.8664 232.101 81.9261 238.16 81.9261 245.609C81.9261 253.057 75.8664 259.117 68.4181 259.117ZM68.4181 234.802C62.4584 234.802 57.6117 239.649 57.6117 245.609C57.6117 251.568 62.4584 256.415 68.4181 256.415C74.3778 256.415 79.2245 251.568 79.2245 245.609C79.2245 239.649 74.3778 234.802 68.4181 234.802Z" fill="black"/>
<path d="M122.859 271.509V349.594L99.9337 338.783L88.287 333.284L65.3613 322.47V244.385L88.816 255.452L100.801 261.107L122.859 271.509Z" fill="white"/>
<path d="M122.859 349.594L181.578 322.473L181.581 244.385L122.859 271.509V349.594Z" fill="white"/>
<path d="M123.438 349.594C123.327 349.596 123.217 349.563 123.124 349.5C123.042 349.447 122.975 349.373 122.929 349.286C122.882 349.199 122.859 349.101 122.859 349.003V271.793C122.86 271.679 122.892 271.568 122.953 271.473C123.013 271.377 123.099 271.302 123.2 271.255L180.761 244.438C180.85 244.397 180.947 244.38 181.044 244.387C181.141 244.394 181.234 244.425 181.316 244.479C181.397 244.533 181.464 244.607 181.51 244.694C181.556 244.78 181.581 244.877 181.581 244.976V322.186C181.581 322.3 181.549 322.411 181.488 322.506C181.428 322.602 181.341 322.678 181.24 322.724L123.682 349.538C123.606 349.575 123.523 349.595 123.438 349.594ZM124.02 272.185V348.08L180.415 321.807V245.91L124.02 272.185Z" fill="black"/>
<path d="M181.581 245.608L123.43 272.522L101.153 262.2L89.0487 256.589L65.3613 245.608L123.43 218.694L141.865 227.232L155.388 233.485L181.581 245.608Z" fill="white"/>
<path d="M155.89 232.316L101.318 261.161L100.434 261.625V338.584L88.6055 333.103V258.012C88.6043 257.152 88.7877 256.303 89.1431 255.522C89.6897 254.32 90.6164 253.336 91.7777 252.723L142.293 226.035L155.89 232.316Z" fill="#CBE0CC" fill-opacity="0.42"/>
<path d="M122.823 272.523C122.738 272.522 122.654 272.504 122.577 272.468L64.4808 245.534C64.3788 245.486 64.2924 245.41 64.2318 245.314C64.1712 245.218 64.1389 245.107 64.1387 244.994C64.1386 244.88 64.1708 244.768 64.2314 244.673C64.292 244.577 64.3786 244.501 64.4808 244.453L122.574 217.524C122.651 217.489 122.734 217.471 122.819 217.471C122.903 217.471 122.986 217.489 123.063 217.524L181.239 244.453C181.342 244.501 181.428 244.577 181.489 244.673C181.549 244.768 181.582 244.88 181.581 244.994C181.581 245.107 181.549 245.218 181.488 245.314C181.428 245.41 181.341 245.486 181.239 245.534L123.063 272.463C122.988 272.5 122.906 272.52 122.823 272.523ZM66.1404 244.996L122.823 271.272L179.585 244.996L122.823 218.723L66.1404 244.996Z" fill="black"/>
<path d="M123.494 349.594C123.408 349.596 123.323 349.577 123.245 349.541L64.4847 322.724C64.3813 322.677 64.2938 322.601 64.2325 322.506C64.1711 322.41 64.1386 322.299 64.1387 322.186V244.976C64.1384 244.877 64.163 244.78 64.2102 244.693C64.2574 244.606 64.3258 244.532 64.409 244.479C64.4933 244.425 64.5895 244.394 64.6891 244.387C64.7886 244.38 64.8884 244.397 64.9794 244.438L123.735 271.255C123.839 271.301 123.927 271.377 123.989 271.472C124.051 271.568 124.084 271.679 124.083 271.793V349.003C124.084 349.101 124.06 349.199 124.013 349.286C123.965 349.373 123.897 349.447 123.813 349.5C123.719 349.562 123.608 349.595 123.494 349.594ZM65.3307 321.807L122.908 348.08V272.185L65.3307 245.912V321.807Z" fill="black"/>
<path d="M100.227 290.873C100.147 290.873 100.067 290.858 99.9929 290.828C99.9186 290.799 99.8512 290.755 99.7944 290.701C99.7376 290.646 99.6925 290.581 99.6618 290.51C99.6311 290.438 99.6152 290.362 99.6152 290.285V260.878C99.6152 260.721 99.6797 260.572 99.7944 260.461C99.9091 260.351 100.065 260.289 100.227 260.289C100.389 260.289 100.545 260.351 100.659 260.461C100.774 260.572 100.839 260.721 100.839 260.878V290.285C100.839 290.362 100.823 290.438 100.792 290.51C100.761 290.581 100.716 290.646 100.659 290.701C100.603 290.755 100.535 290.799 100.461 290.828C100.387 290.858 100.307 290.873 100.227 290.873Z" fill="black"/>
<path d="M163.229 325.127C163.068 325.128 162.909 325.113 162.76 325.083C162.611 325.054 162.476 325.01 162.363 324.956C162.249 324.901 162.159 324.836 162.098 324.764C162.036 324.693 162.005 324.616 162.006 324.539V313.482C162.005 313.405 162.036 313.328 162.098 313.256C162.159 313.185 162.249 313.12 162.363 313.065C162.476 313.01 162.611 312.967 162.76 312.938C162.909 312.908 163.068 312.893 163.229 312.894C163.554 312.894 163.865 312.956 164.094 313.066C164.324 313.176 164.453 313.326 164.453 313.482V324.539C164.453 324.695 164.324 324.844 164.094 324.955C163.865 325.065 163.554 325.127 163.229 325.127Z" fill="black"/>
<path d="M162.006 315.34L163.841 313.353L165.676 315.34V313.654L163.841 311.67L162.006 313.654V315.34Z" fill="black"/>
<path d="M171.793 311.67L173.629 309.683L175.463 311.67V309.984L173.629 308L171.793 309.984V311.67Z" fill="black"/>
<path d="M180.357 259.066C187.789 259.066 193.814 252.767 193.814 244.997C193.814 237.227 187.789 230.928 180.357 230.928C172.925 230.928 166.9 237.227 166.9 244.997C166.9 252.767 172.925 259.066 180.357 259.066Z" fill="#B8D9BA"/>
<path d="M179.099 252.949C178.956 252.949 178.815 252.911 178.688 252.839C178.562 252.766 178.454 252.662 178.375 252.534L173.163 244.178C173.1 244.076 173.056 243.962 173.034 243.842C173.012 243.722 173.012 243.598 173.035 243.478C173.058 243.359 173.103 243.245 173.167 243.143C173.231 243.042 173.313 242.955 173.409 242.888C173.504 242.819 173.611 242.772 173.723 242.748C173.836 242.724 173.951 242.725 174.064 242.749C174.176 242.773 174.283 242.82 174.378 242.889C174.473 242.957 174.554 243.045 174.617 243.147L179.11 250.351L187.326 237.453C187.457 237.249 187.658 237.108 187.885 237.062C188.112 237.015 188.348 237.067 188.539 237.205C188.634 237.274 188.716 237.362 188.778 237.464C188.841 237.566 188.885 237.681 188.906 237.801C188.927 237.921 188.926 238.044 188.903 238.164C188.879 238.284 188.834 238.397 188.769 238.498L179.826 252.543C179.745 252.669 179.636 252.771 179.51 252.842C179.383 252.913 179.242 252.949 179.099 252.949Z" fill="white"/>
<path d="M396.156 139.189H259C255.686 139.189 253 141.876 253 145.189V178.533C253 181.847 255.686 184.533 259 184.533H396.156C399.47 184.533 402.156 181.847 402.156 178.533V145.189C402.156 141.876 399.47 139.189 396.156 139.189Z" fill="#494949"/>
<path d="M363.584 157.364H308.446C308.133 157.364 307.833 157.238 307.611 157.014C307.39 156.79 307.266 156.486 307.266 156.169C307.266 155.853 307.39 155.549 307.611 155.325C307.833 155.1 308.133 154.975 308.446 154.975H363.584C363.898 154.975 364.198 155.1 364.419 155.325C364.641 155.549 364.765 155.853 364.765 156.169C364.765 156.486 364.641 156.79 364.419 157.014C364.198 157.238 363.898 157.364 363.584 157.364Z" fill="white"/>
<path d="M389.887 171.142H308.446C308.133 171.142 307.833 171.016 307.611 170.792C307.39 170.568 307.266 170.264 307.266 169.947C307.266 169.63 307.39 169.326 307.611 169.102C307.833 168.878 308.133 168.752 308.446 168.752H389.887C390.2 168.753 390.499 168.88 390.72 169.104C390.94 169.328 391.064 169.631 391.064 169.947C391.064 170.263 390.94 170.567 390.72 170.791C390.499 171.015 390.2 171.141 389.887 171.142Z" fill="white"/>
<path d="M298.099 148.78H265.747C264.187 148.78 262.922 150.06 262.922 151.639V172.088C262.922 173.666 264.187 174.946 265.747 174.946H298.099C299.66 174.946 300.924 173.666 300.924 172.088V151.639C300.924 150.06 299.66 148.78 298.099 148.78Z" fill="white"/>
<path d="M281.555 162.587C281.401 162.588 281.25 162.542 281.12 162.457L267.17 153.101C267.083 153.044 267.009 152.969 266.951 152.882C266.893 152.796 266.853 152.698 266.832 152.595C266.811 152.493 266.811 152.387 266.831 152.284C266.851 152.181 266.891 152.084 266.949 151.997C267.064 151.827 267.24 151.708 267.439 151.667C267.639 151.625 267.846 151.663 268.019 151.773L281.552 160.847L295.944 151.762C296.12 151.653 296.331 151.618 296.531 151.666C296.731 151.713 296.905 151.838 297.015 152.015C297.121 152.192 297.155 152.405 297.108 152.608C297.062 152.81 296.938 152.986 296.765 153.098L281.944 162.454C281.828 162.532 281.694 162.578 281.555 162.587Z" fill="#494949"/>
<path d="M267.6 171.943C267.467 171.946 267.336 171.914 267.219 171.851C267.102 171.787 267.002 171.695 266.93 171.583C266.823 171.404 266.79 171.191 266.838 170.989C266.885 170.786 267.009 170.611 267.183 170.5L276.696 164.493C276.872 164.386 277.083 164.353 277.283 164.401C277.482 164.449 277.656 164.574 277.766 164.75C277.872 164.928 277.904 165.141 277.857 165.343C277.81 165.545 277.686 165.721 277.513 165.832L268 171.835C267.879 171.908 267.741 171.945 267.6 171.943Z" fill="#494949"/>
<path d="M296.376 171.943C296.23 171.945 296.086 171.903 295.962 171.824L286.449 165.821C286.276 165.71 286.152 165.534 286.105 165.332C286.058 165.129 286.09 164.917 286.196 164.738C286.306 164.563 286.48 164.438 286.68 164.39C286.879 164.342 287.09 164.375 287.266 164.482L296.779 170.488C296.953 170.6 297.076 170.776 297.123 170.978C297.169 171.181 297.136 171.394 297.029 171.571C296.96 171.684 296.864 171.777 296.75 171.842C296.635 171.907 296.507 171.942 296.376 171.943Z" fill="#494949"/>
</svg>
