<svg width="454" height="474" viewBox="0 0 454 474" fill="none" xmlns="http://www.w3.org/2000/svg">
<rect width="454" height="474" rx="20" fill="#FAF9F6"/>
<path d="M389.048 218.212H375.182C371.521 218.212 368.553 215.241 368.553 211.576V44.1894C368.553 40.5242 371.521 37.5527 375.182 37.5527H389.048C392.709 37.5527 395.677 40.5242 395.677 44.1894V211.576C395.677 215.241 392.709 218.212 389.048 218.212Z" fill="#A78FE6"/>
<path d="M389.048 218.765H375.181C371.222 218.765 368 215.54 368 211.576V44.1894C368 40.2251 371.222 37 375.181 37H389.048C393.008 37 396.229 40.2251 396.229 44.1894V211.576C396.229 215.54 393.007 218.765 389.048 218.765ZM375.181 38.1055C371.83 38.1055 369.105 40.8348 369.105 44.1894V211.576C369.105 214.93 371.83 217.659 375.181 217.659H389.048C392.399 217.659 395.125 214.93 395.125 211.576V44.1894C395.125 40.8348 392.399 38.1055 389.048 38.1055H375.181Z" fill="#343442"/>
<path d="M381.649 58.6891C378.759 58.6891 376.408 56.3355 376.408 53.4427C376.408 50.5498 378.759 48.1963 381.649 48.1963C384.538 48.1963 386.889 50.5498 386.889 53.4427C386.889 56.3355 384.538 58.6891 381.649 58.6891ZM381.649 49.3018C379.368 49.3018 377.513 51.1592 377.513 53.4424C377.513 55.7256 379.368 57.583 381.649 57.583C383.93 57.583 385.785 55.7256 385.785 53.4424C385.785 51.1592 383.929 49.3018 381.649 49.3018Z" fill="white"/>
<path d="M388.486 59.8583C388.352 59.8583 388.218 59.8102 388.112 59.7127L384.929 56.7873C384.704 56.5808 384.689 56.2312 384.896 56.0061C385.102 55.7807 385.451 55.7667 385.676 55.9726L388.859 58.8981C389.083 59.1046 389.099 59.4542 388.892 59.6792C388.784 59.7983 388.635 59.8583 388.486 59.8583Z" fill="white"/>
<path d="M386.914 208.906C386.764 208.906 386.615 208.846 386.506 208.726L376.906 198.169C376.7 197.943 376.717 197.593 376.942 197.388C377.168 197.182 377.517 197.199 377.722 197.425L387.322 207.982C387.528 208.207 387.511 208.557 387.286 208.762C387.18 208.859 387.047 208.906 386.914 208.906Z" fill="white"/>
<path d="M377.314 208.906C377.181 208.906 377.048 208.859 376.942 208.762C376.717 208.557 376.7 208.207 376.906 207.982L386.506 197.425C386.71 197.199 387.06 197.182 387.285 197.388C387.511 197.594 387.527 197.943 387.322 198.169L377.722 208.726C377.614 208.845 377.464 208.906 377.314 208.906Z" fill="white"/>
<path d="M382.124 135.574C381.819 135.574 381.572 135.327 381.571 135.022L381.551 120.745C381.55 120.44 381.797 120.192 382.102 120.191H382.103C382.408 120.191 382.655 120.438 382.655 120.744L382.676 135.02C382.676 135.325 382.429 135.573 382.124 135.574H382.124Z" fill="white"/>
<path d="M374.984 128.437C374.679 128.437 374.432 128.189 374.432 127.884C374.432 127.579 374.679 127.331 374.984 127.331L389.244 127.328C389.549 127.328 389.796 127.576 389.796 127.881C389.796 128.186 389.549 128.434 389.244 128.434L374.984 128.437Z" fill="white"/>
<path d="M386.352 173.871C386.161 173.871 385.969 173.811 385.804 173.69L382.114 171.006L378.424 173.691C378.184 173.865 377.885 173.915 377.606 173.829C377.324 173.742 377.096 173.526 376.998 173.25C376.928 173.055 376.926 172.847 376.992 172.648L378.401 168.305L374.711 165.621C374.307 165.327 374.205 164.786 374.474 164.363C374.645 164.094 374.938 163.934 375.258 163.934H379.819L381.229 159.591C381.229 159.591 381.229 159.591 381.229 159.591C381.301 159.369 381.451 159.184 381.65 159.07C381.791 158.989 381.951 158.947 382.114 158.947C382.519 158.947 382.875 159.206 383 159.592L384.41 163.935H388.971C389.438 163.935 389.826 164.272 389.893 164.736C389.942 165.079 389.798 165.417 389.518 165.621L385.828 168.305L387.238 172.648C387.359 173.02 387.24 173.419 386.934 173.664C386.762 173.802 386.557 173.871 386.352 173.871ZM375.791 165.04L379.152 167.484C379.267 167.569 379.361 167.678 379.427 167.802C379.545 168.024 379.567 168.289 379.49 168.528L378.206 172.482L381.567 170.038C381.889 169.804 382.343 169.805 382.663 170.038L386.023 172.482L384.739 168.527C384.678 168.338 384.678 168.139 384.739 167.951C384.801 167.761 384.918 167.6 385.078 167.484L388.439 165.04H384.284C384.086 165.04 383.897 164.978 383.737 164.862C383.577 164.745 383.46 164.584 383.398 164.396L382.114 160.44L380.831 164.395C380.772 164.576 380.662 164.732 380.512 164.847C380.35 164.971 380.149 165.04 379.945 165.04H375.791ZM382.012 170.932C382.013 170.932 382.013 170.932 382.013 170.932H382.012Z" fill="white"/>
<path d="M382.114 99.4767C378.297 99.4767 375.191 96.3679 375.191 92.5464C375.191 88.725 378.297 85.6162 382.114 85.6162C385.931 85.6162 389.036 88.725 389.036 92.5464C389.036 96.3679 385.931 99.4767 382.114 99.4767ZM382.114 86.722C378.906 86.722 376.296 89.335 376.296 92.5464C376.296 95.7579 378.906 98.3709 382.114 98.3709C385.322 98.3709 387.932 95.7579 387.932 92.5464C387.932 89.335 385.322 86.722 382.114 86.722Z" fill="white"/>
<g filter="url(#filter0_d_1006_1134)">
<rect x="91" y="106" width="262" height="307" rx="20" fill="#FAF9F6"/>
<rect x="93.5" y="108.5" width="257" height="302" rx="17.5" stroke="#343442" stroke-width="5"/>
</g>
<path d="M96 125C96 117.268 102.268 111 110 111H334C341.732 111 348 117.268 348 125V144H96V125Z" fill="#A78FE6"/>
<g filter="url(#filter1_d_1006_1134)">
<rect x="159.5" y="136.5" width="124" height="16" rx="8" fill="#FCFCFC" stroke="#CBE0CC"/>
<path d="M171.357 146.25L171.002 146.308L170.857 146.207C171.225 145.606 171.365 144.892 171.25 144.197C171.155 143.62 170.892 143.085 170.493 142.659C170.094 142.232 169.578 141.934 169.009 141.801C168.441 141.667 167.845 141.706 167.298 141.911C166.751 142.116 166.278 142.478 165.937 142.952C165.596 143.427 165.404 143.991 165.384 144.574C165.364 145.158 165.518 145.734 165.826 146.23C166.134 146.726 166.582 147.12 167.114 147.361C167.646 147.603 168.237 147.681 168.814 147.587C169.535 147.468 170.156 147.095 170.595 146.572L170.736 146.678L170.794 147.032L173.403 148.9L173.962 148.123L171.357 146.25ZM168.666 146.69C167.55 146.873 166.501 146.12 166.318 145.005C166.135 143.889 166.888 142.841 168.005 142.658C169.121 142.475 170.17 143.228 170.353 144.343C170.536 145.459 169.783 146.508 168.666 146.69Z" fill="#4E4E4E"/>
</g>
<path d="M88 177C88 175.343 89.3431 174 91 174V221C89.3431 221 88 219.657 88 218V177Z" fill="#343442"/>
<path d="M202 115C199.791 115 198 113.209 198 111L245 111C245 113.209 243.209 115 241 115L202 115Z" fill="#343442"/>
<ellipse cx="222.5" cy="431" rx="100.5" ry="5" fill="#343442" fill-opacity="0.19"/>
<path d="M253.882 389.446H189.78C185.154 389.446 181.404 385.692 181.404 381.061V362.79C181.404 358.158 185.154 354.404 189.78 354.404H253.882C258.508 354.404 262.258 358.158 262.258 362.79V381.061C262.258 385.692 258.508 389.446 253.882 389.446Z" fill="#B8D9BA"/>
<path d="M253.881 389.849H189.779C184.938 389.849 181 385.907 181 381.06V362.789C181 357.943 184.938 354 189.779 354H253.881C258.722 354 262.66 357.943 262.66 362.789V381.06C262.66 385.907 258.722 389.849 253.881 389.849ZM189.779 354.808C185.383 354.808 181.807 358.388 181.807 362.789V381.06C181.807 385.461 185.383 389.042 189.779 389.042H253.881C258.277 389.042 261.853 385.461 261.853 381.06V362.789C261.853 358.388 258.277 354.808 253.881 354.808H189.779Z" fill="#090B12"/>
<path d="M228.701 377.673H217.583C216.106 377.673 214.829 376.619 214.549 375.167L212.166 362.835C211.947 361.702 210.951 360.879 209.798 360.879H206.771C206.548 360.879 206.367 360.698 206.367 360.475C206.367 360.252 206.548 360.071 206.771 360.071H209.798C211.336 360.071 212.665 361.169 212.957 362.682L215.341 375.013C215.548 376.087 216.491 376.865 217.583 376.865H228.701C229.782 376.865 230.724 376.095 230.939 375.034L232.56 367.05C232.656 366.575 232.536 366.088 232.23 365.713C231.924 365.337 231.471 365.122 230.986 365.122H220.219C219.997 365.122 219.816 364.942 219.816 364.718C219.816 364.495 219.997 364.315 220.219 364.315H230.986C231.713 364.315 232.394 364.638 232.854 365.201C233.314 365.765 233.495 366.497 233.35 367.211L231.73 375.195C231.438 376.631 230.164 377.673 228.701 377.673Z" fill="#090B12"/>
<path d="M227.741 383.777C226.197 383.777 224.941 382.52 224.941 380.974C224.941 379.428 226.197 378.171 227.741 378.171C229.285 378.171 230.541 379.428 230.541 380.974C230.541 382.52 229.285 383.777 227.741 383.777ZM227.741 378.979C226.642 378.979 225.748 379.874 225.748 380.974C225.748 382.074 226.642 382.969 227.741 382.969C228.84 382.969 229.734 382.074 229.734 380.974C229.734 379.874 228.84 378.979 227.741 378.979Z" fill="#090B12"/>
<path d="M218.52 383.777C216.977 383.777 215.721 382.52 215.721 380.974C215.721 379.428 216.977 378.171 218.52 378.171C220.064 378.171 221.32 379.428 221.32 380.974C221.32 382.52 220.064 383.777 218.52 383.777ZM218.52 378.979C217.421 378.979 216.527 379.874 216.527 380.974C216.527 382.074 217.421 382.969 218.52 382.969C219.619 382.969 220.514 382.074 220.514 380.974C220.514 379.874 219.619 378.979 218.52 378.979Z" fill="#090B12"/>
<g filter="url(#filter2_d_1006_1134)">
<rect x="170" y="186" width="115" height="128" rx="11" fill="white"/>
</g>
<path d="M261.623 198.614L261.624 198.614C263.124 197.129 265.56 197.129 267.06 198.614L267.06 198.614L267.648 199.196L268 199.545L268.352 199.196L268.94 198.614C270.44 197.129 272.876 197.129 274.377 198.614C275.875 200.098 275.874 202.5 274.377 203.983L268 210.296L261.623 203.983L261.272 204.339L261.623 203.983C260.126 202.5 260.126 200.098 261.623 198.614Z" stroke="#343442"/>
<rect x="189" y="284" width="79" height="3" rx="1.5" fill="#302922"/>
<rect x="199" y="293" width="60" height="3" rx="1.5" fill="#302922"/>
<path d="M238.857 220.451C238.232 220.451 237.644 220.067 237.414 219.445L236.503 216.98C235.791 215.051 233.932 213.755 231.878 213.755H222.454C220.389 213.755 218.527 215.06 217.82 217.002L217.03 219.17C216.739 219.969 215.857 220.381 215.059 220.09C214.26 219.798 213.849 218.914 214.14 218.115L214.93 215.947C216.078 212.794 219.102 210.676 222.454 210.676H231.878C235.213 210.676 238.231 212.78 239.388 215.911L240.299 218.377C240.594 219.174 240.187 220.06 239.39 220.355C239.214 220.42 239.034 220.451 238.857 220.451Z" fill="#A78FE6"/>
<path d="M238.859 221.128C237.936 221.128 237.101 220.546 236.782 219.68L235.87 217.215C235.255 215.551 233.651 214.433 231.879 214.433H222.455C220.673 214.433 219.066 215.559 218.456 217.234L217.666 219.403C217.464 219.959 217.057 220.403 216.521 220.653C215.985 220.903 215.384 220.929 214.828 220.726C214.273 220.523 213.829 220.116 213.579 219.579C213.33 219.042 213.303 218.441 213.506 217.885L214.296 215.716C215.541 212.297 218.82 210 222.454 210H231.879C235.495 210 238.768 212.281 240.023 215.677L240.934 218.142C241.357 219.289 240.77 220.566 239.626 220.99C239.379 221.082 239.12 221.128 238.859 221.128ZM222.455 213.079H231.879C234.215 213.079 236.328 214.553 237.139 216.745L238.05 219.211C238.21 219.644 238.718 219.884 239.158 219.72C239.604 219.555 239.832 219.058 239.667 218.611L238.756 216.146C237.696 213.279 234.933 211.353 231.879 211.353H222.455C219.386 211.353 216.618 213.292 215.567 216.179L214.777 218.347C214.698 218.564 214.708 218.799 214.806 219.007C214.903 219.216 215.075 219.375 215.292 219.454C215.508 219.533 215.742 219.523 215.951 219.426C216.16 219.329 216.318 219.155 216.397 218.939L217.187 216.77C217.99 214.563 220.107 213.079 222.455 213.079Z" fill="#090B12"/>
<path d="M241.935 219.915H236.451V222.526H241.935V219.915Z" fill="#3A6658"/>
<path d="M241.935 223.203H236.451C236.078 223.203 235.775 222.9 235.775 222.526V219.915C235.775 219.542 236.078 219.238 236.451 219.238H241.935C242.308 219.238 242.611 219.541 242.611 219.915V222.526C242.61 222.9 242.308 223.203 241.935 223.203ZM237.127 221.85H241.259V220.592H237.127V221.85Z" fill="#090B12"/>
<path d="M249.29 236.854H205.323C205.323 236.854 202.38 258.01 208.934 259.75H245.679C252.232 258.009 249.29 236.854 249.29 236.854Z" fill="#A78FE6"/>
<path d="M245.678 260.427H208.933C208.874 260.427 208.816 260.42 208.759 260.405C201.827 258.563 204.343 238.986 204.652 236.76C204.699 236.426 204.984 236.177 205.322 236.177H249.289C249.626 236.177 249.911 236.426 249.958 236.76C250.268 238.986 252.783 258.563 245.851 260.405C245.795 260.419 245.737 260.427 245.678 260.427ZM209.026 259.074H245.585C250.236 257.676 249.467 243.596 248.697 237.53H205.913C205.143 243.596 204.374 257.676 209.026 259.074Z" fill="#090B12"/>
<path d="M218.606 219.915H213.123V222.526H218.606V219.915Z" fill="#3A6658"/>
<path d="M218.607 223.203H213.123C212.75 223.203 212.447 222.9 212.447 222.526V219.915C212.447 219.542 212.75 219.238 213.123 219.238H218.607C218.98 219.238 219.283 219.541 219.283 219.915V222.526C219.283 222.9 218.98 223.203 218.607 223.203ZM213.799 221.85H217.931V220.592H213.799V221.85Z" fill="#090B12"/>
<path d="M247.549 222.527C243.804 221.322 230.296 221.724 230.296 221.724H224.701C224.701 221.724 211.193 221.322 207.448 222.527C205.024 223.307 203.497 231.042 202.721 236.402C202.328 239.113 204.433 241.541 207.169 241.541H247.828C250.564 241.541 252.668 239.113 252.276 236.402C251.5 231.042 249.973 223.307 247.549 222.527Z" fill="#A78FE6"/>
<path d="M247.829 242.217H207.17C205.668 242.217 204.242 241.565 203.259 240.428C202.278 239.293 201.838 237.79 202.054 236.305C203.99 222.929 206.438 222.142 207.243 221.883C211.054 220.656 224.166 221.03 224.722 221.047L230.298 221.047C230.834 221.03 243.946 220.656 247.758 221.883C248.562 222.142 251.01 222.929 252.947 236.305C253.162 237.79 252.722 239.293 251.741 240.428C250.757 241.565 249.332 242.217 247.829 242.217ZM219.688 222.337C215.478 222.337 209.814 222.476 207.656 223.171C207.081 223.356 205.076 224.863 203.391 236.499C203.232 237.595 203.557 238.704 204.281 239.542C205.007 240.382 206.06 240.864 207.17 240.864H247.829C248.938 240.864 249.991 240.382 250.717 239.542C251.442 238.704 251.766 237.595 251.608 236.499C249.923 224.863 247.917 223.356 247.342 223.171C243.751 222.015 230.45 222.395 230.317 222.4L224.701 222.4C224.64 222.399 222.485 222.337 219.688 222.337Z" fill="#090B12"/>
<path d="M227.519 245.423H226.255C224.869 245.423 223.744 244.298 223.744 242.909V240.439C223.744 239.051 224.869 237.925 226.255 237.925H227.519C228.906 237.925 230.03 239.051 230.03 240.439V242.909C230.03 244.298 228.906 245.423 227.519 245.423Z" fill="#D5E2DD"/>
<path d="M227.519 246.1H226.255C224.498 246.1 223.068 244.669 223.068 242.909V240.439C223.068 238.68 224.498 237.248 226.255 237.248H227.519C229.277 237.248 230.706 238.679 230.706 240.439V242.909C230.706 244.668 229.277 246.1 227.519 246.1ZM226.256 238.602C225.244 238.602 224.42 239.426 224.42 240.439V242.909C224.42 243.922 225.243 244.746 226.256 244.746H227.519C228.531 244.746 229.355 243.922 229.355 242.909V240.439C229.355 239.426 228.531 238.602 227.519 238.602H226.256Z" fill="#090B12"/>
<g filter="url(#filter3_d_1006_1134)">
<rect x="44" y="238" width="115" height="128" rx="11" fill="white"/>
</g>
<path d="M135.623 250.614L135.624 250.614C137.124 249.129 139.56 249.129 141.06 250.614L141.06 250.614L141.648 251.196L142 251.545L142.352 251.196L142.94 250.614C144.44 249.129 146.876 249.129 148.377 250.614C149.875 252.098 149.874 254.5 148.377 255.983L142 262.296L135.623 255.983L135.272 256.339L135.623 255.983C134.126 254.5 134.126 252.098 135.623 250.614Z" stroke="#343442"/>
<rect x="63" y="336" width="79" height="3" rx="1.5" fill="#302922"/>
<rect x="73" y="345" width="60" height="3" rx="1.5" fill="#302922"/>
<g filter="url(#filter4_d_1006_1134)">
<rect x="295" y="238" width="115" height="128" rx="11" fill="white"/>
</g>
<path d="M386.623 250.614L386.624 250.614C388.124 249.129 390.56 249.129 392.06 250.614L392.06 250.614L392.648 251.196L393 251.545L393.352 251.196L393.94 250.614C395.44 249.129 397.876 249.129 399.377 250.614C400.875 252.098 400.874 254.5 399.377 255.983L393 262.296L386.623 255.983L386.272 256.339L386.623 255.983C385.126 254.5 385.126 252.098 386.623 250.614Z" stroke="#343442"/>
<rect x="314" y="336" width="79" height="3" rx="1.5" fill="#302922"/>
<rect x="324" y="345" width="60" height="3" rx="1.5" fill="#302922"/>
<path d="M135.333 284.365C135.333 284.365 133.255 287.384 133.413 291.434C133.592 296.241 133.636 302.443 132.958 306.59C132.516 309.28 131.761 311.108 130.538 311.103L113.392 311.127L83.9398 311.161L83.9226 311.165L71.8995 311.18C70.5717 311.179 69.2689 309.453 68.7969 306.673C68.2398 303.395 74.0619 297.459 78.7174 293.834C78.9369 293.66 79.1551 293.497 79.3793 293.33L79.3853 293.325C87.4477 287.202 99.0271 281.358 99.0271 281.358C99.0271 281.358 95.6717 268.467 106.627 271.201C117.33 273.867 115.955 286.414 115.905 287.077C116.037 286.666 120.722 279.984 127.771 279.979C135.014 279.968 135.333 284.365 135.333 284.365Z" fill="#B8D9BA"/>
<path d="M71.8995 312C70.0571 311.999 68.5228 309.962 67.9883 306.81C67.1616 301.951 77.0802 294.069 78.214 293.186C78.4335 293.012 78.6568 292.845 78.887 292.673C85.8994 287.347 95.649 282.182 98.0879 280.917C97.7308 279.138 97.0277 274.184 99.5958 271.586C101.167 269.997 103.6 269.599 106.824 270.405C114.023 272.198 116.667 278.528 116.807 284.598C118.889 282.325 122.773 279.162 127.77 279.158C127.779 279.158 127.787 279.158 127.796 279.158C135.686 279.158 136.135 284.096 136.15 284.307C136.163 284.493 136.114 284.677 136.008 284.831C135.983 284.868 134.087 287.698 134.231 291.403C134.404 296.039 134.464 302.458 133.766 306.723C133.554 308.01 132.912 311.924 130.543 311.924C130.54 311.924 130.537 311.924 130.534 311.924L83.9913 311.981C83.9672 311.984 83.9436 311.985 83.9227 311.985L71.8995 312ZM103.859 271.641C102.523 271.641 101.486 272.007 100.763 272.739C98.3176 275.209 99.8043 281.092 99.8196 281.151C99.9164 281.525 99.7395 281.916 99.3954 282.09C99.2801 282.148 87.7881 287.973 79.88 293.979C79.6493 294.151 79.4376 294.309 79.2251 294.478C74.2259 298.37 69.1587 303.917 69.6042 306.536C70.0252 309.019 71.1006 310.359 71.899 310.359L83.8689 310.345C83.8935 310.342 83.9172 310.341 83.938 310.341L130.536 310.283H130.537C130.993 310.283 131.685 309.282 132.148 306.458C132.824 302.328 132.763 296.025 132.592 291.466C132.454 287.883 133.935 285.084 134.471 284.194C134.271 283.376 133.21 280.8 127.795 280.8C127.787 280.8 127.78 280.8 127.772 280.8C121.081 280.804 116.825 287.133 116.661 287.395C116.513 287.75 116.138 287.959 115.748 287.883C115.34 287.804 115.056 287.431 115.087 287.017L115.094 286.932C115.348 283.999 115.473 274.251 106.428 271.998C105.476 271.76 104.619 271.641 103.859 271.641ZM116.685 287.327C116.68 287.344 116.674 287.36 116.668 287.377C116.677 287.357 116.681 287.34 116.685 287.327Z" fill="#272633"/>
<path d="M133.414 291.434C133.593 296.241 133.637 302.444 132.959 306.59C132.517 309.28 131.762 311.108 130.539 311.103L113.393 311.127C113.393 311.127 114.373 300.652 120.623 295.558C126.872 290.463 133.414 291.434 133.414 291.434Z" fill="#D5E2DD"/>
<path d="M113.392 311.948C113.161 311.948 112.941 311.85 112.786 311.68C112.63 311.509 112.554 311.281 112.576 311.05C112.617 310.609 113.663 300.173 120.105 294.921C126.56 289.658 133.25 290.581 133.533 290.622C133.924 290.68 134.217 291.009 134.232 291.403C134.405 296.038 134.465 302.457 133.767 306.722C133.556 308.01 132.913 311.923 130.544 311.923C130.541 311.923 130.538 311.923 130.536 311.923L113.393 311.947L113.392 311.948ZM132.106 292.186C130.014 292.186 125.482 292.654 121.139 296.194C116.275 300.16 114.727 307.713 114.328 310.305L130.537 310.283H130.539C130.995 310.283 131.686 309.281 132.15 306.457C132.79 302.543 132.768 296.679 132.62 292.196C132.47 292.19 132.298 292.186 132.106 292.186Z" fill="#272633"/>
<path d="M83.7828 300.763C84.4173 306.647 83.9398 311.16 83.9398 311.16L83.9226 311.164L71.8995 311.179C70.5717 311.178 69.2689 309.452 68.7969 306.672C68.2398 303.394 74.0619 297.458 78.7174 293.833C78.9369 293.659 79.1551 293.496 79.3793 293.329L79.3853 293.324C79.5965 293.416 83.1728 295.048 83.7828 300.763Z" fill="#D5E2DD"/>
<path d="M71.8995 312C70.0571 311.999 68.5228 309.962 67.9883 306.81C67.1616 301.95 77.0802 294.069 78.214 293.186C78.4335 293.012 78.6568 292.845 78.887 292.673C79.1218 292.498 79.4408 292.454 79.7095 292.571C80.1416 292.758 83.9449 294.571 84.597 300.675C85.2333 306.579 84.774 311.06 84.754 311.247C84.7165 311.601 84.4553 311.891 84.1075 311.964C84.0524 311.975 83.9792 311.985 83.9227 311.985L71.8995 312ZM79.4589 294.295C79.3802 294.355 79.3029 294.415 79.2251 294.477C74.2259 298.37 69.1587 303.916 69.6042 306.535C70.0252 309.018 71.1006 310.358 71.899 310.359L83.1826 310.345C83.284 308.852 83.4382 305.218 82.9667 300.851C82.9667 300.851 82.9667 300.851 82.9667 300.85C82.5161 296.627 80.3643 294.86 79.4589 294.295Z" fill="#272633"/>
<path d="M85.8619 284.774C85.0088 284.774 84.2299 284.621 83.606 284.244C82.9275 283.834 82.1226 282.975 82.1369 281.212C82.1499 279.604 82.9137 278.815 83.5519 278.435C86.5711 276.641 93.4862 280.25 94.2648 280.667C94.5311 280.81 94.6978 281.088 94.6978 281.39C94.6983 281.692 94.5324 281.971 94.2657 282.113C93.6539 282.443 89.1984 284.774 85.8619 284.774ZM85.7055 279.565C85.1719 279.565 84.7194 279.65 84.3878 279.847C84.1285 280.001 83.7834 280.312 83.776 281.226C83.7672 282.3 84.1576 282.661 84.4526 282.839C85.8749 283.699 89.3925 282.588 92.025 281.39C89.9872 280.458 87.4265 279.565 85.7055 279.565Z" fill="#272633"/>
<path d="M94.0636 282.062C93.9497 282.062 93.8352 282.039 93.7278 281.99C92.9321 281.633 85.942 278.395 85.5381 274.834C85.4492 274.047 85.6372 272.884 87.0414 271.82C88.322 270.849 89.4132 270.973 90.1019 271.248C93.3629 272.548 94.7268 280.235 94.8717 281.108C94.9208 281.406 94.8027 281.707 94.5633 281.892C94.4183 282.004 94.2415 282.062 94.0636 282.062ZM89.0875 272.69C88.8231 272.69 88.4786 272.789 88.0317 273.128C87.1758 273.776 87.1289 274.306 87.1678 274.649C87.3554 276.305 90.3812 278.416 92.934 279.772C92.2722 276.908 91.0101 273.375 89.4961 272.772C89.3882 272.729 89.2538 272.69 89.0875 272.69Z" fill="#272633"/>
<path d="M100.133 291.806C99.891 291.806 99.6511 291.699 99.489 291.494L94.8308 285.594C94.5506 285.238 94.6103 284.722 94.9655 284.441C95.3203 284.161 95.8362 284.221 96.1168 284.576L100.775 290.476C101.055 290.832 100.996 291.348 100.64 291.629C100.49 291.748 100.311 291.806 100.133 291.806Z" fill="#272633"/>
<path d="M95.5195 294.466C95.2778 294.466 95.0379 294.359 94.8758 294.154L90.2175 288.254C89.9373 287.899 89.997 287.382 90.3523 287.101C90.7075 286.821 91.2225 286.881 91.5037 287.236L96.1619 293.136C96.4421 293.492 96.3823 294.008 96.0271 294.289C95.8766 294.408 95.6978 294.466 95.5195 294.466Z" fill="#272633"/>
<path d="M90.5859 296.718C90.3442 296.718 90.1043 296.611 89.9422 296.406L85.2839 290.506C85.0037 290.15 85.0634 289.634 85.4187 289.353C85.7744 289.073 86.2894 289.133 86.5701 289.488L91.2284 295.388C91.5086 295.744 91.4489 296.26 91.0936 296.541C90.9431 296.66 90.7638 296.718 90.5859 296.718Z" fill="#272633"/>
<path d="M364.639 284.204C364.669 284.204 364.698 284.193 364.721 284.17C364.767 284.125 364.768 284.051 364.722 284.005C363.952 283.234 362.454 282.2 362.391 282.157C362.335 282.121 362.263 282.134 362.228 282.187C362.191 282.24 362.204 282.313 362.257 282.35C362.273 282.36 363.802 283.414 364.556 284.17C364.578 284.193 364.609 284.204 364.639 284.204Z" fill="#313440"/>
<path d="M363.069 286.88C363.134 286.88 363.186 286.828 363.186 286.763C363.186 285.606 360.777 274.284 360.674 273.803C360.661 273.739 360.596 273.699 360.536 273.713C360.473 273.726 360.432 273.788 360.446 273.851C360.471 273.969 362.953 285.631 362.953 286.763C362.953 286.828 363.005 286.88 363.069 286.88Z" fill="#313440"/>
<path d="M340.3 270.158C340.3 270.158 349.034 274.799 363.915 269.365L367.652 309.691L371.704 314.035C371.704 314.035 364.178 317.51 359.403 316.641C354.627 315.773 352.167 314.035 347.97 315.773C343.773 317.51 333.353 318.524 332.63 316.931C331.906 315.338 337.839 290.721 337.839 290.721L340.3 270.158Z" fill="#FFE0E3"/>
<path d="M363.166 269L352.022 287.536L340.155 269.579C340.155 269.579 330.748 274.358 329.156 276.096C327.564 277.833 317 297.817 317 297.817C317 297.817 329.735 303.754 330.748 303.899L332.485 300.134L332.63 316.932C332.63 316.932 333.209 317.945 337.84 316.787C342.471 315.628 347.97 312.443 349.996 312.587L350.864 306.795L351.443 312.298C351.443 312.298 356.074 313.167 359.403 314.47C362.731 315.773 371.704 314.036 371.704 314.036L370.402 298.541L372.428 302.885L385.452 294.631C385.452 294.631 376.335 275.372 372.862 273.2C369.389 271.027 363.166 269 363.166 269Z" fill="#A78FE6"/>
<path d="M327.846 296.06C328.494 293.462 328.706 290.515 327.217 288.289C326.357 287.003 325.048 286.136 323.709 285.301C326.134 280.892 328.442 276.836 329.121 276.096C329.465 275.72 330.187 275.198 331.089 274.616C331.265 274.792 331.436 274.973 331.592 275.172C332.654 276.523 333.107 278.242 333.533 279.907C333.955 281.555 334.376 283.204 334.798 284.852C334.951 285.449 335.114 286.067 335.501 286.546C335.989 287.15 336.766 287.446 337.53 287.578C340.562 288.103 343.83 286.141 344.796 283.217C345.302 281.682 345.303 279.874 346.015 278.5L351.987 287.536L356.358 280.264C356.418 280.398 356.477 280.532 356.535 280.665C357.663 283.293 358.815 286.093 358.391 288.921C358.166 290.418 357.506 291.956 358 293.387C358.661 295.302 361.047 295.994 363.07 295.895C364.007 295.849 364.98 295.678 365.727 295.112C366.561 294.48 366.988 293.459 367.36 292.481C368.194 290.286 368.943 287.981 368.776 285.638C368.592 283.056 367.311 280.665 366.989 278.097C366.836 276.875 366.935 275.538 367.696 274.57C368.144 274.001 368.781 273.612 369.43 273.292C370.124 272.95 370.85 272.689 371.593 272.494C372.028 272.726 372.446 272.962 372.826 273.2C375.501 274.873 381.52 286.673 384.147 292.013C382.147 291.755 380.127 291.645 378.111 291.701C377.716 291.712 377.311 291.732 376.95 291.891C376.335 292.163 375.958 292.787 375.694 293.404C374.799 295.498 374.782 297.951 375.649 300.057C375.732 300.258 375.829 300.452 375.924 300.648L372.392 302.886L370.366 298.542L371.293 309.571C370.299 309.262 369.374 308.807 368.613 308.087C367.344 306.887 366.731 305.17 365.829 303.674C364.928 302.178 363.449 300.761 361.708 300.897C359.609 301.06 358.35 303.351 358.006 305.429C357.662 307.508 357.808 309.744 356.787 311.587C356.435 312.223 355.959 312.756 355.415 313.218C353.233 312.641 351.408 312.298 351.408 312.298L350.829 306.796L349.961 312.588C349.083 312.525 347.553 313.088 345.726 313.839C345.588 313.573 345.465 313.298 345.366 313.017C344.431 310.366 344.716 307.418 345.53 304.727C346.343 302.036 347.658 299.53 348.807 296.965C349.529 295.353 350.138 293.315 349.013 291.955C348.324 291.121 347.167 290.831 346.085 290.811C343.371 290.76 340.521 292.403 339.799 295.022C339.197 297.206 340.106 299.483 340.855 301.621C341.328 302.968 341.746 304.363 341.721 305.79C341.695 307.217 341.165 308.698 340.039 309.573C338.992 310.387 337.6 310.576 336.277 310.659C335.033 310.738 333.785 310.742 332.54 310.686L332.45 300.134L330.713 303.899C330.355 303.848 328.531 303.072 326.323 302.092C326.618 300.056 327.345 298.07 327.846 296.06Z" fill="#FB7B88"/>
<path d="M350.865 306.912C350.927 306.912 350.979 306.864 350.982 306.802L352.14 287.542C352.143 287.477 352.094 287.422 352.03 287.418C352.027 287.418 352.024 287.418 352.022 287.418C351.961 287.418 351.909 287.466 351.906 287.528L350.748 306.788C350.745 306.853 350.794 306.908 350.858 306.912C350.861 306.912 350.863 306.912 350.865 306.912Z" fill="#313440"/>
<path d="M352.457 287.073C352.474 287.073 352.492 287.069 352.509 287.061L362.143 282.289L361.082 277.564L366.081 275.449V270.061C366.081 269.997 366.029 269.944 365.964 269.944C365.899 269.944 365.847 269.997 365.847 270.061V275.293L360.812 277.425L360.833 277.52L361.875 282.161L352.405 286.851C352.347 286.879 352.323 286.95 352.352 287.008C352.372 287.049 352.414 287.073 352.457 287.073Z" fill="#313440"/>
<path d="M351.878 287.363C351.921 287.363 351.962 287.34 351.982 287.298C352.011 287.241 351.987 287.17 351.93 287.142L341.789 282.068L343.049 277.51L338.377 276.244L337.521 271.008C337.511 270.944 337.45 270.902 337.387 270.912C337.324 270.922 337.28 270.982 337.291 271.046L338.17 276.431L342.761 277.675L341.513 282.191L351.826 287.351C351.842 287.359 351.861 287.363 351.878 287.363Z" fill="#313440"/>
<path d="M332.486 300.251C332.55 300.251 332.602 300.2 332.603 300.136C332.611 299.744 332.795 290.512 332.7 289.36C332.694 289.299 332.643 289.253 332.583 289.253C332.58 289.253 332.577 289.253 332.573 289.253C332.509 289.259 332.462 289.315 332.466 289.38C332.561 290.519 332.371 300.036 332.369 300.132C332.368 300.196 332.419 300.25 332.483 300.251C332.484 300.251 332.485 300.251 332.486 300.251Z" fill="#313440"/>
<path d="M332.486 294.024C332.496 294.024 332.507 294.023 332.517 294.02C332.579 294.003 332.615 293.938 332.598 293.876L331.633 290.401C331.617 290.339 331.552 290.303 331.49 290.319C331.428 290.337 331.391 290.401 331.409 290.464L332.373 293.939C332.387 293.99 332.434 294.024 332.486 294.024Z" fill="#313440"/>
<path d="M352.385 287.97C352.385 287.65 352.644 287.391 352.964 287.391C353.283 287.391 353.542 287.65 353.542 287.97C353.542 288.29 353.283 288.549 352.964 288.549C352.644 288.549 352.385 288.29 352.385 287.97Z" fill="#313440"/>
<path d="M352.385 293.473C352.385 293.153 352.644 292.894 352.964 292.894C353.283 292.894 353.542 293.153 353.542 293.473C353.542 293.793 353.283 294.052 352.964 294.052C352.644 294.052 352.385 293.793 352.385 293.473Z" fill="#313440"/>
<rect x="88.5" y="37.5" width="128" height="38" rx="8.5" stroke="#4E4E4E"/>
<path d="M109 64.5L109 48.5" stroke="#808080" stroke-width="1.5" stroke-linecap="round"/>
<path d="M101 56.5H117" stroke="#808080" stroke-width="1.5" stroke-linecap="round"/>
<path d="M129.892 60.444H124.654L123.754 63H121.612L126.094 50.472H128.47L132.952 63H130.792L129.892 60.444ZM129.316 58.77L127.282 52.956L125.23 58.77H129.316ZM134.217 57.996C134.217 57 134.421 56.118 134.829 55.35C135.249 54.582 135.813 53.988 136.521 53.568C137.241 53.136 138.039 52.92 138.915 52.92C139.563 52.92 140.199 53.064 140.823 53.352C141.459 53.628 141.963 54 142.335 54.468V49.68H144.405V63H142.335V61.506C141.999 61.986 141.531 62.382 140.931 62.694C140.343 63.006 139.665 63.162 138.897 63.162C138.033 63.162 137.241 62.946 136.521 62.514C135.813 62.07 135.249 61.458 134.829 60.678C134.421 59.886 134.217 58.992 134.217 57.996ZM142.335 58.032C142.335 57.348 142.191 56.754 141.903 56.25C141.627 55.746 141.261 55.362 140.805 55.098C140.349 54.834 139.857 54.702 139.329 54.702C138.801 54.702 138.309 54.834 137.853 55.098C137.397 55.35 137.025 55.728 136.737 56.232C136.461 56.724 136.323 57.312 136.323 57.996C136.323 58.68 136.461 59.28 136.737 59.796C137.025 60.312 137.397 60.708 137.853 60.984C138.321 61.248 138.813 61.38 139.329 61.38C139.857 61.38 140.349 61.248 140.805 60.984C141.261 60.72 141.627 60.336 141.903 59.832C142.191 59.316 142.335 58.716 142.335 58.032ZM146.416 57.996C146.416 57 146.62 56.118 147.028 55.35C147.448 54.582 148.012 53.988 148.72 53.568C149.44 53.136 150.238 52.92 151.114 52.92C151.762 52.92 152.398 53.064 153.022 53.352C153.658 53.628 154.162 54 154.534 54.468V49.68H156.604V63H154.534V61.506C154.198 61.986 153.73 62.382 153.13 62.694C152.542 63.006 151.864 63.162 151.096 63.162C150.232 63.162 149.44 62.946 148.72 62.514C148.012 62.07 147.448 61.458 147.028 60.678C146.62 59.886 146.416 58.992 146.416 57.996ZM154.534 58.032C154.534 57.348 154.39 56.754 154.102 56.25C153.826 55.746 153.46 55.362 153.004 55.098C152.548 54.834 152.056 54.702 151.528 54.702C151 54.702 150.508 54.834 150.052 55.098C149.596 55.35 149.224 55.728 148.936 56.232C148.66 56.724 148.522 57.312 148.522 57.996C148.522 58.68 148.66 59.28 148.936 59.796C149.224 60.312 149.596 60.708 150.052 60.984C150.52 61.248 151.012 61.38 151.528 61.38C152.056 61.38 152.548 61.248 153.004 60.984C153.46 60.72 153.826 60.336 154.102 59.832C154.39 59.316 154.534 58.716 154.534 58.032ZM166.027 50.49V63H163.975V50.49H166.027ZM171.115 54.756V60.246C171.115 60.618 171.199 60.888 171.367 61.056C171.547 61.212 171.847 61.29 172.267 61.29H173.527V63H171.907C170.983 63 170.275 62.784 169.783 62.352C169.291 61.92 169.045 61.218 169.045 60.246V54.756H167.875V53.082H169.045V50.616H171.115V53.082H173.527V54.756H171.115ZM184.508 57.798C184.508 58.17 184.484 58.506 184.436 58.806H176.858C176.918 59.598 177.212 60.234 177.74 60.714C178.268 61.194 178.916 61.434 179.684 61.434C180.788 61.434 181.568 60.972 182.024 60.048H184.238C183.938 60.96 183.392 61.71 182.6 62.298C181.82 62.874 180.848 63.162 179.684 63.162C178.736 63.162 177.884 62.952 177.128 62.532C176.384 62.1 175.796 61.5 175.364 60.732C174.944 59.952 174.734 59.052 174.734 58.032C174.734 57.012 174.938 56.118 175.346 55.35C175.766 54.57 176.348 53.97 177.092 53.55C177.848 53.13 178.712 52.92 179.684 52.92C180.62 52.92 181.454 53.124 182.186 53.532C182.918 53.94 183.488 54.516 183.896 55.26C184.304 55.992 184.508 56.838 184.508 57.798ZM182.366 57.15C182.354 56.394 182.084 55.788 181.556 55.332C181.028 54.876 180.374 54.648 179.594 54.648C178.886 54.648 178.28 54.876 177.776 55.332C177.272 55.776 176.972 56.382 176.876 57.15H182.366ZM198.534 52.92C199.314 52.92 200.01 53.082 200.622 53.406C201.246 53.73 201.732 54.21 202.08 54.846C202.44 55.482 202.62 56.25 202.62 57.15V63H200.586V57.456C200.586 56.568 200.364 55.89 199.92 55.422C199.476 54.942 198.87 54.702 198.102 54.702C197.334 54.702 196.722 54.942 196.266 55.422C195.822 55.89 195.6 56.568 195.6 57.456V63H193.566V57.456C193.566 56.568 193.344 55.89 192.9 55.422C192.456 54.942 191.85 54.702 191.082 54.702C190.314 54.702 189.702 54.942 189.246 55.422C188.802 55.89 188.58 56.568 188.58 57.456V63H186.528V53.082H188.58V54.216C188.916 53.808 189.342 53.49 189.858 53.262C190.374 53.034 190.926 52.92 191.514 52.92C192.306 52.92 193.014 53.088 193.638 53.424C194.262 53.76 194.742 54.246 195.078 54.882C195.378 54.282 195.846 53.808 196.482 53.46C197.118 53.1 197.802 52.92 198.534 52.92Z" fill="#808080"/>
<defs>
<filter id="filter0_d_1006_1134" x="51" y="86" width="342" height="387" filterUnits="userSpaceOnUse" color-interpolation-filters="sRGB">
<feFlood flood-opacity="0" result="BackgroundImageFix"/>
<feColorMatrix in="SourceAlpha" type="matrix" values="0 0 0 0 0 0 0 0 0 0 0 0 0 0 0 0 0 0 127 0" result="hardAlpha"/>
<feOffset dy="20"/>
<feGaussianBlur stdDeviation="20"/>
<feComposite in2="hardAlpha" operator="out"/>
<feColorMatrix type="matrix" values="0 0 0 0 0 0 0 0 0 0 0 0 0 0 0 0 0 0 0.08 0"/>
<feBlend mode="normal" in2="BackgroundImageFix" result="effect1_dropShadow_1006_1134"/>
<feBlend mode="normal" in="SourceGraphic" in2="effect1_dropShadow_1006_1134" result="shape"/>
</filter>
<filter id="filter1_d_1006_1134" x="139" y="126" width="165" height="57" filterUnits="userSpaceOnUse" color-interpolation-filters="sRGB">
<feFlood flood-opacity="0" result="BackgroundImageFix"/>
<feColorMatrix in="SourceAlpha" type="matrix" values="0 0 0 0 0 0 0 0 0 0 0 0 0 0 0 0 0 0 127 0" result="hardAlpha"/>
<feOffset dy="10"/>
<feGaussianBlur stdDeviation="10"/>
<feComposite in2="hardAlpha" operator="out"/>
<feColorMatrix type="matrix" values="0 0 0 0 0 0 0 0 0 0 0 0 0 0 0 0 0 0 0.05 0"/>
<feBlend mode="normal" in2="BackgroundImageFix" result="effect1_dropShadow_1006_1134"/>
<feBlend mode="normal" in="SourceGraphic" in2="effect1_dropShadow_1006_1134" result="shape"/>
</filter>
<filter id="filter2_d_1006_1134" x="130" y="166" width="195" height="208" filterUnits="userSpaceOnUse" color-interpolation-filters="sRGB">
<feFlood flood-opacity="0" result="BackgroundImageFix"/>
<feColorMatrix in="SourceAlpha" type="matrix" values="0 0 0 0 0 0 0 0 0 0 0 0 0 0 0 0 0 0 127 0" result="hardAlpha"/>
<feOffset dy="20"/>
<feGaussianBlur stdDeviation="20"/>
<feComposite in2="hardAlpha" operator="out"/>
<feColorMatrix type="matrix" values="0 0 0 0 0 0 0 0 0 0 0 0 0 0 0 0 0 0 0.06 0"/>
<feBlend mode="normal" in2="BackgroundImageFix" result="effect1_dropShadow_1006_1134"/>
<feBlend mode="normal" in="SourceGraphic" in2="effect1_dropShadow_1006_1134" result="shape"/>
</filter>
<filter id="filter3_d_1006_1134" x="4" y="218" width="195" height="208" filterUnits="userSpaceOnUse" color-interpolation-filters="sRGB">
<feFlood flood-opacity="0" result="BackgroundImageFix"/>
<feColorMatrix in="SourceAlpha" type="matrix" values="0 0 0 0 0 0 0 0 0 0 0 0 0 0 0 0 0 0 127 0" result="hardAlpha"/>
<feOffset dy="20"/>
<feGaussianBlur stdDeviation="20"/>
<feComposite in2="hardAlpha" operator="out"/>
<feColorMatrix type="matrix" values="0 0 0 0 0 0 0 0 0 0 0 0 0 0 0 0 0 0 0.06 0"/>
<feBlend mode="normal" in2="BackgroundImageFix" result="effect1_dropShadow_1006_1134"/>
<feBlend mode="normal" in="SourceGraphic" in2="effect1_dropShadow_1006_1134" result="shape"/>
</filter>
<filter id="filter4_d_1006_1134" x="255" y="218" width="195" height="208" filterUnits="userSpaceOnUse" color-interpolation-filters="sRGB">
<feFlood flood-opacity="0" result="BackgroundImageFix"/>
<feColorMatrix in="SourceAlpha" type="matrix" values="0 0 0 0 0 0 0 0 0 0 0 0 0 0 0 0 0 0 127 0" result="hardAlpha"/>
<feOffset dy="20"/>
<feGaussianBlur stdDeviation="20"/>
<feComposite in2="hardAlpha" operator="out"/>
<feColorMatrix type="matrix" values="0 0 0 0 0 0 0 0 0 0 0 0 0 0 0 0 0 0 0.06 0"/>
<feBlend mode="normal" in2="BackgroundImageFix" result="effect1_dropShadow_1006_1134"/>
<feBlend mode="normal" in="SourceGraphic" in2="effect1_dropShadow_1006_1134" result="shape"/>
</filter>
</defs>
</svg>
