<svg width="46" height="46" viewBox="0 0 46 46" fill="none" xmlns="http://www.w3.org/2000/svg">
<circle cx="23.3317" cy="22.655" r="21.655" fill="#F5F5F5" stroke="white" stroke-width="2"/>
<path fill-rule="evenodd" clip-rule="evenodd" d="M24.3826 13.6777C24.3826 13.0974 23.9121 12.627 23.3318 12.627C22.7515 12.627 22.2811 13.0974 22.2811 13.6777V21.6036H14.3548C13.7745 21.6036 13.3041 22.074 13.3041 22.6543C13.3041 23.2346 13.7745 23.7051 14.3548 23.7051H22.2811V31.6317C22.2811 32.212 22.7515 32.6824 23.3318 32.6824C23.9121 32.6824 24.3826 32.212 24.3826 31.6317V23.7051H32.3088C32.8891 23.7051 33.3596 23.2346 33.3596 22.6543C33.3596 22.074 32.8891 21.6036 32.3088 21.6036H24.3826V13.6777Z" fill="#E6001E"/>
</svg>
