<svg width="499" height="596" viewBox="0 0 499 596" fill="none" xmlns="http://www.w3.org/2000/svg">
<rect x="92" width="407" height="470" rx="20" fill="#FAF9F6"/>
<path d="M158 374L257.625 337.644C261.077 336.384 264.943 337.638 266.998 340.684L302.841 393.8C304.205 395.822 306.417 397.111 308.848 397.301L420 406" stroke="#FFA7B2" stroke-width="2" stroke-dasharray="4 4"/>
<circle cx="422.5" cy="406.5" r="18.5" fill="#CCEACD" fill-opacity="0.55"/>
<circle cx="422.5" cy="406.5" r="12.0088" fill="#CCEACD"/>
<circle cx="422.5" cy="406.5" r="6.16667" fill="#EEFFEF"/>
<circle cx="156.205" cy="371.333" r="16.6667" fill="#FF9EAB" fill-opacity="0.52"/>
<circle cx="156.205" cy="371.333" r="7.69231" fill="#FC7486"/>
<path d="M157.214 288C141.088 288 128 301.088 128 317.214C128 329.157 143.986 355.543 152.306 368.491C154.62 372.067 159.832 372.067 162.146 368.491C170.466 355.543 186.452 329.157 186.452 317.214C186.429 301.065 173.341 288 157.214 288ZM157.214 332.826C148.59 332.826 141.602 325.838 141.602 317.214C141.602 308.59 148.59 301.602 157.214 301.602C165.838 301.602 172.826 308.59 172.826 317.214C172.826 325.838 165.838 332.826 157.214 332.826Z" fill="#E6001E"/>
<g filter="url(#filter0_d_799_423)">
<rect x="40" y="452" width="354" height="84" rx="20" fill="white"/>
</g>
<rect x="129.955" y="484.198" width="234.044" height="6.59334" rx="3.29667" fill="#B8D9BA"/>
<rect x="129.955" y="497.385" width="144.274" height="6.59334" rx="3.29667" fill="#B8D9BA"/>
<path fill-rule="evenodd" clip-rule="evenodd" d="M88.4999 512C78.2954 512 70 503.705 70 493.5C70 483.295 78.2954 475 88.4999 475C93.1793 475 97.5705 476.7 100.992 479.836C99.8538 480.509 98.7556 481.254 97.6994 482.061C95.1071 479.969 91.8839 478.818 88.4999 478.818C80.4127 478.818 73.8179 485.413 73.8179 493.5C73.8179 501.587 80.4127 508.182 88.4999 508.182C99.7526 508.182 106.433 496.154 101.593 486.802C102.327 486.12 103.082 485.458 103.857 484.819C104.086 484.631 104.316 484.444 104.549 484.259C106.168 487.055 107 490.225 107 493.5C107 503.705 98.7045 512 88.4999 512Z" fill="#B8D9BA"/>
<path fill-rule="evenodd" clip-rule="evenodd" d="M88.9866 503.01C88.7784 503.01 88.6048 502.871 88.5354 502.698C88.5008 502.628 85.5157 494.923 80.8994 492.007C79.9969 491.452 79.3029 490.862 79.5805 489.543C79.8581 488.258 80.7259 487.53 82.2878 487.182C85.0644 486.592 88.0494 490.896 89.1602 492.667C93.0475 487.009 100.822 478.123 112.138 477.082C112.683 477.018 112.885 477.827 112.381 478.054C112.207 478.123 96.0324 485.517 89.4724 502.732C89.3684 502.906 89.1948 503.01 88.9866 503.01Z" fill="#B8D9BA"/>
<defs>
<filter id="filter0_d_799_423" x="0" y="432" width="434" height="164" filterUnits="userSpaceOnUse" color-interpolation-filters="sRGB">
<feFlood flood-opacity="0" result="BackgroundImageFix"/>
<feColorMatrix in="SourceAlpha" type="matrix" values="0 0 0 0 0 0 0 0 0 0 0 0 0 0 0 0 0 0 127 0" result="hardAlpha"/>
<feOffset dy="20"/>
<feGaussianBlur stdDeviation="20"/>
<feComposite in2="hardAlpha" operator="out"/>
<feColorMatrix type="matrix" values="0 0 0 0 0 0 0 0 0 0 0 0 0 0 0 0 0 0 0.08 0"/>
<feBlend mode="normal" in2="BackgroundImageFix" result="effect1_dropShadow_799_423"/>
<feBlend mode="normal" in="SourceGraphic" in2="effect1_dropShadow_799_423" result="shape"/>
</filter>
</defs>
</svg>
