<svg width="41" height="40" viewBox="0 0 41 40" fill="none" xmlns="http://www.w3.org/2000/svg">
<path d="M12.7796 39.9999C12.7074 39.9289 12.5944 39.8705 12.5703 39.7859C12.5117 39.5772 12.4092 39.3172 12.4824 39.144C12.5557 38.9707 12.8089 38.8569 13.0056 38.7609C13.1102 38.7098 13.2619 38.7505 13.3927 38.7505H38.8318V36.8716H15.4308C15.3137 36.8716 15.1954 36.8768 15.0782 36.8716C14.9139 36.8675 14.7576 36.8 14.6422 36.6831C14.5268 36.5663 14.4615 36.4093 14.4599 36.2453C14.46 36.1635 14.4764 36.0826 14.5081 36.0072C14.5398 35.9318 14.5862 35.8634 14.6446 35.8061C14.703 35.7487 14.7723 35.7034 14.8483 35.6729C14.9244 35.6424 15.0057 35.6273 15.0877 35.6284C15.8954 35.619 16.7021 35.6284 17.5349 35.6284V17.5182H13.7997V17.9629C13.7997 20.944 13.7997 23.9259 13.7997 26.9084C13.7997 27.2111 13.7191 27.4794 13.423 27.5629C13.2358 27.6161 12.9522 27.6046 12.8162 27.494C12.6555 27.3368 12.5625 27.1234 12.5567 26.899C12.5368 25.1245 12.5452 23.3573 12.5452 21.586V17.0976C12.5452 16.4285 12.7241 16.2552 13.4084 16.2552H17.9503C18.6314 16.2552 18.8103 16.4306 18.8103 17.1018V35.6044H21.3214V13.3816C21.3214 12.6582 21.4846 12.4975 22.2212 12.4975H26.6856C27.418 12.4975 27.5854 12.6582 27.5854 13.3816V35.5961H30.0965V9.63327C30.0965 8.9026 30.2597 8.74707 30.9952 8.74707H35.4199C36.2109 8.74707 36.3616 8.89321 36.3616 9.66876V35.6253H37.4172C38.045 35.6253 38.6728 35.6441 39.3005 35.618C39.6646 35.6023 39.9283 35.7224 40.125 36.0157V39.9999H12.7796ZM35.0725 35.6075V10.0153H31.3625V35.6075H35.0725ZM26.3016 35.6075V13.7793H22.5905V35.6075H26.3016Z" fill="#FF3A54"/>
<path d="M6.04763 40C5.63644 39.8956 5.22002 39.8048 4.81511 39.6785C1.75267 38.7266 -0.270822 35.6839 0.0294581 32.4919C0.3266 29.327 2.79267 26.7509 5.93044 26.3188C6.95632 26.1725 8.00203 26.2586 8.99005 26.5704C9.97808 26.8823 10.8831 27.412 11.638 28.1203C12.3929 28.8286 12.9783 29.6973 13.3508 30.662C13.7234 31.6268 13.8735 32.6628 13.7901 33.6933C13.5536 36.8425 11.053 39.4917 7.9079 39.927C7.8332 39.9444 7.76033 39.9688 7.69028 40H6.04763ZM6.92754 27.4993C5.42962 27.5029 3.99399 28.0977 2.93421 29.1538C1.87443 30.2099 1.27663 31.6415 1.27138 33.1359C1.27138 36.2162 3.8494 38.7673 6.94847 38.7506C10.0057 38.7339 12.5565 36.1744 12.5471 33.1328C12.5345 30.0431 9.98999 27.4951 6.92336 27.4993H6.92754Z" fill="#FF3A54"/>
<path d="M31.6811 1.24527H30.0981C29.2611 1.24527 28.424 1.25153 27.587 1.24527C27.5025 1.24912 27.4181 1.23513 27.3393 1.20422C27.2606 1.17331 27.1892 1.12617 27.13 1.06588C27.0707 1.00559 27.0249 0.933508 26.9955 0.854342C26.9661 0.775176 26.9537 0.690706 26.9593 0.606456C26.9676 0.256778 27.2125 0.0198325 27.587 0C27.6393 0 27.6916 0 27.744 0C29.5184 0 31.2933 0 33.0685 0C33.6313 0 33.8479 0.215025 33.8479 0.775553C33.8479 2.55908 33.8479 4.34331 33.8479 6.12823C33.8479 6.60212 33.6303 6.8589 33.24 6.87352C32.8289 6.88396 32.5976 6.61882 32.5976 6.12405C32.5976 4.95289 32.5976 3.78104 32.5976 2.60849V2.17218C31.7303 2.94564 30.932 3.68675 30.1044 4.39341C25.5834 8.25553 20.7297 11.5957 15.1521 13.7783C12.7194 14.7492 10.1588 15.3641 7.54983 15.604C7.36777 15.6196 7.18468 15.6228 7.00263 15.6238C6.5611 15.6238 6.29849 15.4046 6.28384 15.0288C6.26919 14.6531 6.50879 14.4025 6.94404 14.3733C8.56923 14.2631 10.1792 13.99 11.7496 13.5581C15.2692 12.5811 18.5043 10.9841 21.5919 9.0697C25.1942 6.82968 28.4941 4.21283 31.6811 1.24527Z" fill="#FF3A54"/>
<path d="M8.78495 20.6298H5.02569V21.0473C5.02569 22.2303 5.02569 23.4133 5.02569 24.5963C5.02569 25.0775 4.78086 25.375 4.39792 25.3729C4.01499 25.3708 3.77644 25.0733 3.77539 24.59C3.77539 23.1064 3.77539 21.6225 3.77539 20.1382C3.77539 19.5735 3.98465 19.373 4.55696 19.373C6.12288 19.373 7.6888 19.373 9.25473 19.373C9.83227 19.373 10.0384 19.5745 10.0394 20.1371C10.0394 21.6214 10.0394 23.1054 10.0394 24.589C10.0394 25.0733 9.80193 25.3698 9.41899 25.3739C9.03606 25.3781 8.79123 25.0806 8.79123 24.6005C8.79123 23.4175 8.79123 22.2327 8.79123 21.0463L8.78495 20.6298Z" fill="#FF3A54"/>
<path d="M6.25676 35.5469V33.7286C4.98135 33.3559 4.37347 32.6023 4.39858 31.4499C4.42159 30.4625 5.11004 29.6943 6.23165 29.4103C6.27455 29.2913 6.28292 29.1306 6.36766 29.0607C6.52774 28.9291 6.737 28.7611 6.91382 28.7736C7.02347 28.788 7.1286 28.8264 7.22172 28.8859C7.31485 28.9454 7.39369 29.0247 7.45265 29.1181C7.56565 29.3446 7.69329 29.4166 7.92138 29.4813C8.63808 29.6901 9.17691 30.1076 9.36838 30.8675C9.39869 30.9935 9.41137 31.1232 9.40604 31.2527C9.40612 31.4101 9.34615 31.5617 9.23831 31.6766C9.13047 31.7916 8.98284 31.8613 8.82536 31.8716C8.74764 31.8815 8.66872 31.8758 8.59326 31.8547C8.5178 31.8337 8.44732 31.7978 8.38599 31.7492C8.32465 31.7005 8.2737 31.6401 8.23613 31.5715C8.19857 31.5029 8.17515 31.4275 8.16726 31.3497C8.12227 30.9802 7.91824 30.8049 7.53008 30.7036V32.5303C8.19969 32.667 8.74585 32.9833 9.09949 33.5741C9.34189 33.9788 9.44787 34.4504 9.40186 34.9196C9.33071 35.8465 8.64959 36.5646 7.55519 36.8486C7.49869 37.2024 7.33442 37.5082 6.92742 37.4884C6.73595 37.479 6.43149 37.3475 6.38859 37.2066C6.28396 36.8632 6.04227 36.8183 5.77129 36.7316C4.93427 36.4665 4.40172 35.811 4.39648 35.0762C4.39648 34.691 4.60574 34.4259 4.93845 34.3841C5.29942 34.3392 5.58296 34.549 5.64155 34.9488C5.697 35.2964 5.91149 35.4509 6.25676 35.5469ZM6.25676 30.7381C5.84557 30.9134 5.65724 31.1963 5.66457 31.5731C5.66003 31.7539 5.7157 31.931 5.82286 32.0768C5.93001 32.2226 6.08261 32.3289 6.25676 32.3789V30.7381ZM7.5646 33.8695V35.4968C7.96009 35.3361 8.13901 35.0563 8.14528 34.7014C8.15156 34.333 7.97683 34.0365 7.5646 33.8737V33.8695Z" fill="#FF3A54"/>
</svg>
