<svg width="439" height="439" viewBox="0 0 439 439" fill="none" xmlns="http://www.w3.org/2000/svg">
<g clip-path="url(#clip0_1320_889)">
<rect width="439" height="439" rx="20" fill="#FAF9F6"/>
<rect x="42" y="196" width="338" height="178" rx="16" fill="#B8D9BA"/>
<rect x="42.5" y="196.5" width="337" height="177" rx="15.5" stroke="#B8D9BA" stroke-opacity="0.24"/>
<g filter="url(#filter0_d_1320_889)">
<rect x="32" y="35" width="86" height="44" rx="4" fill="white"/>
</g>
<g filter="url(#filter1_d_1320_889)">
<rect x="14" y="106" width="86" height="44" rx="4" fill="white"/>
</g>
<g filter="url(#filter2_d_1320_889)">
<rect x="131" y="35" width="86" height="44" rx="4" fill="white"/>
</g>
<g filter="url(#filter3_d_1320_889)">
<rect x="113" y="106" width="86" height="44" rx="4" fill="white"/>
</g>
<g filter="url(#filter4_d_1320_889)">
<rect x="231" y="35" width="86" height="44" rx="4" fill="white"/>
</g>
<g filter="url(#filter5_d_1320_889)">
<rect x="213" y="106" width="86" height="44" rx="4" fill="white"/>
</g>
<g filter="url(#filter6_d_1320_889)">
<rect x="330" y="35" width="86" height="44" rx="4" fill="white"/>
</g>
<g filter="url(#filter7_d_1320_889)">
<rect x="312" y="106" width="86" height="44" rx="4" fill="white"/>
</g>
<path d="M77.7488 369.751C80.649 357.463 73.0389 345.151 60.7512 342.251C48.4635 339.351 36.1514 346.961 33.2512 359.249C30.351 371.536 37.9611 383.849 50.2488 386.749C62.5365 389.649 74.8487 382.039 77.7488 369.751Z" fill="#FB7B88"/>
<path d="M50.533 373.279C50.0532 373.273 49.5954 373.077 49.2584 372.736L44.8225 368.167C44.6583 367.998 44.5291 367.798 44.4423 367.579C44.3555 367.359 44.3128 367.125 44.3166 366.889C44.3205 366.653 44.3707 366.42 44.4646 366.204C44.5584 365.987 44.694 365.791 44.8636 365.627C45.033 365.463 45.2332 365.334 45.4525 365.247C45.6719 365.16 45.9063 365.118 46.1421 365.122C46.378 365.125 46.6109 365.176 46.8273 365.269C47.0438 365.363 47.2396 365.499 47.4036 365.669L50.5695 368.939L63.1234 356.386C63.4609 356.048 63.9185 355.859 64.3956 355.859C64.8728 355.859 65.3304 356.048 65.668 356.386C66.0038 356.723 66.1924 357.18 66.1924 357.656C66.1924 358.132 66.0038 358.588 65.668 358.926L51.8167 372.772C51.6474 372.938 51.4465 373.069 51.2261 373.156C51.0056 373.243 50.7699 373.285 50.533 373.279Z" fill="white"/>
<path d="M99.6551 228.396V243.632C99.648 246.03 98.6915 248.328 96.995 250.022C95.2985 251.716 93.0002 252.669 90.6032 252.672H75.3691C72.9704 252.665 70.6723 251.706 68.9787 250.007C67.285 248.307 66.334 246.005 66.334 243.605V228.359C66.3375 225.962 67.2922 223.664 68.9882 221.97C70.6842 220.276 72.9829 219.325 75.3791 219.326H90.6166C91.806 219.326 92.9837 219.56 94.0822 220.016C95.1808 220.472 96.1785 221.141 97.0183 221.983C97.858 222.826 98.5232 223.826 98.9757 224.927C99.4282 226.027 99.659 227.206 99.6551 228.396Z" fill="#FAF9F6"/>
<path d="M90.6015 253.007H75.3674C72.8802 252.999 70.4977 252.005 68.7418 250.242C66.9859 248.48 66 246.093 66 243.604L66.0168 228.359C66.023 225.878 67.0114 223.5 68.7657 221.746C70.52 219.992 72.8974 219.004 75.3774 219H90.6149C93.1003 219.011 95.4803 220.006 97.234 221.768C98.9876 223.53 99.9722 225.916 99.9722 228.403V243.638C99.9633 246.121 98.973 248.5 97.2174 250.255C95.4618 252.011 93.0834 253 90.6015 253.007ZM75.3774 219.662C73.0724 219.669 70.8637 220.588 69.2338 222.219C67.6039 223.85 66.6851 226.059 66.678 228.366L66.6612 243.604C66.6612 245.917 67.5778 248.134 69.2099 249.771C70.8421 251.408 73.0565 252.33 75.3674 252.335H90.6048C92.9157 252.335 95.1322 251.418 96.7682 249.785C98.4041 248.152 99.3258 245.937 99.3311 243.625V228.389C99.3312 226.078 98.4155 223.861 96.7848 222.225C95.1541 220.588 92.9414 219.665 90.6317 219.658H75.3976L75.3774 219.662Z" fill="black"/>
<path d="M82.9821 253.007C82.8931 253.007 82.8077 252.972 82.7448 252.909C82.6818 252.846 82.6465 252.761 82.6465 252.672L82.68 220.038C82.68 219.949 82.7154 219.863 82.7783 219.801C82.8413 219.738 82.9267 219.702 83.0157 219.702C83.1047 219.702 83.19 219.738 83.253 219.801C83.3159 219.863 83.3513 219.949 83.3513 220.038L83.311 252.672C83.311 252.759 83.2766 252.844 83.2151 252.907C83.1536 252.969 83.07 253.006 82.9821 253.007Z" fill="black"/>
<path d="M99.2448 230.555H83.0173C82.9283 230.555 82.8429 230.52 82.7799 230.457C82.717 230.394 82.6816 230.309 82.6816 230.22C82.6816 230.131 82.717 230.045 82.7799 229.982C82.8429 229.919 82.9283 229.884 83.0173 229.884L99.2448 229.901C99.3339 229.901 99.4192 229.936 99.4822 229.999C99.5451 230.062 99.5805 230.147 99.5805 230.236C99.5762 230.323 99.5389 230.404 99.4764 230.463C99.4139 230.522 99.331 230.556 99.2448 230.555Z" fill="black"/>
<path d="M99.2443 242.14H83.0134C82.9243 242.14 82.839 242.105 82.776 242.042C82.7131 241.979 82.6777 241.894 82.6777 241.805C82.6777 241.715 82.7131 241.63 82.776 241.567C82.839 241.504 82.9243 241.469 83.0134 241.469H99.2409C99.33 241.469 99.4153 241.504 99.4783 241.567C99.5412 241.63 99.5766 241.715 99.5766 241.805C99.5766 241.893 99.5417 241.978 99.4795 242.041C99.4172 242.104 99.3327 242.139 99.2443 242.14Z" fill="black"/>
<path d="M316.342 275L315.781 280.865L321.617 279.166L322.001 281.752L316.416 282.328L320.021 287.13L317.628 288.445L314.953 283.185L312.501 288.445L310.019 287.13L313.594 282.328L308.039 281.752L308.453 279.166L314.2 280.865L313.624 275H316.342Z" fill="white"/>
<path d="M299.676 275L299.115 280.865L304.951 279.166L305.335 281.752L299.75 282.328L303.355 287.13L300.962 288.445L298.287 283.185L295.835 288.445L293.353 287.13L296.928 282.328L291.373 281.752L291.787 279.166L297.534 280.865L296.958 275H299.676Z" fill="white"/>
<path d="M283.01 275L282.449 280.865L288.285 279.166L288.669 281.752L283.084 282.328L286.689 287.13L284.296 288.445L281.621 283.185L279.169 288.445L276.687 287.13L280.262 282.328L274.707 281.752L275.121 279.166L280.868 280.865L280.292 275H283.01Z" fill="white"/>
<path d="M258.485 275L257.923 280.865L263.759 279.166L264.143 281.752L258.559 282.328L262.164 287.13L259.77 288.445L257.096 283.185L254.643 288.445L252.161 287.13L255.737 282.328L250.182 281.752L250.595 279.166L256.343 280.865L255.766 275H258.485Z" fill="white"/>
<path d="M241.819 275L241.257 280.865L247.093 279.166L247.477 281.752L241.893 282.328L245.498 287.13L243.104 288.445L240.43 283.185L237.977 288.445L235.495 287.13L239.071 282.328L233.516 281.752L233.929 279.166L239.677 280.865L239.1 275H241.819Z" fill="white"/>
<path d="M225.153 275L224.591 280.865L230.427 279.166L230.811 281.752L225.227 282.328L228.832 287.13L226.438 288.445L223.764 283.185L221.311 288.445L218.829 287.13L222.405 282.328L216.85 281.752L217.263 279.166L223.011 280.865L222.434 275H225.153Z" fill="white"/>
<path d="M200.629 275L200.068 280.865L205.904 279.166L206.288 281.752L200.703 282.328L204.308 287.13L201.915 288.445L199.241 283.185L196.788 288.445L194.306 287.13L197.881 282.328L192.326 281.752L192.74 279.166L198.487 280.865L197.911 275H200.629Z" fill="white"/>
<path d="M183.965 275L183.404 280.865L189.24 279.166L189.624 281.752L184.039 282.328L187.644 287.13L185.251 288.445L182.576 283.185L180.124 288.445L177.642 287.13L181.217 282.328L175.662 281.752L176.076 279.166L181.823 280.865L181.247 275H183.965Z" fill="white"/>
<path d="M167.299 275L166.738 280.865L172.574 279.166L172.958 281.752L167.373 282.328L170.978 287.13L168.585 288.445L165.91 283.185L163.458 288.445L160.976 287.13L164.551 282.328L158.996 281.752L159.41 279.166L165.157 280.865L164.581 275H167.299Z" fill="white"/>
<path d="M142.772 275L142.21 280.865L148.046 279.166L148.43 281.752L142.846 282.328L146.451 287.13L144.057 288.445L141.383 283.185L138.931 288.445L136.449 287.13L140.024 282.328L134.469 281.752L134.882 279.166L140.63 280.865L140.053 275H142.772Z" fill="white"/>
<path d="M124.159 284.78C125.626 284.78 126.902 285.032 127.985 285.534C129.069 286.026 129.906 286.745 130.497 287.691C131.098 288.637 131.398 289.784 131.398 291.133C131.398 292.611 131.078 293.886 130.438 294.96C129.798 296.024 128.877 296.846 127.675 297.427C126.473 297.999 125.035 298.284 123.361 298.284C122.238 298.284 121.194 298.186 120.229 297.989C119.264 297.792 118.451 297.496 117.791 297.102V294.768C118.51 295.201 119.382 295.546 120.406 295.802C121.43 296.058 122.425 296.186 123.39 296.186C124.484 296.186 125.439 296.014 126.257 295.669C127.084 295.315 127.724 294.783 128.177 294.074C128.64 293.355 128.872 292.453 128.872 291.37C128.872 289.932 128.429 288.824 127.542 288.046C126.665 287.258 125.277 286.864 123.376 286.864C122.765 286.864 122.095 286.913 121.366 287.011C120.638 287.11 120.037 287.218 119.564 287.336L118.323 286.524L119.15 276.389H129.891V278.634H121.248L120.702 285.15C121.076 285.071 121.558 284.992 122.149 284.913C122.74 284.825 123.41 284.78 124.159 284.78Z" fill="white"/>
<path d="M114.169 297.989H100.016V295.935L105.792 290.07C106.866 288.986 107.767 288.021 108.496 287.174C109.235 286.327 109.796 285.495 110.18 284.677C110.564 283.85 110.757 282.944 110.757 281.959C110.757 280.737 110.392 279.807 109.663 279.166C108.944 278.516 107.994 278.191 106.812 278.191C105.778 278.191 104.862 278.369 104.064 278.723C103.266 279.078 102.448 279.58 101.611 280.23L100.296 278.575C100.868 278.093 101.488 277.664 102.158 277.29C102.838 276.916 103.561 276.62 104.33 276.404C105.108 276.187 105.935 276.079 106.812 276.079C108.142 276.079 109.289 276.31 110.254 276.773C111.219 277.236 111.963 277.896 112.485 278.753C113.017 279.61 113.283 280.629 113.283 281.811C113.283 282.954 113.056 284.017 112.603 285.002C112.15 285.977 111.515 286.948 110.697 287.913C109.88 288.868 108.925 289.883 107.831 290.956L103.133 295.64V295.743H114.169V297.989Z" fill="white"/>
<path d="M158.976 347.81H156.954V350.94H155.458V347.81H148.93V346.517L155.357 337.366H156.954V346.425H158.976V347.81ZM155.458 346.425V342.011C155.458 341.672 155.461 341.368 155.467 341.097C155.473 340.82 155.483 340.564 155.495 340.33C155.507 340.09 155.517 339.862 155.523 339.647C155.535 339.432 155.544 339.219 155.55 339.01H155.477C155.36 339.256 155.224 339.518 155.07 339.795C154.923 340.066 154.772 340.309 154.618 340.524L150.453 346.425H155.458Z" fill="white"/>
<path d="M144.827 350.94H135.98V349.657L139.591 345.991C140.262 345.313 140.825 344.71 141.281 344.181C141.742 343.651 142.093 343.131 142.333 342.62C142.574 342.103 142.694 341.537 142.694 340.921C142.694 340.158 142.466 339.576 142.01 339.176C141.561 338.77 140.967 338.567 140.228 338.567C139.582 338.567 139.009 338.677 138.511 338.899C138.012 339.121 137.501 339.435 136.978 339.841L136.156 338.807C136.513 338.505 136.901 338.237 137.319 338.003C137.744 337.769 138.197 337.585 138.677 337.449C139.163 337.314 139.68 337.246 140.228 337.246C141.059 337.246 141.776 337.391 142.38 337.68C142.983 337.969 143.448 338.382 143.774 338.917C144.106 339.453 144.273 340.09 144.273 340.829C144.273 341.543 144.131 342.208 143.848 342.823C143.565 343.433 143.168 344.039 142.657 344.642C142.146 345.24 141.549 345.874 140.865 346.545L137.929 349.472V349.536H144.827V350.94Z" fill="white"/>
<path d="M132.192 337.44L127.169 350.94H125.654L130.687 337.44H132.192Z" fill="white"/>
<path d="M121.77 350.94H112.924V349.657L116.534 345.991C117.205 345.313 117.769 344.71 118.224 344.181C118.686 343.651 119.037 343.131 119.277 342.62C119.517 342.103 119.637 341.537 119.637 340.921C119.637 340.158 119.409 339.576 118.954 339.176C118.504 338.77 117.91 338.567 117.171 338.567C116.525 338.567 115.953 338.677 115.454 338.899C114.955 339.121 114.444 339.435 113.921 339.841L113.099 338.807C113.456 338.505 113.844 338.237 114.263 338.003C114.688 337.769 115.14 337.585 115.62 337.449C116.106 337.314 116.624 337.246 117.171 337.246C118.003 337.246 118.72 337.391 119.323 337.68C119.926 337.969 120.391 338.382 120.717 338.917C121.05 339.453 121.216 340.09 121.216 340.829C121.216 341.543 121.074 342.208 120.791 342.823C120.508 343.433 120.111 344.039 119.6 344.642C119.089 345.24 118.492 345.874 117.809 346.545L114.872 349.472V349.536H121.77V350.94Z" fill="white"/>
<path d="M105.159 350.94H103.664V341.374C103.664 341.01 103.664 340.7 103.664 340.441C103.67 340.176 103.676 339.936 103.682 339.721C103.694 339.499 103.71 339.274 103.728 339.047C103.537 339.244 103.359 339.413 103.193 339.555C103.026 339.69 102.82 339.859 102.574 340.062L101.032 341.3L100.229 340.256L103.885 337.44H105.159V350.94Z" fill="white"/>
<path d="M152.463 324.753L155.337 319.338H156.689L153.091 325.949V330.138H151.835V326.008L148.23 319.338H149.604L152.463 324.753Z" fill="white"/>
<path d="M141.879 324.753L144.753 319.338H146.105L142.507 325.949V330.138H141.251V326.008L137.646 319.338H139.02L141.879 324.753Z" fill="white"/>
<path d="M135.359 319.338L131.34 330.138H130.129L134.155 319.338H135.359Z" fill="white"/>
<path d="M120.473 330.138L116.846 320.579H116.786C116.806 320.781 116.823 321.027 116.838 321.318C116.853 321.608 116.865 321.926 116.875 322.271C116.885 322.61 116.89 322.958 116.89 323.312V330.138H115.723V319.338H117.584L121.004 328.321H121.056L124.528 319.338H126.375V330.138H125.134V323.224C125.134 322.903 125.139 322.583 125.149 322.263C125.159 321.938 125.171 321.633 125.186 321.347C125.2 321.057 125.215 320.805 125.23 320.594H125.171L121.499 330.138H120.473Z" fill="white"/>
<path d="M104.75 330.138L101.123 320.579H101.064C101.083 320.781 101.101 321.027 101.115 321.318C101.13 321.608 101.143 321.926 101.152 322.271C101.162 322.61 101.167 322.958 101.167 323.312V330.138H100V319.338H101.862L105.282 328.321H105.334L108.805 319.338H110.652V330.138H109.411V323.224C109.411 322.903 109.416 322.583 109.426 322.263C109.436 321.938 109.448 321.633 109.463 321.347C109.478 321.057 109.493 320.805 109.507 320.594H109.448L105.777 330.138H104.75Z" fill="white"/>
<path fill-rule="evenodd" clip-rule="evenodd" d="M341.5 355.261C345.386 353.013 348 348.812 348 344C348 339.188 345.386 334.987 341.5 332.739C343.412 331.633 345.632 331 348 331C355.18 331 361 336.82 361 344C361 351.18 355.18 357 348 357C345.632 357 343.412 356.367 341.5 355.261ZM341.5 355.261C339.588 356.367 337.368 357 335 357C327.82 357 322 351.18 322 344C322 336.82 327.82 331 335 331C337.368 331 339.588 331.633 341.5 332.739C337.614 334.987 335 339.188 335 344C335 348.812 337.614 353.013 341.5 355.261Z" fill="white"/>
<rect x="279" y="220" width="85" height="4" rx="2" fill="#FAF9F6"/>
<rect x="312" y="229" width="52" height="4" rx="2" fill="#FAF9F6"/>
<path d="M398 332V387C398 389.761 395.761 392 393 392H350" stroke="#B8D9BA" stroke-width="3"/>
</g>
<defs>
<filter id="filter0_d_1320_889" x="0" y="19" width="150" height="108" filterUnits="userSpaceOnUse" color-interpolation-filters="sRGB">
<feFlood flood-opacity="0" result="BackgroundImageFix"/>
<feColorMatrix in="SourceAlpha" type="matrix" values="0 0 0 0 0 0 0 0 0 0 0 0 0 0 0 0 0 0 127 0" result="hardAlpha"/>
<feOffset dy="16"/>
<feGaussianBlur stdDeviation="16"/>
<feComposite in2="hardAlpha" operator="out"/>
<feColorMatrix type="matrix" values="0 0 0 0 0 0 0 0 0 0 0 0 0 0 0 0 0 0 0.08 0"/>
<feBlend mode="normal" in2="BackgroundImageFix" result="effect1_dropShadow_1320_889"/>
<feBlend mode="normal" in="SourceGraphic" in2="effect1_dropShadow_1320_889" result="shape"/>
</filter>
<filter id="filter1_d_1320_889" x="-18" y="90" width="150" height="108" filterUnits="userSpaceOnUse" color-interpolation-filters="sRGB">
<feFlood flood-opacity="0" result="BackgroundImageFix"/>
<feColorMatrix in="SourceAlpha" type="matrix" values="0 0 0 0 0 0 0 0 0 0 0 0 0 0 0 0 0 0 127 0" result="hardAlpha"/>
<feOffset dy="16"/>
<feGaussianBlur stdDeviation="16"/>
<feComposite in2="hardAlpha" operator="out"/>
<feColorMatrix type="matrix" values="0 0 0 0 0 0 0 0 0 0 0 0 0 0 0 0 0 0 0.08 0"/>
<feBlend mode="normal" in2="BackgroundImageFix" result="effect1_dropShadow_1320_889"/>
<feBlend mode="normal" in="SourceGraphic" in2="effect1_dropShadow_1320_889" result="shape"/>
</filter>
<filter id="filter2_d_1320_889" x="99" y="19" width="150" height="108" filterUnits="userSpaceOnUse" color-interpolation-filters="sRGB">
<feFlood flood-opacity="0" result="BackgroundImageFix"/>
<feColorMatrix in="SourceAlpha" type="matrix" values="0 0 0 0 0 0 0 0 0 0 0 0 0 0 0 0 0 0 127 0" result="hardAlpha"/>
<feOffset dy="16"/>
<feGaussianBlur stdDeviation="16"/>
<feComposite in2="hardAlpha" operator="out"/>
<feColorMatrix type="matrix" values="0 0 0 0 0 0 0 0 0 0 0 0 0 0 0 0 0 0 0.08 0"/>
<feBlend mode="normal" in2="BackgroundImageFix" result="effect1_dropShadow_1320_889"/>
<feBlend mode="normal" in="SourceGraphic" in2="effect1_dropShadow_1320_889" result="shape"/>
</filter>
<filter id="filter3_d_1320_889" x="81" y="90" width="150" height="108" filterUnits="userSpaceOnUse" color-interpolation-filters="sRGB">
<feFlood flood-opacity="0" result="BackgroundImageFix"/>
<feColorMatrix in="SourceAlpha" type="matrix" values="0 0 0 0 0 0 0 0 0 0 0 0 0 0 0 0 0 0 127 0" result="hardAlpha"/>
<feOffset dy="16"/>
<feGaussianBlur stdDeviation="16"/>
<feComposite in2="hardAlpha" operator="out"/>
<feColorMatrix type="matrix" values="0 0 0 0 0 0 0 0 0 0 0 0 0 0 0 0 0 0 0.08 0"/>
<feBlend mode="normal" in2="BackgroundImageFix" result="effect1_dropShadow_1320_889"/>
<feBlend mode="normal" in="SourceGraphic" in2="effect1_dropShadow_1320_889" result="shape"/>
</filter>
<filter id="filter4_d_1320_889" x="199" y="19" width="150" height="108" filterUnits="userSpaceOnUse" color-interpolation-filters="sRGB">
<feFlood flood-opacity="0" result="BackgroundImageFix"/>
<feColorMatrix in="SourceAlpha" type="matrix" values="0 0 0 0 0 0 0 0 0 0 0 0 0 0 0 0 0 0 127 0" result="hardAlpha"/>
<feOffset dy="16"/>
<feGaussianBlur stdDeviation="16"/>
<feComposite in2="hardAlpha" operator="out"/>
<feColorMatrix type="matrix" values="0 0 0 0 0 0 0 0 0 0 0 0 0 0 0 0 0 0 0.08 0"/>
<feBlend mode="normal" in2="BackgroundImageFix" result="effect1_dropShadow_1320_889"/>
<feBlend mode="normal" in="SourceGraphic" in2="effect1_dropShadow_1320_889" result="shape"/>
</filter>
<filter id="filter5_d_1320_889" x="181" y="90" width="150" height="108" filterUnits="userSpaceOnUse" color-interpolation-filters="sRGB">
<feFlood flood-opacity="0" result="BackgroundImageFix"/>
<feColorMatrix in="SourceAlpha" type="matrix" values="0 0 0 0 0 0 0 0 0 0 0 0 0 0 0 0 0 0 127 0" result="hardAlpha"/>
<feOffset dy="16"/>
<feGaussianBlur stdDeviation="16"/>
<feComposite in2="hardAlpha" operator="out"/>
<feColorMatrix type="matrix" values="0 0 0 0 0 0 0 0 0 0 0 0 0 0 0 0 0 0 0.08 0"/>
<feBlend mode="normal" in2="BackgroundImageFix" result="effect1_dropShadow_1320_889"/>
<feBlend mode="normal" in="SourceGraphic" in2="effect1_dropShadow_1320_889" result="shape"/>
</filter>
<filter id="filter6_d_1320_889" x="298" y="19" width="150" height="108" filterUnits="userSpaceOnUse" color-interpolation-filters="sRGB">
<feFlood flood-opacity="0" result="BackgroundImageFix"/>
<feColorMatrix in="SourceAlpha" type="matrix" values="0 0 0 0 0 0 0 0 0 0 0 0 0 0 0 0 0 0 127 0" result="hardAlpha"/>
<feOffset dy="16"/>
<feGaussianBlur stdDeviation="16"/>
<feComposite in2="hardAlpha" operator="out"/>
<feColorMatrix type="matrix" values="0 0 0 0 0 0 0 0 0 0 0 0 0 0 0 0 0 0 0.08 0"/>
<feBlend mode="normal" in2="BackgroundImageFix" result="effect1_dropShadow_1320_889"/>
<feBlend mode="normal" in="SourceGraphic" in2="effect1_dropShadow_1320_889" result="shape"/>
</filter>
<filter id="filter7_d_1320_889" x="280" y="90" width="150" height="108" filterUnits="userSpaceOnUse" color-interpolation-filters="sRGB">
<feFlood flood-opacity="0" result="BackgroundImageFix"/>
<feColorMatrix in="SourceAlpha" type="matrix" values="0 0 0 0 0 0 0 0 0 0 0 0 0 0 0 0 0 0 127 0" result="hardAlpha"/>
<feOffset dy="16"/>
<feGaussianBlur stdDeviation="16"/>
<feComposite in2="hardAlpha" operator="out"/>
<feColorMatrix type="matrix" values="0 0 0 0 0 0 0 0 0 0 0 0 0 0 0 0 0 0 0.08 0"/>
<feBlend mode="normal" in2="BackgroundImageFix" result="effect1_dropShadow_1320_889"/>
<feBlend mode="normal" in="SourceGraphic" in2="effect1_dropShadow_1320_889" result="shape"/>
</filter>
<clipPath id="clip0_1320_889">
<rect width="439" height="439" fill="white"/>
</clipPath>
</defs>
</svg>
