<svg width="44" height="44" viewBox="0 0 44 44" fill="none" xmlns="http://www.w3.org/2000/svg">
<rect x="0.5" y="0.5" width="43" height="43" rx="7.5" fill="white" stroke="white"/>
<path d="M28.2873 38.3248V25.5735L26.219 24.6046L25.6576 21.623H18.3423L17.781 24.6046L15.7793 25.5423V38.3248H28.2873Z" fill="#171717"/>
<path d="M36.8955 39.7187L36.3611 32.8883C36.2741 31.775 35.8936 30.7047 35.2582 29.7865C34.6228 28.8682 33.7554 28.1348 32.7442 27.661L27.0039 24.9717V26.6327H26.3497V27.5046H16.72V25.1019L11.2567 27.661C10.2454 28.1347 9.37779 28.868 8.74227 29.7863C8.10675 30.7046 7.72606 31.775 7.639 32.8883L7.10547 39.7187H36.8955Z" fill="#BAC2D3"/>
<path d="M22.8552 27.5234H20.1057L19.582 28.7443L21.1601 30.7527L20.2427 35.1566L21.9997 38.9633L23.9681 34.8688L23.1435 30.6706L24.3931 28.6161L22.8552 27.5234Z" fill="#E6001E"/>
<path d="M36.3614 32.8886C36.2744 31.7754 35.8938 30.705 35.2583 29.7868C34.6229 28.8685 33.7554 28.1351 32.7442 27.6613L27.513 25.21C27.0863 27.6394 26.0733 29.8658 24.9724 32.0584C24.4632 33.0687 23.9832 34.0935 23.5333 35.1316C23.2821 35.7096 22.0005 39.0866 22.0005 39.0866C22.0005 39.0866 19.9226 33.9144 19.5443 32.9339C19.0316 31.6042 18.637 30.2204 17.9575 28.9624C17.8404 28.7469 17.7185 28.534 17.5919 28.324C16.4359 27.87 15.8417 26.8896 15.8636 25.5027L11.2567 27.6613C10.2454 28.135 9.37779 28.8684 8.74227 29.7867C8.10675 30.7049 7.72606 31.7753 7.639 32.8886L7.10547 39.7191H36.8955L36.3614 32.8886Z" fill="#B3B3B6"/>
<path d="M36.3614 32.8886C36.2744 31.7754 35.8938 30.705 35.2583 29.7868C34.6229 28.8685 33.7554 28.1351 32.7442 27.6613L27.513 25.21C27.0863 27.6394 26.0733 29.8658 24.9724 32.0584C24.4632 33.0687 23.9832 34.0935 23.5333 35.1316C23.2821 35.7096 22.0005 39.0866 22.0005 39.0866C22.0005 39.0866 19.9226 33.9144 19.5443 32.9339C19.0316 31.6042 18.637 30.2204 17.9575 28.9624C17.8404 28.7469 17.7185 28.534 17.5919 28.324C16.4359 27.87 15.8417 26.8896 15.8636 25.5027L11.2567 27.6613C10.2454 28.135 9.37779 28.8684 8.74227 29.7867C8.10675 30.7049 7.72606 31.7753 7.639 32.8886L7.10547 39.7191H36.8955L36.3614 32.8886Z" fill="#171717"/>
<path d="M36.8952 39.7187H32.862L32.3277 32.8871C32.2398 31.7739 31.8585 30.7039 31.2227 29.786C30.5869 28.8681 29.7192 28.1351 28.708 27.6615L27.1133 26.9134C27.2759 26.3527 27.4082 25.7838 27.5098 25.209L32.7439 27.6615C33.7548 28.1352 34.6221 28.8684 35.2574 29.7863C35.8927 30.7042 36.2735 31.7742 36.3608 32.8871L36.8952 39.7187Z" fill="#171717"/>
<path d="M29.9655 17.7676C30.2639 16.4926 29.9274 15.3237 29.214 15.1568C28.5005 14.9899 27.6803 15.8881 27.382 17.1631C27.0837 18.4381 27.4201 19.607 28.1336 19.7739C28.847 19.9409 29.6672 19.0426 29.9655 17.7676Z" fill="#E2B48A"/>
<path d="M15.8124 19.7842C16.5258 19.6171 16.862 18.4482 16.5635 17.1732C16.2649 15.8983 15.4446 15.0002 14.7312 15.1672C14.0178 15.3343 13.6815 16.5033 13.9801 17.7782C14.2786 19.0532 15.099 19.9513 15.8124 19.7842Z" fill="#E2B48A"/>
<path d="M21.9734 24.1773C25.6748 24.1773 28.6753 20.0417 28.6753 14.9402C28.6753 9.83871 25.6748 5.70312 21.9734 5.70312C18.272 5.70312 15.2715 9.83871 15.2715 14.9402C15.2715 20.0417 18.272 24.1773 21.9734 24.1773Z" fill="#F0C191"/>
<path d="M28.2553 18.1266C28.2553 18.1266 30.622 13.898 30.1093 10.5444C29.5965 7.19075 27.3373 6.13212 25.9948 6.13212C25.9948 6.13212 24.183 3.44928 19.7058 4.54362C15.2286 5.63797 13.4283 10.5545 14.2754 13.6561C15.1226 16.7577 15.6873 18.1826 15.6873 18.1826C15.6873 18.1826 15.1226 14.2169 15.7579 12.0274C16.3933 9.83787 18.2996 8.10903 19.0409 8.70866C19.7823 9.30828 24.5124 9.10944 25.2889 7.78053C26.3091 8.52809 26.9919 9.64904 27.1882 10.8985C27.4413 12.9105 28.5717 14.1461 28.4659 15.5931C28.3602 17.0401 28.2553 18.1266 28.2553 18.1266Z" fill="#171717"/>
<path d="M26.0264 23.5703L22.0003 27.5044L25.5941 29.9741L27.276 25.0941L26.0264 23.5703ZM16.7246 25.0941L18.5465 29.8602L22.0003 27.5044L17.9742 23.5703L16.7246 25.0941Z" fill="#D9E2E9"/>
<path d="M28.3243 25.5904L26.0268 23.5702L26.022 23.5654C26.022 23.5654 25.9801 29.6011 22.0001 38.9636C18.0193 29.6011 17.9782 23.5654 17.9782 23.5654L17.9735 23.5702L15.6762 25.5904L15.2715 29.0056L17.1764 28.7011L15.7479 30.8667C16.5762 32.8844 22.0007 39.1844 22.0007 39.1844C22.8543 38.2419 27.5531 32.802 28.2846 31.0188L26.8235 28.7011L28.9557 28.7618L28.3243 25.5904Z" fill="#454545"/>
</svg>
