<svg width="607" height="482" viewBox="0 0 607 482" fill="none" xmlns="http://www.w3.org/2000/svg">
<path d="M2 218.5V17C2 8.71573 8.71573 2 17 2L157.425 2C161.209 2 164.854 3.4303 167.628 6.0042L203.184 38.9958C205.958 41.5697 209.603 43 213.387 43H590C598.284 43 605 49.7157 605 58V360C605 368.284 598.284 375 590 375H535M2 266V360C2 368.284 8.71573 375 17 375H97.5" stroke="#ADADAD" stroke-width="3"/>
<circle cx="38" cy="32" r="11" fill="#FF9EAB"/>
<circle cx="75" cy="32" r="11" fill="#FF9EAB"/>
<circle cx="112" cy="32" r="11" fill="#FF9EAB"/>
<g filter="url(#filter0_d_650_859)">
<rect x="123" y="95" width="210" height="294" rx="20" fill="white"/>
</g>
<g filter="url(#filter1_d_650_859)">
<rect x="293" y="95" width="212" height="294" rx="20" fill="white"/>
</g>
<g opacity="0.3">
<rect x="193.216" y="166.363" width="124.175" height="6.59334" rx="3.29667" fill="#B8D9BA"/>
<rect x="193.216" y="179.549" width="76.546" height="6.59334" rx="3.29667" fill="#B8D9BA"/>
<rect x="193.216" y="219.11" width="124.175" height="6.59334" rx="3.29667" fill="#B8D9BA"/>
<rect x="193.216" y="232.296" width="76.546" height="6.59334" rx="3.29667" fill="#B8D9BA"/>
<rect x="193.216" y="270.758" width="124.175" height="6.59334" rx="3.29667" fill="#B8D9BA"/>
<rect x="193.216" y="283.944" width="76.546" height="6.59334" rx="3.29667" fill="#B8D9BA"/>
<path fill-rule="evenodd" clip-rule="evenodd" d="M160.695 187.034C154.388 187.034 149.261 181.907 149.261 175.6C149.261 169.292 154.388 164.165 160.695 164.165C163.587 164.165 166.302 165.216 168.416 167.154C167.713 167.57 167.034 168.03 166.381 168.529C164.779 167.237 162.787 166.525 160.695 166.525C155.697 166.525 151.621 170.601 151.621 175.6C151.621 180.598 155.697 184.674 160.695 184.674C167.65 184.674 171.78 177.24 168.788 171.459C169.241 171.038 169.708 170.629 170.187 170.234C170.328 170.118 170.471 170.002 170.615 169.888C171.615 171.616 172.13 173.576 172.13 175.599C172.13 181.907 167.002 187.034 160.695 187.034Z" fill="#CBE0CC"/>
<path fill-rule="evenodd" clip-rule="evenodd" d="M160.996 181.477C160.867 181.477 160.76 181.392 160.717 181.284C160.696 181.241 158.851 176.479 155.997 174.677C155.44 174.334 155.011 173.969 155.182 173.154C155.354 172.36 155.89 171.909 156.856 171.695C158.572 171.33 160.417 173.99 161.103 175.084C163.506 171.588 168.312 166.096 175.305 165.452C175.643 165.412 175.767 165.912 175.455 166.053C175.348 166.096 165.351 170.665 161.296 181.306C161.232 181.413 161.125 181.477 160.996 181.477Z" fill="#CBE0CC"/>
<path fill-rule="evenodd" clip-rule="evenodd" d="M160.695 240.88C154.388 240.88 149.261 235.752 149.261 229.445C149.261 223.138 154.388 218.011 160.695 218.011C163.587 218.011 166.302 219.061 168.416 221C167.713 221.415 167.034 221.876 166.381 222.375C164.779 221.082 162.787 220.371 160.695 220.371C155.697 220.371 151.621 224.447 151.621 229.445C151.621 234.444 155.697 238.52 160.695 238.52C167.65 238.52 171.78 231.086 168.788 225.305C169.241 224.884 169.708 224.475 170.187 224.08C170.328 223.963 170.471 223.848 170.615 223.733C171.615 225.462 172.13 227.421 172.13 229.445C172.13 235.752 167.002 240.88 160.695 240.88Z" fill="#CBE0CC"/>
<path fill-rule="evenodd" clip-rule="evenodd" d="M160.996 235.323C160.867 235.323 160.76 235.237 160.717 235.13C160.696 235.087 158.851 230.325 155.997 228.523C155.44 228.179 155.011 227.815 155.182 226.999C155.354 226.206 155.89 225.755 156.856 225.54C158.572 225.176 160.417 227.836 161.103 228.93C163.506 225.433 168.312 219.941 175.305 219.298C175.643 219.258 175.767 219.758 175.455 219.898C175.348 219.941 165.351 224.511 161.296 235.152C161.232 235.259 161.125 235.323 160.996 235.323Z" fill="#CBE0CC"/>
<path fill-rule="evenodd" clip-rule="evenodd" d="M160.695 291.429C154.388 291.429 149.261 286.301 149.261 279.994C149.261 273.687 154.388 268.56 160.695 268.56C163.587 268.56 166.302 269.61 168.416 271.548C167.713 271.964 167.034 272.425 166.381 272.924C164.779 271.631 162.787 270.919 160.695 270.919C155.697 270.919 151.621 274.995 151.621 279.994C151.621 284.993 155.697 289.069 160.695 289.069C167.65 289.069 171.78 281.634 168.788 275.854C169.241 275.432 169.708 275.024 170.187 274.629C170.328 274.512 170.471 274.397 170.615 274.282C171.615 276.01 172.13 277.97 172.13 279.994C172.13 286.301 167.002 291.429 160.695 291.429Z" fill="#CBE0CC"/>
<path fill-rule="evenodd" clip-rule="evenodd" d="M160.996 285.872C160.867 285.872 160.76 285.787 160.717 285.679C160.696 285.637 158.851 280.874 155.997 279.072C155.44 278.729 155.011 278.364 155.182 277.549C155.354 276.755 155.89 276.304 156.856 276.09C158.572 275.725 160.417 278.385 161.103 279.479C163.506 275.983 168.312 270.491 175.305 269.847C175.643 269.807 175.767 270.308 175.455 270.448C175.348 270.491 165.351 275.06 161.296 285.701C161.232 285.808 161.125 285.872 160.996 285.872Z" fill="#CBE0CC"/>
</g>
<g opacity="0.3">
<rect x="363.544" y="165.264" width="124.175" height="6.59334" rx="3.29667" fill="#B8D9BA"/>
<rect x="363.544" y="178.451" width="76.546" height="6.59334" rx="3.29667" fill="#B8D9BA"/>
<rect x="363.544" y="218.011" width="124.175" height="6.59334" rx="3.29667" fill="#B8D9BA"/>
<rect x="363.544" y="231.198" width="76.546" height="6.59334" rx="3.29667" fill="#B8D9BA"/>
<rect x="363.544" y="269.659" width="124.175" height="6.59334" rx="3.29667" fill="#B8D9BA"/>
<rect x="363.544" y="282.846" width="76.546" height="6.59334" rx="3.29667" fill="#B8D9BA"/>
<path fill-rule="evenodd" clip-rule="evenodd" d="M331.023 185.935C324.716 185.935 319.589 180.808 319.589 174.501C319.589 168.194 324.716 163.066 331.023 163.066C333.916 163.066 336.63 164.117 338.744 166.055C338.041 166.471 337.362 166.932 336.709 167.43C335.107 166.138 333.115 165.426 331.023 165.426C326.025 165.426 321.949 169.502 321.949 174.501C321.949 179.499 326.025 183.576 331.023 183.576C337.978 183.576 342.108 176.141 339.116 170.361C339.57 169.939 340.036 169.531 340.515 169.136C340.657 169.019 340.799 168.903 340.943 168.789C341.944 170.517 342.458 172.477 342.458 174.501C342.458 180.808 337.331 185.935 331.023 185.935Z" fill="#CBE0CC"/>
<path fill-rule="evenodd" clip-rule="evenodd" d="M331.324 180.379C331.195 180.379 331.088 180.293 331.045 180.186C331.023 180.143 329.178 175.38 326.325 173.578C325.767 173.235 325.338 172.87 325.51 172.055C325.682 171.261 326.218 170.811 327.183 170.596C328.899 170.231 330.744 172.892 331.431 173.986C333.834 170.489 338.639 164.997 345.633 164.353C345.97 164.314 346.095 164.814 345.783 164.954C345.676 164.997 335.679 169.566 331.624 180.207C331.56 180.314 331.452 180.379 331.324 180.379Z" fill="#CBE0CC"/>
<path fill-rule="evenodd" clip-rule="evenodd" d="M331.023 239.781C324.716 239.781 319.589 234.654 319.589 228.347C319.589 222.039 324.716 216.912 331.023 216.912C333.916 216.912 336.63 217.963 338.744 219.901C338.041 220.317 337.362 220.778 336.709 221.276C335.107 219.984 333.115 219.272 331.023 219.272C326.025 219.272 321.949 223.348 321.949 228.347C321.949 233.345 326.025 237.421 331.023 237.421C337.978 237.421 342.108 229.987 339.116 224.207C339.57 223.785 340.036 223.376 340.515 222.981C340.657 222.865 340.799 222.749 340.943 222.635C341.944 224.363 342.458 226.323 342.458 228.347C342.458 234.654 337.331 239.781 331.023 239.781Z" fill="#CBE0CC"/>
<path fill-rule="evenodd" clip-rule="evenodd" d="M331.324 234.225C331.195 234.225 331.088 234.139 331.045 234.031C331.023 233.989 329.178 229.226 326.325 227.424C325.767 227.081 325.338 226.716 325.51 225.901C325.682 225.107 326.218 224.656 327.183 224.442C328.899 224.077 330.744 226.737 331.431 227.832C333.834 224.335 338.639 218.843 345.633 218.199C345.97 218.159 346.095 218.66 345.783 218.8C345.676 218.843 335.679 223.412 331.624 234.053C331.56 234.16 331.452 234.225 331.324 234.225Z" fill="#CBE0CC"/>
<path fill-rule="evenodd" clip-rule="evenodd" d="M331.023 290.33C324.716 290.33 319.589 285.203 319.589 278.895C319.589 272.588 324.716 267.461 331.023 267.461C333.916 267.461 336.63 268.511 338.744 270.45C338.041 270.866 337.362 271.326 336.709 271.825C335.107 270.532 333.115 269.821 331.023 269.821C326.025 269.821 321.949 273.897 321.949 278.895C321.949 283.894 326.025 287.97 331.023 287.97C337.978 287.97 342.108 280.536 339.116 274.755C339.57 274.334 340.036 273.925 340.515 273.53C340.657 273.413 340.799 273.298 340.943 273.183C341.944 274.912 342.458 276.872 342.458 278.895C342.458 285.203 337.331 290.33 331.023 290.33Z" fill="#CBE0CC"/>
<path fill-rule="evenodd" clip-rule="evenodd" d="M331.324 284.773C331.195 284.773 331.088 284.688 331.045 284.58C331.023 284.537 329.178 279.775 326.325 277.973C325.767 277.629 325.338 277.265 325.51 276.45C325.682 275.656 326.218 275.205 327.183 274.991C328.899 274.626 330.744 277.286 331.431 278.38C333.834 274.883 338.639 269.391 345.633 268.748C345.97 268.708 346.095 269.208 345.783 269.349C345.676 269.391 335.679 273.961 331.624 284.602C331.56 284.709 331.452 284.773 331.324 284.773Z" fill="#CBE0CC"/>
</g>
<rect x="193" y="95" width="35" height="294" fill="white"/>
<rect x="425" y="95" width="29" height="294" fill="white"/>
<g filter="url(#filter2_d_650_859)">
<rect x="213" y="72" width="227" height="362" rx="20" fill="white"/>
</g>
<rect x="274.805" y="183.945" width="124.175" height="6.59334" rx="3.29667" fill="#B8D9BA"/>
<rect x="274.805" y="197.132" width="76.546" height="6.59334" rx="3.29667" fill="#B8D9BA"/>
<rect x="274.805" y="236.692" width="124.175" height="6.59334" rx="3.29667" fill="#B8D9BA"/>
<rect x="274.805" y="249.879" width="76.546" height="6.59334" rx="3.29667" fill="#B8D9BA"/>
<rect x="274.805" y="288.34" width="124.175" height="6.59334" rx="3.29667" fill="#B8D9BA"/>
<rect x="274.805" y="301.527" width="76.546" height="6.59334" rx="3.29667" fill="#B8D9BA"/>
<path fill-rule="evenodd" clip-rule="evenodd" d="M242.284 204.617C235.976 204.617 230.849 199.489 230.849 193.182C230.849 186.875 235.976 181.748 242.284 181.748C245.176 181.748 247.89 182.798 250.005 184.736C249.301 185.152 248.622 185.613 247.97 186.112C246.367 184.819 244.375 184.107 242.284 184.107C237.285 184.107 233.209 188.183 233.209 193.182C233.209 198.181 237.285 202.257 242.284 202.257C249.239 202.257 253.368 194.822 250.376 189.042C250.83 188.62 251.296 188.212 251.775 187.817C251.917 187.7 252.059 187.584 252.203 187.47C253.204 189.198 253.718 191.158 253.718 193.182C253.718 199.489 248.591 204.617 242.284 204.617Z" fill="#CBE0CC"/>
<path fill-rule="evenodd" clip-rule="evenodd" d="M242.584 199.06C242.456 199.06 242.348 198.974 242.306 198.867C242.284 198.824 240.439 194.061 237.586 192.259C237.028 191.916 236.599 191.551 236.771 190.736C236.942 189.942 237.479 189.492 238.444 189.277C240.16 188.913 242.005 191.573 242.692 192.667C245.094 189.17 249.9 183.678 256.894 183.034C257.231 182.995 257.356 183.495 257.044 183.635C256.937 183.678 246.939 188.248 242.885 198.888C242.82 198.996 242.713 199.06 242.584 199.06Z" fill="#CBE0CC"/>
<path fill-rule="evenodd" clip-rule="evenodd" d="M242.284 258.462C235.976 258.462 230.849 253.335 230.849 247.028C230.849 240.721 235.976 235.593 242.284 235.593C245.176 235.593 247.89 236.644 250.005 238.582C249.301 238.998 248.622 239.459 247.97 239.957C246.367 238.665 244.375 237.953 242.284 237.953C237.285 237.953 233.209 242.029 233.209 247.028C233.209 252.026 237.285 256.102 242.284 256.102C249.239 256.102 253.368 248.668 250.376 242.888C250.83 242.466 251.296 242.057 251.775 241.662C251.917 241.546 252.059 241.43 252.203 241.316C253.204 243.044 253.718 245.004 253.718 247.028C253.718 253.335 248.591 258.462 242.284 258.462Z" fill="#CBE0CC"/>
<path fill-rule="evenodd" clip-rule="evenodd" d="M242.584 252.906C242.456 252.906 242.348 252.82 242.306 252.713C242.284 252.67 240.439 247.907 237.586 246.105C237.028 245.762 236.599 245.397 236.771 244.582C236.942 243.788 237.479 243.338 238.444 243.123C240.16 242.758 242.005 245.418 242.692 246.513C245.094 243.016 249.9 237.524 256.894 236.88C257.231 236.841 257.356 237.341 257.044 237.481C256.937 237.524 246.939 242.093 242.885 252.734C242.82 252.841 242.713 252.906 242.584 252.906Z" fill="#CBE0CC"/>
<path fill-rule="evenodd" clip-rule="evenodd" d="M242.284 309.011C235.976 309.011 230.849 303.884 230.849 297.577C230.849 291.269 235.976 286.142 242.284 286.142C245.176 286.142 247.89 287.193 250.005 289.131C249.301 289.547 248.622 290.008 247.97 290.506C246.367 289.214 244.375 288.502 242.284 288.502C237.285 288.502 233.209 292.578 233.209 297.577C233.209 302.575 237.285 306.651 242.284 306.651C249.239 306.651 253.368 299.217 250.376 293.437C250.83 293.015 251.296 292.606 251.775 292.211C251.917 292.095 252.059 291.979 252.203 291.865C253.204 293.593 253.718 295.553 253.718 297.577C253.718 303.884 248.591 309.011 242.284 309.011Z" fill="#CBE0CC"/>
<path fill-rule="evenodd" clip-rule="evenodd" d="M242.584 303.455C242.456 303.455 242.348 303.369 242.306 303.261C242.284 303.219 240.439 298.456 237.586 296.654C237.028 296.311 236.599 295.946 236.771 295.131C236.942 294.337 237.479 293.886 238.444 293.672C240.16 293.307 242.005 295.967 242.692 297.061C245.094 293.565 249.9 288.073 256.894 287.429C257.231 287.389 257.356 287.89 257.044 288.03C256.937 288.073 246.939 292.642 242.885 303.283C242.82 303.39 242.713 303.455 242.584 303.455Z" fill="#CBE0CC"/>
<path d="M373.371 135.833V143.392H372.461V135.833H373.371ZM373.155 140.528L372.776 140.513C372.779 140.149 372.833 139.813 372.938 139.504C373.043 139.193 373.191 138.922 373.381 138.692C373.572 138.463 373.798 138.285 374.06 138.161C374.326 138.033 374.62 137.969 374.941 137.969C375.204 137.969 375.44 138.005 375.65 138.077C375.86 138.146 376.039 138.258 376.186 138.412C376.337 138.566 376.452 138.766 376.531 139.012C376.61 139.255 376.649 139.552 376.649 139.903V143.392H375.734V139.893C375.734 139.614 375.693 139.391 375.611 139.224C375.529 139.053 375.409 138.93 375.251 138.855C375.094 138.776 374.9 138.737 374.671 138.737C374.444 138.737 374.238 138.784 374.051 138.879C373.867 138.974 373.708 139.106 373.573 139.273C373.442 139.44 373.339 139.632 373.263 139.849C373.191 140.062 373.155 140.288 373.155 140.528Z" fill="#090B12"/>
<path d="M371.393 138.067V138.766H368.514V138.067H371.393ZM369.488 136.773H370.399V142.073C370.399 142.254 370.426 142.39 370.482 142.482C370.538 142.574 370.61 142.634 370.699 142.664C370.787 142.693 370.882 142.708 370.984 142.708C371.06 142.708 371.138 142.702 371.22 142.688C371.306 142.672 371.37 142.659 371.412 142.649L371.417 143.392C371.345 143.415 371.25 143.436 371.132 143.456C371.017 143.479 370.878 143.491 370.714 143.491C370.49 143.491 370.285 143.446 370.098 143.358C369.911 143.269 369.762 143.121 369.65 142.915C369.542 142.705 369.488 142.423 369.488 142.068V136.773Z" fill="#090B12"/>
<path d="M364.503 139.204V143.392H363.592V138.067H364.454L364.503 139.204ZM364.286 140.528L363.907 140.513C363.911 140.149 363.965 139.813 364.07 139.504C364.175 139.193 364.322 138.922 364.513 138.692C364.703 138.463 364.929 138.285 365.192 138.161C365.457 138.033 365.751 137.969 366.073 137.969C366.335 137.969 366.571 138.005 366.781 138.077C366.991 138.146 367.17 138.257 367.318 138.412C367.469 138.566 367.583 138.766 367.662 139.012C367.741 139.255 367.78 139.552 367.78 139.903V143.392H366.865V139.893C366.865 139.614 366.824 139.391 366.742 139.224C366.66 139.053 366.54 138.93 366.383 138.855C366.225 138.776 366.032 138.736 365.802 138.736C365.576 138.736 365.369 138.784 365.182 138.879C364.998 138.974 364.839 139.106 364.705 139.273C364.573 139.44 364.47 139.632 364.394 139.849C364.322 140.062 364.286 140.288 364.286 140.528Z" fill="#090B12"/>
<path d="M357.603 140.789V140.675C357.603 140.292 357.659 139.936 357.77 139.608C357.882 139.276 358.043 138.989 358.253 138.746C358.463 138.5 358.717 138.31 359.015 138.175C359.314 138.038 359.649 137.969 360.019 137.969C360.393 137.969 360.73 138.038 361.028 138.175C361.33 138.31 361.586 138.5 361.796 138.746C362.009 138.989 362.172 139.276 362.283 139.608C362.395 139.936 362.451 140.292 362.451 140.675V140.789C362.451 141.173 362.395 141.529 362.283 141.857C362.172 142.185 362.009 142.472 361.796 142.718C361.586 142.961 361.332 143.151 361.033 143.289C360.738 143.423 360.403 143.49 360.029 143.49C359.655 143.49 359.319 143.423 359.02 143.289C358.722 143.151 358.466 142.961 358.253 142.718C358.043 142.472 357.882 142.185 357.77 141.857C357.659 141.529 357.603 141.173 357.603 140.789ZM358.513 140.675V140.789C358.513 141.054 358.545 141.305 358.607 141.542C358.669 141.775 358.763 141.981 358.887 142.162C359.015 142.342 359.175 142.485 359.365 142.59C359.555 142.692 359.777 142.742 360.029 142.742C360.279 142.742 360.497 142.692 360.684 142.59C360.874 142.485 361.032 142.342 361.156 142.162C361.281 141.981 361.374 141.775 361.437 141.542C361.502 141.305 361.535 141.054 361.535 140.789V140.675C361.535 140.413 361.502 140.165 361.437 139.932C361.374 139.696 361.279 139.488 361.151 139.307C361.027 139.124 360.869 138.979 360.679 138.874C360.492 138.769 360.272 138.717 360.019 138.717C359.77 138.717 359.55 138.769 359.36 138.874C359.173 138.979 359.015 139.124 358.887 139.307C358.763 139.488 358.669 139.696 358.607 139.932C358.545 140.165 358.513 140.413 358.513 140.675Z" fill="#090B12"/>
<path d="M349.911 139.125V143.392H348.996V138.067H349.862L349.911 139.125ZM349.724 140.528L349.301 140.513C349.304 140.149 349.352 139.813 349.444 139.504C349.536 139.193 349.672 138.922 349.852 138.692C350.033 138.463 350.258 138.285 350.527 138.161C350.796 138.033 351.107 137.969 351.462 137.969C351.711 137.969 351.941 138.005 352.151 138.077C352.361 138.146 352.543 138.256 352.697 138.407C352.851 138.558 352.971 138.751 353.056 138.987C353.141 139.224 353.184 139.509 353.184 139.844V143.392H352.274V139.888C352.274 139.609 352.226 139.386 352.131 139.219C352.039 139.051 351.908 138.93 351.737 138.855C351.567 138.776 351.367 138.736 351.137 138.736C350.868 138.736 350.643 138.784 350.463 138.879C350.282 138.974 350.138 139.106 350.03 139.273C349.921 139.44 349.843 139.632 349.793 139.849C349.747 140.062 349.724 140.288 349.724 140.528ZM353.174 140.026L352.564 140.213C352.567 139.921 352.615 139.64 352.707 139.371C352.802 139.102 352.938 138.863 353.115 138.653C353.296 138.443 353.517 138.277 353.78 138.156C354.042 138.031 354.342 137.969 354.68 137.969C354.966 137.969 355.218 138.006 355.438 138.082C355.661 138.157 355.848 138.274 355.999 138.431C356.153 138.586 356.27 138.784 356.349 139.027C356.427 139.27 356.467 139.558 356.467 139.893V143.392H355.551V139.883C355.551 139.585 355.504 139.353 355.409 139.189C355.317 139.022 355.185 138.905 355.015 138.84C354.848 138.771 354.647 138.736 354.414 138.736C354.214 138.736 354.037 138.771 353.883 138.84C353.729 138.909 353.599 139.004 353.494 139.125C353.389 139.243 353.309 139.38 353.253 139.534C353.201 139.688 353.174 139.852 353.174 140.026Z" fill="#090B12"/>
<path d="M344.001 138.904V143.392H343.09V138.067H343.976L344.001 138.904ZM345.664 138.038L345.659 138.884C345.584 138.868 345.512 138.858 345.443 138.855C345.377 138.848 345.302 138.845 345.216 138.845C345.006 138.845 344.821 138.878 344.66 138.943C344.499 139.009 344.363 139.101 344.252 139.219C344.14 139.337 344.052 139.478 343.986 139.642C343.924 139.803 343.883 139.98 343.863 140.174L343.607 140.321C343.607 140 343.638 139.698 343.701 139.416C343.766 139.133 343.866 138.884 344.001 138.668C344.135 138.448 344.306 138.277 344.513 138.156C344.723 138.031 344.972 137.969 345.261 137.969C345.326 137.969 345.402 137.977 345.487 137.993C345.572 138.006 345.631 138.021 345.664 138.038Z" fill="#090B12"/>
<path d="M339.955 143.49C339.584 143.49 339.248 143.428 338.946 143.303C338.648 143.176 338.39 142.997 338.174 142.767C337.96 142.537 337.796 142.265 337.682 141.95C337.567 141.635 337.509 141.291 337.509 140.917V140.71C337.509 140.277 337.573 139.891 337.701 139.553C337.829 139.212 338.003 138.923 338.223 138.687C338.443 138.451 338.692 138.272 338.971 138.151C339.25 138.029 339.539 137.969 339.837 137.969C340.218 137.969 340.546 138.034 340.821 138.166C341.1 138.297 341.328 138.481 341.505 138.717C341.683 138.95 341.814 139.225 341.899 139.544C341.984 139.859 342.027 140.203 342.027 140.577V140.986H338.051V140.242H341.117V140.174C341.103 139.937 341.054 139.708 340.969 139.485C340.887 139.261 340.756 139.078 340.575 138.933C340.395 138.789 340.149 138.717 339.837 138.717C339.63 138.717 339.44 138.761 339.266 138.85C339.092 138.935 338.943 139.063 338.818 139.234C338.694 139.404 338.597 139.612 338.528 139.859C338.459 140.105 338.425 140.388 338.425 140.71V140.917C338.425 141.169 338.459 141.407 338.528 141.63C338.6 141.85 338.704 142.044 338.838 142.211C338.976 142.378 339.142 142.509 339.335 142.605C339.532 142.7 339.755 142.747 340.004 142.747C340.326 142.747 340.598 142.682 340.821 142.551C341.044 142.419 341.24 142.244 341.407 142.024L341.958 142.462C341.843 142.636 341.697 142.801 341.52 142.959C341.343 143.116 341.125 143.244 340.866 143.343C340.61 143.441 340.306 143.49 339.955 143.49Z" fill="#090B12"/>
<path d="M334.237 140.582H332.323V139.809H334.237C334.608 139.809 334.908 139.75 335.138 139.632C335.367 139.514 335.535 139.35 335.64 139.14C335.748 138.93 335.802 138.691 335.802 138.421C335.802 138.175 335.748 137.944 335.64 137.728C335.535 137.511 335.367 137.337 335.138 137.206C334.908 137.071 334.608 137.004 334.237 137.004H332.544V143.392H331.594V136.227H334.237C334.778 136.227 335.236 136.32 335.61 136.507C335.984 136.694 336.268 136.953 336.461 137.285C336.655 137.613 336.752 137.988 336.752 138.412C336.752 138.871 336.655 139.263 336.461 139.588C336.268 139.913 335.984 140.16 335.61 140.331C335.236 140.498 334.778 140.582 334.237 140.582Z" fill="#090B12"/>
<path d="M330.462 136.227L327.475 144.007H326.692L329.685 136.227H330.462Z" fill="#090B12"/>
<path d="M319.962 134.153H319.502C318.19 134.153 317.009 133.76 315.959 132.972C315.007 132.168 314.532 131.184 314.532 130.052V114.747C314.532 113.845 314.794 113.057 315.336 112.352C316.271 111.204 317.698 110.629 319.584 110.629H320.044C320.979 110.629 321.865 110.826 322.701 111.22C323.39 111.564 323.948 112.057 324.358 112.696C324.735 113.336 324.916 114.025 324.916 114.747V130.052C324.916 131.151 324.473 132.086 323.603 132.89C322.537 133.727 321.323 134.153 319.962 134.153ZM319.732 130.922C320.06 130.905 320.323 130.774 320.536 130.544C320.749 130.315 320.847 129.888 320.847 129.248V115.534C320.847 114.895 320.749 114.468 320.536 114.238C320.323 114.009 320.06 113.877 319.732 113.861C319.387 113.877 319.125 114.009 318.928 114.238C318.715 114.468 318.616 114.895 318.616 115.534V129.248C318.616 129.888 318.715 130.315 318.928 130.544C319.125 130.774 319.387 130.905 319.732 130.922Z" fill="#090B12"/>
<path d="M307.199 134.153H306.74C305.427 134.153 304.246 133.76 303.196 132.972C302.245 132.168 301.769 131.184 301.769 130.052V114.747C301.769 113.845 302.032 113.057 302.573 112.352C303.508 111.204 304.935 110.629 306.822 110.629H307.281C308.216 110.629 309.102 110.826 309.938 111.22C310.627 111.564 311.185 112.057 311.595 112.696C311.973 113.336 312.153 114.025 312.153 114.747V130.052C312.153 131.151 311.71 132.086 310.841 132.89C309.774 133.727 308.56 134.153 307.199 134.153ZM306.969 130.922C307.297 130.905 307.56 130.774 307.773 130.544C307.986 130.315 308.085 129.888 308.085 129.248V115.534C308.085 114.895 307.986 114.468 307.773 114.238C307.56 114.009 307.297 113.877 306.969 113.861C306.625 113.877 306.362 114.009 306.165 114.238C305.952 114.468 305.854 114.895 305.854 115.534V129.248C305.854 129.888 305.952 130.315 306.165 130.544C306.362 130.774 306.625 130.905 306.969 130.922Z" fill="#090B12"/>
<path d="M299.62 134.153H289.236V128.723C289.236 128.035 289.482 127.411 289.974 126.853L294.879 121.62C295.322 121.128 295.552 120.57 295.552 119.947V115.534C295.552 114.895 295.453 114.468 295.24 114.238C295.027 114.009 294.764 113.877 294.436 113.861C294.092 113.877 293.829 114.009 293.632 114.238C293.419 114.468 293.321 114.895 293.321 115.534V119.734H289.236V114.747C289.236 113.615 289.482 112.631 289.99 111.827C290.499 111.023 291.549 110.629 293.173 110.629H295.552C297.258 110.629 298.357 111.023 298.865 111.827C299.374 112.631 299.62 113.615 299.62 114.747V121.276C299.62 121.948 299.374 122.572 298.898 123.113L293.96 128.477C293.534 128.97 293.321 129.511 293.321 130.118V130.348H299.62V134.153Z" fill="#090B12"/>
<path d="M284.118 134.137V130.315H288.202V134.137L286.693 136.303H285.2L287.005 134.137H284.118Z" fill="#090B12"/>
<path d="M283.298 134.153H279.229V114.845H278.524V111.646C279.295 111.646 279.951 111.318 280.492 110.646L280.509 110.629H283.298V134.153Z" fill="#090B12"/>
<ellipse cx="246.807" cy="118.615" rx="15.9582" ry="15.5383" fill="#B8D9BA"/>
<circle cx="258.146" cy="118.615" r="11.1589" fill="#B8D9BA" stroke="white" stroke-width="3"/>
<defs>
<filter id="filter0_d_650_859" x="91" y="79" width="274" height="358" filterUnits="userSpaceOnUse" color-interpolation-filters="sRGB">
<feFlood flood-opacity="0" result="BackgroundImageFix"/>
<feColorMatrix in="SourceAlpha" type="matrix" values="0 0 0 0 0 0 0 0 0 0 0 0 0 0 0 0 0 0 127 0" result="hardAlpha"/>
<feOffset dy="16"/>
<feGaussianBlur stdDeviation="16"/>
<feComposite in2="hardAlpha" operator="out"/>
<feColorMatrix type="matrix" values="0 0 0 0 0 0 0 0 0 0 0 0 0 0 0 0 0 0 0.08 0"/>
<feBlend mode="normal" in2="BackgroundImageFix" result="effect1_dropShadow_650_859"/>
<feBlend mode="normal" in="SourceGraphic" in2="effect1_dropShadow_650_859" result="shape"/>
</filter>
<filter id="filter1_d_650_859" x="261" y="79" width="276" height="358" filterUnits="userSpaceOnUse" color-interpolation-filters="sRGB">
<feFlood flood-opacity="0" result="BackgroundImageFix"/>
<feColorMatrix in="SourceAlpha" type="matrix" values="0 0 0 0 0 0 0 0 0 0 0 0 0 0 0 0 0 0 127 0" result="hardAlpha"/>
<feOffset dy="16"/>
<feGaussianBlur stdDeviation="16"/>
<feComposite in2="hardAlpha" operator="out"/>
<feColorMatrix type="matrix" values="0 0 0 0 0 0 0 0 0 0 0 0 0 0 0 0 0 0 0.08 0"/>
<feBlend mode="normal" in2="BackgroundImageFix" result="effect1_dropShadow_650_859"/>
<feBlend mode="normal" in="SourceGraphic" in2="effect1_dropShadow_650_859" result="shape"/>
</filter>
<filter id="filter2_d_650_859" x="181" y="56" width="291" height="426" filterUnits="userSpaceOnUse" color-interpolation-filters="sRGB">
<feFlood flood-opacity="0" result="BackgroundImageFix"/>
<feColorMatrix in="SourceAlpha" type="matrix" values="0 0 0 0 0 0 0 0 0 0 0 0 0 0 0 0 0 0 127 0" result="hardAlpha"/>
<feOffset dy="16"/>
<feGaussianBlur stdDeviation="16"/>
<feComposite in2="hardAlpha" operator="out"/>
<feColorMatrix type="matrix" values="0 0 0 0 0 0 0 0 0 0 0 0 0 0 0 0 0 0 0.08 0"/>
<feBlend mode="normal" in2="BackgroundImageFix" result="effect1_dropShadow_650_859"/>
<feBlend mode="normal" in="SourceGraphic" in2="effect1_dropShadow_650_859" result="shape"/>
</filter>
</defs>
</svg>
