<svg width="439" height="443" viewBox="0 0 439 443" fill="none" xmlns="http://www.w3.org/2000/svg">
<rect width="439" height="439" rx="20" fill="#FAF9F6"/>
<g filter="url(#filter0_d_1006_655)">
<rect x="92" y="39" width="263.252" height="341.006" rx="20" fill="white"/>
</g>
<rect x="264" y="254" width="75" height="4.44308" rx="2.22154" fill="#302922"/>
<rect x="264" y="265.443" width="43" height="4" rx="2" fill="#302922"/>
<rect width="84.4185" height="4.44308" rx="2.22154" transform="matrix(-1 0 0 1 188.418 125)" fill="#302922"/>
<rect width="37.7662" height="4.44308" rx="2.22154" transform="matrix(-1 0 0 1 188.418 139.44)" fill="#302922"/>
<g filter="url(#filter1_d_1006_655)">
<circle cx="344.309" cy="346.309" r="48.309" fill="white"/>
</g>
<path d="M329.087 342.626C322.73 342.626 317.561 337.45 317.561 331.086C317.561 324.73 322.73 319.56 329.087 319.56C335.451 319.56 340.627 324.73 340.627 331.086C340.627 337.45 335.451 342.626 329.087 342.626ZM329.087 326.525C326.574 326.525 324.526 328.573 324.526 331.086C324.526 333.609 326.574 335.661 329.087 335.661C331.61 335.661 333.662 333.61 333.662 331.086C333.662 328.573 331.61 326.525 329.087 326.525Z" fill="#B8D9BA"/>
<path d="M358.74 372.277C352.387 372.277 347.217 367.101 347.217 360.737C347.217 354.384 352.387 349.214 358.74 349.214C365.104 349.214 370.28 354.384 370.28 360.737C370.28 367.101 365.104 372.277 358.74 372.277ZM358.74 356.179C356.227 356.179 354.182 358.224 354.182 360.737C354.182 363.26 356.227 365.312 358.74 365.312C361.264 365.312 363.315 363.261 363.315 360.737C363.315 358.224 361.263 356.179 358.74 356.179Z" fill="#B8D9BA"/>
<path d="M320.968 368.873C319.607 367.513 319.607 365.309 320.968 363.948L361.955 322.965C363.316 321.604 365.52 321.604 366.88 322.965C368.24 324.325 368.24 326.529 366.88 327.889L325.892 368.873C324.532 370.234 322.328 370.234 320.968 368.873Z" fill="#B8D9BA"/>
<path d="M328.345 120.833C328.345 138.289 319.347 153.643 305.735 162.505C301.074 165.544 295.873 167.819 290.306 169.157C286.566 170.057 282.662 170.533 278.645 170.533C273.362 170.533 268.271 169.71 263.496 168.179L278.645 120.833L278.654 120.83L322.03 96.5703C323.21 98.6785 324.242 100.881 325.11 103.166C326.164 105.934 326.978 108.819 327.521 111.795C328.064 114.726 328.345 117.747 328.345 120.833Z" fill="#FB7B88"/>
<path opacity="0.3" d="M327.521 111.795L278.654 120.831C279.282 120.591 309.804 108.983 325.11 103.167C326.164 105.935 326.978 108.819 327.521 111.795Z" fill="#29304C"/>
<path d="M339.991 104.814L278.645 120.834L241.039 69.8051C241.929 69.1486 242.838 68.5143 243.763 67.9052C246.338 66.2009 249.049 64.6798 251.87 63.3669C260.003 59.5671 269.077 57.4463 278.645 57.4463C308.119 57.4464 332.893 77.5624 339.991 104.814Z" fill="#725CA4"/>
<path opacity="0.3" d="M278.643 120.834L243.76 67.9055C246.335 66.2012 249.046 64.6801 251.868 63.3672L278.643 120.834Z" fill="#29304C"/>
<path d="M278.642 120.834L263.286 195.936C228.318 188.823 202 157.9 202 120.834C202 92.143 217.764 67.1352 241.106 54L278.642 120.834Z" fill="#A78FE6"/>
<path opacity="0.3" d="M305.735 162.505C301.074 165.544 295.873 167.82 290.306 169.158L278.645 120.834L305.735 162.505Z" fill="#29304C"/>
<path d="M278.643 181.688C278.193 181.688 277.828 181.323 277.828 180.873C277.828 180.422 278.193 180.058 278.643 180.058C311.3 180.058 337.868 153.489 337.868 120.833C337.868 120.382 338.233 120.018 338.683 120.018C339.133 120.018 339.498 120.382 339.498 120.833C339.498 137.088 333.168 152.37 321.674 163.863C310.18 175.358 294.898 181.688 278.643 181.688Z" fill="#32385C"/>
<path d="M337.973 157.689C329.339 171.56 315.976 182.183 300.14 187.298L278.645 120.834L337.973 157.689Z" fill="#32385C"/>
<path d="M278.644 139.543C288.977 139.543 297.354 131.166 297.354 120.833C297.354 110.5 288.977 102.123 278.644 102.123C268.31 102.123 259.934 110.5 259.934 120.833C259.934 131.166 268.31 139.543 278.644 139.543Z" fill="white"/>
<path d="M338.262 130.693C339.773 130.693 340.999 129.468 340.999 127.956C340.999 126.445 339.773 125.22 338.262 125.22C336.751 125.22 335.525 126.445 335.525 127.956C335.525 129.468 336.751 130.693 338.262 130.693Z" fill="#32385C"/>
<path d="M290.842 182.61C292.353 182.61 293.579 181.385 293.579 179.873C293.579 178.362 292.353 177.137 290.842 177.137C289.331 177.137 288.105 178.362 288.105 179.873C288.105 181.385 289.331 182.61 290.842 182.61Z" fill="#32385C"/>
<circle cx="55" cy="165" r="22" fill="#A78FE6"/>
<circle cx="43" cy="200" r="10" fill="#A78FE6"/>
<path d="M129.938 288.378H120.408C117.974 288.378 116 290.352 116 292.787V306.591C116 309.026 117.974 311 120.408 311H129.938C132.373 311 134.347 309.026 134.347 306.591V292.787C134.347 290.352 132.373 288.378 129.938 288.378Z" fill="#A78FE6"/>
<path d="M159.915 255.127H150.385C147.95 255.127 145.977 257.101 145.977 259.536V306.591C145.977 309.026 147.95 311 150.385 311H159.915C162.349 311 164.323 309.026 164.323 306.591V259.536C164.323 257.101 162.349 255.127 159.915 255.127Z" fill="#B8D9BA"/>
<path d="M189.887 270.24H180.358C177.923 270.24 175.949 272.214 175.949 274.649V306.591C175.949 309.026 177.923 311 180.358 311H189.887C192.322 311 194.296 309.026 194.296 306.591V274.649C194.296 272.214 192.322 270.24 189.887 270.24Z" fill="#A78FE6"/>
<path d="M219.862 248.326H210.332C207.898 248.326 205.924 250.3 205.924 252.735V306.591C205.924 309.026 207.898 311 210.332 311H219.862C222.297 311 224.27 309.026 224.27 306.591V252.735C224.27 250.3 222.297 248.326 219.862 248.326Z" fill="#B8D9BA"/>
<path d="M121.162 277.993C121.005 277.993 120.85 277.948 120.717 277.864C120.584 277.779 120.479 277.658 120.412 277.515C120.346 277.372 120.322 277.213 120.344 277.056C120.365 276.9 120.43 276.753 120.533 276.633L149.783 242.172C150.548 241.277 151.596 240.671 152.752 240.452C153.908 240.232 155.105 240.414 156.144 240.966L181.326 254.463C181.955 254.798 182.672 254.934 183.381 254.852C184.09 254.769 184.756 254.473 185.292 254.001L214.55 228.189C214.631 228.115 214.726 228.058 214.829 228.021C214.932 227.985 215.041 227.969 215.151 227.975C215.26 227.981 215.367 228.009 215.466 228.056C215.564 228.104 215.652 228.171 215.724 228.253C215.797 228.335 215.852 228.431 215.887 228.535C215.922 228.638 215.936 228.748 215.929 228.857C215.921 228.966 215.891 229.073 215.842 229.171C215.793 229.268 215.724 229.355 215.641 229.426L186.383 255.234C185.595 255.927 184.613 256.364 183.57 256.485C182.527 256.606 181.471 256.407 180.544 255.913L155.363 242.421C154.657 242.046 153.844 241.923 153.059 242.072C152.274 242.221 151.562 242.633 151.043 243.241L121.792 277.702C121.714 277.793 121.618 277.867 121.509 277.917C121.4 277.967 121.282 277.993 121.162 277.993Z" fill="#242B2B"/>
<path d="M222.135 224.859L219.921 236.11C219.834 236.551 219.626 236.959 219.32 237.288C219.014 237.617 218.622 237.854 218.189 237.971C217.755 238.089 217.297 238.083 216.867 237.954C216.437 237.825 216.051 237.578 215.754 237.241L206.527 226.744C206.231 226.406 206.036 225.993 205.962 225.551C205.889 225.108 205.94 224.654 206.111 224.239C206.282 223.824 206.565 223.465 206.929 223.202C207.292 222.94 207.722 222.784 208.17 222.753L219.611 222.006C219.978 221.981 220.346 222.04 220.686 222.18C221.027 222.32 221.331 222.536 221.575 222.811C221.818 223.087 221.996 223.415 222.093 223.77C222.19 224.125 222.204 224.498 222.135 224.859Z" fill="#242B2B"/>
<defs>
<filter id="filter0_d_1006_655" x="52" y="19" width="343.252" height="421.006" filterUnits="userSpaceOnUse" color-interpolation-filters="sRGB">
<feFlood flood-opacity="0" result="BackgroundImageFix"/>
<feColorMatrix in="SourceAlpha" type="matrix" values="0 0 0 0 0 0 0 0 0 0 0 0 0 0 0 0 0 0 127 0" result="hardAlpha"/>
<feOffset dy="20"/>
<feGaussianBlur stdDeviation="20"/>
<feComposite in2="hardAlpha" operator="out"/>
<feColorMatrix type="matrix" values="0 0 0 0 0 0 0 0 0 0 0 0 0 0 0 0 0 0 0.08 0"/>
<feBlend mode="normal" in2="BackgroundImageFix" result="effect1_dropShadow_1006_655"/>
<feBlend mode="normal" in="SourceGraphic" in2="effect1_dropShadow_1006_655" result="shape"/>
</filter>
<filter id="filter1_d_1006_655" x="264" y="282" width="160.618" height="160.618" filterUnits="userSpaceOnUse" color-interpolation-filters="sRGB">
<feFlood flood-opacity="0" result="BackgroundImageFix"/>
<feColorMatrix in="SourceAlpha" type="matrix" values="0 0 0 0 0 0 0 0 0 0 0 0 0 0 0 0 0 0 127 0" result="hardAlpha"/>
<feOffset dy="16"/>
<feGaussianBlur stdDeviation="16"/>
<feComposite in2="hardAlpha" operator="out"/>
<feColorMatrix type="matrix" values="0 0 0 0 0 0 0 0 0 0 0 0 0 0 0 0 0 0 0.08 0"/>
<feBlend mode="normal" in2="BackgroundImageFix" result="effect1_dropShadow_1006_655"/>
<feBlend mode="normal" in="SourceGraphic" in2="effect1_dropShadow_1006_655" result="shape"/>
</filter>
</defs>
</svg>
