<svg width="480" height="439" viewBox="0 0 480 439" fill="none" xmlns="http://www.w3.org/2000/svg">
<g clip-path="url(#clip0_1320_891)">
<rect width="439" height="439" rx="20" fill="#FAF9F6"/>
<g filter="url(#filter0_d_1320_891)">
<path d="M373.252 114.543L134.242 103.585L122.25 365.167L361.26 376.125L373.252 114.543Z" fill="#B8D9BA"/>
<path d="M333.013 73.0689L95.4707 95.208L123.777 398.924L361.319 376.785L333.013 73.0689Z" fill="white"/>
<path d="M361.306 376.785C361.205 376.88 123.7 399.054 123.599 399.125C123.516 399.134 95.105 95.3056 95.0396 95.2488L95 94.8221L95.4285 94.7825C95.6143 94.6947 333.041 72.8777 333.224 72.8105C333.286 72.9086 361.253 376.63 361.306 376.785ZM361.306 376.785L332.764 73.0962C334.499 73.3664 95.0379 95.636 95.5077 95.636L95.8948 95.1697L123.955 398.903C122.708 398.69 361.597 376.787 361.306 376.785Z" fill="#B8D9BA"/>
<path d="M139.52 205.881C194.097 199.953 255.423 194.229 310.157 189.98C255.579 195.917 194.253 201.624 139.52 205.881Z" fill="#B8D9BA"/>
<path d="M140.537 216.786C195.114 210.858 256.44 205.135 311.174 200.886C256.597 206.821 195.271 212.529 140.537 216.786Z" fill="#B8D9BA"/>
<path d="M141.553 227.69C196.13 221.761 257.456 216.04 312.19 211.789C257.613 217.724 196.286 223.432 141.553 227.69Z" fill="#B8D9BA"/>
<path d="M142.57 238.593C197.147 232.665 258.474 226.943 313.207 222.692C258.63 228.629 197.302 234.336 142.57 238.593Z" fill="#B8D9BA"/>
<path d="M241.805 309.666C267.552 306.396 294.695 303.88 320.627 302.321C294.847 305.581 267.719 308.122 241.805 309.666Z" fill="#B8D9BA"/>
<path d="M242.818 320.571C268.566 317.302 295.709 314.786 321.641 313.227C295.862 316.484 268.733 319.026 242.818 320.571Z" fill="#B8D9BA"/>
<path d="M243.838 331.475C269.585 328.205 296.729 325.689 322.66 324.13C296.88 327.389 269.752 329.929 243.838 331.475Z" fill="#B8D9BA"/>
<path d="M244.852 342.378C270.599 339.108 297.742 336.592 323.674 335.033C297.894 338.293 270.766 340.833 244.852 342.378Z" fill="#B8D9BA"/>
<path d="M245.867 353.283C271.615 350.013 298.758 347.498 324.689 345.938C298.909 349.196 271.782 351.738 245.867 353.283Z" fill="#B8D9BA"/>
<path d="M143.582 249.498C175.532 245.669 210.775 242.379 242.881 240.245C210.933 244.079 175.688 247.356 143.582 249.498Z" fill="#B8D9BA"/>
<path d="M145.615 271.305C200.192 265.377 261.519 259.655 316.252 255.404C261.675 261.341 200.349 267.048 145.615 271.305Z" fill="#B8D9BA"/>
<path d="M146.631 282.208C201.208 276.28 262.534 270.556 317.268 266.308C262.691 272.245 201.363 277.953 146.631 282.208Z" fill="#B8D9BA"/>
<path d="M147.648 293.114C202.225 287.185 263.552 281.463 318.285 277.213C263.708 283.148 202.382 288.856 147.648 293.114Z" fill="#B8D9BA"/>
<path d="M221.076 343.215L220.992 343.196L220.915 343.177L219.374 342.793L219.283 342.774L218.404 342.556L218.301 342.532L216.907 342.187L216.793 342.157L215.94 341.945L215.814 341.917V341.914L214.207 341.52L214.071 341.485L213.107 341.246L212.956 341.212L211.758 340.914L211.596 340.874L210.541 340.613L210.373 340.573L208.917 340.214L208.765 340.174L207.659 339.9L207.511 339.864L206.449 339.603L206.323 339.572L205.11 339.271L204.99 339.24L203.938 338.982L203.835 338.954L202.353 338.591L202.247 338.563L200.691 338.18L200.607 338.157L199.413 337.865L199.335 337.846L197.791 337.462L197.726 337.447L196.425 337.126L196.367 337.111L195.002 336.775L196.222 336.254L196.274 336.233L197.68 335.629L197.743 335.605L198.95 335.087L199.02 335.058L200.56 334.401L200.645 334.361L201.677 333.922L201.77 333.883L204.038 332.91L204.15 332.864L204.718 332.621L204.837 332.571L207.048 331.625L207.186 331.568V331.565L207.673 331.358L207.817 331.298L210.092 330.326V330.322L210.266 330.25L210.774 330.031L210.941 329.959L213.331 328.937L213.505 328.861L213.783 328.744L213.947 328.672L216.582 327.546L216.733 327.483V327.479L216.974 327.379L217.115 327.319L219.734 326.197C219.763 326.271 219.794 326.345 219.824 326.419V326.423C219.849 326.486 219.874 326.545 219.899 326.609V326.612C219.906 326.631 219.913 326.65 219.92 326.667V326.67C219.953 326.744 219.98 326.818 220.009 326.892C220.743 328.828 221.254 330.749 221.548 332.676V332.68C221.562 332.757 221.572 332.835 221.586 332.915V332.919C221.717 333.824 221.801 334.736 221.832 335.648C221.84 335.825 221.846 335.999 221.847 336.177V336.183C221.89 338.479 221.629 340.806 221.076 343.215Z" fill="#FB7B88"/>
<path d="M221.078 343.213L218.917 343.184L192.848 336.744L195.009 336.773L221.078 343.213Z" fill="#D45A67"/>
<path d="M195.009 336.773L192.848 336.744L217.58 326.166L219.741 326.195L195.009 336.773Z" fill="#D45A67"/>
<path d="M178.33 310.601L180.713 338.119L205.754 327.383C201.052 316.139 190.306 309.563 178.33 310.601Z" fill="#A78FE6"/>
<path d="M180.708 338.119L155.67 348.859C160.399 360.165 171.665 366.639 183.09 365.649C185.866 365.409 188.65 364.729 191.354 363.569C199.65 360.012 205.2 353.304 207.223 344.393L180.708 338.119Z" fill="#A78FE6"/>
<path d="M155.668 348.859L153.514 349.045C158.243 360.351 169.509 366.825 180.934 365.836L183.088 365.65C171.664 366.639 160.397 360.165 155.668 348.859Z" fill="#A78FE6"/>
<g opacity="0.1">
<path d="M155.668 348.859L153.514 349.045C158.243 360.351 169.509 366.825 180.934 365.836L183.088 365.65C171.664 366.639 160.397 360.165 155.668 348.859Z" fill="black"/>
</g>
<path d="M178.331 310.602C163.364 311.897 152.298 325.27 153.614 340.469C153.877 343.51 154.5 346.05 155.677 348.86L180.716 338.12L178.331 310.602Z" fill="#FB7B88"/>
<path d="M178.329 310.602L176.175 310.787C161.208 312.083 150.141 325.456 151.458 340.655C151.721 343.695 152.344 346.235 153.521 349.046L155.676 348.86C154.5 346.05 153.876 343.51 153.612 340.469C152.296 325.272 163.363 311.897 178.329 310.602Z" fill="#D55A67"/>
<path d="M210.804 311.508C210.893 312.465 210.19 313.311 209.235 313.401C208.278 313.49 207.431 312.786 207.342 311.831C207.252 310.874 207.956 310.028 208.911 309.938C209.868 309.849 210.715 310.551 210.804 311.508Z" stroke="#B8D9BA" stroke-width="0.5" stroke-miterlimit="10"/>
<path d="M233.352 307.66L214.168 309.448L214.249 310.314L233.433 308.526L233.352 307.66Z" fill="#B8D9BA"/>
<path d="M225.186 310.169L214.326 311.182L214.407 312.047L225.267 311.035L225.186 310.169Z" fill="#B8D9BA"/>
<path d="M134.178 124.187L217.23 116.304C244.924 113.774 272.609 111.162 300.31 108.706C272.633 111.41 244.941 113.958 217.257 116.589L134.178 124.187Z" fill="#C7C7C7"/>
<path d="M134.584 128.56L217.636 120.677C245.33 118.147 273.015 115.535 300.716 113.079C273.039 115.783 245.347 118.331 217.664 120.962L134.584 128.56Z" fill="#C7C7C7"/>
<path d="M134.99 132.932L218.042 125.049C245.736 122.519 273.421 119.907 301.122 117.451C273.445 120.155 245.753 122.703 218.07 125.334L134.99 132.932Z" fill="#C7C7C7"/>
<path d="M135.4 137.305L218.453 129.422C246.146 126.892 273.831 124.282 301.532 121.824C273.856 124.528 246.164 127.076 218.48 129.707L135.4 137.305Z" fill="#C7C7C7"/>
<path d="M135.807 141.676L218.859 133.793C246.553 131.263 274.238 128.653 301.938 126.195C274.262 128.899 246.57 131.447 218.886 134.079L135.807 141.676Z" fill="#C7C7C7"/>
<path d="M136.213 146.049L219.265 138.166C246.959 135.636 274.644 133.024 302.345 130.568C274.668 133.272 246.976 135.82 219.293 138.452L136.213 146.049Z" fill="#C7C7C7"/>
<path d="M136.619 150.421L219.671 142.538C247.365 140.008 275.05 137.396 302.751 134.94C275.074 137.644 247.382 140.192 219.699 142.824L136.619 150.421Z" fill="#C7C7C7"/>
<path d="M137.027 154.794L220.079 146.911C247.773 144.381 275.458 141.769 303.159 139.313C275.483 142.017 247.79 144.566 220.107 147.197L137.027 154.794Z" fill="#C7C7C7"/>
<path d="M137.438 159.166L220.49 151.283C248.183 148.753 275.869 146.143 303.569 143.686C275.893 146.389 248.201 148.938 220.517 151.569L137.438 159.166Z" fill="#C7C7C7"/>
<path d="M137.844 163.539L220.896 155.656C248.59 153.127 276.275 150.514 303.976 148.059C276.299 150.762 248.607 153.311 220.923 155.942L137.844 163.539Z" fill="#C7C7C7"/>
<path d="M138.254 167.912L221.306 160.029C249 157.5 276.685 154.887 304.386 152.432C276.709 155.135 249.017 157.684 221.334 160.315L138.254 167.912Z" fill="#C7C7C7"/>
<path d="M138.66 172.283L221.712 164.4C249.406 161.87 277.091 159.258 304.792 156.801C277.115 159.504 249.423 162.053 221.74 164.684L138.66 172.283Z" fill="#C7C7C7"/>
<path d="M139.066 176.656L222.119 168.772C249.812 166.243 277.497 163.632 305.198 161.175C277.522 163.878 249.83 166.427 222.146 169.058L139.066 176.656Z" fill="#C7C7C7"/>
<path d="M139.473 181.029L222.525 173.145C250.219 170.616 277.904 168.005 305.604 165.548C277.928 168.251 250.236 170.8 222.552 173.431L139.473 181.029Z" fill="#C7C7C7"/>
<path d="M139.885 185.402L222.937 177.518C250.631 174.989 278.316 172.377 306.017 169.921C278.34 172.624 250.648 175.173 222.964 177.804L139.885 185.402Z" fill="#C7C7C7"/>
<path d="M167.203 151.982L154.604 153.156L157.931 188.861L170.53 187.687L167.203 151.982Z" fill="#8D6CE4"/>
<path d="M189.165 134.701L176.566 135.875L181.302 186.682L193.901 185.508L189.165 134.701Z" fill="#A38BE0"/>
<path d="M213.548 143.404L200.949 144.578L204.67 184.503L217.269 183.329L213.548 143.404Z" fill="#B8D9BA"/>
<path d="M235.687 127.958L223.088 129.132L228.046 182.326L240.645 181.152L235.687 127.958Z" fill="#8D6CE4"/>
<path d="M259.72 132.912L247.121 134.086L251.414 180.147L264.013 178.973L259.72 132.912Z" fill="#A38BE0"/>
<path d="M285.523 156.832L272.924 158.006L274.784 177.969L287.384 176.795L285.523 156.832Z" fill="#B8D9BA"/>
<path d="M138.398 120.698L140.358 138.012L142.21 155.334C143.449 166.883 144.575 178.442 145.681 190.002L144.814 189.55L185.218 185.762L225.629 182.059L266.05 178.467L306.485 175.015L266.109 179.094L225.718 183.033L185.318 186.86L144.91 190.603L144.089 190.679L144.041 190.15C142.993 178.584 141.964 167.017 141.049 155.439L139.668 138.072L138.398 120.698Z" fill="#C7C7C7"/>
<path d="M170.871 191.352L158.271 192.526L158.34 193.261L170.939 192.087L170.871 191.352Z" fill="#C7C7C7"/>
<path d="M194.242 189.177L181.643 190.352L181.711 191.087L194.31 189.912L194.242 189.177Z" fill="#C7C7C7"/>
<path d="M217.615 186.997L205.016 188.171L205.084 188.906L217.683 187.732L217.615 186.997Z" fill="#C7C7C7"/>
<path d="M240.984 184.818L228.385 185.992L228.453 186.727L241.052 185.553L240.984 184.818Z" fill="#C7C7C7"/>
<path d="M264.357 182.64L251.758 183.814L251.826 184.55L264.425 183.375L264.357 182.64Z" fill="#C7C7C7"/>
<path d="M287.726 180.461L275.127 181.636L275.195 182.371L287.795 181.197L287.726 180.461Z" fill="#C7C7C7"/>
<path d="M346.4 364.455L166.226 382.281C165.691 382.334 165.214 381.942 165.161 381.407C165.108 380.871 165.499 380.394 166.034 380.341L345.239 362.611L320.027 107.779C319.974 107.244 320.365 106.766 320.9 106.714C321.435 106.661 321.912 107.052 321.965 107.588L347.272 363.39C347.325 363.925 346.935 364.402 346.4 364.455Z" fill="#0E160E"/>
<path d="M419.352 245.992L431.725 232.573L378.936 183.899L366.564 197.318L419.352 245.992Z" fill="#C7C7C7"/>
<path d="M461.3 291.009L480.011 270.716L425.324 220.29L406.611 240.582L461.3 291.009Z" fill="#0E160E"/>
<path d="M348.037 74.5022L359.163 193.889C359.12 193.94 359.09 193.957 359.047 193.994C344.513 205.269 326.547 210.448 308.237 208.571C300.103 207.748 292.419 205.57 285.401 202.281C284.928 202.075 284.484 201.851 284.026 201.627C278.811 199.046 273.977 195.866 269.609 192.159C269.255 191.879 268.931 191.596 268.59 191.3C263.853 187.141 259.683 182.366 256.19 177.105C256.009 176.84 255.828 176.575 255.66 176.294C254.674 174.775 253.763 173.231 252.894 171.64C252.857 171.566 252.819 171.49 252.779 171.416C252.024 170.031 251.313 168.611 250.662 167.169C250.625 167.095 250.602 167.017 250.563 166.943C249.931 165.548 249.344 164.116 248.802 162.664L247.469 162.787L246.925 156.954C246.617 155.825 246.322 154.694 246.059 153.545C246.037 153.469 246.03 153.392 246.006 153.316C245.684 151.875 245.407 150.414 245.176 148.95C245.152 148.859 245.145 148.781 245.137 148.704C244.906 147.239 244.724 145.785 244.586 144.311L244.564 144.078C244.443 142.619 244.352 141.141 244.309 139.659C244.318 139.58 244.309 139.487 244.318 139.408C244.275 137.942 244.294 136.453 244.359 134.975C244.35 134.882 244.359 134.803 244.383 134.722C244.412 133.701 244.474 132.679 244.567 131.654L243.574 120.996L246.383 120.735C246.391 120.656 246.414 120.559 246.438 120.48C246.811 118.943 247.248 117.415 247.749 115.915C247.758 115.836 247.782 115.755 247.821 115.674C248.319 114.125 248.88 112.587 249.489 111.074C249.527 110.976 249.551 110.897 249.59 110.814C250.225 109.238 250.927 107.701 251.695 106.19C251.717 106.094 251.772 106.011 251.812 105.929C256.272 97.0317 262.591 89.1192 270.547 82.6367C285.293 70.6217 303.818 65.0616 322.698 66.9958C331.607 67.8872 340.073 70.4307 347.827 74.3869C347.889 74.4231 347.97 74.4471 348.037 74.5022Z" fill="white"/>
<path d="M348.039 74.5023C347.972 74.4455 347.891 74.4214 347.824 74.3818L359.048 193.994C359.091 193.957 359.122 193.94 359.163 193.889C359.208 193.87 359.268 193.832 359.309 193.782C354.611 142.865 350.299 96.0733 348.301 74.6348C348.218 74.5797 348.12 74.5264 348.039 74.5023Z" fill="#B8D9BA"/>
<path d="M322.662 186.729C305.481 188.565 287.67 190.38 269.607 192.158C269.252 191.877 268.929 191.595 268.588 191.299C286.992 189.661 305.142 188.126 322.662 186.729Z" fill="#B8D9BA"/>
<path d="M323.741 198.316C311.253 199.636 298.42 200.973 285.398 202.281C284.925 202.075 284.481 201.851 284.023 201.627C297.513 200.462 310.803 199.349 323.741 198.316Z" fill="#B8D9BA"/>
<path d="M312.209 100.42C292.033 102.378 271.853 104.275 251.689 106.185C251.712 106.088 251.767 106.006 251.806 105.923C271.927 104.065 292.064 102.203 312.209 100.42Z" fill="#C7C7C7"/>
<path d="M312.642 105.06C291.583 107.116 270.534 109.093 249.484 111.071C249.522 110.972 249.546 110.893 249.586 110.811C270.608 108.882 291.613 106.925 312.642 105.06Z" fill="#C7C7C7"/>
<path d="M313.071 109.697C291.301 111.836 269.521 113.865 247.742 115.91C247.751 115.83 247.775 115.75 247.814 115.669C269.564 113.657 291.314 111.632 313.071 109.697Z" fill="#C7C7C7"/>
<path d="M313.502 114.351C291.126 116.529 268.756 118.615 246.375 120.732C246.384 120.652 246.406 120.556 246.43 120.477C268.784 118.408 291.138 116.326 313.502 114.351Z" fill="#C7C7C7"/>
<path d="M313.939 118.989C291.084 121.228 268.233 123.359 245.369 125.504L244.005 125.632L243.98 125.384L245.407 125.251C268.245 123.154 291.08 121.025 313.939 118.989Z" fill="#C7C7C7"/>
<path d="M314.372 123.643C299.33 125.107 284.286 126.541 269.254 127.941C264.789 128.373 260.335 128.788 255.883 129.203L244.698 130.246C244.607 130.27 244.529 130.276 244.434 130.27L244.412 130.037C244.519 130.011 244.612 130.003 244.722 130.008L255.861 128.97C260.313 128.556 264.765 128.141 269.234 127.74C284.269 126.355 299.318 124.968 314.372 123.643Z" fill="#C7C7C7"/>
<path d="M314.804 128.28C299.762 129.745 284.718 131.178 269.688 132.594C265.22 133.011 260.769 133.426 256.317 133.856L244.357 134.971C244.348 134.878 244.357 134.799 244.381 134.718L256.294 133.608C260.748 133.209 265.2 132.794 269.667 132.378C284.701 130.992 299.749 129.605 314.804 128.28Z" fill="#C7C7C7"/>
<path d="M315.237 132.92C300.197 134.4 285.151 135.818 270.121 137.234C265.656 137.666 261.202 138.081 256.75 138.496L245.302 139.562C244.978 139.609 244.636 139.64 244.309 139.655C244.317 139.576 244.309 139.483 244.317 139.404L245.279 139.315C249.096 138.958 252.911 138.604 256.73 138.263C261.182 137.848 265.633 137.434 270.103 137.033C285.133 135.63 300.183 134.26 315.237 132.92Z" fill="#C7C7C7"/>
<path d="M315.672 137.573C300.63 139.038 285.586 140.471 270.555 141.872C266.089 142.304 261.637 142.719 257.184 143.133L245.735 144.2C245.347 144.252 244.976 144.286 244.587 144.307L244.564 144.075C244.952 144.023 245.323 143.989 245.712 143.968L257.161 142.901C261.613 142.486 266.065 142.072 270.534 141.671C285.567 140.285 300.616 138.898 315.672 137.573Z" fill="#C7C7C7"/>
<path d="M316.103 142.211C301.061 143.675 286.017 145.109 270.987 146.525C266.52 146.942 262.068 147.356 257.616 147.787L245.174 148.946C245.15 148.855 245.143 148.778 245.135 148.7L257.592 147.54C262.046 147.141 266.498 146.726 270.965 146.31C285.998 144.923 301.049 143.551 316.103 142.211Z" fill="#C7C7C7"/>
<path d="M316.537 146.851C301.496 148.331 286.451 149.749 271.421 151.165C266.955 151.597 262.504 152.011 258.05 152.426L246.601 153.493C246.417 153.526 246.247 153.541 246.057 153.543C246.035 153.467 246.028 153.39 246.004 153.314C246.188 153.281 246.391 153.263 246.579 153.261L258.028 152.194C262.479 151.779 266.931 151.364 271.4 150.963C286.434 149.561 301.483 148.189 316.537 146.851Z" fill="#C7C7C7"/>
<path d="M316.971 151.504C310.21 152.165 303.433 152.812 296.67 153.459C292.22 153.889 287.753 154.305 283.299 154.72C279.484 155.092 275.669 155.446 271.852 155.803C267.386 156.235 262.933 156.649 258.481 157.064L247.264 158.109C247.189 158.131 247.111 158.138 247.032 158.131L247.01 157.899C247.07 157.878 247.116 157.873 247.18 157.883L258.459 156.832C262.911 156.417 267.362 156.002 271.831 155.601C275.648 155.245 279.463 154.891 283.282 154.55C287.734 154.135 292.203 153.734 296.655 153.319C303.423 152.703 310.205 152.103 316.971 151.504Z" fill="#C7C7C7"/>
<path d="M317.401 156.142C310.64 156.802 303.863 157.449 297.1 158.096C292.65 158.527 288.181 158.943 283.731 159.373C279.914 159.73 276.099 160.084 272.284 160.456C267.816 160.872 263.365 161.287 258.913 161.717L247.464 162.784L247.441 162.536L258.89 161.469C263.344 161.07 267.796 160.655 272.263 160.239C276.08 159.898 279.897 159.544 283.714 159.188C288.167 158.788 292.635 158.372 297.088 157.973C303.855 157.358 310.635 156.742 317.401 156.142Z" fill="#C7C7C7"/>
<path d="M317.832 160.781C311.071 161.442 304.296 162.105 297.533 162.752C293.081 163.166 288.615 163.598 284.162 164.013C280.346 164.385 276.531 164.739 272.714 165.095C268.249 165.527 263.797 165.942 259.343 166.357L250.656 167.166C250.619 167.092 250.596 167.014 250.557 166.94L259.321 166.123C263.773 165.708 268.225 165.293 272.694 164.892C276.511 164.536 280.326 164.182 284.144 163.841C288.596 163.426 293.064 163.01 297.517 162.611C304.285 161.996 311.066 161.38 317.832 160.781Z" fill="#C7C7C7"/>
<path d="M318.268 165.434C311.507 166.094 304.73 166.741 297.967 167.388C293.517 167.819 289.049 168.235 284.596 168.65C280.781 169.022 276.966 169.376 273.149 169.732C268.683 170.164 264.229 170.579 259.778 170.994L252.891 171.636C252.853 171.562 252.815 171.486 252.775 171.412L259.757 170.761C264.209 170.347 268.661 169.932 273.13 169.531C276.947 169.175 280.762 168.82 284.58 168.48C289.032 168.065 293.501 167.664 297.953 167.249C304.72 166.633 311.501 166.032 318.268 165.434Z" fill="#C7C7C7"/>
<path d="M244.564 131.65L246.921 156.952C246.613 155.823 246.319 154.693 246.056 153.543C246.033 153.467 246.026 153.39 246.002 153.314C245.68 151.874 245.403 150.413 245.173 148.948C245.149 148.857 245.142 148.78 245.133 148.702C244.903 147.238 244.72 145.784 244.583 144.309L244.56 144.077C244.44 142.617 244.349 141.139 244.306 139.658C244.314 139.578 244.306 139.485 244.314 139.406C244.271 137.94 244.29 136.452 244.355 134.973C244.347 134.88 244.355 134.801 244.379 134.72C244.41 133.698 244.472 132.676 244.564 131.65Z" fill="#FFC727"/>
<path d="M269.099 126.124L255.719 127.371L260.278 176.29L273.658 175.043L269.099 126.124Z" fill="#FB7B88"/>
<path d="M296.502 151.533L283.121 152.78L285.097 173.983L298.478 172.736L296.502 151.533Z" fill="#B8D9BA"/>
<path d="M318.77 170.848L275.892 175.172L256.184 177.103C256.004 176.838 255.823 176.573 255.654 176.292L260.233 175.897L273.61 174.697L275.83 174.506L285.067 173.723L298.449 172.586L318.77 170.848Z" fill="#C7C7C7"/>
<path d="M274.019 178.937L260.639 180.184L260.711 180.965L274.092 179.718L274.019 178.937Z" fill="#C7C7C7"/>
<path d="M298.841 176.628L285.461 177.875L285.534 178.656L298.914 177.409L298.841 176.628Z" fill="#C7C7C7"/>
<path d="M307.023 220.515C261.402 215.855 228.076 174.947 232.736 129.325C237.396 83.7035 278.304 50.3773 323.926 55.0374C369.547 59.6975 402.874 100.604 398.213 146.227C393.553 191.849 352.645 225.175 307.023 220.515ZM307.992 211.03C348.384 215.155 384.603 185.651 388.728 145.259C392.855 104.867 363.349 68.6477 322.957 64.5228C282.565 60.3979 246.348 89.902 242.221 130.294C238.096 170.686 267.6 206.905 307.992 211.03Z" fill="#0E160E"/>
<path d="M387.397 112.828C384.514 104.554 380.164 96.7428 374.463 89.7303C361.596 73.9431 343.396 64.129 323.207 62.0606C303.019 60.0059 283.207 65.9446 267.432 78.7959C251.643 91.649 241.815 109.851 239.761 130.038C237.692 150.241 243.646 170.053 256.498 185.827C262.923 193.713 270.679 200.108 279.359 204.804C288.039 209.487 297.643 212.457 307.738 213.498C349.495 217.75 386.93 187.263 391.184 145.507C392.334 134.29 391.016 123.187 387.397 112.828ZM386.259 145.011C382.28 184.047 347.27 212.553 308.249 208.575C289.371 206.64 272.355 197.458 260.327 182.705C248.312 167.95 242.75 149.429 244.684 130.551C246.605 111.675 255.801 94.6571 270.554 82.63C285.308 70.615 303.832 65.0669 322.708 66.9874C341.586 68.9216 358.601 78.1041 370.615 92.8588C382.632 107.61 388.193 126.132 386.259 145.011ZM387.397 112.828C384.514 104.554 380.164 96.7428 374.463 89.7303C361.596 73.9431 343.396 64.129 323.207 62.0606C303.019 60.0059 283.207 65.9446 267.432 78.7959C251.643 91.649 241.815 109.851 239.761 130.038C237.692 150.241 243.646 170.053 256.498 185.827C262.923 193.713 270.679 200.108 279.359 204.804C288.039 209.487 297.643 212.457 307.738 213.498C349.495 217.75 386.93 187.263 391.184 145.507C392.334 134.29 391.016 123.187 387.397 112.828ZM386.259 145.011C382.28 184.047 347.27 212.553 308.249 208.575C289.371 206.64 272.355 197.458 260.327 182.705C248.312 167.95 242.75 149.429 244.684 130.551C246.605 111.675 255.801 94.6571 270.554 82.63C285.308 70.615 303.832 65.0669 322.708 66.9874C341.586 68.9216 358.601 78.1041 370.615 92.8588C382.632 107.61 388.193 126.132 386.259 145.011ZM396.405 109.708C393.168 100.382 388.271 91.5974 381.845 83.709C367.383 65.96 346.9 54.9035 324.176 52.5718C277.191 47.7792 235.078 82.0965 230.27 129.067C227.954 151.803 234.636 174.085 249.1 191.85C263.576 209.598 284.045 220.655 306.767 222.973C329.491 225.305 351.785 218.607 369.536 204.145C387.3 189.683 398.355 169.198 400.673 146.476C401.964 133.848 400.472 121.365 396.405 109.708ZM395.748 145.98C393.562 167.377 383.139 186.675 366.411 200.314C349.682 213.94 328.676 220.247 307.277 218.048C285.866 215.864 266.568 205.455 252.942 188.711C246.888 181.289 242.28 173.003 239.222 164.218C235.39 153.237 233.979 141.473 235.195 129.578C239.714 85.3145 279.416 52.9762 323.678 57.4951C355.846 60.7871 381.716 82.6369 391.707 111.343C395.466 122.131 396.989 133.884 395.748 145.98ZM374.463 89.7303C361.596 73.9431 343.396 64.129 323.207 62.0606C303.019 60.0059 283.207 65.9446 267.432 78.7959C251.643 91.649 241.815 109.851 239.761 130.038C237.692 150.241 243.646 170.053 256.498 185.827C262.923 193.713 270.679 200.108 279.359 204.804C288.039 209.487 297.643 212.457 307.738 213.498C349.495 217.75 386.93 187.263 391.184 145.507C392.335 134.29 391.016 123.187 387.397 112.828C384.514 104.554 380.164 96.7445 374.463 89.7303ZM386.259 145.011C382.28 184.047 347.27 212.553 308.249 208.575C289.371 206.64 272.355 197.458 260.327 182.705C248.312 167.95 242.75 149.429 244.684 130.551C246.605 111.675 255.801 94.6571 270.554 82.63C285.308 70.615 303.832 65.0669 322.708 66.9874C341.586 68.9216 358.601 78.1041 370.615 92.8588C382.632 107.61 388.193 126.132 386.259 145.011Z" fill="#0E160E"/>
<g opacity="0.2">
<path d="M370.303 92.3214C395.092 122.738 390.494 167.65 360.086 192.429C345.37 204.41 326.844 209.949 307.908 208.022C288.98 206.084 271.949 196.92 259.968 182.204C247.979 167.497 242.448 148.962 244.376 130.025C246.313 111.098 255.487 94.0767 270.194 82.0858C284.911 70.1051 303.436 64.5674 322.363 66.5034C341.291 68.4411 358.322 77.6047 370.303 92.3214Z" fill="white"/>
</g>
<path d="M130.226 78.1238L58 84.667L61.9009 131.7L134.127 125.157L130.226 78.1238Z" fill="#0E160E" stroke="#0E160E" stroke-miterlimit="10" stroke-linecap="round"/>
<path d="M74.2414 118.797L72.248 94.7829L67.7845 95.1869L67.4746 91.4531L81.4529 90.1878L81.7628 93.9216L77.3685 94.3194L79.3619 118.334L74.2414 118.797Z" fill="white"/>
<path d="M84.0938 117.961L87.3921 89.7174L92.8531 89.2228L100.753 116.452L96.018 116.881L94.3809 110.578L89.5077 111.019L88.8984 117.526L84.0938 117.961ZM89.7583 107.753L93.56 107.409L90.6937 95.9384L89.7583 107.753Z" fill="white"/>
<path d="M101.535 116.448L105.948 101.213L99.4077 88.6952L104.177 88.2632L108.519 96.5296L110.986 87.6465L115.41 87.2457L111.177 101.705L118.126 114.945L113.356 115.377L108.609 106.423L105.925 116.05L101.535 116.448Z" fill="white"/>
</g>
<path d="M63.3717 303.448C72.9659 303.448 80.7435 295.317 80.7435 285.286C80.7435 275.256 72.9659 267.125 63.3717 267.125C53.7776 267.125 46 275.256 46 285.286C46 295.317 53.7776 303.448 63.3717 303.448Z" fill="#B8D9BA"/>
<path d="M61.7473 295.552C61.5622 295.552 61.38 295.503 61.2169 295.41C61.0538 295.316 60.9149 295.181 60.8125 295.017L54.0847 284.23C54.0027 284.098 53.9458 283.951 53.9174 283.796C53.889 283.641 53.8895 283.481 53.919 283.327C53.9485 283.172 54.0063 283.025 54.0892 282.894C54.172 282.763 54.2783 282.651 54.4019 282.564C54.5247 282.476 54.6626 282.415 54.8076 282.384C54.9527 282.353 55.102 282.353 55.2469 282.385C55.3919 282.416 55.5298 282.477 55.6523 282.565C55.7749 282.654 55.8798 282.767 55.9611 282.898L61.761 292.198L72.3679 275.548C72.536 275.285 72.7953 275.103 73.0888 275.043C73.3824 274.983 73.6862 275.05 73.9338 275.228C74.0563 275.317 74.1611 275.43 74.2423 275.562C74.3235 275.694 74.3795 275.842 74.407 275.997C74.4346 276.152 74.4332 276.311 74.403 276.466C74.3727 276.62 74.3142 276.767 74.2307 276.897L62.6855 295.028C62.581 295.19 62.4409 295.323 62.2774 295.414C62.1139 295.505 61.9319 295.553 61.7473 295.552Z" fill="white"/>
<path d="M64.9134 338.125C70.369 338.125 74.7917 333.502 74.7917 327.798C74.7917 322.094 70.369 317.471 64.9134 317.471C59.4578 317.471 55.0352 322.094 55.0352 327.798C55.0352 333.502 59.4578 338.125 64.9134 338.125Z" fill="#B8D9BA"/>
<path d="M63.9897 333.635C63.8844 333.635 63.7808 333.607 63.6881 333.554C63.5953 333.501 63.5163 333.425 63.4581 333.331L59.6324 327.197C59.5858 327.122 59.5535 327.038 59.5373 326.95C59.5211 326.862 59.5214 326.772 59.5382 326.684C59.555 326.596 59.5878 326.512 59.635 326.438C59.6821 326.363 59.7425 326.299 59.8128 326.25C59.8826 326.2 59.961 326.165 60.0435 326.148C60.126 326.13 60.2109 326.13 60.2933 326.148C60.3758 326.166 60.4541 326.2 60.5238 326.251C60.5935 326.301 60.6532 326.365 60.6994 326.44L63.9974 331.728L70.0289 322.26C70.1246 322.111 70.272 322.007 70.4389 321.973C70.6058 321.939 70.7786 321.977 70.9194 322.078C70.989 322.129 71.0486 322.193 71.0948 322.268C71.141 322.343 71.1728 322.427 71.1885 322.516C71.2042 322.604 71.2034 322.694 71.1862 322.782C71.169 322.87 71.1357 322.954 71.0882 323.028L64.5232 333.337C64.4637 333.43 64.3841 333.505 64.2911 333.557C64.1981 333.609 64.0946 333.636 63.9897 333.635Z" fill="white"/>
</g>
<defs>
<filter id="filter0_d_1320_891" x="25.4609" y="36.125" width="486.55" height="411" filterUnits="userSpaceOnUse" color-interpolation-filters="sRGB">
<feFlood flood-opacity="0" result="BackgroundImageFix"/>
<feColorMatrix in="SourceAlpha" type="matrix" values="0 0 0 0 0 0 0 0 0 0 0 0 0 0 0 0 0 0 127 0" result="hardAlpha"/>
<feOffset dy="16"/>
<feGaussianBlur stdDeviation="16"/>
<feComposite in2="hardAlpha" operator="out"/>
<feColorMatrix type="matrix" values="0 0 0 0 0 0 0 0 0 0 0 0 0 0 0 0 0 0 0.08 0"/>
<feBlend mode="normal" in2="BackgroundImageFix" result="effect1_dropShadow_1320_891"/>
<feBlend mode="normal" in="SourceGraphic" in2="effect1_dropShadow_1320_891" result="shape"/>
</filter>
<clipPath id="clip0_1320_891">
<rect width="480" height="439" fill="white"/>
</clipPath>
</defs>
</svg>
