<svg width="530" height="406" viewBox="0 0 530 406" fill="none" xmlns="http://www.w3.org/2000/svg">
<g clip-path="url(#clip0_1334_892)">
<rect width="493" height="406" rx="20" fill="#FAF9F6"/>
<g filter="url(#filter0_d_1334_892)">
<path d="M163.958 44H81C71.6112 44 64 51.6112 64 61V346C64 355.389 71.6111 363 81 363H513C522.389 363 530 355.389 530 346V90.5C530 81.1112 522.389 73.5 513 73.5H207.542C203.033 73.5 198.709 71.7089 195.521 68.5208L175.979 48.9792C172.791 45.7911 168.467 44 163.958 44Z" fill="white"/>
</g>
<circle cx="91" cy="63" r="5" fill="#A78FE6"/>
<circle cx="113" cy="63" r="5" fill="#A78FE6"/>
<circle cx="135" cy="63" r="5" fill="#A78FE6"/>
<path d="M204.595 183.132L205.272 185.873C205.379 186.307 205.304 186.765 205.062 187.146C204.821 187.527 204.433 187.801 203.983 187.908L199.827 188.896L197.25 185.006L204.595 183.132Z" fill="#A78FE6"/>
<path d="M199.553 189.472C199.499 189.472 199.447 189.458 199.4 189.431C199.354 189.405 199.314 189.366 199.285 189.319L196.724 185.102C196.697 185.057 196.68 185.007 196.675 184.955C196.67 184.902 196.677 184.849 196.695 184.8C196.713 184.751 196.742 184.707 196.779 184.672C196.817 184.637 196.861 184.611 196.909 184.597L204.202 182.566C204.243 182.555 204.285 182.553 204.327 182.559C204.368 182.566 204.408 182.581 204.444 182.603C204.481 182.626 204.512 182.656 204.537 182.691C204.562 182.727 204.581 182.767 204.591 182.81L205.265 185.781C205.389 186.337 205.3 186.922 205.017 187.41C204.734 187.898 204.279 188.249 203.752 188.388L199.623 189.459C199.6 189.465 199.576 189.47 199.553 189.472ZM197.497 185.129L199.698 188.759L203.606 187.75C203.971 187.653 204.285 187.409 204.481 187.072C204.677 186.734 204.739 186.33 204.655 185.944L204.056 183.304L197.497 185.129Z" fill="#2C2837"/>
<path d="M188.719 128.398C188.719 128.398 192.52 127.709 194.314 133.929C196.196 140.442 197.529 155.776 200.27 163.107C202.623 169.402 206.904 172.257 207.52 176.268C208.33 181.537 204.178 182.966 204.178 182.966L197.131 184.861L188.027 170.177L188.719 128.398Z" fill="#CAB8FF"/>
<path d="M197.11 185.438C197.057 185.437 197.005 185.423 196.959 185.398C196.912 185.372 196.873 185.335 196.845 185.29L187.499 170.472C187.467 170.42 187.45 170.36 187.451 170.299L188.161 128.129C188.163 128.057 188.19 127.987 188.237 127.932C188.284 127.877 188.349 127.84 188.42 127.827C188.463 127.819 189.513 127.641 190.802 128.294C191.958 128.878 193.542 130.279 194.525 133.629C195.344 136.422 196.065 140.814 196.827 145.463C197.853 151.719 199.016 158.808 200.631 163.058C201.811 166.162 203.471 168.428 204.935 170.427C206.45 172.495 207.759 174.282 208.09 176.402C208.953 181.917 204.495 183.494 204.451 183.508H204.43L197.196 185.42C197.168 185.43 197.139 185.436 197.11 185.438ZM188.08 170.217L197.253 184.763L204.252 182.913C204.511 182.821 208.233 181.413 207.465 176.499C207.157 174.529 205.889 172.799 204.424 170.799C202.935 168.768 201.247 166.466 200.039 163.284C198.401 158.975 197.232 151.852 196.203 145.568C195.443 140.937 194.726 136.564 193.918 133.81C192.432 128.743 189.648 128.406 188.784 128.427L188.08 170.217Z" fill="#2C2837"/>
<path d="M139.132 183.132L138.503 185.873C138.404 186.307 138.473 186.765 138.698 187.146C138.922 187.527 139.282 187.801 139.7 187.908L143.559 188.896L145.952 185.006L139.132 183.132Z" fill="#A78FE6"/>
<path d="M143.656 189.472C143.631 189.472 143.606 189.469 143.581 189.464L139.451 188.392C138.923 188.253 138.468 187.902 138.185 187.414C137.902 186.926 137.813 186.34 137.938 185.784L138.612 182.81C138.622 182.767 138.64 182.727 138.665 182.691C138.69 182.656 138.722 182.626 138.758 182.603C138.794 182.581 138.834 182.566 138.876 182.559C138.917 182.553 138.96 182.555 139.001 182.566L146.293 184.599C146.341 184.613 146.386 184.638 146.423 184.674C146.46 184.709 146.489 184.753 146.507 184.802C146.525 184.851 146.532 184.904 146.527 184.956C146.522 185.009 146.506 185.059 146.479 185.104L143.917 189.324C143.888 189.369 143.85 189.406 143.804 189.432C143.759 189.458 143.708 189.472 143.656 189.472ZM139.153 183.296L138.554 185.938C138.47 186.324 138.532 186.729 138.728 187.067C138.924 187.404 139.238 187.648 139.603 187.746L143.511 188.755L145.712 185.122L139.153 183.296Z" fill="#2C2837"/>
<path d="M154.482 128.398C154.482 128.398 150.681 127.709 148.886 133.929C147.005 140.442 145.672 155.776 142.93 163.107C140.577 169.402 136.297 172.257 135.681 176.268C134.87 181.537 139.023 182.966 139.023 182.966L146.069 184.861L155.173 170.177L154.482 128.398Z" fill="#CAB8FF"/>
<path d="M146.082 185.437C146.055 185.438 146.027 185.434 146.001 185.426L138.77 183.514H138.749C138.705 183.499 134.249 181.93 135.111 176.407C135.442 174.287 136.751 172.5 138.265 170.43C139.729 168.432 141.388 166.166 142.567 163.061C144.182 158.812 145.344 151.721 146.377 145.465C147.139 140.815 147.86 136.423 148.679 133.63C149.662 130.279 151.245 128.88 152.4 128.294C153.685 127.641 154.734 127.819 154.782 127.827C154.853 127.84 154.918 127.877 154.965 127.932C155.013 127.987 155.04 128.057 155.042 128.129L155.75 170.304C155.752 170.365 155.735 170.425 155.702 170.476L146.36 185.296C146.33 185.342 146.288 185.379 146.239 185.403C146.191 185.428 146.136 185.44 146.082 185.437ZM138.938 182.912L145.934 184.763L155.104 170.215L154.4 128.414C153.538 128.393 150.749 128.739 149.268 133.798C148.46 136.553 147.744 140.923 146.985 145.557C145.955 151.842 144.788 158.965 143.15 163.275C141.94 166.458 140.254 168.76 138.767 170.791C137.301 172.794 136.035 174.525 135.727 176.491C134.96 181.409 138.675 182.819 138.938 182.912Z" fill="#2C2837"/>
<path d="M195.52 193.507H147.68V196.453C147.681 197.165 147.937 197.853 148.402 198.392C148.867 198.931 149.51 199.285 150.214 199.39C164.391 201.536 178.81 201.536 192.987 199.39C193.691 199.285 194.334 198.93 194.798 198.392C195.263 197.853 195.519 197.165 195.52 196.453V193.507Z" fill="#A78FE6"/>
<path d="M171.599 201C164.518 200.999 157.447 200.466 150.444 199.403C149.675 199.291 148.971 198.903 148.463 198.31C147.955 197.717 147.677 196.959 147.68 196.176V193.247C147.68 193.163 147.713 193.083 147.772 193.023C147.831 192.964 147.91 192.931 147.994 192.931H195.206C195.289 192.931 195.369 192.964 195.428 193.023C195.487 193.083 195.52 193.163 195.52 193.247V196.176C195.523 196.959 195.246 197.717 194.738 198.31C194.23 198.903 193.526 199.291 192.757 199.403C185.754 200.466 178.681 201 171.599 201ZM148.301 193.56V196.176C148.299 196.809 148.524 197.422 148.934 197.901C149.345 198.381 149.915 198.695 150.537 198.785C164.498 200.904 178.696 200.904 192.658 198.785C193.28 198.695 193.849 198.381 194.26 197.901C194.67 197.422 194.895 196.809 194.892 196.176V193.56H148.301Z" fill="#2C2837"/>
<path d="M195.083 193.558C179.513 195.796 163.708 195.796 148.138 193.558C145.369 193.039 142.919 191.282 143.846 188.502C150.413 170.857 154.87 150.561 154.77 128.375L171.608 134.1L188.488 128.375C189.268 153.222 193.325 174.825 199.371 188.502C200.253 190.963 197.843 192.998 195.083 193.558Z" fill="#CAB8FF"/>
<path d="M171.609 195.236C163.668 195.236 155.736 194.682 147.873 193.578C145.833 193.202 144.25 192.283 143.525 191.055C143.011 190.187 142.933 189.215 143.29 188.163C150.695 168.649 154.393 148.642 154.305 128.684C154.305 128.635 154.318 128.587 154.34 128.544C154.363 128.5 154.396 128.463 154.436 128.434C154.476 128.405 154.522 128.387 154.571 128.379C154.619 128.371 154.669 128.375 154.716 128.39L171.615 134.03L188.557 128.39C188.603 128.375 188.652 128.371 188.7 128.378C188.748 128.385 188.793 128.403 188.833 128.431C188.873 128.458 188.906 128.494 188.929 128.536C188.952 128.578 188.966 128.625 188.968 128.673C189.743 152.718 193.739 174.392 199.929 188.135C199.93 188.142 199.93 188.15 199.929 188.157C200.095 188.595 200.161 189.064 200.122 189.53C200.083 189.997 199.939 190.449 199.702 190.853C198.968 192.146 197.306 193.188 195.365 193.575H195.348C187.484 194.679 179.551 195.234 171.609 195.236ZM154.929 129.117C154.963 149.006 151.245 168.94 143.876 188.374C143.583 189.238 143.645 190.039 144.062 190.744C144.692 191.804 146.151 192.635 147.974 192.971C163.658 195.171 179.576 195.171 195.259 192.971C197.024 192.618 198.521 191.693 199.167 190.555C199.36 190.229 199.477 189.866 199.51 189.49C199.543 189.114 199.49 188.735 199.356 188.382C193.17 174.647 189.168 153.065 188.358 129.114L171.714 134.653C171.65 134.675 171.58 134.675 171.516 134.653L154.929 129.117Z" fill="#2C2837"/>
<path d="M187.79 189.296C177.07 191.068 166.123 191.068 155.403 189.296C155.181 189.259 154.968 189.179 154.779 189.059C154.589 188.94 154.427 188.783 154.301 188.599C154.176 188.415 154.09 188.208 154.049 187.991C154.008 187.773 154.013 187.55 154.063 187.334L157.334 173.433C157.428 173.026 157.68 172.672 158.035 172.444C158.39 172.216 158.822 172.131 159.239 172.209C167.41 173.706 175.792 173.706 183.964 172.209C184.381 172.131 184.812 172.216 185.167 172.444C185.523 172.672 185.774 173.026 185.869 173.433L189.139 187.334C189.19 187.55 189.195 187.775 189.153 187.993C189.112 188.211 189.025 188.419 188.899 188.603C188.772 188.787 188.608 188.943 188.418 189.063C188.227 189.182 188.013 189.261 187.79 189.296Z" fill="#A78FE6"/>
<path d="M171.596 190.625C166.249 190.625 160.912 190.181 155.639 189.301C155.378 189.257 155.129 189.16 154.907 189.017C154.685 188.874 154.494 188.687 154.347 188.468C154.2 188.25 154.1 188.005 154.053 187.747C154.005 187.489 154.012 187.224 154.072 186.969L157.286 173.092C157.397 172.61 157.69 172.19 158.105 171.919C158.519 171.648 159.022 171.547 159.51 171.637C167.503 173.119 175.701 173.119 183.694 171.637C184.181 171.546 184.685 171.647 185.099 171.918C185.513 172.19 185.806 172.61 185.916 173.092L189.13 186.969C189.191 187.224 189.197 187.489 189.15 187.747C189.103 188.005 189.003 188.251 188.856 188.468C188.708 188.687 188.517 188.874 188.295 189.017C188.073 189.16 187.824 189.256 187.564 189.301C182.287 190.181 176.946 190.624 171.596 190.625ZM159.157 172.221C158.862 172.221 158.576 172.321 158.346 172.505C158.115 172.688 157.954 172.944 157.889 173.231L154.674 187.108C154.633 187.281 154.628 187.461 154.66 187.636C154.692 187.811 154.76 187.978 154.86 188.126C154.96 188.276 155.09 188.404 155.241 188.501C155.393 188.599 155.563 188.665 155.742 188.694C166.242 190.449 176.963 190.449 187.464 188.694C187.641 188.665 187.81 188.6 187.961 188.504C188.112 188.407 188.242 188.281 188.342 188.132C188.442 187.984 188.511 187.816 188.544 187.64C188.576 187.464 188.573 187.284 188.533 187.109L185.318 173.232C185.244 172.905 185.045 172.62 184.763 172.435C184.482 172.251 184.14 172.183 183.81 172.244C175.741 173.74 167.466 173.74 159.397 172.244C159.318 172.229 159.238 172.222 159.157 172.221Z" fill="#2C2837"/>
<path d="M183.417 128.341L171.47 134.139L159.209 128.341V121.458C167.183 124.105 175.254 124.201 183.417 121.458V128.341Z" fill="#CAB8FF"/>
<path d="M171.758 134.139C171.712 134.139 171.666 134.129 171.624 134.109L159.385 128.328C159.332 128.303 159.288 128.263 159.257 128.215C159.226 128.166 159.209 128.109 159.209 128.051V121.187C159.209 121.138 159.221 121.09 159.244 121.047C159.267 121.004 159.299 120.966 159.34 120.938C159.38 120.91 159.426 120.892 159.475 120.885C159.523 120.878 159.573 120.882 159.62 120.898C167.618 123.55 175.679 123.55 183.581 120.898C183.628 120.883 183.678 120.879 183.727 120.886C183.775 120.893 183.822 120.912 183.862 120.94C183.902 120.968 183.935 121.005 183.958 121.048C183.981 121.091 183.993 121.139 183.994 121.187V128.051C183.993 128.109 183.977 128.165 183.946 128.213C183.915 128.262 183.871 128.301 183.819 128.327L171.896 134.108C171.853 134.128 171.806 134.139 171.758 134.139ZM159.832 127.855L171.756 133.489L183.371 127.856V121.608C175.604 124.124 167.689 124.124 159.832 121.608V127.855Z" fill="#2C2837"/>
<path d="M171.889 134.139C171.889 134.139 183.68 130.46 189.672 130.798C194.751 131.085 195.91 129.837 195.417 128.394C194.78 126.51 191.552 123.585 190.207 120.129C189.274 117.744 186.45 116.848 182.796 120.188C179.401 123.287 171.889 134.139 171.889 134.139Z" fill="#A78FE6"/>
<path d="M171.616 134.139C171.56 134.138 171.506 134.121 171.458 134.092C171.411 134.063 171.373 134.021 171.347 133.972C171.321 133.923 171.31 133.868 171.313 133.812C171.316 133.757 171.335 133.704 171.366 133.658C171.677 133.231 178.926 123.159 182.304 120.183C184.254 118.466 186.203 117.716 187.79 118.097C188.886 118.353 189.739 119.115 190.193 120.24C190.929 122.062 192.236 123.72 193.389 125.183C194.31 126.35 195.098 127.357 195.401 128.203C195.609 128.795 195.545 129.336 195.219 129.768C194.504 130.71 192.533 131.099 189.357 130.927C183.498 130.607 171.823 134.091 171.705 134.127C171.676 134.135 171.646 134.139 171.616 134.139ZM186.95 118.612C185.694 118.612 184.218 119.312 182.711 120.639C179.901 123.115 174.149 130.881 172.388 133.291C175.232 132.481 184.296 130.039 189.391 130.317C193.275 130.528 194.399 129.834 194.726 129.401C194.931 129.131 194.961 128.806 194.821 128.404C194.557 127.654 193.791 126.683 192.905 125.559C191.726 124.064 190.39 122.369 189.622 120.471C189.245 119.535 188.544 118.905 187.649 118.695C187.42 118.641 187.185 118.613 186.95 118.612Z" fill="#2C2837"/>
<path d="M171.888 134.139C171.888 134.139 159.808 130.46 153.672 130.798C148.468 131.085 147.281 129.837 147.786 128.394C148.438 126.51 151.745 123.585 153.124 120.129C154.08 117.744 156.973 116.848 160.714 120.188C164.193 123.287 171.888 134.139 171.888 134.139Z" fill="#A78FE6"/>
<path d="M171.577 134.139C171.546 134.139 171.516 134.135 171.487 134.127C171.37 134.091 159.7 130.606 153.841 130.927C150.668 131.1 148.697 130.709 147.983 129.767C147.655 129.336 147.592 128.794 147.8 128.202C148.096 127.356 148.887 126.352 149.819 125.181C150.971 123.718 152.279 122.06 153.014 120.238C153.469 119.112 154.321 118.35 155.415 118.094C157.002 117.721 158.951 118.463 160.9 120.181C164.277 123.157 171.527 133.231 171.835 133.658C171.866 133.704 171.884 133.757 171.887 133.812C171.891 133.868 171.879 133.923 171.853 133.972C171.828 134.021 171.789 134.063 171.742 134.092C171.695 134.121 171.64 134.138 171.585 134.139H171.577ZM154.647 130.295C159.841 130.295 168.106 132.524 170.8 133.291C169.041 130.881 163.291 123.114 160.481 120.637C158.686 119.055 156.932 118.363 155.545 118.688C154.652 118.898 153.952 119.528 153.573 120.464C152.805 122.367 151.47 124.062 150.292 125.553C149.406 126.677 148.64 127.649 148.377 128.398C148.236 128.8 148.267 129.126 148.471 129.396C148.798 129.829 149.929 130.524 153.806 130.312C154.079 130.302 154.363 130.295 154.655 130.295H154.647Z" fill="#2C2837"/>
<path d="M174.772 146.243C174.619 146.243 174.472 146.195 174.364 146.109C174.256 146.023 174.195 145.907 174.195 145.785V132.868C174.195 132.747 174.256 132.63 174.364 132.544C174.472 132.458 174.619 132.41 174.772 132.41C174.925 132.41 175.071 132.458 175.179 132.544C175.287 132.63 175.348 132.747 175.348 132.868V145.785C175.348 145.907 175.287 146.023 175.179 146.109C175.071 146.195 174.925 146.243 174.772 146.243Z" fill="#2C2837"/>
<path d="M175.06 146.819C174.831 146.819 174.611 146.736 174.449 146.587C174.286 146.438 174.195 146.237 174.195 146.027V132.625C174.195 132.415 174.286 132.214 174.449 132.065C174.611 131.917 174.831 131.833 175.06 131.833C175.289 131.833 175.509 131.917 175.671 132.065C175.833 132.214 175.924 132.415 175.924 132.625V146.027C175.924 146.237 175.833 146.438 175.671 146.587C175.509 146.736 175.289 146.819 175.06 146.819ZM175.06 132.456C175.011 132.456 174.965 132.474 174.931 132.505C174.896 132.537 174.877 132.579 174.877 132.624V146.025C174.877 146.07 174.896 146.112 174.93 146.144C174.965 146.175 175.011 146.193 175.06 146.193C175.109 146.193 175.155 146.175 175.189 146.144C175.224 146.112 175.243 146.07 175.243 146.025V132.624C175.243 132.579 175.224 132.536 175.189 132.505C175.155 132.473 175.109 132.456 175.06 132.456Z" fill="#2C2837"/>
<path d="M168.43 146.243C168.277 146.243 168.13 146.195 168.022 146.109C167.914 146.023 167.854 145.907 167.854 145.785V132.868C167.854 132.747 167.914 132.63 168.022 132.544C168.13 132.458 168.277 132.41 168.43 132.41C168.583 132.41 168.729 132.458 168.837 132.544C168.946 132.63 169.006 132.747 169.006 132.868V145.785C169.006 145.907 168.946 146.023 168.837 146.109C168.729 146.195 168.583 146.243 168.43 146.243Z" fill="#2C2837"/>
<path d="M168.142 146.819C167.913 146.819 167.693 146.736 167.531 146.587C167.368 146.438 167.277 146.237 167.277 146.027V132.625C167.277 132.415 167.368 132.214 167.531 132.065C167.693 131.917 167.913 131.833 168.142 131.833C168.371 131.833 168.591 131.917 168.753 132.065C168.915 132.214 169.007 132.415 169.007 132.625V146.027C169.007 146.237 168.915 146.438 168.753 146.587C168.591 146.736 168.371 146.819 168.142 146.819ZM168.142 132.456C168.093 132.456 168.047 132.474 168.013 132.505C167.979 132.537 167.959 132.579 167.959 132.624V146.025C167.959 146.07 167.978 146.112 168.012 146.144C168.047 146.175 168.093 146.193 168.142 146.193C168.191 146.193 168.237 146.175 168.272 146.144C168.306 146.112 168.325 146.07 168.325 146.025V132.624C168.325 132.579 168.306 132.536 168.272 132.505C168.237 132.473 168.191 132.456 168.142 132.456Z" fill="#2C2837"/>
<rect x="88.5" y="107.5" width="172" height="103" stroke="black" stroke-dasharray="2 2"/>
<rect x="84.5" y="203.5" width="11" height="11" fill="white" stroke="black"/>
<rect x="84.5" y="104.5" width="11" height="11" fill="white" stroke="black"/>
<rect x="253.5" y="101.5" width="11" height="11" fill="white" stroke="black"/>
<rect x="255.5" y="203.5" width="11" height="11" fill="white" stroke="black"/>
<rect x="333.5" y="98.5" width="99" height="237" rx="19.5" fill="#FAF9F6" stroke="#B8D9BA"/>
<path d="M368.312 130.412L396.88 132.985L390.147 120C385.207 122.395 380.047 122.299 374.905 120L368.312 130.412Z" fill="#FB7B88"/>
<path d="M397.286 133.851H397.243L368.732 131.288C368.654 131.279 368.579 131.251 368.514 131.207C368.45 131.162 368.397 131.102 368.362 131.033C368.327 130.964 368.31 130.887 368.313 130.809C368.316 130.732 368.338 130.656 368.378 130.589L374.957 120.223C375.018 120.129 375.111 120.059 375.22 120.027C375.329 119.994 375.447 120.001 375.551 120.046C380.666 122.329 385.649 122.332 390.358 120.046C390.469 119.994 390.596 119.986 390.713 120.023C390.83 120.061 390.928 120.142 390.985 120.249L397.697 133.175C397.732 133.246 397.749 133.324 397.745 133.402C397.741 133.48 397.717 133.556 397.676 133.623C397.634 133.69 397.576 133.746 397.506 133.785C397.437 133.824 397.359 133.845 397.279 133.846L397.286 133.851ZM369.587 130.426L396.48 132.854L390.365 121.062C385.63 123.217 380.65 123.21 375.549 121.036L369.587 130.426Z" fill="#2C2837"/>
<path d="M412.108 168.041L410.089 168.783C409.385 169.043 408.612 169.042 407.908 168.78C407.205 168.518 406.616 168.011 406.249 167.352L399.214 152.552C399.214 152.552 401.458 165.69 400.6 173.576C400.547 174.057 400.371 174.515 400.088 174.906C399.806 175.296 399.427 175.606 398.99 175.804C396.682 176.853 392.471 177.473 390.125 178V172.579H374.836V178C372.545 177.473 368.785 176.836 366.531 175.811C366.09 175.608 365.708 175.292 365.425 174.895C365.141 174.497 364.965 174.032 364.914 173.545C364.269 167.259 366.602 151.994 366.602 151.994L358.955 167.374C358.585 168.026 357.998 168.525 357.298 168.784C356.598 169.044 355.831 169.046 355.13 168.79L353.089 168.041C352.37 167.781 351.77 167.266 351.398 166.593C351.027 165.92 350.91 165.134 351.07 164.381C352.465 157.703 356.383 140.378 361.119 131.232C365.006 123.706 368.532 121.901 371.185 120.74C372.347 120.273 373.585 120.023 374.836 120.003C374.879 119.999 374.923 119.999 374.966 120.003C374.952 120.37 374.663 130.684 382.594 130.684C390.525 130.684 390.118 120.332 390.101 120.003H390.125C391.433 120.014 392.726 120.288 393.927 120.809C396.384 121.941 400.267 123.868 404.078 131.249C408.822 140.397 412.733 157.72 414.128 164.397C414.283 165.148 414.164 165.93 413.793 166.6C413.422 167.269 412.824 167.781 412.108 168.041Z" fill="#FB7B88"/>
<path d="M375.272 177.987C375.237 177.987 375.203 177.983 375.168 177.975C374.666 177.861 374.085 177.741 373.468 177.612C371.294 177.161 368.586 176.598 366.789 175.792C366.273 175.558 365.828 175.195 365.497 174.738C365.166 174.282 364.96 173.747 364.9 173.188C364.427 168.594 365.537 159.373 366.179 154.703L359.833 167.283L359.821 167.307C359.397 168.044 358.725 168.609 357.922 168.901C357.12 169.194 356.239 169.195 355.436 168.904L353.396 168.165C352.571 167.874 351.88 167.294 351.454 166.534C351.028 165.773 350.896 164.885 351.082 164.034C352.534 157.196 356.423 140.32 361.162 131.305C364.966 124.05 368.463 122.06 371.44 120.763C372.648 120.283 373.934 120.025 375.235 120.003C375.29 119.999 375.346 119.999 375.402 120.003C375.527 120.003 375.648 120.053 375.736 120.141C375.825 120.229 375.874 120.348 375.874 120.472V120.498C375.874 120.552 375.683 125.847 378.446 128.708C379.607 129.912 381.147 130.522 383.024 130.522C384.901 130.522 386.427 129.917 387.572 128.725C390.275 125.91 390.065 120.721 390.056 120.5V120.472C390.056 120.348 390.105 120.229 390.194 120.141C390.283 120.053 390.403 120.003 390.528 120.003C391.909 120.011 393.274 120.295 394.542 120.838C396.773 121.852 400.917 123.74 404.898 131.317C409.62 140.306 413.523 157.198 414.978 164.044C415.163 164.894 415.031 165.783 414.605 166.544C414.179 167.304 413.489 167.885 412.664 168.177L410.647 168.906C409.84 169.202 408.952 169.202 408.145 168.905C407.338 168.608 406.663 168.035 406.244 167.288L406.23 167.262L400.563 155.505C401.17 159.84 402.079 167.818 401.479 173.235C401.415 173.788 401.207 174.315 400.876 174.765C400.545 175.214 400.102 175.57 399.59 175.799C397.84 176.582 395.047 177.122 392.802 177.556C392.008 177.708 391.258 177.853 390.648 177.99C390.58 178.004 390.509 178.003 390.441 177.988C390.373 177.972 390.309 177.941 390.255 177.898C390.2 177.854 390.156 177.799 390.125 177.737C390.094 177.675 390.078 177.606 390.077 177.537V172.655H375.745V177.523C375.745 177.647 375.695 177.766 375.606 177.854C375.518 177.942 375.398 177.992 375.272 177.992V177.987ZM375.272 171.726H390.54C390.665 171.726 390.785 171.776 390.874 171.864C390.962 171.952 391.012 172.071 391.012 172.195V176.953C391.505 176.849 392.053 176.744 392.625 176.634C394.82 176.209 397.557 175.681 399.205 174.942C399.567 174.78 399.88 174.527 400.114 174.208C400.348 173.89 400.494 173.516 400.539 173.124C401.38 165.521 399.184 152.702 399.16 152.573C399.148 152.465 399.174 152.356 399.233 152.264C399.293 152.173 399.382 152.105 399.486 152.072C399.591 152.039 399.703 152.043 399.805 152.084C399.906 152.124 399.991 152.198 400.043 152.293L407.058 166.838C407.372 167.388 407.873 167.81 408.47 168.027C409.068 168.244 409.724 168.244 410.322 168.024L412.336 167.295C412.949 167.079 413.461 166.648 413.778 166.083C414.094 165.518 414.193 164.858 414.055 164.227C412.607 157.424 408.74 140.625 404.06 131.737C400.237 124.441 396.268 122.642 394.143 121.673C393.145 121.248 392.08 120.999 390.995 120.937C390.995 122.426 390.759 126.719 388.242 129.351C386.915 130.735 385.159 131.437 383.019 131.437C380.88 131.437 379.112 130.733 377.766 129.325C375.223 126.691 374.947 122.391 374.932 120.932C373.864 120.98 372.811 121.207 371.818 121.603C369.627 122.555 365.962 124.15 361.993 131.723C357.309 140.637 353.443 157.414 351.998 164.215C351.86 164.846 351.959 165.506 352.275 166.071C352.591 166.636 353.104 167.067 353.717 167.283L355.757 168.02C356.351 168.235 357.002 168.235 357.597 168.021C358.191 167.806 358.69 167.391 359.006 166.847L366.635 151.73C366.689 151.638 366.773 151.567 366.874 151.528C366.974 151.49 367.085 151.487 367.187 151.52C367.29 151.552 367.378 151.618 367.437 151.708C367.496 151.797 367.523 151.903 367.514 152.01C367.49 152.157 365.202 167.037 365.832 173.089C365.875 173.488 366.021 173.869 366.256 174.194C366.492 174.519 366.809 174.778 367.176 174.945C368.878 175.709 371.532 176.258 373.662 176.702L374.81 176.936V172.181C374.813 172.061 374.863 171.947 374.949 171.862C375.036 171.777 375.151 171.729 375.272 171.726Z" fill="#2C2837"/>
<path d="M389.955 120V171.94H375.238V120H375.363C375.35 120.363 375.072 130.55 382.706 130.55C390.339 130.55 389.948 120.325 389.932 120H389.955Z" fill="white"/>
<path d="M390.346 172.806H374.852C374.725 172.806 374.603 172.756 374.513 172.668C374.424 172.58 374.373 172.46 374.373 172.336V120.47C374.373 120.346 374.424 120.226 374.513 120.138C374.603 120.05 374.725 120 374.852 120H374.984C375.048 120 375.111 120.013 375.17 120.038C375.229 120.062 375.282 120.098 375.327 120.144C375.371 120.189 375.405 120.242 375.428 120.301C375.45 120.36 375.461 120.422 375.459 120.485C375.459 120.539 375.264 125.847 378.068 128.717C379.247 129.924 380.809 130.535 382.714 130.535C384.619 130.535 386.167 129.928 387.329 128.734C390.073 125.911 389.86 120.708 389.85 120.487C389.848 120.424 389.858 120.362 389.88 120.304C389.902 120.245 389.936 120.191 389.98 120.146C390.024 120.1 390.077 120.064 390.136 120.039C390.195 120.014 390.258 120.001 390.322 120C390.451 119.999 390.576 120.048 390.669 120.136C390.762 120.224 390.816 120.344 390.821 120.47V172.34C390.82 172.463 390.769 172.581 390.68 172.668C390.592 172.755 390.472 172.805 390.346 172.806ZM375.327 171.865H389.872V126.374C389.466 127.489 388.834 128.512 388.015 129.38C386.668 130.768 384.885 131.471 382.714 131.471C380.543 131.471 378.749 130.766 377.383 129.355C376.448 128.354 375.746 127.165 375.327 125.871V171.865Z" fill="#2C2837"/>
<rect x="344" y="194" width="78" height="4" rx="2" fill="#D9D9D9"/>
<path d="M382.991 224H364V299.116C364 300.709 365.466 302 367.269 302H374.74C376.546 302 378.009 300.709 378.009 299.116V246.372H382.991V299.116C382.991 300.709 384.454 302 386.26 302H393.731C395.537 302 397 300.709 397 299.116V224H382.991Z" fill="#A78FE6"/>
<path d="M394.08 302H386.407C384.253 302 382.501 300.486 382.501 298.622V247.147H378.482V298.622C378.482 300.486 376.73 302 374.576 302H366.903C364.752 302 363 300.486 363 298.622V224.542C363 224.398 363.058 224.26 363.162 224.159C363.266 224.057 363.407 224 363.554 224H397.446C397.593 224 397.734 224.057 397.838 224.159C397.942 224.26 398 224.398 398 224.542V298.622C397.986 300.486 396.234 302 394.08 302ZM377.933 246.08H383.045C383.192 246.08 383.333 246.137 383.437 246.238C383.541 246.34 383.599 246.478 383.599 246.622V298.638C383.599 299.911 384.858 300.946 386.407 300.946H394.08C395.63 300.946 396.888 299.911 396.888 298.638V225.078H364.095V298.622C364.095 299.895 365.356 300.93 366.903 300.93H374.576C376.126 300.93 377.387 299.895 377.387 298.622V246.605C377.391 246.466 377.45 246.333 377.552 246.236C377.654 246.138 377.79 246.082 377.933 246.08Z" fill="#2C2837"/>
<path d="M397 224H364V227H397V224Z" fill="white"/>
<path d="M397.446 228H363.554C363.407 228 363.266 227.944 363.162 227.844C363.058 227.744 363 227.608 363 227.467V224.533C363 224.392 363.058 224.256 363.162 224.156C363.266 224.056 363.407 224 363.554 224H397.446C397.593 224 397.734 224.056 397.838 224.156C397.942 224.256 398 224.392 398 224.533V227.467C398 227.608 397.942 227.744 397.838 227.844C397.734 227.944 397.593 228 397.446 228ZM364.103 226.933H396.897V225.067H364.103V226.933Z" fill="#2C2837"/>
<path d="M382 227H379V238H382V227Z" fill="white"/>
<path d="M381.546 239H379.454C379.333 239 379.218 238.942 379.133 238.84C379.048 238.738 379 238.599 379 238.455V227.545C379 227.401 379.048 227.262 379.133 227.16C379.218 227.057 379.333 227 379.454 227H381.546C381.667 227 381.782 227.057 381.867 227.16C381.952 227.262 382 227.401 382 227.545V238.455C382 238.599 381.952 238.738 381.867 238.84C381.782 238.942 381.667 239 381.546 239ZM379.902 237.909H381.098V228.091H379.902V237.909Z" fill="#2C2837"/>
<path d="M388.004 227.003C388.004 227.003 387.804 231.823 390.283 235.623C392.763 239.423 397 238.985 397 238.985V227L388.004 227.003Z" fill="white"/>
<path d="M397.015 239C395.784 239 392.482 238.701 390.354 235.691C387.828 232.12 387.995 227.691 388.006 227.504C388.014 227.368 388.075 227.239 388.177 227.146C388.279 227.052 388.414 227 388.555 227H397.451C397.597 227 397.736 227.056 397.839 227.156C397.942 227.256 398 227.392 398 227.533V238.467C398.001 238.599 397.951 238.727 397.86 238.825C397.77 238.924 397.644 238.986 397.509 239C397.465 238.987 397.29 239 397.015 239ZM389.092 228.067C389.128 229.288 389.405 232.499 391.248 235.104C393.03 237.627 395.784 237.939 396.9 237.957V228.067H389.092Z" fill="#2C2837"/>
<path d="M372.996 227.003C372.996 227.003 373.196 231.823 370.717 235.623C368.237 239.423 364 238.985 364 238.985V227L372.996 227.003Z" fill="white"/>
<path d="M363.968 239C363.694 239 363.521 238.987 363.488 238.984C363.354 238.97 363.229 238.907 363.139 238.809C363.049 238.71 362.999 238.583 363 238.451V227.533C363 227.391 363.058 227.256 363.161 227.156C363.264 227.056 363.403 227 363.549 227H372.449C372.589 227 372.724 227.052 372.826 227.146C372.928 227.239 372.99 227.367 372.997 227.503C372.997 227.69 373.173 232.113 370.646 235.679C368.504 238.702 365.203 239 363.968 239ZM364.084 228.081V237.959C365.2 237.94 367.955 237.628 369.738 235.109C371.587 232.499 371.864 229.298 371.897 228.081H364.084Z" fill="#2C2837"/>
<circle cx="146.5" cy="228.5" r="7.5" fill="#A78FE6"/>
<circle cx="168.5" cy="228.5" r="7.5" fill="#B8D9BA"/>
<circle cx="190.5" cy="228.5" r="7.5" fill="#FB7B88"/>
<rect x="176.5" y="302.5" width="109" height="33" rx="16.5" fill="#B8D9BA"/>
<rect x="176.5" y="302.5" width="109" height="33" rx="16.5" stroke="#4E4E4E"/>
<path d="M266.952 313.79H268.652L265.252 323.93H263.532L261.312 316.31L258.992 323.93H257.272L253.952 313.79H255.652L258.132 321.89L260.452 314.47H262.172L264.392 321.89L266.952 313.79Z" fill="#090B12"/>
<path d="M248.579 313.79C251.439 313.79 253.759 316.05 253.759 318.85V319.09C253.759 321.87 251.439 324.15 248.579 324.15H248.399C245.539 324.15 243.219 321.87 243.219 319.09V318.85C243.219 316.05 245.539 313.79 248.399 313.79H248.579ZM252.099 318.99V318.93C252.099 316.99 250.479 315.41 248.479 315.41C246.499 315.41 244.879 316.99 244.879 318.93V318.99C244.879 320.95 246.499 322.51 248.479 322.51C250.479 322.51 252.099 320.95 252.099 318.99Z" fill="#090B12"/>
<path d="M238.338 313.55C240.358 313.55 241.998 314.95 241.998 317.27V323.93H240.318V317.01C240.318 315.71 239.198 314.91 237.918 314.91C236.318 314.91 234.538 316.53 234.538 318.43V323.93H232.878V313.79H234.538V315.15C234.538 315.15 235.658 313.55 238.338 313.55Z" fill="#090B12"/>
<path d="M223.646 313.79H225.366L219.146 328.05H217.406L219.306 323.91L214.946 313.79H216.646L220.146 321.97L223.646 313.79Z" fill="#090B12"/>
<path d="M212.366 313.79H214.026V323.93H212.366V322.57C212.366 322.57 211.226 324.15 208.546 324.15C206.546 324.15 204.906 322.75 204.906 320.43V313.79H206.586V320.69C206.586 321.99 207.706 322.79 208.986 322.79C210.566 322.79 212.366 321.17 212.366 319.29V313.79Z" fill="#090B12"/>
<path d="M201.569 316.45C202.809 317.21 203.629 318.21 203.629 319.73V319.87C203.629 322.23 201.689 323.95 199.309 323.95H193.349V309.95H199.089C201.609 309.95 202.949 311.63 202.949 313.35C202.949 314.79 202.129 315.89 201.569 316.45ZM202.049 319.89V319.73C202.049 318.25 200.829 317.39 199.309 317.39H194.949V322.39H199.309C200.829 322.39 202.049 321.37 202.049 319.89ZM194.949 311.51V315.83H199.289C200.169 315.83 201.249 315.03 201.249 313.67C201.249 312.21 200.169 311.51 199.289 311.51H194.949Z" fill="#090B12"/>
<rect x="84" y="307" width="72" height="27" rx="4" fill="#EEEDEA"/>
<path fill-rule="evenodd" clip-rule="evenodd" d="M99 312.5C99 312.224 98.7761 312 98.5 312C98.2239 312 98 312.224 98 312.5V319H91.5C91.2239 319 91 319.224 91 319.5C91 319.776 91.2239 320 91.5 320H98V327.5C98 327.776 98.2239 328 98.5 328C98.7761 328 99 327.776 99 327.5V320H106.5C106.776 320 107 319.776 107 319.5C107 319.224 106.776 319 106.5 319H99V312.5Z" fill="black"/>
<path d="M117.403 325.4H124.283V327.04H115.003C114.983 326.64 115.063 326.24 115.203 325.86C115.803 324.24 117.283 322.92 118.603 321.86C120.123 320.6 121.143 319.62 121.683 318.88C122.223 318.16 122.483 317.46 122.483 316.82C122.483 315.3 121.303 314.38 119.843 314.38C118.123 314.38 117.103 315.5 117.103 317.2L115.323 317.02C115.563 314.36 117.243 312.96 119.883 312.96C121.243 312.96 122.303 313.32 123.083 314.08C123.863 314.82 124.263 315.74 124.263 316.86C124.263 318.2 123.623 319.24 122.783 320.22C122.243 320.82 121.363 321.64 120.123 322.7C119.083 323.56 118.423 324.14 118.123 324.46C117.823 324.76 117.583 325.08 117.403 325.4Z" fill="black"/>
<path fill-rule="evenodd" clip-rule="evenodd" d="M148.283 320C148.283 320.276 148.059 320.5 147.783 320.5L132.783 320.5C132.507 320.5 132.283 320.276 132.283 320C132.283 319.724 132.507 319.5 132.783 319.5L147.783 319.5C148.059 319.5 148.283 319.724 148.283 320Z" fill="black"/>
<rect x="84" y="254" width="154" height="5" rx="2.5" fill="#EBEAE8"/>
<rect x="84" y="265" width="99" height="5" rx="2.5" fill="#EBEAE8"/>
<circle cx="457" cy="235" r="9" fill="#A78FE6" fill-opacity="0.26"/>
<g filter="url(#filter1_d_1334_892)">
<path d="M504.362 271.733L459.06 233.443C458.474 232.948 457.654 232.86 456.971 233.218C456.288 233.577 455.914 234.293 456.017 235.041L463.982 292.949C464.076 293.633 464.552 294.195 465.224 294.415C465.896 294.636 466.624 294.468 467.124 293.979L478.443 282.89L489.055 302.055C489.389 302.657 490.027 303 490.685 303C490.981 303 491.281 302.931 491.559 302.785L497.845 299.483C498.28 299.255 498.597 298.876 498.739 298.415C498.88 297.955 498.829 297.468 498.595 297.045L487.99 277.894L503.515 274.857C504.211 274.721 504.756 274.221 504.938 273.552C505.119 272.884 504.898 272.187 504.362 271.733ZM486.328 274.869C485.505 275.029 484.829 275.546 484.472 276.285C484.116 277.025 484.14 277.862 484.538 278.581L494.902 297.297L491.3 299.189L480.93 280.462C480.532 279.744 479.828 279.265 478.999 279.148C478.871 279.13 478.742 279.121 478.615 279.121C477.923 279.121 477.264 279.386 476.766 279.874L466.914 289.525L459.895 238.499L499.806 272.232L486.328 274.869Z" fill="#090B12"/>
</g>
</g>
<defs>
<filter id="filter0_d_1334_892" x="24" y="24" width="546" height="399" filterUnits="userSpaceOnUse" color-interpolation-filters="sRGB">
<feFlood flood-opacity="0" result="BackgroundImageFix"/>
<feColorMatrix in="SourceAlpha" type="matrix" values="0 0 0 0 0 0 0 0 0 0 0 0 0 0 0 0 0 0 127 0" result="hardAlpha"/>
<feOffset dy="20"/>
<feGaussianBlur stdDeviation="20"/>
<feComposite in2="hardAlpha" operator="out"/>
<feColorMatrix type="matrix" values="0 0 0 0 0 0 0 0 0 0 0 0 0 0 0 0 0 0 0.08 0"/>
<feBlend mode="normal" in2="BackgroundImageFix" result="effect1_dropShadow_1334_892"/>
<feBlend mode="normal" in="SourceGraphic" in2="effect1_dropShadow_1334_892" result="shape"/>
</filter>
<filter id="filter1_d_1334_892" x="456" y="233" width="49" height="72" filterUnits="userSpaceOnUse" color-interpolation-filters="sRGB">
<feFlood flood-opacity="0" result="BackgroundImageFix"/>
<feColorMatrix in="SourceAlpha" type="matrix" values="0 0 0 0 0 0 0 0 0 0 0 0 0 0 0 0 0 0 127 0" result="hardAlpha"/>
<feOffset dy="2"/>
<feComposite in2="hardAlpha" operator="out"/>
<feColorMatrix type="matrix" values="0 0 0 0 0.654902 0 0 0 0 0.560784 0 0 0 0 0.901961 0 0 0 1 0"/>
<feBlend mode="normal" in2="BackgroundImageFix" result="effect1_dropShadow_1334_892"/>
<feBlend mode="normal" in="SourceGraphic" in2="effect1_dropShadow_1334_892" result="shape"/>
</filter>
<clipPath id="clip0_1334_892">
<rect width="530" height="406" fill="white"/>
</clipPath>
</defs>
</svg>
