<svg width="30" height="42" viewBox="0 0 30 42" fill="none" xmlns="http://www.w3.org/2000/svg">
<path d="M24.7124 0.259766H4.5874C2.20935 0.259766 0.274902 2.15216 0.274902 4.47852V36.8223C0.274902 39.1486 2.20935 41.041 4.5874 41.041H24.7124C27.0905 41.041 29.0249 39.1486 29.0249 36.8223V4.47852C29.0249 2.15216 27.0905 0.259766 24.7124 0.259766ZM4.5874 1.66602H24.7124C26.298 1.66602 27.5874 2.92735 27.5874 4.47852V34.0098H1.7124V4.47852C1.7124 2.92735 3.00213 1.66602 4.5874 1.66602ZM24.7124 39.6348H4.5874C3.00213 39.6348 1.7124 38.3734 1.7124 36.8223V35.416H27.5874V36.8223C27.5874 38.3734 26.298 39.6348 24.7124 39.6348ZM14.6499 28.3848C20.595 28.3848 25.4312 23.6538 25.4312 17.8379C25.4312 12.022 20.595 7.29102 14.6499 7.29102C8.70476 7.29102 3.86865 12.022 3.86865 17.8379C3.86865 23.6538 8.70512 28.3848 14.6499 28.3848ZM14.6499 8.69727C19.8019 8.69727 23.9937 12.7979 23.9937 17.8379C23.9937 22.8779 19.8019 26.9785 14.6499 26.9785C9.4979 26.9785 5.30615 22.8779 5.30615 17.8379C5.30615 12.7979 9.49754 8.69727 14.6499 8.69727ZM9.85167 16.3252C9.61233 15.8253 9.6878 15.2519 10.0485 14.8283L12.6603 11.7624C12.9137 11.4644 13.3668 11.4245 13.6725 11.6725C13.9774 11.921 14.0185 12.3646 13.7644 12.6633L11.153 15.7285H19.6811C20.0783 15.7285 20.3998 16.043 20.3998 16.4316C20.3998 16.8203 20.0783 17.1348 19.6811 17.1348H11.1533C10.5897 17.1348 10.0907 16.8244 9.85167 16.3252ZM8.8999 19.2441C8.8999 18.8555 9.22176 18.541 9.61865 18.541H18.1468C18.7104 18.541 19.2094 18.8514 19.4481 19.3506C19.6874 19.8504 19.6116 20.4238 19.2508 20.8482L16.6398 23.9134C16.4973 24.0802 16.293 24.1661 16.0867 24.1661C15.9245 24.1661 15.7617 24.1125 15.627 24.0034C15.3224 23.7548 15.2813 23.3112 15.535 23.0125L18.1461 19.9473H9.61865C9.22176 19.9473 8.8999 19.6328 8.8999 19.2441Z" fill="#E6001E"/>
</svg>
