<svg width="45" height="40" viewBox="0 0 45 40" fill="none" xmlns="http://www.w3.org/2000/svg">
<path d="M15.7144 32.5925H8.85297C7.13526 32.5925 5.41889 32.5925 3.70524 32.5925C3.21721 32.5958 2.7334 32.5022 2.28198 32.3171C1.83055 32.1321 1.42052 31.8593 1.07574 31.5147C0.730961 31.1701 0.458317 30.7606 0.273673 30.3099C0.0890304 29.8592 -0.00391572 29.3763 0.000226461 28.8895C0.000226461 20.4941 0.000226461 12.0987 0.000226461 3.70325C-0.00519552 3.21625 0.0867931 2.73307 0.270813 2.28197C0.454832 1.83087 0.727189 1.42092 1.07194 1.0761C1.41669 0.731282 1.8269 0.458515 2.27859 0.273775C2.73028 0.0890349 3.21437 -0.00396779 3.70253 0.000195689C16.0752 0.000195689 28.4505 0.000195689 40.8285 0.000195689C41.3169 -0.00483412 41.8014 0.0871435 42.2537 0.270781C42.7061 0.454418 43.1173 0.726035 43.4634 1.06981C43.8095 1.41358 44.0836 1.82264 44.2696 2.27313C44.4557 2.72363 44.55 3.20656 44.5471 3.69379C44.5525 12.0892 44.5525 20.4846 44.5471 28.88C44.5471 30.9748 42.9066 32.5898 40.8001 32.5925C36.9953 32.5925 33.19 32.5925 29.3843 32.5925H28.8343C28.9224 32.7885 28.9793 32.9263 29.047 33.0588C29.6579 34.2522 30.277 35.4401 30.8812 36.6375C31.7292 38.3188 30.6848 40 28.7937 40C24.4479 40 20.1012 40 15.7536 40C13.8571 40 12.8127 38.3242 13.6593 36.6402C14.254 35.4563 14.8691 34.2832 15.4746 33.1034C15.5464 32.9628 15.6128 32.8115 15.7144 32.5925ZM26.0098 1.47872V26.646H43.0597V4.03572C43.0597 2.38826 42.1602 1.49087 40.5115 1.48952H26.0166L26.0098 1.47872ZM24.4763 1.47872H3.97617C2.39527 1.47872 1.48494 2.39637 1.48358 3.98707V26.6311H24.4845L24.4763 1.47872ZM43.1098 28.1786H1.51068C1.33187 30.0923 2.25168 31.1127 4.12789 31.1127H39.8992C40.2081 31.1127 40.5183 31.1208 40.8272 31.1127C41.8134 31.0775 42.6695 30.4829 42.9269 29.5814C43.0516 29.149 43.0516 28.6732 43.1139 28.1826L43.1098 28.1786ZM22.2479 38.5201C24.4154 38.5201 26.5829 38.5201 28.7422 38.5201C29.5401 38.5201 29.8598 37.9998 29.5049 37.3038C28.7584 35.8361 28.0147 34.3657 27.2453 32.9088C27.1926 32.8266 27.1222 32.7571 27.0393 32.7055C26.9563 32.6538 26.8629 32.6212 26.7657 32.6101C23.7502 32.5921 20.7348 32.5921 17.7193 32.6101C17.6352 32.6159 17.5535 32.6404 17.4801 32.6818C17.4067 32.7232 17.3436 32.7804 17.2953 32.8493C16.4987 34.3616 15.7266 35.8874 14.9463 37.4079C14.7973 37.6971 14.7661 38.0174 15.0221 38.212C15.2604 38.3934 15.5479 38.4989 15.8471 38.5147C17.9916 38.5391 20.1252 38.5242 22.2642 38.5242L22.2479 38.5201Z" fill="#FF3A54"/>
<path d="M34.5288 15.5639H39.9068C40.511 15.5639 40.8253 15.8112 40.8348 16.2855C40.8456 16.7802 40.5219 17.0437 39.8974 17.0437C36.2849 17.0437 32.6688 17.0437 29.0492 17.0437C28.6211 17.0437 28.3217 16.8748 28.2364 16.4558C28.1878 16.2817 28.2093 16.0955 28.2964 15.9369C28.3834 15.7784 28.5291 15.66 28.7024 15.6071C28.8506 15.5648 29.0053 15.5497 29.1589 15.5625C30.9471 15.5634 32.737 15.5639 34.5288 15.5639Z" fill="#FF3A54"/>
<path d="M34.5699 19.2642C36.3933 19.2642 38.2167 19.2642 40.0401 19.2642C40.4112 19.2642 40.7174 19.4156 40.7797 19.7588C40.8056 20.0368 40.7333 20.3151 40.5752 20.5454C40.4844 20.6806 40.1959 20.7387 39.9954 20.7387C36.3486 20.7495 32.7018 20.7517 29.0551 20.7454C28.5132 20.7454 28.203 20.4535 28.2152 19.9832C28.226 19.5386 28.5335 19.2683 29.0537 19.2683C30.8934 19.2615 32.7316 19.2642 34.5699 19.2642Z" fill="#FF3A54"/>
<path d="M34.5224 22.9672C36.3607 22.9672 38.2004 22.9672 40.0386 22.9672C40.4085 22.9672 40.716 23.1172 40.7797 23.4605C40.8053 23.7383 40.7335 24.0163 40.5765 24.2471C40.4857 24.3822 40.1971 24.4403 39.998 24.4417C36.3512 24.4525 32.7045 24.4547 29.0577 24.4484C28.5158 24.4484 28.2043 24.1579 28.2151 23.6875C28.226 23.2429 28.5321 22.9713 29.0523 22.9699C30.8757 22.9663 32.6991 22.9654 34.5224 22.9672Z" fill="#FF3A54"/>
<path d="M30.4291 4.31934C30.6905 4.52341 30.9926 4.64639 31.0712 4.85993C31.1155 4.99137 31.1321 5.13052 31.12 5.26866C31.1078 5.4068 31.0673 5.54095 31.0007 5.66271C30.5158 6.39251 29.978 7.08852 29.4307 7.77508C29.2139 8.04537 29.1814 8.23323 29.4171 8.52245C29.9509 9.17927 30.4453 9.87393 30.9479 10.5497C31.2852 11.0065 31.2527 11.4565 30.8761 11.7268C30.4995 11.9971 30.0809 11.8876 29.7571 11.4565C29.0676 10.5483 28.393 9.62931 27.6994 8.72517C27.4041 8.34 27.3892 7.98455 27.6872 7.59533C28.3876 6.67767 29.0676 5.7438 29.7775 4.83155C29.9251 4.64099 30.1636 4.52206 30.4291 4.31934Z" fill="#FF3A54"/>
<path d="M37.8613 4.33008C38.1241 4.51523 38.3639 4.61389 38.502 4.79228C39.239 5.73832 39.9529 6.70733 40.6695 7.67094C40.7846 7.80851 40.8466 7.98258 40.8444 8.16175C40.8421 8.34092 40.7758 8.51339 40.6573 8.64806C39.9448 9.5941 39.239 10.5496 38.5197 11.4862C38.2149 11.8916 37.7773 11.9646 37.4264 11.7132C37.0756 11.4618 37.02 10.9996 37.3289 10.5739C37.841 9.87926 38.3449 9.17784 38.8868 8.50886C39.1225 8.21964 39.0886 8.03314 38.8732 7.76149C38.3313 7.07494 37.7895 6.37757 37.3032 5.64777C37.2366 5.52628 37.196 5.39234 37.1839 5.25441C37.1717 5.11648 37.1884 4.97754 37.2327 4.84635C37.3126 4.64633 37.6147 4.52334 37.8613 4.33008Z" fill="#FF3A54"/>
<path d="M35.6341 5.3439C35.4674 6.00207 35.2751 6.7616 35.0841 7.51978C34.7738 8.75639 34.4704 9.99435 34.1521 11.2283C34.0261 11.7107 33.6522 11.9432 33.2241 11.8405C32.796 11.7378 32.5779 11.3337 32.6958 10.8566C33.1762 8.92037 33.6644 6.98325 34.1602 5.04522C34.2753 4.59383 34.5937 4.38705 35.0123 4.44651C35.3943 4.50598 35.649 4.82493 35.6341 5.3439Z" fill="#FF3A54"/>
<path d="M13.3426 14.0771H5.31893C4.30428 14.0771 3.71094 13.4838 3.71094 12.4715C3.71094 10.0803 3.71094 7.68951 3.71094 5.29918C3.71094 4.31395 4.31106 3.7085 5.28913 3.7085H21.43C22.4135 3.7085 23.0136 4.3099 23.0149 5.29108C23.0149 7.6814 23.0149 10.0722 23.0149 12.4634C23.0149 13.4824 22.4257 14.0771 21.4137 14.0771C18.7234 14.0771 16.033 14.0771 13.3426 14.0771ZM5.21461 12.5648H21.4937V5.20999H5.21461V12.5648Z" fill="#FF3A54"/>
<path d="M8.19875 15.5638C9.17276 15.5638 10.1454 15.5638 11.1194 15.5638C11.3166 15.5584 11.5128 15.5931 11.696 15.6659C11.8792 15.7387 12.0457 15.848 12.1852 15.9872C12.3246 16.1263 12.4342 16.2924 12.5071 16.4752C12.5801 16.658 12.615 16.8537 12.6095 17.0504C12.615 19.0245 12.615 20.9981 12.6095 22.9712C12.6156 23.1688 12.5809 23.3655 12.5077 23.5491C12.4344 23.7328 12.3241 23.8995 12.1837 24.0388C12.0432 24.1782 11.8755 24.2873 11.6911 24.3594C11.5066 24.4315 11.3093 24.465 11.1113 24.4579C9.13347 24.4633 7.15565 24.4633 5.17784 24.4579C4.9841 24.4619 4.79154 24.427 4.61161 24.3552C4.43169 24.2834 4.2681 24.1762 4.13057 24.04C3.99304 23.9038 3.88439 23.7414 3.8111 23.5624C3.73781 23.3834 3.70137 23.1916 3.70396 22.9983C3.69764 21.0107 3.69764 19.0218 3.70396 17.0315C3.70157 16.8373 3.73831 16.6446 3.81199 16.4648C3.88568 16.285 3.9948 16.1219 4.1329 15.985C4.271 15.8481 4.43525 15.7403 4.61591 15.6679C4.79658 15.5955 4.98998 15.5601 5.18462 15.5638C6.18978 15.5543 7.19359 15.5638 8.19875 15.5638ZM11.114 17.0774H5.22932V22.9469H11.114V17.0774Z" fill="#FF3A54"/>
<path d="M23.0126 20.0061C23.0126 20.9778 23.0126 21.9495 23.0126 22.9199C23.0126 23.8362 22.3921 24.4457 21.4655 24.447C19.5175 24.447 17.57 24.447 15.6228 24.447C14.7315 24.447 14.107 23.824 14.1056 22.9388C14.1002 20.98 14.1002 19.0217 14.1056 17.0639C14.1056 16.1814 14.7355 15.5624 15.6283 15.561C17.5763 15.561 19.5234 15.561 21.4696 15.561C22.3921 15.561 23.0085 16.1746 23.0126 17.0923C23.0166 18.064 23.0126 19.0343 23.0126 20.0061ZM15.6201 17.0598V22.9307H21.5035V17.0598H15.6201Z" fill="#FF3A54"/>
</svg>
